<svg width="52" height="12" viewBox="0 0 52 12" fill="none" xmlns="http://www.w3.org/2000/svg">
<rect width="52" height="12" rx="6" fill="#2F80ED"/>
<g clip-path="url(#clip0_32_156)">
<path d="M9.861 2.18C9.80676 2.21472 9.75992 2.25982 9.72315 2.31269C9.68639 2.36557 9.66043 2.42519 9.64677 2.48812C9.63312 2.55106 9.63202 2.61607 9.64356 2.67943C9.6551 2.74279 9.67903 2.80325 9.714 2.85733C10.5227 4.11 10.7137 5.05467 10.6307 5.88233C10.296 7.46767 9.56833 7.78933 8.93267 7.78933C8.31167 7.78933 8.478 6.76767 8.94467 6.46867C9.22333 6.29467 9.58 6.18166 9.854 6.18166C10.1253 6.18166 10.3453 5.96233 10.3453 5.69167C10.3453 5.421 10.1253 5.20167 9.854 5.20167C9.534 5.20167 9.22033 5.269 8.92733 5.38333C8.98733 5.101 9.00933 4.796 8.932 4.47167C8.81467 3.97933 8.47633 3.50867 7.88933 3.05267C7.7865 2.97268 7.65615 2.93675 7.52686 2.95275C7.39757 2.96875 7.2799 3.03537 7.19967 3.138C7.033 3.35133 7.07167 3.65933 7.286 3.82567C7.76433 4.197 7.922 4.472 7.976 4.69833C8.03 4.92467 7.98667 5.16733 7.87833 5.501C7.73967 5.95067 7.57833 6.352 7.50833 6.737C7.47333 6.92633 7.47033 7.13267 7.46167 7.297C7.117 6.96167 6.98233 6.51833 6.98233 5.87067C6.98233 5.60033 6.76233 5.38067 6.491 5.38067C6.21967 5.381 6 5.60033 6 5.87067C6 6.75533 6.25867 7.597 6.95167 8.15833C7.57933 8.756 9.175 8.535 9.175 9.495C9.175 9.76567 9.57167 9.89767 9.843 9.89767C10.121 9.89767 10.4713 9.71167 10.4713 9.495C10.4713 8.406 11.619 7.744 13.508 7.747C13.5724 7.74717 13.6363 7.73466 13.6959 7.71016C13.7555 7.68566 13.8097 7.64967 13.8553 7.60423C13.901 7.55879 13.9373 7.5048 13.9621 7.44533C13.987 7.38587 13.9998 7.3221 14 7.25767C14.0001 7.12759 13.9485 7.0028 13.8566 6.91073C13.7648 6.81866 13.6401 6.76684 13.51 6.76666C13.3807 6.76666 13.255 6.771 13.1307 6.77833C13.342 6.28167 13.4357 5.735 13.4163 5.144C13.4117 5.01399 13.3557 4.89112 13.2606 4.80237C13.1655 4.71363 13.039 4.66626 12.909 4.67067C12.779 4.67476 12.6559 4.73032 12.5668 4.82515C12.4777 4.91997 12.43 5.04629 12.434 5.17633C12.4593 5.94967 12.4307 6.64067 11.854 7.00466C11.6907 7.108 11.5 7.198 11.3193 7.198C11.4593 6.81633 11.5653 6.41367 11.609 5.97967C11.6367 5.703 11.6393 5.37367 11.608 5.118C11.5587 4.722 11.4997 4.273 11.65 3.93467C11.785 3.64333 12.0877 3.52133 12.5317 3.52133C12.803 3.52133 13.0227 3.30167 13.0227 3.03133C13.0227 2.761 12.803 2.54133 12.5317 2.54133C11.8717 2.54133 11.3713 2.88867 11.0877 3.308C10.9393 2.99133 10.7587 2.665 10.5403 2.327C10.4697 2.21754 10.3585 2.1406 10.2312 2.11309C10.1039 2.08559 9.97083 2.10978 9.86133 2.18033L9.861 2.18Z" fill="black"/>
</g>
<path d="M16.77 8C16.71 8 16.662 7.986 16.626 7.958C16.594 7.93 16.568 7.892 16.548 7.844L15.21 3.986C15.202 3.962 15.198 3.94 15.198 3.92C15.198 3.888 15.21 3.86 15.234 3.836C15.258 3.812 15.286 3.8 15.318 3.8H15.63C15.678 3.8 15.714 3.814 15.738 3.842C15.766 3.866 15.782 3.888 15.786 3.908L16.962 7.31L18.138 3.908C18.146 3.888 18.162 3.866 18.186 3.842C18.21 3.814 18.246 3.8 18.294 3.8H18.606C18.638 3.8 18.666 3.812 18.69 3.836C18.718 3.86 18.732 3.888 18.732 3.92C18.732 3.94 18.728 3.962 18.72 3.986L17.376 7.844C17.36 7.892 17.334 7.93 17.298 7.958C17.266 7.986 17.22 8 17.16 8H16.77ZM20.663 8.06C20.315 8.06 20.023 8.008 19.787 7.904C19.551 7.796 19.369 7.658 19.241 7.49C19.117 7.318 19.051 7.136 19.043 6.944C19.043 6.912 19.055 6.884 19.079 6.86C19.107 6.832 19.139 6.818 19.175 6.818H19.481C19.529 6.818 19.565 6.83 19.589 6.854C19.613 6.878 19.629 6.906 19.637 6.938C19.657 7.034 19.705 7.13 19.781 7.226C19.861 7.318 19.971 7.396 20.111 7.46C20.255 7.52 20.439 7.55 20.663 7.55C21.007 7.55 21.259 7.49 21.419 7.37C21.583 7.246 21.665 7.082 21.665 6.878C21.665 6.738 21.621 6.626 21.533 6.542C21.449 6.454 21.319 6.376 21.143 6.308C20.967 6.24 20.739 6.166 20.459 6.086C20.167 6.002 19.925 5.91 19.733 5.81C19.541 5.71 19.397 5.586 19.301 5.438C19.209 5.29 19.163 5.102 19.163 4.874C19.163 4.658 19.221 4.466 19.337 4.298C19.453 4.126 19.619 3.99 19.835 3.89C20.055 3.79 20.321 3.74 20.633 3.74C20.881 3.74 21.097 3.774 21.281 3.842C21.469 3.906 21.625 3.994 21.749 4.106C21.873 4.214 21.967 4.332 22.031 4.46C22.095 4.584 22.129 4.706 22.133 4.826C22.133 4.854 22.123 4.882 22.103 4.91C22.083 4.934 22.051 4.946 22.007 4.946H21.689C21.661 4.946 21.631 4.938 21.599 4.922C21.571 4.906 21.549 4.876 21.533 4.832C21.509 4.668 21.417 4.53 21.257 4.418C21.097 4.306 20.889 4.25 20.633 4.25C20.373 4.25 20.161 4.3 19.997 4.4C19.837 4.5 19.757 4.656 19.757 4.868C19.757 5.004 19.795 5.118 19.871 5.21C19.947 5.298 20.067 5.376 20.231 5.444C20.395 5.512 20.609 5.584 20.873 5.66C21.193 5.748 21.455 5.842 21.659 5.942C21.863 6.038 22.013 6.16 22.109 6.308C22.209 6.452 22.259 6.638 22.259 6.866C22.259 7.118 22.193 7.334 22.061 7.514C21.929 7.69 21.743 7.826 21.503 7.922C21.267 8.014 20.987 8.06 20.663 8.06ZM24.5574 8.06C24.1894 8.06 23.8834 7.992 23.6394 7.856C23.3994 7.72 23.2174 7.53 23.0934 7.286C22.9694 7.042 22.9014 6.758 22.8894 6.434C22.8854 6.27 22.8834 6.094 22.8834 5.906C22.8834 5.718 22.8854 5.538 22.8894 5.366C22.9014 5.042 22.9694 4.758 23.0934 4.514C23.2174 4.27 23.3994 4.08 23.6394 3.944C23.8834 3.808 24.1894 3.74 24.5574 3.74C24.8334 3.74 25.0754 3.778 25.2834 3.854C25.4914 3.93 25.6634 4.032 25.7994 4.16C25.9394 4.288 26.0454 4.432 26.1174 4.592C26.1894 4.748 26.2294 4.91 26.2374 5.078C26.2414 5.114 26.2294 5.144 26.2014 5.168C26.1774 5.192 26.1474 5.204 26.1114 5.204H25.7814C25.7454 5.204 25.7134 5.194 25.6854 5.174C25.6614 5.154 25.6434 5.118 25.6314 5.066C25.5634 4.754 25.4354 4.54 25.2474 4.424C25.0634 4.308 24.8314 4.25 24.5514 4.25C24.2314 4.25 23.9774 4.342 23.7894 4.526C23.6014 4.706 23.4994 4.996 23.4834 5.396C23.4714 5.724 23.4714 6.06 23.4834 6.404C23.4994 6.804 23.6014 7.096 23.7894 7.28C23.9774 7.46 24.2314 7.55 24.5514 7.55C24.8314 7.55 25.0634 7.492 25.2474 7.376C25.4354 7.26 25.5634 7.046 25.6314 6.734C25.6434 6.682 25.6614 6.646 25.6854 6.626C25.7134 6.606 25.7454 6.596 25.7814 6.596H26.1114C26.1474 6.596 26.1774 6.608 26.2014 6.632C26.2294 6.656 26.2414 6.686 26.2374 6.722C26.2294 6.89 26.1894 7.054 26.1174 7.214C26.0454 7.37 25.9394 7.512 25.7994 7.64C25.6634 7.768 25.4914 7.87 25.2834 7.946C25.0754 8.022 24.8334 8.06 24.5574 8.06ZM28.5475 8.06C28.2075 8.06 27.9155 8.002 27.6715 7.886C27.4275 7.766 27.2395 7.584 27.1075 7.34C26.9755 7.092 26.9015 6.782 26.8855 6.41C26.8815 6.234 26.8795 6.066 26.8795 5.906C26.8795 5.742 26.8815 5.572 26.8855 5.396C26.9015 5.028 26.9775 4.722 27.1135 4.478C27.2535 4.23 27.4455 4.046 27.6895 3.926C27.9375 3.802 28.2235 3.74 28.5475 3.74C28.8755 3.74 29.1615 3.802 29.4055 3.926C29.6535 4.046 29.8475 4.23 29.9875 4.478C30.1275 4.722 30.2035 5.028 30.2155 5.396C30.2235 5.572 30.2275 5.742 30.2275 5.906C30.2275 6.066 30.2235 6.234 30.2155 6.41C30.2035 6.782 30.1295 7.092 29.9935 7.34C29.8615 7.584 29.6735 7.766 29.4295 7.886C29.1855 8.002 28.8915 8.06 28.5475 8.06ZM28.5475 7.55C28.8555 7.55 29.1055 7.458 29.2975 7.274C29.4935 7.09 29.5995 6.792 29.6155 6.38C29.6235 6.2 29.6275 6.04 29.6275 5.9C29.6275 5.756 29.6235 5.596 29.6155 5.42C29.6075 5.144 29.5555 4.92 29.4595 4.748C29.3675 4.576 29.2435 4.45 29.0875 4.37C28.9315 4.29 28.7515 4.25 28.5475 4.25C28.3515 4.25 28.1755 4.29 28.0195 4.37C27.8635 4.45 27.7375 4.576 27.6415 4.748C27.5495 4.92 27.4975 5.144 27.4855 5.42C27.4815 5.596 27.4795 5.756 27.4795 5.9C27.4795 6.04 27.4815 6.2 27.4855 6.38C27.5015 6.792 27.6075 7.09 27.8035 7.274C27.9995 7.458 28.2475 7.55 28.5475 7.55ZM31.2401 8C31.1961 8 31.1621 7.988 31.1381 7.964C31.1141 7.936 31.1021 7.902 31.1021 7.862V3.944C31.1021 3.9 31.1141 3.866 31.1381 3.842C31.1621 3.814 31.1961 3.8 31.2401 3.8H32.6021C33.0141 3.8 33.3461 3.862 33.5981 3.986C33.8501 4.11 34.0341 4.294 34.1501 4.538C34.2661 4.778 34.3261 5.074 34.3301 5.426C34.3341 5.606 34.3361 5.764 34.3361 5.9C34.3361 6.036 34.3341 6.192 34.3301 6.368C34.3221 6.736 34.2601 7.042 34.1441 7.286C34.0321 7.526 33.8521 7.706 33.6041 7.826C33.3601 7.942 33.0361 8 32.6321 8H31.2401ZM31.6901 7.49H32.6021C32.8781 7.49 33.0981 7.452 33.2621 7.376C33.4261 7.3 33.5441 7.178 33.6161 7.01C33.6921 6.842 33.7321 6.62 33.7361 6.344C33.7441 6.224 33.7481 6.12 33.7481 6.032C33.7481 5.94 33.7481 5.85 33.7481 5.762C33.7481 5.67 33.7441 5.566 33.7361 5.45C33.7281 5.062 33.6361 4.776 33.4601 4.592C33.2841 4.404 32.9881 4.31 32.5721 4.31H31.6901V7.49ZM35.3768 8C35.3328 8 35.2988 7.988 35.2748 7.964C35.2508 7.936 35.2388 7.902 35.2388 7.862V3.938C35.2388 3.898 35.2508 3.866 35.2748 3.842C35.2988 3.814 35.3328 3.8 35.3768 3.8H35.6948C35.7348 3.8 35.7668 3.814 35.7908 3.842C35.8188 3.866 35.8328 3.898 35.8328 3.938V7.862C35.8328 7.902 35.8188 7.936 35.7908 7.964C35.7668 7.988 35.7348 8 35.6948 8H35.3768ZM38.4634 8.06C38.1274 8.06 37.8374 8 37.5934 7.88C37.3534 7.76 37.1674 7.578 37.0354 7.334C36.9074 7.086 36.8434 6.768 36.8434 6.38V3.944C36.8434 3.9 36.8554 3.866 36.8794 3.842C36.9034 3.814 36.9374 3.8 36.9814 3.8H37.2874C37.3314 3.8 37.3654 3.814 37.3894 3.842C37.4174 3.866 37.4314 3.9 37.4314 3.944V6.392C37.4314 6.784 37.5234 7.074 37.7074 7.262C37.8914 7.45 38.1434 7.544 38.4634 7.544C38.7794 7.544 39.0294 7.45 39.2134 7.262C39.4014 7.074 39.4954 6.784 39.4954 6.392V3.944C39.4954 3.9 39.5074 3.866 39.5314 3.842C39.5594 3.814 39.5934 3.8 39.6334 3.8H39.9454C39.9854 3.8 40.0174 3.814 40.0414 3.842C40.0694 3.866 40.0834 3.9 40.0834 3.944V6.38C40.0834 6.768 40.0174 7.086 39.8854 7.334C39.7574 7.578 39.5734 7.76 39.3334 7.88C39.0934 8 38.8034 8.06 38.4634 8.06ZM41.2245 8C41.1845 8 41.1505 7.988 41.1225 7.964C41.0985 7.936 41.0865 7.902 41.0865 7.862V3.944C41.0865 3.9 41.0985 3.866 41.1225 3.842C41.1505 3.814 41.1845 3.8 41.2245 3.8H41.5245C41.5725 3.8 41.6085 3.812 41.6325 3.836C41.6565 3.86 41.6705 3.88 41.6745 3.896L42.9465 6.32L44.2245 3.896C44.2325 3.88 44.2465 3.86 44.2665 3.836C44.2905 3.812 44.3265 3.8 44.3745 3.8H44.6685C44.7125 3.8 44.7465 3.814 44.7705 3.842C44.7985 3.866 44.8125 3.9 44.8125 3.944V7.862C44.8125 7.902 44.7985 7.936 44.7705 7.964C44.7465 7.988 44.7125 8 44.6685 8H44.3745C44.3345 8 44.3005 7.988 44.2725 7.964C44.2485 7.936 44.2365 7.902 44.2365 7.862V4.91L43.2345 6.866C43.2185 6.906 43.1945 6.938 43.1625 6.962C43.1305 6.982 43.0905 6.992 43.0425 6.992H42.8565C42.8045 6.992 42.7625 6.982 42.7305 6.962C42.7025 6.938 42.6785 6.906 42.6585 6.866L41.6565 4.91V7.862C41.6565 7.902 41.6425 7.936 41.6145 7.964C41.5905 7.988 41.5585 8 41.5185 8H41.2245Z" fill="black"/>
<defs>
<clipPath id="clip0_32_156">
<rect width="8" height="8" fill="white" transform="translate(6 2)"/>
</clipPath>
</defs>
</svg>
