<svg width="45" height="12" viewBox="0 0 45 12" fill="none" xmlns="http://www.w3.org/2000/svg">
<rect width="45" height="12" rx="6" fill="black"/>
<g clip-path="url(#clip0_20_907)">
<path d="M6 2V10H14V2H6ZM7.241 3.037H8.90767V3.64833H8.44433V5.74067H8.90767V6.352H7.241V5.74067H7.72233V3.64833H7.241V3.037ZM10.926 3.037H11.6667V5.20367C11.6667 5.40767 11.6483 5.574 11.5927 5.72233C11.537 5.87033 11.4627 5.98133 11.3517 6.09233C11.2593 6.18533 11.1297 6.278 10.9817 6.315C10.8284 6.37592 10.665 6.40736 10.5 6.40767C10.2407 6.40767 10.0187 6.352 9.852 6.25933C9.69058 6.16757 9.54632 6.04847 9.42567 5.90733L9.889 5.389C9.98133 5.50033 10.074 5.574 10.1667 5.62967C10.259 5.68533 10.3703 5.72233 10.4817 5.72233C10.6113 5.72233 10.722 5.68533 10.815 5.59267C10.8887 5.5 10.926 5.37033 10.926 5.16667V3.037ZM6.74067 8.5H9.74067V9H6.74067V8.5Z" fill="white"/>
</g>
<path d="M15.66 8C15.616 8 15.582 7.988 15.558 7.964C15.534 7.936 15.522 7.902 15.522 7.862V3.938C15.522 3.898 15.534 3.866 15.558 3.842C15.582 3.814 15.616 3.8 15.66 3.8H15.978C16.018 3.8 16.05 3.814 16.074 3.842C16.102 3.866 16.116 3.898 16.116 3.938V7.862C16.116 7.902 16.102 7.936 16.074 7.964C16.05 7.988 16.018 8 15.978 8H15.66ZM17.3006 8C17.2566 8 17.2226 7.988 17.1986 7.964C17.1746 7.936 17.1626 7.902 17.1626 7.862V3.944C17.1626 3.9 17.1746 3.866 17.1986 3.842C17.2226 3.814 17.2566 3.8 17.3006 3.8H17.5766C17.6246 3.8 17.6606 3.812 17.6846 3.836C17.7086 3.856 17.7226 3.872 17.7266 3.884L19.7186 6.944V3.944C19.7186 3.9 19.7306 3.866 19.7546 3.842C19.7786 3.814 19.8126 3.8 19.8566 3.8H20.1446C20.1886 3.8 20.2226 3.814 20.2466 3.842C20.2746 3.866 20.2886 3.9 20.2886 3.944V7.856C20.2886 7.896 20.2746 7.93 20.2466 7.958C20.2226 7.986 20.1906 8 20.1506 8H19.8626C19.8186 8 19.7846 7.988 19.7606 7.964C19.7406 7.94 19.7266 7.924 19.7186 7.916L17.7326 4.886V7.862C17.7326 7.902 17.7186 7.936 17.6906 7.964C17.6666 7.988 17.6326 8 17.5886 8H17.3006ZM22.3846 8C22.3446 8 22.3106 7.988 22.2826 7.964C22.2586 7.936 22.2466 7.902 22.2466 7.862V4.334H21.0946C21.0546 4.334 21.0206 4.322 20.9926 4.298C20.9686 4.27 20.9566 4.236 20.9566 4.196V3.944C20.9566 3.9 20.9686 3.866 20.9926 3.842C21.0206 3.814 21.0546 3.8 21.0946 3.8H23.9866C24.0306 3.8 24.0646 3.814 24.0886 3.842C24.1166 3.866 24.1306 3.9 24.1306 3.944V4.196C24.1306 4.236 24.1166 4.27 24.0886 4.298C24.0646 4.322 24.0306 4.334 23.9866 4.334H22.8406V7.862C22.8406 7.902 22.8266 7.936 22.7986 7.964C22.7746 7.988 22.7406 8 22.6966 8H22.3846ZM24.9413 8C24.8973 8 24.8633 7.988 24.8393 7.964C24.8153 7.936 24.8033 7.902 24.8033 7.862V3.944C24.8033 3.9 24.8153 3.866 24.8393 3.842C24.8633 3.814 24.8973 3.8 24.9413 3.8H27.4193C27.4633 3.8 27.4973 3.814 27.5213 3.842C27.5453 3.866 27.5573 3.9 27.5573 3.944V4.172C27.5573 4.216 27.5453 4.25 27.5213 4.274C27.4973 4.298 27.4633 4.31 27.4193 4.31H25.3793V5.624H27.2873C27.3313 5.624 27.3653 5.638 27.3893 5.666C27.4133 5.69 27.4253 5.724 27.4253 5.768V5.99C27.4253 6.03 27.4133 6.064 27.3893 6.092C27.3653 6.116 27.3313 6.128 27.2873 6.128H25.3793V7.49H27.4673C27.5113 7.49 27.5453 7.502 27.5693 7.526C27.5933 7.55 27.6053 7.584 27.6053 7.628V7.862C27.6053 7.902 27.5933 7.936 27.5693 7.964C27.5453 7.988 27.5113 8 27.4673 8H24.9413ZM28.5799 8C28.5359 8 28.5019 7.988 28.4779 7.964C28.4539 7.936 28.4419 7.902 28.4419 7.862V3.938C28.4419 3.898 28.4539 3.866 28.4779 3.842C28.5019 3.814 28.5359 3.8 28.5799 3.8H28.8979C28.9379 3.8 28.9699 3.814 28.9939 3.842C29.0179 3.866 29.0299 3.898 29.0299 3.938V7.478H31.0279C31.0719 7.478 31.1059 7.492 31.1299 7.52C31.1539 7.544 31.1659 7.578 31.1659 7.622V7.862C31.1659 7.902 31.1539 7.936 31.1299 7.964C31.1059 7.988 31.0719 8 31.0279 8H28.5799ZM31.9608 8C31.9168 8 31.8828 7.988 31.8588 7.964C31.8348 7.936 31.8228 7.902 31.8228 7.862V3.938C31.8228 3.898 31.8348 3.866 31.8588 3.842C31.8828 3.814 31.9168 3.8 31.9608 3.8H32.2788C32.3188 3.8 32.3508 3.814 32.3748 3.842C32.4028 3.866 32.4168 3.898 32.4168 3.938V7.862C32.4168 7.902 32.4028 7.936 32.3748 7.964C32.3508 7.988 32.3188 8 32.2788 8H31.9608ZM36.1821 8.06C35.9781 8.06 35.7841 8.036 35.6001 7.988C35.4201 7.936 35.2581 7.858 35.1141 7.754C34.9741 7.646 34.8621 7.512 34.7781 7.352C34.6941 7.192 34.6481 7.004 34.6401 6.788C34.6401 6.752 34.6521 6.722 34.6761 6.698C34.7001 6.67 34.7321 6.656 34.7721 6.656H35.0961C35.1401 6.656 35.1741 6.67 35.1981 6.698C35.2261 6.722 35.2441 6.754 35.2521 6.794C35.2681 6.974 35.3201 7.12 35.4081 7.232C35.4961 7.34 35.6081 7.42 35.7441 7.472C35.8801 7.524 36.0301 7.55 36.1941 7.55C36.4981 7.55 36.7301 7.45 36.8901 7.25C37.0501 7.05 37.1301 6.784 37.1301 6.452V4.322H35.0001C34.9601 4.322 34.9261 4.31 34.8981 4.286C34.8741 4.258 34.8621 4.224 34.8621 4.184V3.938C34.8621 3.898 34.8741 3.866 34.8981 3.842C34.9261 3.814 34.9601 3.8 35.0001 3.8H37.5861C37.6301 3.8 37.6641 3.814 37.6881 3.842C37.7161 3.866 37.7301 3.9 37.7301 3.944V6.464C37.7301 6.788 37.6681 7.07 37.5441 7.31C37.4201 7.55 37.2441 7.736 37.0161 7.868C36.7881 7.996 36.5101 8.06 36.1821 8.06Z" fill="white"/>
<defs>
<clipPath id="clip0_20_907">
<rect width="8" height="8" fill="white" transform="translate(6 2)"/>
</clipPath>
</defs>
</svg>
