<svg width="44" height="12" viewBox="0 0 44 12" fill="none" xmlns="http://www.w3.org/2000/svg">
<rect width="44" height="12" rx="6" fill="#57A143"/>
<path d="M6.73798 3.65133V8.18967L8.55164 10V5.438L7.10398 3.28167L6.73798 3.65133ZM8.40431 9.64467L6.88531 8.12867V3.712L7.08198 3.51333L8.40431 5.48267V9.64467ZM13.262 8.159L12.9746 8.47133L11.5613 6.346V2L13.2506 3.69733L13.262 8.159ZM8.47698 2.00033L12.8096 8.612L11.5973 9.82433L7.26231 3.22767L8.47664 2L8.47698 2.00033Z" fill="black"/>
<path d="M15.66 8C15.616 8 15.582 7.988 15.558 7.964C15.534 7.936 15.522 7.902 15.522 7.862V3.944C15.522 3.9 15.534 3.866 15.558 3.842C15.582 3.814 15.616 3.8 15.66 3.8H15.936C15.984 3.8 16.02 3.812 16.044 3.836C16.068 3.856 16.082 3.872 16.086 3.884L18.078 6.944V3.944C18.078 3.9 18.09 3.866 18.114 3.842C18.138 3.814 18.172 3.8 18.216 3.8H18.504C18.548 3.8 18.582 3.814 18.606 3.842C18.634 3.866 18.648 3.9 18.648 3.944V7.856C18.648 7.896 18.634 7.93 18.606 7.958C18.582 7.986 18.55 8 18.51 8H18.222C18.178 8 18.144 7.988 18.12 7.964C18.1 7.94 18.086 7.924 18.078 7.916L16.092 4.886V7.862C16.092 7.902 16.078 7.936 16.05 7.964C16.026 7.988 15.992 8 15.948 8H15.66ZM19.826 8C19.782 8 19.748 7.988 19.724 7.964C19.7 7.936 19.688 7.902 19.688 7.862V3.944C19.688 3.9 19.7 3.866 19.724 3.842C19.748 3.814 19.782 3.8 19.826 3.8H22.304C22.348 3.8 22.382 3.814 22.406 3.842C22.43 3.866 22.442 3.9 22.442 3.944V4.172C22.442 4.216 22.43 4.25 22.406 4.274C22.382 4.298 22.348 4.31 22.304 4.31H20.264V5.624H22.172C22.216 5.624 22.25 5.638 22.274 5.666C22.298 5.69 22.31 5.724 22.31 5.768V5.99C22.31 6.03 22.298 6.064 22.274 6.092C22.25 6.116 22.216 6.128 22.172 6.128H20.264V7.49H22.352C22.396 7.49 22.43 7.502 22.454 7.526C22.478 7.55 22.49 7.584 22.49 7.628V7.862C22.49 7.902 22.478 7.936 22.454 7.964C22.43 7.988 22.396 8 22.352 8H19.826ZM24.7917 8.06C24.4517 8.06 24.1597 8.002 23.9157 7.886C23.6717 7.766 23.4837 7.584 23.3517 7.34C23.2197 7.092 23.1457 6.782 23.1297 6.41C23.1257 6.234 23.1237 6.066 23.1237 5.906C23.1237 5.742 23.1257 5.572 23.1297 5.396C23.1457 5.028 23.2217 4.722 23.3577 4.478C23.4977 4.23 23.6897 4.046 23.9337 3.926C24.1817 3.802 24.4677 3.74 24.7917 3.74C25.1197 3.74 25.4057 3.802 25.6497 3.926C25.8977 4.046 26.0917 4.23 26.2317 4.478C26.3717 4.722 26.4477 5.028 26.4597 5.396C26.4677 5.572 26.4717 5.742 26.4717 5.906C26.4717 6.066 26.4677 6.234 26.4597 6.41C26.4477 6.782 26.3737 7.092 26.2377 7.34C26.1057 7.584 25.9177 7.766 25.6737 7.886C25.4297 8.002 25.1357 8.06 24.7917 8.06ZM24.7917 7.55C25.0997 7.55 25.3497 7.458 25.5417 7.274C25.7377 7.09 25.8437 6.792 25.8597 6.38C25.8677 6.2 25.8717 6.04 25.8717 5.9C25.8717 5.756 25.8677 5.596 25.8597 5.42C25.8517 5.144 25.7997 4.92 25.7037 4.748C25.6117 4.576 25.4877 4.45 25.3317 4.37C25.1757 4.29 24.9957 4.25 24.7917 4.25C24.5957 4.25 24.4197 4.29 24.2637 4.37C24.1077 4.45 23.9817 4.576 23.8857 4.748C23.7937 4.92 23.7417 5.144 23.7297 5.42C23.7257 5.596 23.7237 5.756 23.7237 5.9C23.7237 6.04 23.7257 6.2 23.7297 6.38C23.7457 6.792 23.8517 7.09 24.0477 7.274C24.2437 7.458 24.4917 7.55 24.7917 7.55ZM28.477 8C28.417 8 28.369 7.986 28.333 7.958C28.301 7.93 28.275 7.892 28.255 7.844L26.917 3.986C26.909 3.962 26.905 3.94 26.905 3.92C26.905 3.888 26.917 3.86 26.941 3.836C26.965 3.812 26.993 3.8 27.025 3.8H27.337C27.385 3.8 27.421 3.814 27.445 3.842C27.473 3.866 27.489 3.888 27.493 3.908L28.669 7.31L29.845 3.908C29.853 3.888 29.869 3.866 29.893 3.842C29.917 3.814 29.953 3.8 30.001 3.8H30.313C30.345 3.8 30.373 3.812 30.397 3.836C30.425 3.86 30.439 3.888 30.439 3.92C30.439 3.94 30.435 3.962 30.427 3.986L29.083 7.844C29.067 7.892 29.041 7.93 29.005 7.958C28.973 7.986 28.927 8 28.867 8H28.477ZM31.2928 8C31.2488 8 31.2148 7.988 31.1908 7.964C31.1668 7.936 31.1548 7.902 31.1548 7.862V3.938C31.1548 3.898 31.1668 3.866 31.1908 3.842C31.2148 3.814 31.2488 3.8 31.2928 3.8H31.6108C31.6508 3.8 31.6828 3.814 31.7068 3.842C31.7348 3.866 31.7488 3.898 31.7488 3.938V7.862C31.7488 7.902 31.7348 7.936 31.7068 7.964C31.6828 7.988 31.6508 8 31.6108 8H31.2928ZM32.9334 8C32.8934 8 32.8594 7.988 32.8314 7.964C32.8074 7.936 32.7954 7.902 32.7954 7.862V3.944C32.7954 3.9 32.8074 3.866 32.8314 3.842C32.8594 3.814 32.8934 3.8 32.9334 3.8H33.2334C33.2814 3.8 33.3174 3.812 33.3414 3.836C33.3654 3.86 33.3794 3.88 33.3834 3.896L34.6554 6.32L35.9334 3.896C35.9414 3.88 35.9554 3.86 35.9754 3.836C35.9994 3.812 36.0354 3.8 36.0834 3.8H36.3774C36.4214 3.8 36.4554 3.814 36.4794 3.842C36.5074 3.866 36.5214 3.9 36.5214 3.944V7.862C36.5214 7.902 36.5074 7.936 36.4794 7.964C36.4554 7.988 36.4214 8 36.3774 8H36.0834C36.0434 8 36.0094 7.988 35.9814 7.964C35.9574 7.936 35.9454 7.902 35.9454 7.862V4.91L34.9434 6.866C34.9274 6.906 34.9034 6.938 34.8714 6.962C34.8394 6.982 34.7994 6.992 34.7514 6.992H34.5654C34.5134 6.992 34.4714 6.982 34.4394 6.962C34.4114 6.938 34.3874 6.906 34.3674 6.866L33.3654 4.91V7.862C33.3654 7.902 33.3514 7.936 33.3234 7.964C33.2994 7.988 33.2674 8 33.2274 8H32.9334Z" fill="black"/>
</svg>
