<svg width="32" height="12" viewBox="0 0 32 12" fill="none" xmlns="http://www.w3.org/2000/svg">
<rect width="32" height="12" rx="6" fill="#019733"/>
<g clip-path="url(#clip0_32_154)">
<path d="M14 5.99533H13.991L12.5517 4.556L13.986 3.08467V2.487L13.7697 2.271H11.037L10.817 2.47267V2.821L10.005 2.009V2L10 2.00467L9.99533 2V2.009L9.56533 2.43933L9.386 2.25967H6.67833L6.46567 2.49033V3.11867L6.671 3.324H6.911V5.094L6.009 5.99567H6L6.00467 6L6 6.00467H6.009L6.911 6.90667V9.06233L7.21333 9.23667H7.98733L8.60633 8.602L9.995 9.99067V10L10 9.99533L10.0047 10V9.99067L10.8413 9.15433H11.003C11.04 9.15433 11.0733 9.131 11.0863 9.09467L11.135 8.95267C11.1443 8.92467 11.139 8.89533 11.1227 8.873L11.61 8.38567L11.406 9.03967C11.3917 9.08667 11.418 9.136 11.465 9.15033C11.4733 9.153 11.4823 9.15433 11.491 9.15433H12.099C12.1343 9.154 12.166 9.133 12.18 9.1L12.235 8.96867C12.2433 8.947 12.243 8.92267 12.2337 8.901C12.2247 8.87933 12.207 8.86233 12.185 8.85367C12.1753 8.84967 12.1643 8.84733 12.1527 8.847H12.1277L12.4077 7.96567H12.8183L12.4797 9.03933C12.4653 9.08633 12.4917 9.13567 12.5383 9.15C12.5467 9.15267 12.5557 9.154 12.5647 9.154H13.232C13.2687 9.154 13.301 9.132 13.3147 9.09733L13.3693 8.95467C13.3863 8.90867 13.3623 8.858 13.3167 8.841C13.307 8.83733 13.2967 8.83533 13.2863 8.83533H13.238L13.615 7.611C13.624 7.58367 13.619 7.55333 13.602 7.531L13.477 7.363L13.476 7.36133C13.459 7.34 13.4337 7.32733 13.4063 7.32733H12.9277C12.904 7.32733 12.8807 7.33733 12.8643 7.35433L12.731 7.50067H12.523L12.509 7.48533L13.9907 6.00367H14L13.9953 6L14 5.99533ZM9.27933 9.04633L9.80567 7.54333H9.63867L9.73767 7.442H10.2907L9.76967 8.96033H9.97733L9.951 9.04633H9.27933ZM10.511 6.541L10.561 6.59133L10.4713 6.89867L10.3963 6.974H10.0733L10.013 6.91367L10.1167 6.62333L10.2127 6.541H10.511ZM7.86333 8.943H7.29233L7.205 8.893V3.03033H6.793L6.75967 2.997V2.605L6.80733 2.55367H9.26433L9.33533 2.625V2.99433L9.288 3.052H8.92833V5.948L11.864 3.052H11.1687L11.1103 2.98933V2.60167L11.1507 2.56467H13.6473L13.6913 2.609V2.96567L10.3263 6.41667H10.202C10.197 6.41633 10.1927 6.41667 10.188 6.417L10.1813 6.418C10.1663 6.42133 10.1527 6.428 10.1417 6.438L10.0273 6.53633L10.026 6.53733C10.015 6.54767 10.0063 6.56033 10.0017 6.57433L9.903 6.851L7.86333 8.943ZM12.786 7.62567L12.944 7.45267H13.3887L13.4917 7.591L13.07 8.96H13.2343L13.2077 9.02967H12.6133L12.988 7.84167H12.3163L11.9573 8.972H12.0987L12.0743 9.03H11.5393L11.9083 7.84733H11.2097L10.8557 8.96033H11.001L10.977 9.03H10.4233L10.928 7.54333H10.7327L10.763 7.453H11.313L11.486 7.632H11.788L11.9517 7.44733H12.3053L12.4683 7.62567H12.786Z" fill="black"/>
</g>
<path d="M16.77 8C16.71 8 16.662 7.986 16.626 7.958C16.594 7.93 16.568 7.892 16.548 7.844L15.21 3.986C15.202 3.962 15.198 3.94 15.198 3.92C15.198 3.888 15.21 3.86 15.234 3.836C15.258 3.812 15.286 3.8 15.318 3.8H15.63C15.678 3.8 15.714 3.814 15.738 3.842C15.766 3.866 15.782 3.888 15.786 3.908L16.962 7.31L18.138 3.908C18.146 3.888 18.162 3.866 18.186 3.842C18.21 3.814 18.246 3.8 18.294 3.8H18.606C18.638 3.8 18.666 3.812 18.69 3.836C18.718 3.86 18.732 3.888 18.732 3.92C18.732 3.94 18.728 3.962 18.72 3.986L17.376 7.844C17.36 7.892 17.334 7.93 17.298 7.958C17.266 7.986 17.22 8 17.16 8H16.77ZM19.5858 8C19.5418 8 19.5078 7.988 19.4838 7.964C19.4598 7.936 19.4478 7.902 19.4478 7.862V3.938C19.4478 3.898 19.4598 3.866 19.4838 3.842C19.5078 3.814 19.5418 3.8 19.5858 3.8H19.9038C19.9438 3.8 19.9758 3.814 19.9998 3.842C20.0278 3.866 20.0418 3.898 20.0418 3.938V7.862C20.0418 7.902 20.0278 7.936 19.9998 7.964C19.9758 7.988 19.9438 8 19.9038 8H19.5858ZM21.2264 8C21.1864 8 21.1524 7.988 21.1244 7.964C21.1004 7.936 21.0884 7.902 21.0884 7.862V3.944C21.0884 3.9 21.1004 3.866 21.1244 3.842C21.1524 3.814 21.1864 3.8 21.2264 3.8H21.5264C21.5744 3.8 21.6104 3.812 21.6344 3.836C21.6584 3.86 21.6724 3.88 21.6764 3.896L22.9484 6.32L24.2264 3.896C24.2344 3.88 24.2484 3.86 24.2684 3.836C24.2924 3.812 24.3284 3.8 24.3764 3.8H24.6704C24.7144 3.8 24.7484 3.814 24.7724 3.842C24.8004 3.866 24.8144 3.9 24.8144 3.944V7.862C24.8144 7.902 24.8004 7.936 24.7724 7.964C24.7484 7.988 24.7144 8 24.6704 8H24.3764C24.3364 8 24.3024 7.988 24.2744 7.964C24.2504 7.936 24.2384 7.902 24.2384 7.862V4.91L23.2364 6.866C23.2204 6.906 23.1964 6.938 23.1644 6.962C23.1324 6.982 23.0924 6.992 23.0444 6.992H22.8584C22.8064 6.992 22.7644 6.982 22.7324 6.962C22.7044 6.938 22.6804 6.906 22.6604 6.866L21.6584 4.91V7.862C21.6584 7.902 21.6444 7.936 21.6164 7.964C21.5924 7.988 21.5604 8 21.5204 8H21.2264Z" fill="black"/>
<defs>
<clipPath id="clip0_32_154">
<rect width="8" height="8" fill="white" transform="translate(6 2)"/>
</clipPath>
</defs>
</svg>
