<svg width="44" height="12" viewBox="0 0 44 12" fill="none" xmlns="http://www.w3.org/2000/svg">
<rect width="44" height="12" rx="6" fill="#007ACC"/>
<g clip-path="url(#clip0_16_829)">
<path d="M11.7167 2.86233L10.07 2.07C9.97693 2.02519 9.87224 2.01042 9.77042 2.02773C9.66859 2.04505 9.57467 2.09361 9.50166 2.16667L6.34833 5.04333L4.97499 4.00067C4.91303 3.95367 4.83658 3.92984 4.75889 3.93331C4.6812 3.93678 4.60718 3.96733 4.54966 4.01967L4.10899 4.42033C4.07465 4.45155 4.04721 4.48959 4.02842 4.53203C4.00963 4.57446 3.99991 4.62035 3.99988 4.66676C3.99985 4.71317 4.00951 4.75907 4.02824 4.80153C4.04697 4.84399 4.07436 4.88207 4.10866 4.91333L5.29966 6L4.10866 7.08667C4.07436 7.11793 4.04697 7.15601 4.02824 7.19847C4.00951 7.24093 3.99985 7.28683 3.99988 7.33324C3.99991 7.37965 4.00963 7.42554 4.02842 7.46797C4.04721 7.51041 4.07465 7.54845 4.10899 7.57967L4.54999 7.98C4.60751 8.03233 4.68154 8.06288 4.75923 8.06635C4.83691 8.06982 4.91337 8.046 4.97533 7.999L6.34866 6.95633L9.50199 9.833C9.57492 9.90608 9.66879 9.95464 9.77057 9.97196C9.87235 9.98929 9.97699 9.9745 10.07 9.92967L11.7173 9.13733C11.8021 9.09643 11.8736 9.03244 11.9236 8.95271C11.9736 8.87299 12.0001 8.78077 12 8.68667V3.313C12 3.21882 11.9734 3.12656 11.9233 3.04683C11.8732 2.9671 11.8015 2.90314 11.7167 2.86233ZM10.0013 7.816L7.60866 6L10.0013 4.184V7.816Z" fill="white"/>
</g>
<path d="M14.77 8C14.71 8 14.662 7.986 14.626 7.958C14.594 7.93 14.568 7.892 14.548 7.844L13.21 3.986C13.202 3.962 13.198 3.94 13.198 3.92C13.198 3.888 13.21 3.86 13.234 3.836C13.258 3.812 13.286 3.8 13.318 3.8H13.63C13.678 3.8 13.714 3.814 13.738 3.842C13.766 3.866 13.782 3.888 13.786 3.908L14.962 7.31L16.138 3.908C16.146 3.888 16.162 3.866 16.186 3.842C16.21 3.814 16.246 3.8 16.294 3.8H16.606C16.638 3.8 16.666 3.812 16.69 3.836C16.718 3.86 16.732 3.888 16.732 3.92C16.732 3.94 16.728 3.962 16.72 3.986L15.376 7.844C15.36 7.892 15.334 7.93 15.298 7.958C15.266 7.986 15.22 8 15.16 8H14.77ZM18.663 8.06C18.315 8.06 18.023 8.008 17.787 7.904C17.551 7.796 17.369 7.658 17.241 7.49C17.117 7.318 17.051 7.136 17.043 6.944C17.043 6.912 17.055 6.884 17.079 6.86C17.107 6.832 17.139 6.818 17.175 6.818H17.481C17.529 6.818 17.565 6.83 17.589 6.854C17.613 6.878 17.629 6.906 17.637 6.938C17.657 7.034 17.705 7.13 17.781 7.226C17.861 7.318 17.971 7.396 18.111 7.46C18.255 7.52 18.439 7.55 18.663 7.55C19.007 7.55 19.259 7.49 19.419 7.37C19.583 7.246 19.665 7.082 19.665 6.878C19.665 6.738 19.621 6.626 19.533 6.542C19.449 6.454 19.319 6.376 19.143 6.308C18.967 6.24 18.739 6.166 18.459 6.086C18.167 6.002 17.925 5.91 17.733 5.81C17.541 5.71 17.397 5.586 17.301 5.438C17.209 5.29 17.163 5.102 17.163 4.874C17.163 4.658 17.221 4.466 17.337 4.298C17.453 4.126 17.619 3.99 17.835 3.89C18.055 3.79 18.321 3.74 18.633 3.74C18.881 3.74 19.097 3.774 19.281 3.842C19.469 3.906 19.625 3.994 19.749 4.106C19.873 4.214 19.967 4.332 20.031 4.46C20.095 4.584 20.129 4.706 20.133 4.826C20.133 4.854 20.123 4.882 20.103 4.91C20.083 4.934 20.051 4.946 20.007 4.946H19.689C19.661 4.946 19.631 4.938 19.599 4.922C19.571 4.906 19.549 4.876 19.533 4.832C19.509 4.668 19.417 4.53 19.257 4.418C19.097 4.306 18.889 4.25 18.633 4.25C18.373 4.25 18.161 4.3 17.997 4.4C17.837 4.5 17.757 4.656 17.757 4.868C17.757 5.004 17.795 5.118 17.871 5.21C17.947 5.298 18.067 5.376 18.231 5.444C18.395 5.512 18.609 5.584 18.873 5.66C19.193 5.748 19.455 5.842 19.659 5.942C19.863 6.038 20.013 6.16 20.109 6.308C20.209 6.452 20.259 6.638 20.259 6.866C20.259 7.118 20.193 7.334 20.061 7.514C19.929 7.69 19.743 7.826 19.503 7.922C19.267 8.014 18.987 8.06 18.663 8.06ZM24.0281 8.06C23.6601 8.06 23.3541 7.992 23.1101 7.856C22.8701 7.72 22.6881 7.53 22.5641 7.286C22.4401 7.042 22.3721 6.758 22.3601 6.434C22.3561 6.27 22.3541 6.094 22.3541 5.906C22.3541 5.718 22.3561 5.538 22.3601 5.366C22.3721 5.042 22.4401 4.758 22.5641 4.514C22.6881 4.27 22.8701 4.08 23.1101 3.944C23.3541 3.808 23.6601 3.74 24.0281 3.74C24.3041 3.74 24.5461 3.778 24.7541 3.854C24.9621 3.93 25.1341 4.032 25.2701 4.16C25.4101 4.288 25.5161 4.432 25.5881 4.592C25.6601 4.748 25.7001 4.91 25.7081 5.078C25.7121 5.114 25.7001 5.144 25.6721 5.168C25.6481 5.192 25.6181 5.204 25.5821 5.204H25.2521C25.2161 5.204 25.1841 5.194 25.1561 5.174C25.1321 5.154 25.1141 5.118 25.1021 5.066C25.0341 4.754 24.9061 4.54 24.7181 4.424C24.5341 4.308 24.3021 4.25 24.0221 4.25C23.7021 4.25 23.4481 4.342 23.2601 4.526C23.0721 4.706 22.9701 4.996 22.9541 5.396C22.9421 5.724 22.9421 6.06 22.9541 6.404C22.9701 6.804 23.0721 7.096 23.2601 7.28C23.4481 7.46 23.7021 7.55 24.0221 7.55C24.3021 7.55 24.5341 7.492 24.7181 7.376C24.9061 7.26 25.0341 7.046 25.1021 6.734C25.1141 6.682 25.1321 6.646 25.1561 6.626C25.1841 6.606 25.2161 6.596 25.2521 6.596H25.5821C25.6181 6.596 25.6481 6.608 25.6721 6.632C25.7001 6.656 25.7121 6.686 25.7081 6.722C25.7001 6.89 25.6601 7.054 25.5881 7.214C25.5161 7.37 25.4101 7.512 25.2701 7.64C25.1341 7.768 24.9621 7.87 24.7541 7.946C24.5461 8.022 24.3041 8.06 24.0281 8.06ZM28.0182 8.06C27.6782 8.06 27.3862 8.002 27.1422 7.886C26.8982 7.766 26.7102 7.584 26.5782 7.34C26.4462 7.092 26.3722 6.782 26.3562 6.41C26.3522 6.234 26.3502 6.066 26.3502 5.906C26.3502 5.742 26.3522 5.572 26.3562 5.396C26.3722 5.028 26.4482 4.722 26.5842 4.478C26.7242 4.23 26.9162 4.046 27.1602 3.926C27.4082 3.802 27.6942 3.74 28.0182 3.74C28.3462 3.74 28.6322 3.802 28.8762 3.926C29.1242 4.046 29.3182 4.23 29.4582 4.478C29.5982 4.722 29.6742 5.028 29.6862 5.396C29.6942 5.572 29.6982 5.742 29.6982 5.906C29.6982 6.066 29.6942 6.234 29.6862 6.41C29.6742 6.782 29.6002 7.092 29.4642 7.34C29.3322 7.584 29.1442 7.766 28.9002 7.886C28.6562 8.002 28.3622 8.06 28.0182 8.06ZM28.0182 7.55C28.3262 7.55 28.5762 7.458 28.7682 7.274C28.9642 7.09 29.0702 6.792 29.0862 6.38C29.0942 6.2 29.0982 6.04 29.0982 5.9C29.0982 5.756 29.0942 5.596 29.0862 5.42C29.0782 5.144 29.0262 4.92 28.9302 4.748C28.8382 4.576 28.7142 4.45 28.5582 4.37C28.4022 4.29 28.2222 4.25 28.0182 4.25C27.8222 4.25 27.6462 4.29 27.4902 4.37C27.3342 4.45 27.2082 4.576 27.1122 4.748C27.0202 4.92 26.9682 5.144 26.9562 5.42C26.9522 5.596 26.9502 5.756 26.9502 5.9C26.9502 6.04 26.9522 6.2 26.9562 6.38C26.9722 6.792 27.0782 7.09 27.2742 7.274C27.4702 7.458 27.7182 7.55 28.0182 7.55ZM30.7108 8C30.6668 8 30.6328 7.988 30.6088 7.964C30.5848 7.936 30.5728 7.902 30.5728 7.862V3.944C30.5728 3.9 30.5848 3.866 30.6088 3.842C30.6328 3.814 30.6668 3.8 30.7108 3.8H32.0728C32.4848 3.8 32.8168 3.862 33.0688 3.986C33.3208 4.11 33.5048 4.294 33.6208 4.538C33.7368 4.778 33.7968 5.074 33.8008 5.426C33.8048 5.606 33.8068 5.764 33.8068 5.9C33.8068 6.036 33.8048 6.192 33.8008 6.368C33.7928 6.736 33.7308 7.042 33.6148 7.286C33.5028 7.526 33.3228 7.706 33.0748 7.826C32.8308 7.942 32.5068 8 32.1028 8H30.7108ZM31.1608 7.49H32.0728C32.3488 7.49 32.5688 7.452 32.7328 7.376C32.8968 7.3 33.0148 7.178 33.0868 7.01C33.1628 6.842 33.2028 6.62 33.2068 6.344C33.2148 6.224 33.2188 6.12 33.2188 6.032C33.2188 5.94 33.2188 5.85 33.2188 5.762C33.2188 5.67 33.2148 5.566 33.2068 5.45C33.1988 5.062 33.1068 4.776 32.9308 4.592C32.7548 4.404 32.4588 4.31 32.0428 4.31H31.1608V7.49ZM34.8475 8C34.8035 8 34.7695 7.988 34.7455 7.964C34.7215 7.936 34.7095 7.902 34.7095 7.862V3.944C34.7095 3.9 34.7215 3.866 34.7455 3.842C34.7695 3.814 34.8035 3.8 34.8475 3.8H37.3255C37.3695 3.8 37.4035 3.814 37.4275 3.842C37.4515 3.866 37.4635 3.9 37.4635 3.944V4.172C37.4635 4.216 37.4515 4.25 37.4275 4.274C37.4035 4.298 37.3695 4.31 37.3255 4.31H35.2855V5.624H37.1935C37.2375 5.624 37.2715 5.638 37.2955 5.666C37.3195 5.69 37.3315 5.724 37.3315 5.768V5.99C37.3315 6.03 37.3195 6.064 37.2955 6.092C37.2715 6.116 37.2375 6.128 37.1935 6.128H35.2855V7.49H37.3735C37.4175 7.49 37.4515 7.502 37.4755 7.526C37.4995 7.55 37.5115 7.584 37.5115 7.628V7.862C37.5115 7.902 37.4995 7.936 37.4755 7.964C37.4515 7.988 37.4175 8 37.3735 8H34.8475Z" fill="white"/>
<defs>
<clipPath id="clip0_16_829">
<rect width="8" height="8" fill="white" transform="translate(4 2)"/>
</clipPath>
</defs>
</svg>
