<svg width="8" height="8" viewBox="0 0 8 8" fill="none" xmlns="http://www.w3.org/2000/svg">
<path d="M4 0C1.79 0 0 1.791 0 4C0 5.76767 1.146 7.26667 2.735 7.795C2.935 7.83267 3.00833 7.709 3.00833 7.60267C3.00833 7.50767 3.005 7.256 3.00333 6.92267C1.89067 7.164 1.656 6.386 1.656 6.386C1.474 5.92433 1.211 5.801 1.211 5.801C0.848667 5.553 1.239 5.558 1.239 5.558C1.64067 5.586 1.85167 5.97 1.85167 5.97C2.20833 6.58167 2.788 6.405 3.01667 6.30267C3.05267 6.044 3.15567 5.86767 3.27 5.76767C2.38167 5.66767 1.448 5.32367 1.448 3.791C1.448 3.35433 1.603 2.99767 1.85967 2.71767C1.81467 2.61667 1.67967 2.21 1.89467 1.659C1.89467 1.659 2.22967 1.55167 2.99467 2.069C3.31467 1.98 3.65467 1.936 3.99467 1.934C4.33467 1.936 4.67467 1.98 4.99467 2.069C5.75467 1.55167 6.08967 1.659 6.08967 1.659C6.30467 2.21 6.16967 2.61667 6.12967 2.71767C6.38467 2.99767 6.53967 3.35433 6.53967 3.791C6.53967 5.32767 5.60467 5.666 4.71467 5.76433C4.85467 5.88433 4.98467 6.12967 4.98467 6.50433C4.98467 7.03967 4.97967 7.46967 4.97967 7.59967C4.97967 7.70467 5.04967 7.82967 5.25467 7.78967C6.855 7.265 8 5.765 8 4C8 1.791 6.209 0 4 0Z" fill="#00ADB5"/>
</svg>
