<svg width="8" height="6" viewBox="0 0 8 6" fill="none" xmlns="http://www.w3.org/2000/svg">
<path d="M8 0.819844V5.45618C8 5.75751 7.756 6.00151 7.45467 6.00151H6.18167V2.91084L4 4.54751L1.81833 2.91084V6.00184H0.545333C0.473691 6.00184 0.402751 5.98773 0.336566 5.9603C0.270382 5.93287 0.21025 5.89268 0.159607 5.842C0.108963 5.79133 0.0688014 5.73117 0.0414154 5.66497C0.0140295 5.59877 -4.36892e-05 5.52782 1.01884e-07 5.45618V0.819844C1.01884e-07 0.14551 0.769667 -0.23949 1.309 0.165177L1.81833 0.54751L4 2.18351L6.18167 0.546844L6.691 0.165177C7.23 -0.239156 8 0.14551 8 0.819844Z" fill="#00ADB5"/>
</svg>
