<svg width="8" height="8" viewBox="0 0 8 8" fill="none" xmlns="http://www.w3.org/2000/svg">
<path d="M6.67367 6.81733H5.51369V4.961C5.51369 4.51833 5.50487 3.94867 4.90921 3.94867C4.30442 3.94867 4.21205 4.43033 4.21205 4.92833V6.81733H3.05206V3H4.16635V3.52033H4.18137C4.33706 3.22033 4.71567 2.90367 5.2813 2.90367C6.45662 2.90367 6.674 3.69367 6.674 4.722L6.67367 6.81733ZM1.74194 2.47767C1.36855 2.47767 1.0686 2.169 1.0686 1.78933C1.0686 1.41 1.36887 1.10167 1.74194 1.10167C2.11402 1.10167 2.4156 1.41 2.4156 1.78933C2.4156 2.169 2.11369 2.47767 1.74194 2.47767ZM2.32356 6.81733H1.16031V3H2.32356V6.81733ZM7.25399 0H0.578035C0.2585 0 0 0.258 0 0.576333V7.42367C0 7.74233 0.2585 8 0.578035 8H7.25301C7.57222 8 7.83333 7.74233 7.83333 7.42367V0.576333C7.83333 0.258 7.5732 0 7.25399 0Z" fill="#00ADB5"/>
</svg>
