<svg width="8" height="7" viewBox="0 0 8 7" fill="none" xmlns="http://www.w3.org/2000/svg">
<path d="M2.57078 3.51333C2.57078 3.61333 2.55882 3.71 2.53489 3.80333C2.51314 3.89444 2.47726 3.97667 2.42723 4.05C2.37939 4.12333 2.31631 4.18111 2.23801 4.22333C2.15754 4.26778 2.06293 4.29 1.95418 4.29C1.84544 4.29 1.753 4.26778 1.67688 4.22333C1.60076 4.17667 1.53877 4.11556 1.49092 4.04C1.44307 3.96667 1.40719 3.88333 1.38326 3.79C1.36151 3.69667 1.35064 3.60111 1.35064 3.50333C1.35064 3.40556 1.36151 3.30889 1.38326 3.21333C1.40501 3.11778 1.44199 3.03333 1.49418 2.96C1.54203 2.88444 1.60619 2.82444 1.68667 2.78C1.76496 2.73556 1.85957 2.71333 1.9705 2.71333C2.08142 2.71333 2.17494 2.73556 2.25106 2.78C2.32719 2.82667 2.38917 2.88778 2.43702 2.96333C2.48487 3.03889 2.51858 3.12444 2.53816 3.22C2.55991 3.31556 2.57078 3.41333 2.57078 3.51333ZM7.82979 3.5V6.62667C7.82979 6.72889 7.7939 6.81778 7.72213 6.89333C7.65035 6.96444 7.56336 7 7.46114 7H2.3261C2.22605 7 2.13905 6.96333 2.06511 6.89C1.99551 6.81667 1.96071 6.72778 1.96071 6.62333V5.5H0.326241C0.237069 5.5 0.160946 5.46667 0.0978724 5.4C0.0326241 5.33556 0 5.25778 0 5.16667V1.83333C0 1.74222 0.0326241 1.66444 0.0978724 1.6C0.158771 1.53333 0.234894 1.5 0.326241 1.5H2.44681V0.35C2.44681 0.252222 2.47943 0.168889 2.54468 0.1C2.60993 0.0333333 2.69149 0 2.78936 0H6.99787C7.09357 0 7.17513 0.0333333 7.24255 0.1C7.3078 0.166667 7.34043 0.25 7.34043 0.35V3.11667L7.74496 3.35667H7.74823C7.76998 3.37222 7.78955 3.39222 7.80695 3.41667C7.82218 3.44333 7.82979 3.47111 7.82979 3.5ZM5.87234 0.75V1.75H6.85106V0.75H5.87234ZM5.87234 2.25V3.25H6.85106V2.25H5.87234ZM5.87234 3.75V4.36L6.86738 3.75H5.87234ZM4.15957 0.75V1.75H5.38298V0.75H4.15957ZM4.15957 2.25V3.25H5.38298V2.25H4.15957ZM4.15957 3.75V4.42667L4.94582 4.92667L5.38298 4.66V3.75H4.15957ZM2.93617 0.75V1.5H3.58865L3.63106 1.50333L3.67021 1.51667V0.75H2.93617ZM1.95092 4.82667C2.14667 4.82667 2.32066 4.79333 2.47291 4.72667C2.62515 4.65556 2.75456 4.56 2.86113 4.44C2.96553 4.31778 3.04492 4.17556 3.09929 4.01333C3.15366 3.84889 3.18085 3.67 3.18085 3.47667C3.18085 3.29222 3.15366 3.12 3.09929 2.96C3.04709 2.80222 2.96988 2.66444 2.86766 2.54667C2.76544 2.42889 2.64038 2.33667 2.49248 2.27C2.34459 2.20333 2.17603 2.17 1.98681 2.17C1.78671 2.17 1.60837 2.20333 1.45177 2.27C1.29735 2.33667 1.16686 2.43111 1.06028 2.55333C0.951537 2.67333 0.869976 2.81778 0.815603 2.98667C0.761229 3.15111 0.734043 3.33222 0.734043 3.53C0.734043 3.71889 0.762317 3.89222 0.818865 4.05C0.875414 4.21 0.955887 4.34667 1.06028 4.46C1.16468 4.57556 1.29191 4.66556 1.44199 4.73C1.59206 4.79667 1.7617 4.83 1.95092 4.83V4.82667ZM2.44681 6.5H6.48894L3.91489 4.86V5.16667C3.91489 5.25778 3.88227 5.33556 3.81702 5.4C3.75395 5.46667 3.67783 5.5 3.58865 5.5H2.44681V6.5ZM7.34043 6.45667V4.04333L5.4156 5.22333L7.34043 6.45667Z" fill="#00ADB5"/>
</svg>
