<svg width="57" height="12" viewBox="0 0 57 12" fill="none" xmlns="http://www.w3.org/2000/svg">
<rect width="57" height="12" rx="6" fill="#1793D1"/>
<g clip-path="url(#clip0_43_130)">
<path d="M9.79667 2.20167C9.45867 3.03067 9.25467 3.57333 8.87833 4.37733C9.10933 4.622 9.39267 4.907 9.85267 5.22867C9.358 5.02533 9.02067 4.82067 8.76867 4.60867C8.28667 5.614 7.532 7.046 6 9.79833C7.204 9.10333 8.13733 8.675 9.007 8.511C8.96776 8.34196 8.94863 8.16887 8.95 7.99533L8.951 7.957C8.97033 7.18533 9.37133 6.592 9.84667 6.63267C10.322 6.67267 10.6913 7.33133 10.6727 8.10233C10.6698 8.24169 10.6535 8.38044 10.624 8.51667C11.484 8.685 12.408 9.11233 13.5953 9.798C13.3613 9.367 13.152 8.97833 12.9523 8.608C12.638 8.36467 12.3103 8.04733 11.6413 7.70367C12.1013 7.82333 12.4303 7.961 12.687 8.115C10.657 4.337 10.4927 3.835 9.79667 2.20167ZM13.6327 9.12V8.91233H13.5547V8.88433H13.742V8.91233H13.664V9.12H13.7743V8.88433H13.8217L13.8773 9.051L13.8887 9.08667C13.8926 9.07389 13.8968 9.06122 13.9013 9.04867L13.958 8.88433H14V9.12H13.9697V8.92233L13.901 9.12H13.873L13.8047 8.91933V9.12H13.7743" fill="black"/>
</g>
<path d="M16.24 8C16.208 8 16.18 7.988 16.156 7.964C16.132 7.94 16.12 7.912 16.12 7.88C16.12 7.86 16.122 7.838 16.126 7.814L17.614 3.932C17.63 3.892 17.652 3.86 17.68 3.836C17.708 3.812 17.75 3.8 17.806 3.8H18.214C18.266 3.8 18.306 3.812 18.334 3.836C18.366 3.86 18.39 3.892 18.406 3.932L19.888 7.814C19.896 7.838 19.9 7.86 19.9 7.88C19.9 7.912 19.888 7.94 19.864 7.964C19.84 7.988 19.812 8 19.78 8H19.474C19.426 8 19.39 7.988 19.366 7.964C19.346 7.94 19.332 7.918 19.324 7.898L18.994 7.046H17.026L16.696 7.898C16.692 7.918 16.678 7.94 16.654 7.964C16.63 7.988 16.594 8 16.546 8H16.24ZM17.2 6.53H18.82L18.01 4.4L17.2 6.53ZM20.6795 8C20.6355 8 20.6015 7.988 20.5775 7.964C20.5535 7.936 20.5415 7.902 20.5415 7.862V3.944C20.5415 3.9 20.5535 3.866 20.5775 3.842C20.6015 3.814 20.6355 3.8 20.6795 3.8H22.1435C22.5955 3.8 22.9535 3.906 23.2175 4.118C23.4815 4.33 23.6135 4.644 23.6135 5.06C23.6135 5.368 23.5355 5.62 23.3795 5.816C23.2275 6.008 23.0195 6.142 22.7555 6.218L23.6795 7.814C23.6915 7.838 23.6975 7.86 23.6975 7.88C23.6975 7.912 23.6835 7.94 23.6555 7.964C23.6315 7.988 23.6035 8 23.5715 8H23.2835C23.2155 8 23.1655 7.982 23.1335 7.946C23.1015 7.91 23.0735 7.874 23.0495 7.838L22.1795 6.314H21.1295V7.862C21.1295 7.902 21.1155 7.936 21.0875 7.964C21.0635 7.988 21.0295 8 20.9855 8H20.6795ZM21.1295 5.804H22.1195C22.4195 5.804 22.6435 5.742 22.7915 5.618C22.9395 5.49 23.0135 5.302 23.0135 5.054C23.0135 4.81 22.9395 4.624 22.7915 4.496C22.6475 4.368 22.4235 4.304 22.1195 4.304H21.1295V5.804ZM25.9793 8.06C25.6113 8.06 25.3053 7.992 25.0613 7.856C24.8213 7.72 24.6393 7.53 24.5153 7.286C24.3913 7.042 24.3233 6.758 24.3113 6.434C24.3073 6.27 24.3053 6.094 24.3053 5.906C24.3053 5.718 24.3073 5.538 24.3113 5.366C24.3233 5.042 24.3913 4.758 24.5153 4.514C24.6393 4.27 24.8213 4.08 25.0613 3.944C25.3053 3.808 25.6113 3.74 25.9793 3.74C26.2553 3.74 26.4973 3.778 26.7053 3.854C26.9133 3.93 27.0853 4.032 27.2213 4.16C27.3613 4.288 27.4673 4.432 27.5393 4.592C27.6113 4.748 27.6513 4.91 27.6593 5.078C27.6633 5.114 27.6513 5.144 27.6233 5.168C27.5993 5.192 27.5693 5.204 27.5333 5.204H27.2033C27.1673 5.204 27.1353 5.194 27.1073 5.174C27.0833 5.154 27.0653 5.118 27.0533 5.066C26.9853 4.754 26.8573 4.54 26.6693 4.424C26.4853 4.308 26.2533 4.25 25.9733 4.25C25.6533 4.25 25.3993 4.342 25.2113 4.526C25.0233 4.706 24.9213 4.996 24.9053 5.396C24.8933 5.724 24.8933 6.06 24.9053 6.404C24.9213 6.804 25.0233 7.096 25.2113 7.28C25.3993 7.46 25.6533 7.55 25.9733 7.55C26.2533 7.55 26.4853 7.492 26.6693 7.376C26.8573 7.26 26.9853 7.046 27.0533 6.734C27.0653 6.682 27.0833 6.646 27.1073 6.626C27.1353 6.606 27.1673 6.596 27.2033 6.596H27.5333C27.5693 6.596 27.5993 6.608 27.6233 6.632C27.6513 6.656 27.6633 6.686 27.6593 6.722C27.6513 6.89 27.6113 7.054 27.5393 7.214C27.4673 7.37 27.3613 7.512 27.2213 7.64C27.0853 7.768 26.9133 7.87 26.7053 7.946C26.4973 8.022 26.2553 8.06 25.9793 8.06ZM28.6014 8C28.5574 8 28.5234 7.988 28.4994 7.964C28.4754 7.936 28.4634 7.902 28.4634 7.862V3.944C28.4634 3.9 28.4754 3.866 28.4994 3.842C28.5234 3.814 28.5574 3.8 28.6014 3.8H28.9074C28.9514 3.8 28.9854 3.814 29.0094 3.842C29.0374 3.866 29.0514 3.9 29.0514 3.944V5.6H31.1154V3.944C31.1154 3.9 31.1274 3.866 31.1514 3.842C31.1794 3.814 31.2134 3.8 31.2534 3.8H31.5594C31.6034 3.8 31.6374 3.814 31.6614 3.842C31.6894 3.866 31.7034 3.9 31.7034 3.944V7.862C31.7034 7.902 31.6894 7.936 31.6614 7.964C31.6374 7.988 31.6034 8 31.5594 8H31.2534C31.2134 8 31.1794 7.988 31.1514 7.964C31.1274 7.936 31.1154 7.902 31.1154 7.862V6.14H29.0514V7.862C29.0514 7.902 29.0374 7.936 29.0094 7.964C28.9854 7.988 28.9514 8 28.9074 8H28.6014ZM34.3495 8C34.3055 8 34.2715 7.988 34.2475 7.964C34.2235 7.936 34.2115 7.902 34.2115 7.862V3.938C34.2115 3.898 34.2235 3.866 34.2475 3.842C34.2715 3.814 34.3055 3.8 34.3495 3.8H34.6675C34.7075 3.8 34.7395 3.814 34.7635 3.842C34.7875 3.866 34.7995 3.898 34.7995 3.938V7.478H36.7975C36.8415 7.478 36.8755 7.492 36.8995 7.52C36.9235 7.544 36.9355 7.578 36.9355 7.622V7.862C36.9355 7.902 36.9235 7.936 36.8995 7.964C36.8755 7.988 36.8415 8 36.7975 8H34.3495ZM37.7303 8C37.6863 8 37.6523 7.988 37.6283 7.964C37.6043 7.936 37.5923 7.902 37.5923 7.862V3.938C37.5923 3.898 37.6043 3.866 37.6283 3.842C37.6523 3.814 37.6863 3.8 37.7303 3.8H38.0483C38.0883 3.8 38.1203 3.814 38.1443 3.842C38.1723 3.866 38.1863 3.898 38.1863 3.938V7.862C38.1863 7.902 38.1723 7.936 38.1443 7.964C38.1203 7.988 38.0883 8 38.0483 8H37.7303ZM39.3709 8C39.3269 8 39.2929 7.988 39.2689 7.964C39.2449 7.936 39.2329 7.902 39.2329 7.862V3.944C39.2329 3.9 39.2449 3.866 39.2689 3.842C39.2929 3.814 39.3269 3.8 39.3709 3.8H39.6469C39.6949 3.8 39.7309 3.812 39.7549 3.836C39.7789 3.856 39.7929 3.872 39.7969 3.884L41.7889 6.944V3.944C41.7889 3.9 41.8009 3.866 41.8249 3.842C41.8489 3.814 41.8829 3.8 41.9269 3.8H42.2149C42.2589 3.8 42.2929 3.814 42.3169 3.842C42.3449 3.866 42.3589 3.9 42.3589 3.944V7.856C42.3589 7.896 42.3449 7.93 42.3169 7.958C42.2929 7.986 42.2609 8 42.2209 8H41.9329C41.8889 8 41.8549 7.988 41.8309 7.964C41.8109 7.94 41.7969 7.924 41.7889 7.916L39.8029 4.886V7.862C39.8029 7.902 39.7889 7.936 39.7609 7.964C39.7369 7.988 39.7029 8 39.6589 8H39.3709ZM44.983 8.06C44.647 8.06 44.357 8 44.113 7.88C43.873 7.76 43.687 7.578 43.555 7.334C43.427 7.086 43.363 6.768 43.363 6.38V3.944C43.363 3.9 43.375 3.866 43.399 3.842C43.423 3.814 43.457 3.8 43.501 3.8H43.807C43.851 3.8 43.885 3.814 43.909 3.842C43.937 3.866 43.951 3.9 43.951 3.944V6.392C43.951 6.784 44.043 7.074 44.227 7.262C44.411 7.45 44.663 7.544 44.983 7.544C45.299 7.544 45.549 7.45 45.733 7.262C45.921 7.074 46.015 6.784 46.015 6.392V3.944C46.015 3.9 46.027 3.866 46.051 3.842C46.079 3.814 46.113 3.8 46.153 3.8H46.465C46.505 3.8 46.537 3.814 46.561 3.842C46.589 3.866 46.603 3.9 46.603 3.944V6.38C46.603 6.768 46.537 7.086 46.405 7.334C46.277 7.578 46.093 7.76 45.853 7.88C45.613 8 45.323 8.06 44.983 8.06ZM47.3481 8C47.3161 8 47.2861 7.988 47.2581 7.964C47.2341 7.94 47.2221 7.912 47.2221 7.88C47.2221 7.864 47.2241 7.85 47.2281 7.838C47.2361 7.822 47.2421 7.81 47.2461 7.802L48.6201 5.864L47.3121 3.998C47.3001 3.974 47.2941 3.948 47.2941 3.92C47.2941 3.888 47.3061 3.86 47.3301 3.836C47.3541 3.812 47.3821 3.8 47.4141 3.8H47.7741C47.8141 3.8 47.8461 3.81 47.8701 3.83C47.8941 3.846 47.9161 3.87 47.9361 3.902L48.9921 5.402L50.0421 3.902C50.0581 3.87 50.0781 3.846 50.1021 3.83C50.1301 3.81 50.1621 3.8 50.1981 3.8H50.5401C50.5721 3.8 50.6001 3.812 50.6241 3.836C50.6481 3.86 50.6601 3.888 50.6601 3.92C50.6601 3.948 50.6521 3.974 50.6361 3.998L49.3461 5.87L50.7141 7.802C50.7221 7.81 50.7281 7.822 50.7321 7.838C50.7361 7.85 50.7381 7.864 50.7381 7.88C50.7381 7.912 50.7261 7.94 50.7021 7.964C50.6781 7.988 50.6481 8 50.6121 8H50.2461C50.2101 8 50.1781 7.99 50.1501 7.97C50.1261 7.95 50.1041 7.928 50.0841 7.904L48.9681 6.344L47.8581 7.904C47.8381 7.928 47.8161 7.95 47.7921 7.97C47.7681 7.99 47.7361 8 47.6961 8H47.3481Z" fill="black"/>
<defs>
<clipPath id="clip0_43_130">
<rect width="8" height="8" fill="white" transform="translate(6 2)"/>
</clipPath>
</defs>
</svg>
