<svg width="43" height="12" viewBox="0 0 43 12" fill="none" xmlns="http://www.w3.org/2000/svg">
<rect width="43" height="12" rx="6" fill="#A81D33"/>
<g clip-path="url(#clip0_20_901)">
<path d="M10.6267 6.22833C10.4933 6.22833 10.6533 6.295 10.827 6.32167C10.8737 6.28833 10.917 6.24833 10.957 6.21167C10.8487 6.23548 10.7368 6.24111 10.6267 6.22833ZM11.3403 6.05167C11.417 5.94167 11.4737 5.82167 11.497 5.69833C11.477 5.78833 11.4303 5.865 11.387 5.94167C11.137 6.09833 11.3637 5.85167 11.387 5.755C11.1203 6.09167 11.3503 5.955 11.3403 6.05167ZM11.6007 5.36833C11.6173 5.128 11.554 5.20133 11.534 5.29467C11.5573 5.308 11.5773 5.46167 11.6007 5.36833ZM10.1267 2.10333C10.1933 2.11667 10.2767 2.12667 10.2667 2.14333C10.3433 2.12667 10.36 2.11 10.1233 2.10333M10.2667 2.14333L10.2167 2.15333L10.2633 2.15V2.14333M12.4743 5.458C12.481 5.67133 12.4077 5.77467 12.3477 5.958L12.231 6.01833C12.1377 6.19833 12.241 6.135 12.1743 6.27833C12.0277 6.40833 11.7277 6.685 11.6343 6.712C11.5673 6.712 11.681 6.62867 11.6977 6.59867C11.5007 6.732 11.5373 6.79867 11.2407 6.882L11.2307 6.862C10.4903 7.20867 9.46299 6.522 9.47965 5.58133C9.46965 5.638 9.45632 5.62467 9.43965 5.648C9.41944 5.40878 9.4724 5.16905 9.59153 4.96063C9.71065 4.75221 9.8903 4.58494 10.1067 4.481C10.3063 4.3805 10.5314 4.34203 10.7531 4.37055C10.9748 4.39906 11.1829 4.49325 11.3507 4.641C11.244 4.5027 11.1064 4.39143 10.9488 4.31615C10.7913 4.24088 10.6182 4.20372 10.4437 4.20767C10.0503 4.211 9.68332 4.461 9.55998 4.731C9.35999 4.85767 9.33665 5.221 9.24998 5.28467C9.12965 6.15167 9.46999 6.52533 10.0433 6.96533C10.1333 7.02867 10.07 7.03533 10.0833 7.082C9.88853 6.98956 9.71491 6.85793 9.57332 6.69533C9.64999 6.80533 9.72998 6.91533 9.83999 6.99867C9.65665 6.93867 9.41665 6.56533 9.34665 6.54867C9.65665 7.102 10.6067 7.52233 11.1003 7.31533C10.8378 7.33392 10.5742 7.30225 10.3237 7.222C10.2137 7.16867 10.067 7.052 10.0903 7.032C10.4129 7.16772 10.7662 7.21335 11.1127 7.16404C11.4591 7.11473 11.7857 6.97233 12.0577 6.752C12.2043 6.63533 12.3677 6.43867 12.4143 6.43533C12.3477 6.542 12.4277 6.48867 12.3743 6.582C12.521 6.342 12.3077 6.482 12.5277 6.16867L12.6077 6.27867C12.5777 6.07867 12.8543 5.83833 12.8277 5.52467C12.891 5.42467 12.8943 5.62467 12.8277 5.848C12.9243 5.60133 12.8543 5.56467 12.8777 5.36133C12.9043 5.428 12.9377 5.50133 12.9543 5.57133C12.8943 5.338 13.021 5.17133 13.0477 5.038C13.0177 5.02133 12.9543 5.138 12.941 4.86133C12.941 4.738 12.9743 4.79467 12.9877 4.768C12.961 4.75133 12.901 4.66133 12.861 4.481C12.8877 4.43767 12.9343 4.591 12.9743 4.59433C12.9477 4.45433 12.9077 4.34433 12.9077 4.23433C12.7943 4.00767 12.8677 4.26767 12.7743 4.13433C12.661 3.77067 12.8743 4.051 12.8877 3.88767C13.0677 4.14433 13.1677 4.541 13.2147 4.70767C13.1813 4.50767 13.1213 4.30767 13.0513 4.121C13.1047 4.14433 12.9647 3.70733 13.1213 3.99767C12.9138 3.37298 12.4777 2.84988 11.9007 2.53333C11.9607 2.59 12.0407 2.66333 12.0107 2.67333C11.7607 2.52333 11.804 2.51333 11.7673 2.45C11.564 2.36667 11.5507 2.45667 11.414 2.45C11.0273 2.24333 10.954 2.26667 10.6 2.13333L10.6167 2.21C10.36 2.12667 10.3167 2.24333 10.04 2.21C10.0233 2.19667 10.13 2.16333 10.2167 2.15C9.96965 2.18333 9.98298 2.10333 9.73965 2.16C9.79632 2.11667 9.85965 2.09 9.92298 2.05333C9.72298 2.06667 9.44298 2.17 9.52965 2.07667C9.19998 2.22667 8.61565 2.43333 8.28899 2.74L8.27932 2.66667C8.12932 2.84667 7.62598 3.20367 7.58599 3.437L7.54232 3.447C7.46565 3.58033 7.41565 3.73033 7.35232 3.86733C7.25232 4.04067 7.20232 3.934 7.21899 3.96067C7.01899 4.36733 6.91899 4.711 6.83232 4.99467C6.89232 5.08467 6.83232 5.54467 6.85565 5.91467C6.75565 7.73567 8.13565 9.50667 9.64332 9.91667C9.86665 9.99333 10.1933 9.99333 10.4733 10C10.1433 9.90667 10.1 9.95 9.77998 9.83667C9.54665 9.73 9.49665 9.60333 9.33332 9.46L9.39998 9.57667C9.07632 9.46333 9.20998 9.43667 8.94632 9.35333L9.01632 9.26333C8.91298 9.25333 8.73965 9.08667 8.69299 8.99333L8.57965 8.99667C8.44298 8.82967 8.36965 8.70633 8.37632 8.60967L8.33932 8.67633C8.29598 8.60633 7.83265 8.04267 8.07265 8.17267C8.02932 8.13267 7.96932 8.106 7.90598 7.98933L7.95265 7.93267C7.83598 7.786 7.73932 7.59267 7.74598 7.53267C7.81265 7.61267 7.85265 7.63267 7.89599 7.64267C7.60265 6.91867 7.58599 7.60267 7.36232 6.90867L7.41232 6.902C7.37899 6.84867 7.35232 6.78867 7.32565 6.732L7.34565 6.532C7.13565 6.28533 7.28565 5.498 7.31565 5.06467C7.33899 4.88467 7.49232 4.698 7.60899 4.40433L7.53899 4.391C7.67232 4.15433 8.31932 3.43367 8.61932 3.47067C8.76265 3.28733 8.58932 3.47067 8.55932 3.424C8.87932 3.09367 8.97932 3.19067 9.19299 3.13067C9.42632 2.997 8.99299 3.184 9.10298 3.08033C9.50299 2.98033 9.38632 2.847 9.90998 2.797C9.96332 2.83033 9.77998 2.84367 9.73665 2.88367C10.07 2.72033 10.787 2.76033 11.2573 2.97367C11.8007 3.23033 12.411 3.97733 12.4343 4.68433L12.461 4.691C12.4477 4.97433 12.5043 5.298 12.4043 5.59467L12.471 5.45467M9.17998 6.412L9.16332 6.50533C9.24998 6.622 9.31998 6.74867 9.42998 6.842C9.34998 6.68533 9.28998 6.622 9.17998 6.40867M9.38665 6.402C9.33998 6.352 9.31332 6.28867 9.28332 6.22867C9.30998 6.33533 9.36998 6.42867 9.42665 6.522L9.38665 6.402ZM13.035 5.608L13.0117 5.658C12.9783 5.91133 12.8983 6.16167 12.7817 6.39533C12.915 6.152 12.9983 5.88167 13.0317 5.608M10.15 2.04C10.24 2.00667 10.37 2.02333 10.4667 2C10.3433 2.01 10.22 2.01667 10.1 2.03333L10.15 2.04ZM7.00199 3.714C7.02532 3.904 6.85865 3.98067 7.03865 3.854C7.13865 3.634 7.00199 3.794 7.00532 3.714M6.79199 4.601C6.83199 4.471 6.84199 4.39433 6.85865 4.321C6.74199 4.46767 6.80199 4.49767 6.79199 4.59767" fill="white"/>
</g>
<path d="M15.66 8C15.616 8 15.582 7.988 15.558 7.964C15.534 7.936 15.522 7.902 15.522 7.862V3.944C15.522 3.9 15.534 3.866 15.558 3.842C15.582 3.814 15.616 3.8 15.66 3.8H17.022C17.434 3.8 17.766 3.862 18.018 3.986C18.27 4.11 18.454 4.294 18.57 4.538C18.686 4.778 18.746 5.074 18.75 5.426C18.754 5.606 18.756 5.764 18.756 5.9C18.756 6.036 18.754 6.192 18.75 6.368C18.742 6.736 18.68 7.042 18.564 7.286C18.452 7.526 18.272 7.706 18.024 7.826C17.78 7.942 17.456 8 17.052 8H15.66ZM16.11 7.49H17.022C17.298 7.49 17.518 7.452 17.682 7.376C17.846 7.3 17.964 7.178 18.036 7.01C18.112 6.842 18.152 6.62 18.156 6.344C18.164 6.224 18.168 6.12 18.168 6.032C18.168 5.94 18.168 5.85 18.168 5.762C18.168 5.67 18.164 5.566 18.156 5.45C18.148 5.062 18.056 4.776 17.88 4.592C17.704 4.404 17.408 4.31 16.992 4.31H16.11V7.49ZM19.7967 8C19.7527 8 19.7187 7.988 19.6947 7.964C19.6707 7.936 19.6587 7.902 19.6587 7.862V3.944C19.6587 3.9 19.6707 3.866 19.6947 3.842C19.7187 3.814 19.7527 3.8 19.7967 3.8H22.2747C22.3187 3.8 22.3527 3.814 22.3767 3.842C22.4007 3.866 22.4127 3.9 22.4127 3.944V4.172C22.4127 4.216 22.4007 4.25 22.3767 4.274C22.3527 4.298 22.3187 4.31 22.2747 4.31H20.2347V5.624H22.1427C22.1867 5.624 22.2207 5.638 22.2447 5.666C22.2687 5.69 22.2807 5.724 22.2807 5.768V5.99C22.2807 6.03 22.2687 6.064 22.2447 6.092C22.2207 6.116 22.1867 6.128 22.1427 6.128H20.2347V7.49H22.3227C22.3667 7.49 22.4007 7.502 22.4247 7.526C22.4487 7.55 22.4607 7.584 22.4607 7.628V7.862C22.4607 7.902 22.4487 7.936 22.4247 7.964C22.4007 7.988 22.3667 8 22.3227 8H19.7967ZM23.4354 8C23.3914 8 23.3574 7.988 23.3334 7.964C23.3094 7.936 23.2974 7.902 23.2974 7.862V3.944C23.2974 3.9 23.3094 3.866 23.3334 3.842C23.3574 3.814 23.3914 3.8 23.4354 3.8H25.0794C25.3794 3.8 25.6234 3.85 25.8114 3.95C26.0034 4.046 26.1434 4.178 26.2314 4.346C26.3234 4.514 26.3694 4.702 26.3694 4.91C26.3694 5.074 26.3414 5.216 26.2854 5.336C26.2334 5.452 26.1674 5.548 26.0874 5.624C26.0074 5.696 25.9294 5.752 25.8534 5.792C26.0094 5.868 26.1474 5.992 26.2674 6.164C26.3914 6.336 26.4534 6.544 26.4534 6.788C26.4534 7.008 26.4034 7.21 26.3034 7.394C26.2034 7.578 26.0534 7.726 25.8534 7.838C25.6574 7.946 25.4134 8 25.1214 8H23.4354ZM23.8854 7.514H25.0434C25.3034 7.514 25.5034 7.444 25.6434 7.304C25.7834 7.164 25.8534 6.992 25.8534 6.788C25.8534 6.576 25.7834 6.402 25.6434 6.266C25.5034 6.126 25.3034 6.056 25.0434 6.056H23.8854V7.514ZM23.8854 5.576H24.9894C25.2454 5.576 25.4394 5.518 25.5714 5.402C25.7034 5.282 25.7694 5.12 25.7694 4.916C25.7694 4.712 25.7034 4.556 25.5714 4.448C25.4394 4.34 25.2454 4.286 24.9894 4.286H23.8854V5.576ZM27.4432 8C27.3992 8 27.3652 7.988 27.3412 7.964C27.3172 7.936 27.3052 7.902 27.3052 7.862V3.938C27.3052 3.898 27.3172 3.866 27.3412 3.842C27.3652 3.814 27.3992 3.8 27.4432 3.8H27.7612C27.8012 3.8 27.8332 3.814 27.8572 3.842C27.8852 3.866 27.8992 3.898 27.8992 3.938V7.862C27.8992 7.902 27.8852 7.936 27.8572 7.964C27.8332 7.988 27.8012 8 27.7612 8H27.4432ZM28.6638 8C28.6318 8 28.6038 7.988 28.5798 7.964C28.5558 7.94 28.5438 7.912 28.5438 7.88C28.5438 7.86 28.5458 7.838 28.5498 7.814L30.0378 3.932C30.0538 3.892 30.0758 3.86 30.1038 3.836C30.1318 3.812 30.1738 3.8 30.2298 3.8H30.6378C30.6898 3.8 30.7298 3.812 30.7578 3.836C30.7898 3.86 30.8138 3.892 30.8298 3.932L32.3118 7.814C32.3198 7.838 32.3238 7.86 32.3238 7.88C32.3238 7.912 32.3118 7.94 32.2878 7.964C32.2638 7.988 32.2358 8 32.2038 8H31.8978C31.8498 8 31.8138 7.988 31.7898 7.964C31.7698 7.94 31.7558 7.918 31.7478 7.898L31.4178 7.046H29.4498L29.1198 7.898C29.1158 7.918 29.1018 7.94 29.0778 7.964C29.0538 7.988 29.0178 8 28.9698 8H28.6638ZM29.6238 6.53H31.2438L30.4338 4.4L29.6238 6.53ZM33.1034 8C33.0594 8 33.0254 7.988 33.0014 7.964C32.9774 7.936 32.9654 7.902 32.9654 7.862V3.944C32.9654 3.9 32.9774 3.866 33.0014 3.842C33.0254 3.814 33.0594 3.8 33.1034 3.8H33.3794C33.4274 3.8 33.4634 3.812 33.4874 3.836C33.5114 3.856 33.5254 3.872 33.5294 3.884L35.5214 6.944V3.944C35.5214 3.9 35.5334 3.866 35.5574 3.842C35.5814 3.814 35.6154 3.8 35.6594 3.8H35.9474C35.9914 3.8 36.0254 3.814 36.0494 3.842C36.0774 3.866 36.0914 3.9 36.0914 3.944V7.856C36.0914 7.896 36.0774 7.93 36.0494 7.958C36.0254 7.986 35.9934 8 35.9534 8H35.6654C35.6214 8 35.5874 7.988 35.5634 7.964C35.5434 7.94 35.5294 7.924 35.5214 7.916L33.5354 4.886V7.862C33.5354 7.902 33.5214 7.936 33.4934 7.964C33.4694 7.988 33.4354 8 33.3914 8H33.1034Z" fill="white"/>
<defs>
<clipPath id="clip0_20_901">
<rect width="8" height="8" fill="white" transform="translate(6 2)"/>
</clipPath>
</defs>
</svg>
