<svg width="64" height="12" viewBox="0 0 64 12" fill="none" xmlns="http://www.w3.org/2000/svg">
<rect width="64" height="12" rx="6" fill="#7F7FFF"/>
<g clip-path="url(#clip0_43_140)">
<path d="M10.6767 2.67866V2.67933C10.4343 2.71266 6 8.15333 6 8.15333C6 8.15333 6.319 8.244 7.045 8.34933C7.045 8.34933 10.5233 2.66233 10.6797 2.68C10.6793 2.68 10.6767 2.678 10.6767 2.67866ZM7.045 8.34933C6.72833 8.87 6.475 9.28866 6.475 9.28866C6.475 9.28866 9.881 9.442 12.53 9.08666C16.2993 8.58133 11.7553 3.76666 10.6843 2.682C11.5317 3.802 15.1753 8.599 11.504 8.661C10.2073 8.683 7.045 8.34933 7.045 8.34933ZM10.6803 2.67933V2.68C10.6877 2.68333 10.6803 2.68066 10.6803 2.67933ZM10.668 2.945C10.6497 2.96933 10.638 2.98233 10.616 3.01333C10.4693 3.22176 10.3265 3.4329 10.1877 3.64666C9.76771 4.29174 9.35402 4.94089 8.94667 5.594C8.13067 6.89666 7.45767 7.99666 7.33133 8.20266C7.676 8.23833 10.314 8.51433 11.5007 8.49433C11.9413 8.487 12.2587 8.40766 12.476 8.28666C12.6933 8.16566 12.8167 8.007 12.8853 7.80433C13.023 7.39866 12.9063 6.78866 12.6343 6.13166C12.122 4.89466 11.1393 3.56966 10.668 2.945Z" fill="black"/>
</g>
<path d="M15.66 8C15.616 8 15.582 7.988 15.558 7.964C15.534 7.936 15.522 7.902 15.522 7.862V3.944C15.522 3.9 15.534 3.866 15.558 3.842C15.582 3.814 15.616 3.8 15.66 3.8H18.138C18.182 3.8 18.216 3.814 18.24 3.842C18.264 3.866 18.276 3.9 18.276 3.944V4.172C18.276 4.216 18.264 4.25 18.24 4.274C18.216 4.298 18.182 4.31 18.138 4.31H16.098V5.624H18.006C18.05 5.624 18.084 5.638 18.108 5.666C18.132 5.69 18.144 5.724 18.144 5.768V5.99C18.144 6.03 18.132 6.064 18.108 6.092C18.084 6.116 18.05 6.128 18.006 6.128H16.098V7.49H18.186C18.23 7.49 18.264 7.502 18.288 7.526C18.312 7.55 18.324 7.584 18.324 7.628V7.862C18.324 7.902 18.312 7.936 18.288 7.964C18.264 7.988 18.23 8 18.186 8H15.66ZM19.2987 8C19.2547 8 19.2207 7.988 19.1967 7.964C19.1727 7.936 19.1607 7.902 19.1607 7.862V3.944C19.1607 3.9 19.1727 3.866 19.1967 3.842C19.2207 3.814 19.2547 3.8 19.2987 3.8H19.5747C19.6227 3.8 19.6587 3.812 19.6827 3.836C19.7067 3.856 19.7207 3.872 19.7247 3.884L21.7167 6.944V3.944C21.7167 3.9 21.7287 3.866 21.7527 3.842C21.7767 3.814 21.8107 3.8 21.8547 3.8H22.1427C22.1867 3.8 22.2207 3.814 22.2447 3.842C22.2727 3.866 22.2867 3.9 22.2867 3.944V7.856C22.2867 7.896 22.2727 7.93 22.2447 7.958C22.2207 7.986 22.1887 8 22.1487 8H21.8607C21.8167 8 21.7827 7.988 21.7587 7.964C21.7387 7.94 21.7247 7.924 21.7167 7.916L19.7307 4.886V7.862C19.7307 7.902 19.7167 7.936 19.6887 7.964C19.6647 7.988 19.6307 8 19.5867 8H19.2987ZM23.4647 8C23.4207 8 23.3867 7.988 23.3627 7.964C23.3387 7.936 23.3267 7.902 23.3267 7.862V3.944C23.3267 3.9 23.3387 3.866 23.3627 3.842C23.3867 3.814 23.4207 3.8 23.4647 3.8H24.8267C25.2387 3.8 25.5707 3.862 25.8227 3.986C26.0747 4.11 26.2587 4.294 26.3747 4.538C26.4907 4.778 26.5507 5.074 26.5547 5.426C26.5587 5.606 26.5607 5.764 26.5607 5.9C26.5607 6.036 26.5587 6.192 26.5547 6.368C26.5467 6.736 26.4847 7.042 26.3687 7.286C26.2567 7.526 26.0767 7.706 25.8287 7.826C25.5847 7.942 25.2607 8 24.8567 8H23.4647ZM23.9147 7.49H24.8267C25.1027 7.49 25.3227 7.452 25.4867 7.376C25.6507 7.3 25.7687 7.178 25.8407 7.01C25.9167 6.842 25.9567 6.62 25.9607 6.344C25.9687 6.224 25.9727 6.12 25.9727 6.032C25.9727 5.94 25.9727 5.85 25.9727 5.762C25.9727 5.67 25.9687 5.566 25.9607 5.45C25.9527 5.062 25.8607 4.776 25.6847 4.592C25.5087 4.404 25.2127 4.31 24.7967 4.31H23.9147V7.49ZM27.6014 8C27.5574 8 27.5234 7.988 27.4994 7.964C27.4754 7.936 27.4634 7.902 27.4634 7.862V3.944C27.4634 3.9 27.4754 3.866 27.4994 3.842C27.5234 3.814 27.5574 3.8 27.6014 3.8H30.0794C30.1234 3.8 30.1574 3.814 30.1814 3.842C30.2054 3.866 30.2174 3.9 30.2174 3.944V4.172C30.2174 4.216 30.2054 4.25 30.1814 4.274C30.1574 4.298 30.1234 4.31 30.0794 4.31H28.0394V5.624H29.9474C29.9914 5.624 30.0254 5.638 30.0494 5.666C30.0734 5.69 30.0854 5.724 30.0854 5.768V5.99C30.0854 6.03 30.0734 6.064 30.0494 6.092C30.0254 6.116 29.9914 6.128 29.9474 6.128H28.0394V7.49H30.1274C30.1714 7.49 30.2054 7.502 30.2294 7.526C30.2534 7.55 30.2654 7.584 30.2654 7.628V7.862C30.2654 7.902 30.2534 7.936 30.2294 7.964C30.2054 7.988 30.1714 8 30.1274 8H27.6014ZM30.8201 8C30.7881 8 30.7601 7.988 30.7361 7.964C30.7121 7.94 30.7001 7.912 30.7001 7.88C30.7001 7.86 30.7021 7.838 30.7061 7.814L32.1941 3.932C32.2101 3.892 32.2321 3.86 32.2601 3.836C32.2881 3.812 32.3301 3.8 32.3861 3.8H32.7941C32.8461 3.8 32.8861 3.812 32.9141 3.836C32.9461 3.86 32.9701 3.892 32.9861 3.932L34.4681 7.814C34.4761 7.838 34.4801 7.86 34.4801 7.88C34.4801 7.912 34.4681 7.94 34.4441 7.964C34.4201 7.988 34.3921 8 34.3601 8H34.0541C34.0061 8 33.9701 7.988 33.9461 7.964C33.9261 7.94 33.9121 7.918 33.9041 7.898L33.5741 7.046H31.6061L31.2761 7.898C31.2721 7.918 31.2581 7.94 31.2341 7.964C31.2101 7.988 31.1741 8 31.1261 8H30.8201ZM31.7801 6.53H33.4001L32.5901 4.4L31.7801 6.53ZM36.0766 8C36.0166 8 35.9686 7.986 35.9326 7.958C35.9006 7.93 35.8746 7.892 35.8546 7.844L34.5166 3.986C34.5086 3.962 34.5046 3.94 34.5046 3.92C34.5046 3.888 34.5166 3.86 34.5406 3.836C34.5646 3.812 34.5926 3.8 34.6246 3.8H34.9366C34.9846 3.8 35.0206 3.814 35.0446 3.842C35.0726 3.866 35.0886 3.888 35.0926 3.908L36.2686 7.31L37.4446 3.908C37.4526 3.888 37.4686 3.866 37.4926 3.842C37.5166 3.814 37.5526 3.8 37.6006 3.8H37.9126C37.9446 3.8 37.9726 3.812 37.9966 3.836C38.0246 3.86 38.0386 3.888 38.0386 3.92C38.0386 3.94 38.0346 3.962 38.0266 3.986L36.6826 7.844C36.6666 7.892 36.6406 7.93 36.6046 7.958C36.5726 7.986 36.5266 8 36.4666 8H36.0766ZM40.1432 8.06C39.8032 8.06 39.5112 8.002 39.2672 7.886C39.0232 7.766 38.8352 7.584 38.7032 7.34C38.5712 7.092 38.4972 6.782 38.4812 6.41C38.4772 6.234 38.4752 6.066 38.4752 5.906C38.4752 5.742 38.4772 5.572 38.4812 5.396C38.4972 5.028 38.5732 4.722 38.7092 4.478C38.8492 4.23 39.0412 4.046 39.2852 3.926C39.5332 3.802 39.8192 3.74 40.1432 3.74C40.4712 3.74 40.7572 3.802 41.0012 3.926C41.2492 4.046 41.4432 4.23 41.5832 4.478C41.7232 4.722 41.7992 5.028 41.8112 5.396C41.8192 5.572 41.8232 5.742 41.8232 5.906C41.8232 6.066 41.8192 6.234 41.8112 6.41C41.7992 6.782 41.7252 7.092 41.5892 7.34C41.4572 7.584 41.2692 7.766 41.0252 7.886C40.7812 8.002 40.4872 8.06 40.1432 8.06ZM40.1432 7.55C40.4512 7.55 40.7012 7.458 40.8932 7.274C41.0892 7.09 41.1952 6.792 41.2112 6.38C41.2192 6.2 41.2232 6.04 41.2232 5.9C41.2232 5.756 41.2192 5.596 41.2112 5.42C41.2032 5.144 41.1512 4.92 41.0552 4.748C40.9632 4.576 40.8392 4.45 40.6832 4.37C40.5272 4.29 40.3472 4.25 40.1432 4.25C39.9472 4.25 39.7712 4.29 39.6152 4.37C39.4592 4.45 39.3332 4.576 39.2372 4.748C39.1452 4.92 39.0932 5.144 39.0812 5.42C39.0772 5.596 39.0752 5.756 39.0752 5.9C39.0752 6.04 39.0772 6.2 39.0812 6.38C39.0972 6.792 39.2032 7.09 39.3992 7.274C39.5952 7.458 39.8432 7.55 40.1432 7.55ZM44.2818 8.06C43.9458 8.06 43.6558 8 43.4118 7.88C43.1718 7.76 42.9858 7.578 42.8538 7.334C42.7258 7.086 42.6618 6.768 42.6618 6.38V3.944C42.6618 3.9 42.6738 3.866 42.6978 3.842C42.7218 3.814 42.7558 3.8 42.7998 3.8H43.1058C43.1498 3.8 43.1838 3.814 43.2078 3.842C43.2358 3.866 43.2498 3.9 43.2498 3.944V6.392C43.2498 6.784 43.3418 7.074 43.5258 7.262C43.7098 7.45 43.9618 7.544 44.2818 7.544C44.5978 7.544 44.8478 7.45 45.0318 7.262C45.2198 7.074 45.3138 6.784 45.3138 6.392V3.944C45.3138 3.9 45.3258 3.866 45.3498 3.842C45.3778 3.814 45.4118 3.8 45.4518 3.8H45.7638C45.8038 3.8 45.8358 3.814 45.8598 3.842C45.8878 3.866 45.9018 3.9 45.9018 3.944V6.38C45.9018 6.768 45.8358 7.086 45.7038 7.334C45.5758 7.578 45.3918 7.76 45.1518 7.88C44.9118 8 44.6218 8.06 44.2818 8.06ZM47.0428 8C46.9988 8 46.9648 7.988 46.9408 7.964C46.9168 7.936 46.9048 7.902 46.9048 7.862V3.944C46.9048 3.9 46.9168 3.866 46.9408 3.842C46.9648 3.814 46.9988 3.8 47.0428 3.8H48.5068C48.9588 3.8 49.3168 3.906 49.5808 4.118C49.8448 4.33 49.9768 4.644 49.9768 5.06C49.9768 5.368 49.8988 5.62 49.7428 5.816C49.5908 6.008 49.3828 6.142 49.1188 6.218L50.0428 7.814C50.0548 7.838 50.0608 7.86 50.0608 7.88C50.0608 7.912 50.0468 7.94 50.0188 7.964C49.9948 7.988 49.9668 8 49.9348 8H49.6468C49.5788 8 49.5288 7.982 49.4968 7.946C49.4648 7.91 49.4368 7.874 49.4128 7.838L48.5428 6.314H47.4928V7.862C47.4928 7.902 47.4788 7.936 47.4508 7.964C47.4268 7.988 47.3928 8 47.3488 8H47.0428ZM47.4928 5.804H48.4828C48.7828 5.804 49.0068 5.742 49.1548 5.618C49.3028 5.49 49.3768 5.302 49.3768 5.054C49.3768 4.81 49.3028 4.624 49.1548 4.496C49.0108 4.368 48.7868 4.304 48.4828 4.304H47.4928V5.804ZM52.3366 8.06C51.9966 8.06 51.7046 8.002 51.4606 7.886C51.2166 7.766 51.0286 7.584 50.8966 7.34C50.7646 7.092 50.6906 6.782 50.6746 6.41C50.6706 6.234 50.6686 6.066 50.6686 5.906C50.6686 5.742 50.6706 5.572 50.6746 5.396C50.6906 5.028 50.7666 4.722 50.9026 4.478C51.0426 4.23 51.2346 4.046 51.4786 3.926C51.7266 3.802 52.0126 3.74 52.3366 3.74C52.6646 3.74 52.9506 3.802 53.1946 3.926C53.4426 4.046 53.6366 4.23 53.7766 4.478C53.9166 4.722 53.9926 5.028 54.0046 5.396C54.0126 5.572 54.0166 5.742 54.0166 5.906C54.0166 6.066 54.0126 6.234 54.0046 6.41C53.9926 6.782 53.9186 7.092 53.7826 7.34C53.6506 7.584 53.4626 7.766 53.2186 7.886C52.9746 8.002 52.6806 8.06 52.3366 8.06ZM52.3366 7.55C52.6446 7.55 52.8946 7.458 53.0866 7.274C53.2826 7.09 53.3886 6.792 53.4046 6.38C53.4126 6.2 53.4166 6.04 53.4166 5.9C53.4166 5.756 53.4126 5.596 53.4046 5.42C53.3966 5.144 53.3446 4.92 53.2486 4.748C53.1566 4.576 53.0326 4.45 52.8766 4.37C52.7206 4.29 52.5406 4.25 52.3366 4.25C52.1406 4.25 51.9646 4.29 51.8086 4.37C51.6526 4.45 51.5266 4.576 51.4306 4.748C51.3386 4.92 51.2866 5.144 51.2746 5.42C51.2706 5.596 51.2686 5.756 51.2686 5.9C51.2686 6.04 51.2706 6.2 51.2746 6.38C51.2906 6.792 51.3966 7.09 51.5926 7.274C51.7886 7.458 52.0366 7.55 52.3366 7.55ZM56.2411 8.06C55.8931 8.06 55.6011 8.008 55.3651 7.904C55.1291 7.796 54.9471 7.658 54.8191 7.49C54.6951 7.318 54.6291 7.136 54.6211 6.944C54.6211 6.912 54.6331 6.884 54.6571 6.86C54.6851 6.832 54.7171 6.818 54.7531 6.818H55.0591C55.1071 6.818 55.1431 6.83 55.1671 6.854C55.1911 6.878 55.2071 6.906 55.2151 6.938C55.2351 7.034 55.2831 7.13 55.3591 7.226C55.4391 7.318 55.5491 7.396 55.6891 7.46C55.8331 7.52 56.0171 7.55 56.2411 7.55C56.5851 7.55 56.8371 7.49 56.9971 7.37C57.1611 7.246 57.2431 7.082 57.2431 6.878C57.2431 6.738 57.1991 6.626 57.1111 6.542C57.0271 6.454 56.8971 6.376 56.7211 6.308C56.5451 6.24 56.3171 6.166 56.0371 6.086C55.7451 6.002 55.5031 5.91 55.3111 5.81C55.1191 5.71 54.9751 5.586 54.8791 5.438C54.7871 5.29 54.7411 5.102 54.7411 4.874C54.7411 4.658 54.7991 4.466 54.9151 4.298C55.0311 4.126 55.1971 3.99 55.4131 3.89C55.6331 3.79 55.8991 3.74 56.2111 3.74C56.4591 3.74 56.6751 3.774 56.8591 3.842C57.0471 3.906 57.2031 3.994 57.3271 4.106C57.4511 4.214 57.5451 4.332 57.6091 4.46C57.6731 4.584 57.7071 4.706 57.7111 4.826C57.7111 4.854 57.7011 4.882 57.6811 4.91C57.6611 4.934 57.6291 4.946 57.5851 4.946H57.2671C57.2391 4.946 57.2091 4.938 57.1771 4.922C57.1491 4.906 57.1271 4.876 57.1111 4.832C57.0871 4.668 56.9951 4.53 56.8351 4.418C56.6751 4.306 56.4671 4.25 56.2111 4.25C55.9511 4.25 55.7391 4.3 55.5751 4.4C55.4151 4.5 55.3351 4.656 55.3351 4.868C55.3351 5.004 55.3731 5.118 55.4491 5.21C55.5251 5.298 55.6451 5.376 55.8091 5.444C55.9731 5.512 56.1871 5.584 56.4511 5.66C56.7711 5.748 57.0331 5.842 57.2371 5.942C57.4411 6.038 57.5911 6.16 57.6871 6.308C57.7871 6.452 57.8371 6.638 57.8371 6.866C57.8371 7.118 57.7711 7.334 57.6391 7.514C57.5071 7.69 57.3211 7.826 57.0811 7.922C56.8451 8.014 56.5651 8.06 56.2411 8.06Z" fill="black"/>
<defs>
<clipPath id="clip0_43_140">
<rect width="8" height="8" fill="white" transform="translate(6 2)"/>
</clipPath>
</defs>
</svg>
