<svg width="54" height="12" viewBox="0 0 54 12" fill="none" xmlns="http://www.w3.org/2000/svg">
<rect width="54" height="12" rx="6" fill="#87CF3E"/>
<g clip-path="url(#clip0_20_900)">
<path d="M6 2.56433V3.962H6.60933C7.03467 3.962 7.11 4.25033 7.11 4.648L7.11333 7.11866C7.11333 8.39866 8.26 9.43566 9.67333 9.43566H13.1613C13.6087 9.43566 14 9.159 14 8.733V4.902C14 3.622 12.8533 2.58533 11.439 2.58533H9.97067V2.581L6 2.56433ZM7.90767 3.41966H8.60833V6.94C8.60833 7.411 8.93633 7.77666 9.32133 7.77666L11.7113 7.78666C12.21 7.78666 12.5983 7.45 12.5983 7.05133L12.5943 5.18233C12.5957 5.12553 12.5849 5.0691 12.5627 5.0168C12.5405 4.9645 12.5074 4.91752 12.4657 4.879C12.4265 4.83747 12.3791 4.80462 12.3264 4.78257C12.2738 4.76052 12.2171 4.74976 12.16 4.751C12.0353 4.751 11.9433 4.791 11.854 4.879C11.8122 4.91752 11.7792 4.9645 11.757 5.0168C11.7348 5.0691 11.724 5.12553 11.7253 5.18233V6.78166H10.9843V5.18266C10.9843 5.06133 10.943 4.96666 10.8547 4.87933C10.8157 4.83753 10.7683 4.8045 10.7156 4.78243C10.6629 4.76036 10.6061 4.74976 10.549 4.75133C10.427 4.75133 10.3333 4.79133 10.2443 4.87933C10.156 4.96666 10.1143 5.06133 10.1143 5.18266V6.782H9.37333V5.18266C9.37333 4.866 9.49333 4.58533 9.72067 4.36066C9.82887 4.25128 9.95796 4.16477 10.1003 4.10624C10.2425 4.04772 10.3951 4.01839 10.549 4.02C10.8613 4.02 11.133 4.135 11.3533 4.34333C11.5695 4.13413 11.8592 4.01804 12.16 4.02C12.478 4.02 12.761 4.136 12.9883 4.36066C13.099 4.46689 13.1869 4.59457 13.2465 4.73591C13.3062 4.87724 13.3364 5.02926 13.3353 5.18266L13.3383 7.17966C13.3033 7.51433 13.1587 7.811 12.9117 8.05866H12.911C12.7734 8.1994 12.6087 8.31078 12.4269 8.38607C12.245 8.46135 12.0498 8.49897 11.853 8.49666H9.19133V8.484C8.866 8.44966 8.576 8.311 8.33467 8.07833C8.053 7.80333 7.90767 7.463 7.90767 7.075V3.42V3.41966Z" fill="black"/>
</g>
<path d="M15.66 8C15.616 8 15.582 7.988 15.558 7.964C15.534 7.936 15.522 7.902 15.522 7.862V3.938C15.522 3.898 15.534 3.866 15.558 3.842C15.582 3.814 15.616 3.8 15.66 3.8H15.978C16.018 3.8 16.05 3.814 16.074 3.842C16.098 3.866 16.11 3.898 16.11 3.938V7.478H18.108C18.152 7.478 18.186 7.492 18.21 7.52C18.234 7.544 18.246 7.578 18.246 7.622V7.862C18.246 7.902 18.234 7.936 18.21 7.964C18.186 7.988 18.152 8 18.108 8H15.66ZM19.0409 8C18.9969 8 18.9629 7.988 18.9389 7.964C18.9149 7.936 18.9029 7.902 18.9029 7.862V3.938C18.9029 3.898 18.9149 3.866 18.9389 3.842C18.9629 3.814 18.9969 3.8 19.0409 3.8H19.3589C19.3989 3.8 19.4309 3.814 19.4549 3.842C19.4829 3.866 19.4969 3.898 19.4969 3.938V7.862C19.4969 7.902 19.4829 7.936 19.4549 7.964C19.4309 7.988 19.3989 8 19.3589 8H19.0409ZM20.6815 8C20.6375 8 20.6035 7.988 20.5795 7.964C20.5555 7.936 20.5435 7.902 20.5435 7.862V3.944C20.5435 3.9 20.5555 3.866 20.5795 3.842C20.6035 3.814 20.6375 3.8 20.6815 3.8H20.9575C21.0055 3.8 21.0415 3.812 21.0655 3.836C21.0895 3.856 21.1035 3.872 21.1075 3.884L23.0995 6.944V3.944C23.0995 3.9 23.1115 3.866 23.1355 3.842C23.1595 3.814 23.1935 3.8 23.2375 3.8H23.5255C23.5695 3.8 23.6035 3.814 23.6275 3.842C23.6555 3.866 23.6695 3.9 23.6695 3.944V7.856C23.6695 7.896 23.6555 7.93 23.6275 7.958C23.6035 7.986 23.5715 8 23.5315 8H23.2435C23.1995 8 23.1655 7.988 23.1415 7.964C23.1215 7.94 23.1075 7.924 23.0995 7.916L21.1135 4.886V7.862C21.1135 7.902 21.0995 7.936 21.0715 7.964C21.0475 7.988 21.0135 8 20.9695 8H20.6815ZM26.2935 8.06C25.9575 8.06 25.6675 8 25.4235 7.88C25.1835 7.76 24.9975 7.578 24.8655 7.334C24.7375 7.086 24.6735 6.768 24.6735 6.38V3.944C24.6735 3.9 24.6855 3.866 24.7095 3.842C24.7335 3.814 24.7675 3.8 24.8115 3.8H25.1175C25.1615 3.8 25.1955 3.814 25.2195 3.842C25.2475 3.866 25.2615 3.9 25.2615 3.944V6.392C25.2615 6.784 25.3535 7.074 25.5375 7.262C25.7215 7.45 25.9735 7.544 26.2935 7.544C26.6095 7.544 26.8595 7.45 27.0435 7.262C27.2315 7.074 27.3255 6.784 27.3255 6.392V3.944C27.3255 3.9 27.3375 3.866 27.3615 3.842C27.3895 3.814 27.4235 3.8 27.4635 3.8H27.7755C27.8155 3.8 27.8475 3.814 27.8715 3.842C27.8995 3.866 27.9135 3.9 27.9135 3.944V6.38C27.9135 6.768 27.8475 7.086 27.7155 7.334C27.5875 7.578 27.4035 7.76 27.1635 7.88C26.9235 8 26.6335 8.06 26.2935 8.06ZM28.6587 8C28.6267 8 28.5967 7.988 28.5687 7.964C28.5447 7.94 28.5327 7.912 28.5327 7.88C28.5327 7.864 28.5347 7.85 28.5387 7.838C28.5467 7.822 28.5527 7.81 28.5567 7.802L29.9307 5.864L28.6227 3.998C28.6107 3.974 28.6047 3.948 28.6047 3.92C28.6047 3.888 28.6167 3.86 28.6407 3.836C28.6647 3.812 28.6927 3.8 28.7247 3.8H29.0847C29.1247 3.8 29.1567 3.81 29.1807 3.83C29.2047 3.846 29.2267 3.87 29.2467 3.902L30.3027 5.402L31.3527 3.902C31.3687 3.87 31.3887 3.846 31.4127 3.83C31.4407 3.81 31.4727 3.8 31.5087 3.8H31.8507C31.8827 3.8 31.9107 3.812 31.9347 3.836C31.9587 3.86 31.9707 3.888 31.9707 3.92C31.9707 3.948 31.9627 3.974 31.9467 3.998L30.6567 5.87L32.0247 7.802C32.0327 7.81 32.0387 7.822 32.0427 7.838C32.0467 7.85 32.0487 7.864 32.0487 7.88C32.0487 7.912 32.0367 7.94 32.0127 7.964C31.9887 7.988 31.9587 8 31.9227 8H31.5567C31.5207 8 31.4887 7.99 31.4607 7.97C31.4367 7.95 31.4147 7.928 31.3947 7.904L30.2787 6.344L29.1687 7.904C29.1487 7.928 29.1267 7.95 29.1027 7.97C29.0787 7.99 29.0467 8 29.0067 8H28.6587ZM34.3163 8C34.2763 8 34.2423 7.988 34.2143 7.964C34.1903 7.936 34.1783 7.902 34.1783 7.862V3.944C34.1783 3.9 34.1903 3.866 34.2143 3.842C34.2423 3.814 34.2763 3.8 34.3163 3.8H34.6163C34.6643 3.8 34.7003 3.812 34.7243 3.836C34.7483 3.86 34.7623 3.88 34.7663 3.896L36.0383 6.32L37.3163 3.896C37.3243 3.88 37.3383 3.86 37.3583 3.836C37.3823 3.812 37.4183 3.8 37.4663 3.8H37.7603C37.8043 3.8 37.8383 3.814 37.8623 3.842C37.8903 3.866 37.9043 3.9 37.9043 3.944V7.862C37.9043 7.902 37.8903 7.936 37.8623 7.964C37.8383 7.988 37.8043 8 37.7603 8H37.4663C37.4263 8 37.3923 7.988 37.3643 7.964C37.3403 7.936 37.3283 7.902 37.3283 7.862V4.91L36.3263 6.866C36.3103 6.906 36.2863 6.938 36.2543 6.962C36.2223 6.982 36.1823 6.992 36.1343 6.992H35.9483C35.8963 6.992 35.8543 6.982 35.8223 6.962C35.7943 6.938 35.7703 6.906 35.7503 6.866L34.7483 4.91V7.862C34.7483 7.902 34.7343 7.936 34.7063 7.964C34.6823 7.988 34.6503 8 34.6103 8H34.3163ZM39.0799 8C39.0359 8 39.0019 7.988 38.9779 7.964C38.9539 7.936 38.9419 7.902 38.9419 7.862V3.938C38.9419 3.898 38.9539 3.866 38.9779 3.842C39.0019 3.814 39.0359 3.8 39.0799 3.8H39.3979C39.4379 3.8 39.4699 3.814 39.4939 3.842C39.5219 3.866 39.5359 3.898 39.5359 3.938V7.862C39.5359 7.902 39.5219 7.936 39.4939 7.964C39.4699 7.988 39.4379 8 39.3979 8H39.0799ZM40.7205 8C40.6765 8 40.6425 7.988 40.6185 7.964C40.5945 7.936 40.5825 7.902 40.5825 7.862V3.944C40.5825 3.9 40.5945 3.866 40.6185 3.842C40.6425 3.814 40.6765 3.8 40.7205 3.8H40.9965C41.0445 3.8 41.0805 3.812 41.1045 3.836C41.1285 3.856 41.1425 3.872 41.1465 3.884L43.1385 6.944V3.944C43.1385 3.9 43.1505 3.866 43.1745 3.842C43.1985 3.814 43.2325 3.8 43.2765 3.8H43.5645C43.6085 3.8 43.6425 3.814 43.6665 3.842C43.6945 3.866 43.7085 3.9 43.7085 3.944V7.856C43.7085 7.896 43.6945 7.93 43.6665 7.958C43.6425 7.986 43.6105 8 43.5705 8H43.2825C43.2385 8 43.2045 7.988 43.1805 7.964C43.1605 7.94 43.1465 7.924 43.1385 7.916L41.1525 4.886V7.862C41.1525 7.902 41.1385 7.936 41.1105 7.964C41.0865 7.988 41.0525 8 41.0085 8H40.7205ZM45.8046 8C45.7646 8 45.7306 7.988 45.7026 7.964C45.6786 7.936 45.6666 7.902 45.6666 7.862V4.334H44.5146C44.4746 4.334 44.4406 4.322 44.4126 4.298C44.3886 4.27 44.3766 4.236 44.3766 4.196V3.944C44.3766 3.9 44.3886 3.866 44.4126 3.842C44.4406 3.814 44.4746 3.8 44.5146 3.8H47.4066C47.4506 3.8 47.4846 3.814 47.5086 3.842C47.5366 3.866 47.5506 3.9 47.5506 3.944V4.196C47.5506 4.236 47.5366 4.27 47.5086 4.298C47.4846 4.322 47.4506 4.334 47.4066 4.334H46.2606V7.862C46.2606 7.902 46.2466 7.936 46.2186 7.964C46.1946 7.988 46.1606 8 46.1166 8H45.8046Z" fill="black"/>
<defs>
<clipPath id="clip0_20_900">
<rect width="8" height="8" fill="white" transform="translate(6 2)"/>
</clipPath>
</defs>
</svg>
