<svg width="46" height="12" viewBox="0 0 46 12" fill="none" xmlns="http://www.w3.org/2000/svg">
<rect width="46" height="12" rx="6" fill="#E95420"/>
<g clip-path="url(#clip0_29_187)">
<path d="M11.87 2.15166C11.5685 2.15166 11.2794 2.27142 11.0663 2.48459C10.8531 2.69775 10.7333 2.98687 10.7333 3.28833C10.7333 3.58979 10.8531 3.87891 11.0663 4.09208C11.2794 4.30524 11.5685 4.425 11.87 4.425C12.1715 4.425 12.4606 4.30524 12.6737 4.09208C12.8869 3.87891 13.0067 3.58979 13.0067 3.28833C13.0067 2.98687 12.8869 2.69775 12.6737 2.48459C12.4606 2.27142 12.1715 2.15166 11.87 2.15166ZM10.3067 2.26666C8.97433 2.259 7.71233 2.98033 7.04933 4.15033C7.07819 4.14872 7.10709 4.14794 7.136 4.148C7.44046 4.14832 7.73882 4.23338 7.99767 4.39366C8.24818 4.03183 8.58125 3.73485 8.96932 3.52728C9.35739 3.31971 9.7893 3.20752 10.2293 3.2C10.2477 2.86469 10.3681 2.543 10.5743 2.278C10.4853 2.27096 10.396 2.26718 10.3067 2.26666ZM13.382 3.93133C13.2507 4.24053 13.0275 4.50189 12.7427 4.68C12.97 5.10924 13.0812 5.59046 13.0653 6.07593C13.0493 6.56141 12.9067 7.03428 12.6517 7.44767C12.9178 7.66544 13.1082 7.96179 13.1957 8.29433C13.6829 7.67967 13.9633 6.92669 13.9967 6.14306C14.0302 5.35944 13.815 4.5853 13.382 3.93133ZM7.13667 4.644C6.8352 4.644 6.54609 4.76375 6.33292 4.97692C6.11976 5.19009 6 5.4792 6 5.78066C6.00009 6.08207 6.11988 6.3711 6.33304 6.58419C6.5462 6.79729 6.83526 6.917 7.13667 6.917C7.43813 6.917 7.72725 6.79724 7.94041 6.58408C8.15358 6.37091 8.27333 6.08179 8.27333 5.78033C8.27333 5.47887 8.15358 5.18975 7.94041 4.97659C7.72725 4.76342 7.43813 4.644 7.13667 4.644ZM7.81233 7.266C7.50822 7.40402 7.16914 7.44566 6.84067 7.38533C7.06786 7.94717 7.42957 8.44459 7.89403 8.83389C8.35848 9.2232 8.91145 9.49245 9.50433 9.618C9.76964 9.67483 10.0403 9.70266 10.3117 9.701C10.103 9.42752 9.9864 9.09491 9.97867 8.751C9.88508 8.74054 9.79208 8.72541 9.7 8.70567C9.29824 8.62069 8.92043 8.44739 8.59394 8.19833C8.26744 7.94927 8.00046 7.63068 7.81233 7.26567V7.266ZM11.614 7.57533C11.3125 7.57533 11.0234 7.69509 10.8103 7.90825C10.5971 8.12142 10.4773 8.41054 10.4773 8.712C10.4773 9.01346 10.5971 9.30258 10.8103 9.51574C11.0234 9.72891 11.3125 9.84866 11.614 9.84866C11.9155 9.84866 12.2046 9.72891 12.4177 9.51574C12.6309 9.30258 12.7507 9.01346 12.7507 8.712C12.7507 8.41054 12.6309 8.12142 12.4177 7.90825C12.2046 7.69509 11.9155 7.57533 11.614 7.57533Z" fill="black"/>
</g>
<path d="M18.106 8.06C17.77 8.06 17.48 8 17.236 7.88C16.996 7.76 16.81 7.578 16.678 7.334C16.55 7.086 16.486 6.768 16.486 6.38V3.944C16.486 3.9 16.498 3.866 16.522 3.842C16.546 3.814 16.58 3.8 16.624 3.8H16.93C16.974 3.8 17.008 3.814 17.032 3.842C17.06 3.866 17.074 3.9 17.074 3.944V6.392C17.074 6.784 17.166 7.074 17.35 7.262C17.534 7.45 17.786 7.544 18.106 7.544C18.422 7.544 18.672 7.45 18.856 7.262C19.044 7.074 19.138 6.784 19.138 6.392V3.944C19.138 3.9 19.15 3.866 19.174 3.842C19.202 3.814 19.236 3.8 19.276 3.8H19.588C19.628 3.8 19.66 3.814 19.684 3.842C19.712 3.866 19.726 3.9 19.726 3.944V6.38C19.726 6.768 19.66 7.086 19.528 7.334C19.4 7.578 19.216 7.76 18.976 7.88C18.736 8 18.446 8.06 18.106 8.06ZM20.867 8C20.823 8 20.789 7.988 20.765 7.964C20.741 7.936 20.729 7.902 20.729 7.862V3.944C20.729 3.9 20.741 3.866 20.765 3.842C20.789 3.814 20.823 3.8 20.867 3.8H22.511C22.811 3.8 23.055 3.85 23.243 3.95C23.435 4.046 23.575 4.178 23.663 4.346C23.755 4.514 23.801 4.702 23.801 4.91C23.801 5.074 23.773 5.216 23.717 5.336C23.665 5.452 23.599 5.548 23.519 5.624C23.439 5.696 23.361 5.752 23.285 5.792C23.441 5.868 23.579 5.992 23.699 6.164C23.823 6.336 23.885 6.544 23.885 6.788C23.885 7.008 23.835 7.21 23.735 7.394C23.635 7.578 23.485 7.726 23.285 7.838C23.089 7.946 22.845 8 22.553 8H20.867ZM21.317 7.514H22.475C22.735 7.514 22.935 7.444 23.075 7.304C23.215 7.164 23.285 6.992 23.285 6.788C23.285 6.576 23.215 6.402 23.075 6.266C22.935 6.126 22.735 6.056 22.475 6.056H21.317V7.514ZM21.317 5.576H22.421C22.677 5.576 22.871 5.518 23.003 5.402C23.135 5.282 23.201 5.12 23.201 4.916C23.201 4.712 23.135 4.556 23.003 4.448C22.871 4.34 22.677 4.286 22.421 4.286H21.317V5.576ZM26.3208 8.06C25.9848 8.06 25.6948 8 25.4508 7.88C25.2108 7.76 25.0248 7.578 24.8928 7.334C24.7648 7.086 24.7008 6.768 24.7008 6.38V3.944C24.7008 3.9 24.7128 3.866 24.7368 3.842C24.7608 3.814 24.7948 3.8 24.8388 3.8H25.1448C25.1888 3.8 25.2228 3.814 25.2468 3.842C25.2748 3.866 25.2888 3.9 25.2888 3.944V6.392C25.2888 6.784 25.3808 7.074 25.5648 7.262C25.7488 7.45 26.0008 7.544 26.3208 7.544C26.6368 7.544 26.8868 7.45 27.0708 7.262C27.2588 7.074 27.3528 6.784 27.3528 6.392V3.944C27.3528 3.9 27.3648 3.866 27.3888 3.842C27.4168 3.814 27.4508 3.8 27.4908 3.8H27.8028C27.8428 3.8 27.8748 3.814 27.8988 3.842C27.9268 3.866 27.9408 3.9 27.9408 3.944V6.38C27.9408 6.768 27.8748 7.086 27.7428 7.334C27.6148 7.578 27.4308 7.76 27.1908 7.88C26.9508 8 26.6608 8.06 26.3208 8.06ZM29.0819 8C29.0379 8 29.0039 7.988 28.9799 7.964C28.9559 7.936 28.9439 7.902 28.9439 7.862V3.944C28.9439 3.9 28.9559 3.866 28.9799 3.842C29.0039 3.814 29.0379 3.8 29.0819 3.8H29.3579C29.4059 3.8 29.4419 3.812 29.4659 3.836C29.4899 3.856 29.5039 3.872 29.5079 3.884L31.4999 6.944V3.944C31.4999 3.9 31.5119 3.866 31.5359 3.842C31.5599 3.814 31.5939 3.8 31.6379 3.8H31.9259C31.9699 3.8 32.0039 3.814 32.0279 3.842C32.0559 3.866 32.0699 3.9 32.0699 3.944V7.856C32.0699 7.896 32.0559 7.93 32.0279 7.958C32.0039 7.986 31.9719 8 31.9319 8H31.6439C31.5999 8 31.5659 7.988 31.5419 7.964C31.5219 7.94 31.5079 7.924 31.4999 7.916L29.5139 4.886V7.862C29.5139 7.902 29.4999 7.936 29.4719 7.964C29.4479 7.988 29.4139 8 29.3699 8H29.0819ZM34.1659 8C34.1259 8 34.0919 7.988 34.0639 7.964C34.0399 7.936 34.0279 7.902 34.0279 7.862V4.334H32.8759C32.8359 4.334 32.8019 4.322 32.7739 4.298C32.7499 4.27 32.7379 4.236 32.7379 4.196V3.944C32.7379 3.9 32.7499 3.866 32.7739 3.842C32.8019 3.814 32.8359 3.8 32.8759 3.8H35.7679C35.8119 3.8 35.8459 3.814 35.8699 3.842C35.8979 3.866 35.9119 3.9 35.9119 3.944V4.196C35.9119 4.236 35.8979 4.27 35.8699 4.298C35.8459 4.322 35.8119 4.334 35.7679 4.334H34.6219V7.862C34.6219 7.902 34.6079 7.936 34.5799 7.964C34.5559 7.988 34.5219 8 34.4779 8H34.1659ZM38.1685 8.06C37.8325 8.06 37.5425 8 37.2985 7.88C37.0585 7.76 36.8725 7.578 36.7405 7.334C36.6125 7.086 36.5485 6.768 36.5485 6.38V3.944C36.5485 3.9 36.5605 3.866 36.5845 3.842C36.6085 3.814 36.6425 3.8 36.6865 3.8H36.9925C37.0365 3.8 37.0705 3.814 37.0945 3.842C37.1225 3.866 37.1365 3.9 37.1365 3.944V6.392C37.1365 6.784 37.2285 7.074 37.4125 7.262C37.5965 7.45 37.8485 7.544 38.1685 7.544C38.4845 7.544 38.7345 7.45 38.9185 7.262C39.1065 7.074 39.2005 6.784 39.2005 6.392V3.944C39.2005 3.9 39.2125 3.866 39.2365 3.842C39.2645 3.814 39.2985 3.8 39.3385 3.8H39.6505C39.6905 3.8 39.7225 3.814 39.7465 3.842C39.7745 3.866 39.7885 3.9 39.7885 3.944V6.38C39.7885 6.768 39.7225 7.086 39.5905 7.334C39.4625 7.578 39.2785 7.76 39.0385 7.88C38.7985 8 38.5085 8.06 38.1685 8.06Z" fill="black"/>
<defs>
<clipPath id="clip0_29_187">
<rect width="8" height="8" fill="white" transform="translate(6 2)"/>
</clipPath>
</defs>
</svg>
