<svg width="48" height="12" viewBox="0 0 48 12" fill="none" xmlns="http://www.w3.org/2000/svg">
<rect width="48" height="12" rx="6" fill="#0078D4"/>
<path d="M16.23 8C16.178 8 16.136 7.986 16.104 7.958C16.076 7.93 16.056 7.89 16.044 7.838L15.27 3.986C15.266 3.97 15.264 3.956 15.264 3.944C15.264 3.932 15.264 3.924 15.264 3.92C15.264 3.888 15.276 3.86 15.3 3.836C15.324 3.812 15.352 3.8 15.384 3.8H15.696C15.78 3.8 15.828 3.834 15.84 3.902L16.452 6.998L17.1 4.874C17.112 4.838 17.132 4.806 17.16 4.778C17.192 4.746 17.236 4.73 17.292 4.73H17.514C17.574 4.73 17.618 4.746 17.646 4.778C17.674 4.806 17.692 4.838 17.7 4.874L18.354 6.998L18.96 3.902C18.972 3.834 19.022 3.8 19.11 3.8H19.422C19.454 3.8 19.482 3.812 19.506 3.836C19.53 3.86 19.542 3.888 19.542 3.92C19.542 3.924 19.54 3.932 19.536 3.944C19.536 3.956 19.536 3.97 19.536 3.986L18.762 7.838C18.75 7.89 18.728 7.93 18.696 7.958C18.668 7.986 18.628 8 18.576 8H18.342C18.286 8 18.242 7.986 18.21 7.958C18.178 7.93 18.156 7.894 18.144 7.85L17.4 5.564L16.662 7.85C16.646 7.894 16.622 7.93 16.59 7.958C16.562 7.986 16.52 8 16.464 8H16.23ZM20.4647 8C20.4207 8 20.3867 7.988 20.3627 7.964C20.3387 7.936 20.3267 7.902 20.3267 7.862V3.938C20.3267 3.898 20.3387 3.866 20.3627 3.842C20.3867 3.814 20.4207 3.8 20.4647 3.8H20.7827C20.8227 3.8 20.8547 3.814 20.8787 3.842C20.9067 3.866 20.9207 3.898 20.9207 3.938V7.862C20.9207 7.902 20.9067 7.936 20.8787 7.964C20.8547 7.988 20.8227 8 20.7827 8H20.4647ZM22.1053 8C22.0613 8 22.0273 7.988 22.0033 7.964C21.9793 7.936 21.9673 7.902 21.9673 7.862V3.944C21.9673 3.9 21.9793 3.866 22.0033 3.842C22.0273 3.814 22.0613 3.8 22.1053 3.8H22.3813C22.4293 3.8 22.4653 3.812 22.4893 3.836C22.5133 3.856 22.5273 3.872 22.5313 3.884L24.5233 6.944V3.944C24.5233 3.9 24.5353 3.866 24.5593 3.842C24.5833 3.814 24.6173 3.8 24.6613 3.8H24.9493C24.9933 3.8 25.0273 3.814 25.0513 3.842C25.0793 3.866 25.0933 3.9 25.0933 3.944V7.856C25.0933 7.896 25.0793 7.93 25.0513 7.958C25.0273 7.986 24.9953 8 24.9553 8H24.6673C24.6233 8 24.5893 7.988 24.5653 7.964C24.5453 7.94 24.5313 7.924 24.5233 7.916L22.5373 4.886V7.862C22.5373 7.902 22.5233 7.936 22.4953 7.964C22.4713 7.988 22.4373 8 22.3933 8H22.1053ZM26.2713 8C26.2273 8 26.1933 7.988 26.1693 7.964C26.1453 7.936 26.1333 7.902 26.1333 7.862V3.944C26.1333 3.9 26.1453 3.866 26.1693 3.842C26.1933 3.814 26.2273 3.8 26.2713 3.8H27.6333C28.0453 3.8 28.3773 3.862 28.6293 3.986C28.8813 4.11 29.0653 4.294 29.1813 4.538C29.2973 4.778 29.3573 5.074 29.3613 5.426C29.3653 5.606 29.3673 5.764 29.3673 5.9C29.3673 6.036 29.3653 6.192 29.3613 6.368C29.3533 6.736 29.2913 7.042 29.1753 7.286C29.0633 7.526 28.8833 7.706 28.6353 7.826C28.3913 7.942 28.0673 8 27.6633 8H26.2713ZM26.7213 7.49H27.6333C27.9093 7.49 28.1293 7.452 28.2933 7.376C28.4573 7.3 28.5753 7.178 28.6473 7.01C28.7233 6.842 28.7633 6.62 28.7673 6.344C28.7753 6.224 28.7793 6.12 28.7793 6.032C28.7793 5.94 28.7793 5.85 28.7793 5.762C28.7793 5.67 28.7753 5.566 28.7673 5.45C28.7593 5.062 28.6673 4.776 28.4913 4.592C28.3153 4.404 28.0193 4.31 27.6033 4.31H26.7213V7.49ZM31.776 8.06C31.436 8.06 31.144 8.002 30.9 7.886C30.656 7.766 30.468 7.584 30.336 7.34C30.204 7.092 30.13 6.782 30.114 6.41C30.11 6.234 30.108 6.066 30.108 5.906C30.108 5.742 30.11 5.572 30.114 5.396C30.13 5.028 30.206 4.722 30.342 4.478C30.482 4.23 30.674 4.046 30.918 3.926C31.166 3.802 31.452 3.74 31.776 3.74C32.104 3.74 32.39 3.802 32.634 3.926C32.882 4.046 33.076 4.23 33.216 4.478C33.356 4.722 33.432 5.028 33.444 5.396C33.452 5.572 33.456 5.742 33.456 5.906C33.456 6.066 33.452 6.234 33.444 6.41C33.432 6.782 33.358 7.092 33.222 7.34C33.09 7.584 32.902 7.766 32.658 7.886C32.414 8.002 32.12 8.06 31.776 8.06ZM31.776 7.55C32.084 7.55 32.334 7.458 32.526 7.274C32.722 7.09 32.828 6.792 32.844 6.38C32.852 6.2 32.856 6.04 32.856 5.9C32.856 5.756 32.852 5.596 32.844 5.42C32.836 5.144 32.784 4.92 32.688 4.748C32.596 4.576 32.472 4.45 32.316 4.37C32.16 4.29 31.98 4.25 31.776 4.25C31.58 4.25 31.404 4.29 31.248 4.37C31.092 4.45 30.966 4.576 30.87 4.748C30.778 4.92 30.726 5.144 30.714 5.42C30.71 5.596 30.708 5.756 30.708 5.9C30.708 6.04 30.71 6.2 30.714 6.38C30.73 6.792 30.836 7.09 31.032 7.274C31.228 7.458 31.476 7.55 31.776 7.55ZM34.9859 8C34.9339 8 34.8919 7.986 34.8599 7.958C34.8319 7.93 34.8119 7.89 34.7999 7.838L34.0259 3.986C34.0219 3.97 34.0199 3.956 34.0199 3.944C34.0199 3.932 34.0199 3.924 34.0199 3.92C34.0199 3.888 34.0319 3.86 34.0559 3.836C34.0799 3.812 34.1079 3.8 34.1399 3.8H34.4519C34.5359 3.8 34.5839 3.834 34.5959 3.902L35.2079 6.998L35.8559 4.874C35.8679 4.838 35.8879 4.806 35.9159 4.778C35.9479 4.746 35.9919 4.73 36.0479 4.73H36.2699C36.3299 4.73 36.3739 4.746 36.4019 4.778C36.4299 4.806 36.4479 4.838 36.4559 4.874L37.1099 6.998L37.7159 3.902C37.7279 3.834 37.7779 3.8 37.8659 3.8H38.1779C38.2099 3.8 38.2379 3.812 38.2619 3.836C38.2859 3.86 38.2979 3.888 38.2979 3.92C38.2979 3.924 38.2959 3.932 38.2919 3.944C38.2919 3.956 38.2919 3.97 38.2919 3.986L37.5179 7.838C37.5059 7.89 37.4839 7.93 37.4519 7.958C37.4239 7.986 37.3839 8 37.3319 8H37.0979C37.0419 8 36.9979 7.986 36.9659 7.958C36.9339 7.93 36.9119 7.894 36.8999 7.85L36.1559 5.564L35.4179 7.85C35.4019 7.894 35.3779 7.93 35.3459 7.958C35.3179 7.986 35.2759 8 35.2199 8H34.9859ZM40.3798 8.06C40.0318 8.06 39.7398 8.008 39.5038 7.904C39.2678 7.796 39.0858 7.658 38.9578 7.49C38.8338 7.318 38.7678 7.136 38.7598 6.944C38.7598 6.912 38.7718 6.884 38.7958 6.86C38.8238 6.832 38.8558 6.818 38.8918 6.818H39.1978C39.2458 6.818 39.2818 6.83 39.3058 6.854C39.3298 6.878 39.3458 6.906 39.3538 6.938C39.3738 7.034 39.4218 7.13 39.4978 7.226C39.5778 7.318 39.6878 7.396 39.8278 7.46C39.9718 7.52 40.1558 7.55 40.3798 7.55C40.7238 7.55 40.9758 7.49 41.1358 7.37C41.2998 7.246 41.3818 7.082 41.3818 6.878C41.3818 6.738 41.3378 6.626 41.2498 6.542C41.1658 6.454 41.0358 6.376 40.8598 6.308C40.6838 6.24 40.4558 6.166 40.1758 6.086C39.8838 6.002 39.6418 5.91 39.4498 5.81C39.2578 5.71 39.1138 5.586 39.0178 5.438C38.9258 5.29 38.8798 5.102 38.8798 4.874C38.8798 4.658 38.9378 4.466 39.0538 4.298C39.1698 4.126 39.3358 3.99 39.5518 3.89C39.7718 3.79 40.0378 3.74 40.3498 3.74C40.5978 3.74 40.8138 3.774 40.9978 3.842C41.1858 3.906 41.3418 3.994 41.4658 4.106C41.5898 4.214 41.6838 4.332 41.7478 4.46C41.8118 4.584 41.8458 4.706 41.8498 4.826C41.8498 4.854 41.8398 4.882 41.8198 4.91C41.7998 4.934 41.7678 4.946 41.7238 4.946H41.4058C41.3778 4.946 41.3478 4.938 41.3158 4.922C41.2878 4.906 41.2658 4.876 41.2498 4.832C41.2258 4.668 41.1338 4.53 40.9738 4.418C40.8138 4.306 40.6058 4.25 40.3498 4.25C40.0898 4.25 39.8778 4.3 39.7138 4.4C39.5538 4.5 39.4738 4.656 39.4738 4.868C39.4738 5.004 39.5118 5.118 39.5878 5.21C39.6638 5.298 39.7838 5.376 39.9478 5.444C40.1118 5.512 40.3258 5.584 40.5898 5.66C40.9098 5.748 41.1718 5.842 41.3758 5.942C41.5798 6.038 41.7298 6.16 41.8258 6.308C41.9258 6.452 41.9758 6.638 41.9758 6.866C41.9758 7.118 41.9098 7.334 41.7778 7.514C41.6458 7.69 41.4598 7.826 41.2198 7.922C40.9838 8.014 40.7038 8.06 40.3798 8.06Z" fill="black"/>
<g clip-path="url(#clip0_16_840)">
<path d="M6 2H9.79233V5.79067H6V2ZM10.2077 2H14V5.79067H10.2077V2ZM6 6.20767H9.79233V10H6V6.20767ZM10.2077 6.20767H14V10H10.2077" fill="black"/>
</g>
<defs>
<clipPath id="clip0_16_840">
<rect width="8" height="8" fill="white" transform="translate(6 2)"/>
</clipPath>
</defs>
</svg>
