<svg width="45" height="12" viewBox="0 0 45 12" fill="none" xmlns="http://www.w3.org/2000/svg">
<rect width="45" height="12" rx="6" fill="#A4373A"/>
<g clip-path="url(#clip0_52_156)">
<path d="M11.5116 2.25C11.8849 2.25 12.2581 2.26956 12.6314 2.30867C12.697 2.31644 12.7917 2.32878 12.9157 2.34567C13.0399 2.36256 13.1768 2.386 13.3266 2.416C13.4766 2.446 13.6299 2.48244 13.7864 2.52533C13.9431 2.56844 14.0856 2.61922 14.2137 2.67767C14.3416 2.73633 14.4465 2.80278 14.5284 2.877C14.6102 2.95122 14.6511 3.03389 14.6511 3.125V8.875C14.6511 8.96611 14.6102 9.04878 14.5284 9.123C14.4467 9.19722 14.3418 9.26367 14.2137 9.32233C14.0858 9.38078 13.9434 9.43156 13.7864 9.47467C13.6299 9.51756 13.4766 9.554 13.3266 9.584C13.1768 9.614 13.0399 9.63811 12.9157 9.65633C12.7917 9.67456 12.6971 9.68622 12.6317 9.69133C12.2582 9.73044 11.8849 9.75 11.5116 9.75C11.1356 9.75 10.7623 9.73044 10.3918 9.69133C10.3263 9.68622 10.2315 9.67456 10.1075 9.65633C9.98336 9.63811 9.84638 9.614 9.69661 9.584C9.54661 9.554 9.39336 9.51756 9.23684 9.47467C9.0801 9.43156 8.93766 9.38078 8.80952 9.32233C8.68161 9.26367 8.57673 9.19722 8.49487 9.123C8.41301 9.04878 8.37208 8.96611 8.37208 8.875V8H6.62649C6.53115 8 6.4494 7.96744 6.38126 7.90233C6.31312 7.83722 6.27905 7.75911 6.27905 7.668V4.332C6.27905 4.24089 6.31312 4.16278 6.38126 4.09767C6.4494 4.03256 6.53115 4 6.62649 4H8.37208V3.125C8.37208 3.03389 8.41301 2.95122 8.49487 2.877C8.57649 2.80278 8.68138 2.73633 8.80952 2.67767C8.93743 2.61922 9.07987 2.56844 9.23684 2.52533C9.39336 2.48244 9.54661 2.446 9.69661 2.416C9.84638 2.386 9.98336 2.36267 10.1075 2.346C10.2315 2.32889 10.3261 2.31644 10.3915 2.30867C10.7622 2.26956 11.1356 2.25 11.5116 2.25ZM11.5116 2.75C11.3344 2.75 11.1367 2.75589 10.9186 2.76767C10.7007 2.77922 10.4793 2.79933 10.2544 2.828C10.0298 2.85689 9.81115 2.89533 9.59859 2.94333C9.38603 2.99156 9.19789 3.05211 9.03417 3.125C9.20324 3.20056 9.39336 3.26244 9.60452 3.31067C9.81568 3.35867 10.0323 3.39644 10.2544 3.424C10.4767 3.45133 10.6961 3.47078 10.9127 3.48233C11.1294 3.49411 11.3291 3.5 11.5116 3.5C11.6942 3.5 11.8938 3.49411 12.1106 3.48233C12.3271 3.47078 12.5465 3.45122 12.7688 3.42367C12.9909 3.39633 13.2075 3.35856 13.4187 3.31033C13.6299 3.26233 13.82 3.20056 13.9891 3.125C13.8253 3.05211 13.6372 2.99156 13.4246 2.94333C13.2121 2.89511 12.9935 2.85667 12.7688 2.828C12.5439 2.79933 12.3224 2.77922 12.1043 2.76767C11.8864 2.75589 11.6888 2.75 11.5116 2.75ZM7.92661 6.715H8.8137L9.02196 7.31267H9.72103L8.71987 4.68733H8.03649L7.02277 7.31267H7.71766L7.92661 6.715ZM14.1279 8.793V7.60967C13.9481 7.685 13.7471 7.74744 13.5248 7.797C13.3027 7.84633 13.0745 7.886 12.8403 7.916C12.6059 7.946 12.3742 7.96744 12.1451 7.98033C11.9163 7.99344 11.7051 8 11.5116 8C11.3128 8 11.1145 7.99411 10.9168 7.98233C10.7192 7.97078 10.5223 7.95456 10.3263 7.93367C10.2635 7.97789 10.1939 8 10.1177 8H8.89533V8.793C8.9744 8.853 9.08068 8.90633 9.21417 8.953C9.34766 8.99989 9.49556 9.04033 9.65789 9.07433C9.81998 9.10811 9.98963 9.13611 10.1668 9.15833C10.3438 9.18056 10.5161 9.19878 10.6838 9.213C10.8513 9.22722 11.0073 9.237 11.152 9.24233C11.2961 9.24744 11.416 9.25 11.5116 9.25C11.607 9.25 11.7268 9.24744 11.8713 9.24233C12.0157 9.237 12.1717 9.22722 12.3394 9.213C12.5068 9.19856 12.6792 9.18033 12.8564 9.15833C13.0336 9.13611 13.2034 9.10811 13.3657 9.07433C13.5278 9.04033 13.6754 8.99989 13.8087 8.953C13.9424 8.90633 14.0488 8.853 14.1279 8.793ZM14.1279 7.05067V5.60933C13.9481 5.68489 13.7471 5.74744 13.5248 5.797C13.3027 5.84633 13.0745 5.886 12.8403 5.916C12.6059 5.946 12.3742 5.96744 12.1451 5.98033C11.9163 5.99344 11.7051 6 11.5116 6C11.3372 6 11.1628 5.99544 10.9884 5.98633C10.8139 5.97722 10.6395 5.96489 10.4651 5.94933V7.44933C10.6395 7.46756 10.8139 7.48056 10.9884 7.48833C11.1628 7.49611 11.3372 7.5 11.5116 7.5C11.6125 7.5 11.7352 7.49744 11.8796 7.49233C12.0238 7.487 12.1785 7.47722 12.3436 7.463C12.5085 7.44856 12.6781 7.43033 12.8525 7.40833C13.027 7.38611 13.1945 7.35811 13.3552 7.32433C13.5161 7.29033 13.6641 7.25122 13.7989 7.207C13.9338 7.16256 14.0435 7.11044 14.1279 7.05067ZM14.1279 5.05067V3.60933C13.9481 3.68489 13.7471 3.74744 13.5248 3.797C13.3027 3.84633 13.0745 3.886 12.8403 3.916C12.6059 3.946 12.3742 3.96744 12.1451 3.98033C11.9163 3.99344 11.7051 4 11.5116 4C11.3181 4 11.107 3.99344 10.8781 3.98033C10.6491 3.96744 10.4173 3.946 10.1829 3.916C9.9487 3.886 9.72056 3.84633 9.49847 3.797C9.27615 3.74744 9.0751 3.68489 8.89533 3.60933V4H10.1177C10.213 4 10.2948 4.03256 10.3629 4.09767C10.431 4.16278 10.4651 4.24089 10.4651 4.332V5.44933C10.6395 5.46756 10.8139 5.48056 10.9884 5.48833C11.1628 5.49611 11.3372 5.5 11.5116 5.5C11.6125 5.5 11.7352 5.49744 11.8796 5.49233C12.0238 5.487 12.1785 5.47722 12.3436 5.463C12.5085 5.44856 12.6781 5.43033 12.8525 5.40833C13.027 5.38611 13.1945 5.35811 13.3552 5.32433C13.5161 5.29033 13.6634 5.25122 13.7968 5.207C13.9303 5.16256 14.0407 5.11044 14.1279 5.05067ZM8.08603 6.20733L8.36789 5.39067L8.64173 6.20733H8.08603Z" fill="white"/>
</g>
<path d="M16.24 8C16.208 8 16.18 7.988 16.156 7.964C16.132 7.94 16.12 7.912 16.12 7.88C16.12 7.86 16.122 7.838 16.126 7.814L17.614 3.932C17.63 3.892 17.652 3.86 17.68 3.836C17.708 3.812 17.75 3.8 17.806 3.8H18.214C18.266 3.8 18.306 3.812 18.334 3.836C18.366 3.86 18.39 3.892 18.406 3.932L19.888 7.814C19.896 7.838 19.9 7.86 19.9 7.88C19.9 7.912 19.888 7.94 19.864 7.964C19.84 7.988 19.812 8 19.78 8H19.474C19.426 8 19.39 7.988 19.366 7.964C19.346 7.94 19.332 7.918 19.324 7.898L18.994 7.046H17.026L16.696 7.898C16.692 7.918 16.678 7.94 16.654 7.964C16.63 7.988 16.594 8 16.546 8H16.24ZM17.2 6.53H18.82L18.01 4.4L17.2 6.53ZM21.9774 8.06C21.6094 8.06 21.3034 7.992 21.0594 7.856C20.8194 7.72 20.6374 7.53 20.5134 7.286C20.3894 7.042 20.3214 6.758 20.3094 6.434C20.3054 6.27 20.3034 6.094 20.3034 5.906C20.3034 5.718 20.3054 5.538 20.3094 5.366C20.3214 5.042 20.3894 4.758 20.5134 4.514C20.6374 4.27 20.8194 4.08 21.0594 3.944C21.3034 3.808 21.6094 3.74 21.9774 3.74C22.2534 3.74 22.4954 3.778 22.7034 3.854C22.9114 3.93 23.0834 4.032 23.2194 4.16C23.3594 4.288 23.4654 4.432 23.5374 4.592C23.6094 4.748 23.6494 4.91 23.6574 5.078C23.6614 5.114 23.6494 5.144 23.6214 5.168C23.5974 5.192 23.5674 5.204 23.5314 5.204H23.2014C23.1654 5.204 23.1334 5.194 23.1054 5.174C23.0814 5.154 23.0634 5.118 23.0514 5.066C22.9834 4.754 22.8554 4.54 22.6674 4.424C22.4834 4.308 22.2514 4.25 21.9714 4.25C21.6514 4.25 21.3974 4.342 21.2094 4.526C21.0214 4.706 20.9194 4.996 20.9034 5.396C20.8914 5.724 20.8914 6.06 20.9034 6.404C20.9194 6.804 21.0214 7.096 21.2094 7.28C21.3974 7.46 21.6514 7.55 21.9714 7.55C22.2514 7.55 22.4834 7.492 22.6674 7.376C22.8554 7.26 22.9834 7.046 23.0514 6.734C23.0634 6.682 23.0814 6.646 23.1054 6.626C23.1334 6.606 23.1654 6.596 23.2014 6.596H23.5314C23.5674 6.596 23.5974 6.608 23.6214 6.632C23.6494 6.656 23.6614 6.686 23.6574 6.722C23.6494 6.89 23.6094 7.054 23.5374 7.214C23.4654 7.37 23.3594 7.512 23.2194 7.64C23.0834 7.768 22.9114 7.87 22.7034 7.946C22.4954 8.022 22.2534 8.06 21.9774 8.06ZM25.9735 8.06C25.6055 8.06 25.2995 7.992 25.0555 7.856C24.8155 7.72 24.6335 7.53 24.5095 7.286C24.3855 7.042 24.3175 6.758 24.3055 6.434C24.3015 6.27 24.2995 6.094 24.2995 5.906C24.2995 5.718 24.3015 5.538 24.3055 5.366C24.3175 5.042 24.3855 4.758 24.5095 4.514C24.6335 4.27 24.8155 4.08 25.0555 3.944C25.2995 3.808 25.6055 3.74 25.9735 3.74C26.2495 3.74 26.4915 3.778 26.6995 3.854C26.9075 3.93 27.0795 4.032 27.2155 4.16C27.3555 4.288 27.4615 4.432 27.5335 4.592C27.6055 4.748 27.6455 4.91 27.6535 5.078C27.6575 5.114 27.6455 5.144 27.6175 5.168C27.5935 5.192 27.5635 5.204 27.5275 5.204H27.1975C27.1615 5.204 27.1295 5.194 27.1015 5.174C27.0775 5.154 27.0595 5.118 27.0475 5.066C26.9795 4.754 26.8515 4.54 26.6635 4.424C26.4795 4.308 26.2475 4.25 25.9675 4.25C25.6475 4.25 25.3935 4.342 25.2055 4.526C25.0175 4.706 24.9155 4.996 24.8995 5.396C24.8875 5.724 24.8875 6.06 24.8995 6.404C24.9155 6.804 25.0175 7.096 25.2055 7.28C25.3935 7.46 25.6475 7.55 25.9675 7.55C26.2475 7.55 26.4795 7.492 26.6635 7.376C26.8515 7.26 26.9795 7.046 27.0475 6.734C27.0595 6.682 27.0775 6.646 27.1015 6.626C27.1295 6.606 27.1615 6.596 27.1975 6.596H27.5275C27.5635 6.596 27.5935 6.608 27.6175 6.632C27.6455 6.656 27.6575 6.686 27.6535 6.722C27.6455 6.89 27.6055 7.054 27.5335 7.214C27.4615 7.37 27.3555 7.512 27.2155 7.64C27.0795 7.768 26.9075 7.87 26.6995 7.946C26.4915 8.022 26.2495 8.06 25.9735 8.06ZM28.5955 8C28.5515 8 28.5175 7.988 28.4935 7.964C28.4695 7.936 28.4575 7.902 28.4575 7.862V3.944C28.4575 3.9 28.4695 3.866 28.4935 3.842C28.5175 3.814 28.5515 3.8 28.5955 3.8H31.0735C31.1175 3.8 31.1515 3.814 31.1755 3.842C31.1995 3.866 31.2115 3.9 31.2115 3.944V4.172C31.2115 4.216 31.1995 4.25 31.1755 4.274C31.1515 4.298 31.1175 4.31 31.0735 4.31H29.0335V5.624H30.9415C30.9855 5.624 31.0195 5.638 31.0435 5.666C31.0675 5.69 31.0795 5.724 31.0795 5.768V5.99C31.0795 6.03 31.0675 6.064 31.0435 6.092C31.0195 6.116 30.9855 6.128 30.9415 6.128H29.0335V7.49H31.1215C31.1655 7.49 31.1995 7.502 31.2235 7.526C31.2475 7.55 31.2595 7.584 31.2595 7.628V7.862C31.2595 7.902 31.2475 7.936 31.2235 7.964C31.1995 7.988 31.1655 8 31.1215 8H28.5955ZM33.4462 8.06C33.0982 8.06 32.8062 8.008 32.5702 7.904C32.3342 7.796 32.1522 7.658 32.0242 7.49C31.9002 7.318 31.8342 7.136 31.8262 6.944C31.8262 6.912 31.8382 6.884 31.8622 6.86C31.8902 6.832 31.9222 6.818 31.9582 6.818H32.2642C32.3122 6.818 32.3482 6.83 32.3722 6.854C32.3962 6.878 32.4122 6.906 32.4202 6.938C32.4402 7.034 32.4882 7.13 32.5642 7.226C32.6442 7.318 32.7542 7.396 32.8942 7.46C33.0382 7.52 33.2222 7.55 33.4462 7.55C33.7902 7.55 34.0422 7.49 34.2022 7.37C34.3662 7.246 34.4482 7.082 34.4482 6.878C34.4482 6.738 34.4042 6.626 34.3162 6.542C34.2322 6.454 34.1022 6.376 33.9262 6.308C33.7502 6.24 33.5222 6.166 33.2422 6.086C32.9502 6.002 32.7082 5.91 32.5162 5.81C32.3242 5.71 32.1802 5.586 32.0842 5.438C31.9922 5.29 31.9462 5.102 31.9462 4.874C31.9462 4.658 32.0042 4.466 32.1202 4.298C32.2362 4.126 32.4022 3.99 32.6182 3.89C32.8382 3.79 33.1042 3.74 33.4162 3.74C33.6642 3.74 33.8802 3.774 34.0642 3.842C34.2522 3.906 34.4082 3.994 34.5322 4.106C34.6562 4.214 34.7502 4.332 34.8142 4.46C34.8782 4.584 34.9122 4.706 34.9162 4.826C34.9162 4.854 34.9062 4.882 34.8862 4.91C34.8662 4.934 34.8342 4.946 34.7902 4.946H34.4722C34.4442 4.946 34.4142 4.938 34.3822 4.922C34.3542 4.906 34.3322 4.876 34.3162 4.832C34.2922 4.668 34.2002 4.53 34.0402 4.418C33.8802 4.306 33.6722 4.25 33.4162 4.25C33.1562 4.25 32.9442 4.3 32.7802 4.4C32.6202 4.5 32.5402 4.656 32.5402 4.868C32.5402 5.004 32.5782 5.118 32.6542 5.21C32.7302 5.298 32.8502 5.376 33.0142 5.444C33.1782 5.512 33.3922 5.584 33.6562 5.66C33.9762 5.748 34.2382 5.842 34.4422 5.942C34.6462 6.038 34.7962 6.16 34.8922 6.308C34.9922 6.452 35.0422 6.638 35.0422 6.866C35.0422 7.118 34.9762 7.334 34.8442 7.514C34.7122 7.69 34.5262 7.826 34.2862 7.922C34.0502 8.014 33.7702 8.06 33.4462 8.06ZM37.1786 8.06C36.8306 8.06 36.5386 8.008 36.3026 7.904C36.0666 7.796 35.8846 7.658 35.7566 7.49C35.6326 7.318 35.5666 7.136 35.5586 6.944C35.5586 6.912 35.5706 6.884 35.5946 6.86C35.6226 6.832 35.6546 6.818 35.6906 6.818H35.9966C36.0446 6.818 36.0806 6.83 36.1046 6.854C36.1286 6.878 36.1446 6.906 36.1526 6.938C36.1726 7.034 36.2206 7.13 36.2966 7.226C36.3766 7.318 36.4866 7.396 36.6266 7.46C36.7706 7.52 36.9546 7.55 37.1786 7.55C37.5226 7.55 37.7746 7.49 37.9346 7.37C38.0986 7.246 38.1806 7.082 38.1806 6.878C38.1806 6.738 38.1366 6.626 38.0486 6.542C37.9646 6.454 37.8346 6.376 37.6586 6.308C37.4826 6.24 37.2546 6.166 36.9746 6.086C36.6826 6.002 36.4406 5.91 36.2486 5.81C36.0566 5.71 35.9126 5.586 35.8166 5.438C35.7246 5.29 35.6786 5.102 35.6786 4.874C35.6786 4.658 35.7366 4.466 35.8526 4.298C35.9686 4.126 36.1346 3.99 36.3506 3.89C36.5706 3.79 36.8366 3.74 37.1486 3.74C37.3966 3.74 37.6126 3.774 37.7966 3.842C37.9846 3.906 38.1406 3.994 38.2646 4.106C38.3886 4.214 38.4826 4.332 38.5466 4.46C38.6106 4.584 38.6446 4.706 38.6486 4.826C38.6486 4.854 38.6386 4.882 38.6186 4.91C38.5986 4.934 38.5666 4.946 38.5226 4.946H38.2046C38.1766 4.946 38.1466 4.938 38.1146 4.922C38.0866 4.906 38.0646 4.876 38.0486 4.832C38.0246 4.668 37.9326 4.53 37.7726 4.418C37.6126 4.306 37.4046 4.25 37.1486 4.25C36.8886 4.25 36.6766 4.3 36.5126 4.4C36.3526 4.5 36.2726 4.656 36.2726 4.868C36.2726 5.004 36.3106 5.118 36.3866 5.21C36.4626 5.298 36.5826 5.376 36.7466 5.444C36.9106 5.512 37.1246 5.584 37.3886 5.66C37.7086 5.748 37.9706 5.842 38.1746 5.942C38.3786 6.038 38.5286 6.16 38.6246 6.308C38.7246 6.452 38.7746 6.638 38.7746 6.866C38.7746 7.118 38.7086 7.334 38.5766 7.514C38.4446 7.69 38.2586 7.826 38.0186 7.922C37.7826 8.014 37.5026 8.06 37.1786 8.06Z" fill="white"/>
<defs>
<clipPath id="clip0_52_156">
<rect width="8.37209" height="8" fill="white" transform="translate(6.27905 2)"/>
</clipPath>
</defs>
</svg>
