<svg width="73" height="30" viewBox="0 0 73 30" fill="none" xmlns="http://www.w3.org/2000/svg">
<g clip-path="url(#clip0_53_144)">
<path d="M57.5 0H15C6.71573 0 0 6.71573 0 15C0 23.2843 6.71573 30 15 30H57.5C65.7843 30 72.5 23.2843 72.5 15C72.5 6.71573 65.7843 0 57.5 0Z" fill="#00ABD5"/>
<path fill-rule="evenodd" clip-rule="evenodd" d="M18.8537 5.93647C18.3698 6.09107 17.9469 6.49282 17.7657 6.97007L17.6758 7.20702V15V22.7929L17.7657 23.0299C17.9495 23.5139 18.3703 23.9108 18.8615 24.0635C19.2542 24.1855 30.749 24.1842 31.1445 24.0621C31.6125 23.9175 31.9615 23.5976 32.1995 23.0955L32.3243 22.832L32.3348 16.8945C32.3418 12.7973 32.3323 10.9261 32.3038 10.8574C32.2813 10.8027 31.16 9.65573 29.8123 8.30863L27.3618 5.85938L23.2219 5.86147C19.291 5.86342 19.0705 5.86722 18.8537 5.93647ZM26.727 8.58397L26.7383 10.4101L26.862 10.6445C27.0213 10.9462 27.3018 11.2174 27.5978 11.3555L27.832 11.4648L29.6388 11.4761L31.4453 11.4873V17.0282V22.5692L31.3363 22.7781C31.2568 22.9302 31.1753 23.0191 31.0365 23.1048L30.846 23.2226H25H19.154L18.9635 23.1048C18.8246 23.019 18.7433 22.9302 18.6635 22.7776L18.5541 22.5681L18.5641 14.9626L18.5742 7.35712L18.692 7.16662C18.7777 7.02792 18.8666 6.94642 19.0187 6.86692L19.2276 6.75777H22.9717H26.7158L26.727 8.58397ZM29.5023 10.5777C28.0778 10.5902 28.0208 10.5856 27.8513 10.443C27.6168 10.2456 27.6173 10.2489 27.6173 8.76188V7.40268L29.1995 8.98453L30.7818 10.5664L29.5023 10.5777ZM22.7143 9.09158C20.819 9.76728 21.259 12.539 23.2617 12.539C25.1505 12.539 25.7088 9.97542 23.9956 9.16937C23.6575 9.01032 23.0464 8.97318 22.7143 9.09158ZM23.5852 9.98252C24.1784 10.2303 24.3006 11.0295 23.8075 11.436C23.2448 11.8998 22.4066 11.5081 22.4066 10.7812C22.4066 10.1752 23.032 9.75143 23.5852 9.98252ZM22.4023 12.7205C21.1493 12.9086 20.2299 14.0324 20.2793 15.3156C20.2961 15.7522 20.4073 15.8984 20.7226 15.8984C21.042 15.8984 21.1389 15.7637 21.1745 15.2701C21.2328 14.4629 21.5655 13.9724 22.2424 13.6955C22.5423 13.5728 23.981 13.5728 24.281 13.6955C24.9593 13.973 25.2953 14.4688 25.3465 15.2674C25.3778 15.7584 25.4785 15.8984 25.8008 15.8984C26.1138 15.8984 26.2275 15.7512 26.2433 15.3254C26.2865 14.1597 25.569 13.1437 24.4531 12.7912C24.2423 12.7246 22.7237 12.6722 22.4023 12.7205ZM20.2466 18.2402C19.9898 18.3968 19.9555 18.7133 20.1718 18.9297L20.3047 19.0625H23.0846C25.055 19.0625 25.8893 19.0498 25.9498 19.0188C26.2603 18.8601 26.2528 18.3856 25.937 18.2224C25.739 18.1199 20.4165 18.1366 20.2466 18.2402ZM20.2096 20.538C19.9308 20.7638 20.0084 21.2335 20.3397 21.3255C20.5879 21.3944 28.7165 21.3822 28.8828 21.3127C29.1658 21.1945 29.2435 20.7999 29.0265 20.5829L28.9123 20.4687L24.6026 20.4696C20.5782 20.4704 20.2874 20.4749 20.2096 20.538Z" fill="black"/>
<path d="M42.5849 20.15C41.6649 20.15 40.8999 19.98 40.2899 19.64C39.6899 19.3 39.2349 18.825 38.9249 18.215C38.6149 17.605 38.4449 16.895 38.4149 16.085C38.4049 15.675 38.3999 15.235 38.3999 14.765C38.3999 14.295 38.4049 13.845 38.4149 13.415C38.4449 12.605 38.6149 11.895 38.9249 11.285C39.2349 10.675 39.6899 10.2 40.2899 9.85998C40.8999 9.51998 41.6649 9.34998 42.5849 9.34998C43.2749 9.34998 43.8799 9.44498 44.3999 9.63498C44.9199 9.82498 45.3499 10.08 45.6899 10.4C46.0399 10.72 46.3049 11.08 46.4849 11.48C46.6649 11.87 46.7649 12.275 46.7849 12.695C46.7949 12.785 46.7649 12.86 46.6949 12.92C46.6349 12.98 46.5599 13.01 46.4699 13.01H45.6449C45.5549 13.01 45.4749 12.985 45.4049 12.935C45.3449 12.885 45.2999 12.795 45.2699 12.665C45.0999 11.885 44.7799 11.35 44.3099 11.06C43.8499 10.77 43.2699 10.625 42.5699 10.625C41.7699 10.625 41.1349 10.855 40.6649 11.315C40.1949 11.765 39.9399 12.49 39.8999 13.49C39.8699 14.31 39.8699 15.15 39.8999 16.01C39.9399 17.01 40.1949 17.74 40.6649 18.2C41.1349 18.65 41.7699 18.875 42.5699 18.875C43.2699 18.875 43.8499 18.73 44.3099 18.44C44.7799 18.15 45.0999 17.615 45.2699 16.835C45.2999 16.705 45.3449 16.615 45.4049 16.565C45.4749 16.515 45.5549 16.49 45.6449 16.49H46.4699C46.5599 16.49 46.6349 16.52 46.6949 16.58C46.7649 16.64 46.7949 16.715 46.7849 16.805C46.7649 17.225 46.6649 17.635 46.4849 18.035C46.3049 18.425 46.0399 18.78 45.6899 19.1C45.3499 19.42 44.9199 19.675 44.3999 19.865C43.8799 20.055 43.2749 20.15 42.5849 20.15ZM51.6662 20C51.5162 20 51.3962 19.965 51.3062 19.895C51.2262 19.825 51.1612 19.73 51.1112 19.61L47.7662 9.96498C47.7462 9.90498 47.7362 9.84998 47.7362 9.79998C47.7362 9.71998 47.7662 9.64998 47.8262 9.58998C47.8862 9.52998 47.9562 9.49998 48.0362 9.49998H48.8162C48.9362 9.49998 49.0262 9.53498 49.0862 9.60498C49.1562 9.66498 49.1962 9.71998 49.2062 9.76998L52.1462 18.275L55.0862 9.76998C55.1062 9.71998 55.1462 9.66498 55.2062 9.60498C55.2662 9.53498 55.3562 9.49998 55.4762 9.49998H56.2562C56.3362 9.49998 56.4062 9.52998 56.4662 9.58998C56.5362 9.64998 56.5712 9.71998 56.5712 9.79998C56.5712 9.84998 56.5612 9.90498 56.5412 9.96498L53.1812 19.61C53.1412 19.73 53.0762 19.825 52.9862 19.895C52.9062 19.965 52.7912 20 52.6412 20H51.6662Z" fill="black"/>
</g>
<defs>
<clipPath id="clip0_53_144">
<rect width="72.5" height="30" fill="white"/>
</clipPath>
</defs>
</svg>
