<svg width="39" height="12" viewBox="0 0 39 12" fill="none" xmlns="http://www.w3.org/2000/svg">
<rect width="39" height="12" rx="6" fill="#217346"/>
<g clip-path="url(#clip0_52_139)">
<path d="M12.6667 2.5C12.7578 2.5 12.8356 2.53333 12.9 2.6C12.9667 2.66444 13 2.74222 13 2.83333V9.16667C13 9.25778 12.9667 9.33556 12.9 9.4C12.8356 9.46667 12.7578 9.5 12.6667 9.5H7.33333C7.24222 9.5 7.16444 9.46667 7.1 9.4C7.03333 9.33556 7 9.25778 7 9.16667V8H5.33333C5.24222 8 5.16444 7.96667 5.1 7.9C5.03333 7.83556 5 7.75778 5 7.66667V4.33333C5 4.24222 5.03333 4.16444 5.1 4.1C5.16222 4.03333 5.24 4 5.33333 4H7V2.83333C7 2.74222 7.03333 2.66444 7.1 2.6C7.16444 2.53333 7.24222 2.5 7.33333 2.5H12.6667ZM7 6.42667L7.47333 7.31333H8.18667L7.39333 6.02333L8.17333 4.75667H7.48667L7.05333 5.55667L7.03667 5.58333L7.02333 5.61333L6.81 5.18667L6.59 4.75667H5.86333L6.62 6.03L5.79333 7.31333H6.51333L7 6.42667ZM9.75 9V8H7.5V9H9.75ZM9.75 7.5V6.25H9V7.5H9.75ZM9.75 5.75V4.5H9V5.75H9.75ZM9.75 4V3H7.5V4H9.75ZM12.5 9V8H10.25V9H12.5ZM12.5 7.5V6.25H10.25V7.5H12.5ZM12.5 5.75V4.5H10.25V5.75H12.5ZM12.5 4V3H10.25V4H12.5Z" fill="white"/>
</g>
<path d="M15.66 8C15.616 8 15.582 7.988 15.558 7.964C15.534 7.936 15.522 7.902 15.522 7.862V3.944C15.522 3.9 15.534 3.866 15.558 3.842C15.582 3.814 15.616 3.8 15.66 3.8H18.138C18.182 3.8 18.216 3.814 18.24 3.842C18.264 3.866 18.276 3.9 18.276 3.944V4.172C18.276 4.216 18.264 4.25 18.24 4.274C18.216 4.298 18.182 4.31 18.138 4.31H16.098V5.624H18.006C18.05 5.624 18.084 5.638 18.108 5.666C18.132 5.69 18.144 5.724 18.144 5.768V5.99C18.144 6.03 18.132 6.064 18.108 6.092C18.084 6.116 18.05 6.128 18.006 6.128H16.098V7.49H18.186C18.23 7.49 18.264 7.502 18.288 7.526C18.312 7.55 18.324 7.584 18.324 7.628V7.862C18.324 7.902 18.312 7.936 18.288 7.964C18.264 7.988 18.23 8 18.186 8H15.66ZM18.9087 8C18.8767 8 18.8467 7.988 18.8187 7.964C18.7947 7.94 18.7827 7.912 18.7827 7.88C18.7827 7.864 18.7847 7.85 18.7887 7.838C18.7967 7.822 18.8027 7.81 18.8067 7.802L20.1807 5.864L18.8727 3.998C18.8607 3.974 18.8547 3.948 18.8547 3.92C18.8547 3.888 18.8667 3.86 18.8907 3.836C18.9147 3.812 18.9427 3.8 18.9747 3.8H19.3347C19.3747 3.8 19.4067 3.81 19.4307 3.83C19.4547 3.846 19.4767 3.87 19.4967 3.902L20.5527 5.402L21.6027 3.902C21.6187 3.87 21.6387 3.846 21.6627 3.83C21.6907 3.81 21.7227 3.8 21.7587 3.8H22.1007C22.1327 3.8 22.1607 3.812 22.1847 3.836C22.2087 3.86 22.2207 3.888 22.2207 3.92C22.2207 3.948 22.2127 3.974 22.1967 3.998L20.9067 5.87L22.2747 7.802C22.2827 7.81 22.2887 7.822 22.2927 7.838C22.2967 7.85 22.2987 7.864 22.2987 7.88C22.2987 7.912 22.2867 7.94 22.2627 7.964C22.2387 7.988 22.2087 8 22.1727 8H21.8067C21.7707 8 21.7387 7.99 21.7107 7.97C21.6867 7.95 21.6647 7.928 21.6447 7.904L20.5287 6.344L19.4187 7.904C19.3987 7.928 19.3767 7.95 19.3527 7.97C19.3287 7.99 19.2967 8 19.2567 8H18.9087ZM24.3348 8.06C23.9668 8.06 23.6608 7.992 23.4168 7.856C23.1768 7.72 22.9948 7.53 22.8708 7.286C22.7468 7.042 22.6788 6.758 22.6668 6.434C22.6628 6.27 22.6608 6.094 22.6608 5.906C22.6608 5.718 22.6628 5.538 22.6668 5.366C22.6788 5.042 22.7468 4.758 22.8708 4.514C22.9948 4.27 23.1768 4.08 23.4168 3.944C23.6608 3.808 23.9668 3.74 24.3348 3.74C24.6108 3.74 24.8528 3.778 25.0608 3.854C25.2688 3.93 25.4408 4.032 25.5768 4.16C25.7168 4.288 25.8228 4.432 25.8948 4.592C25.9668 4.748 26.0068 4.91 26.0148 5.078C26.0188 5.114 26.0068 5.144 25.9788 5.168C25.9548 5.192 25.9248 5.204 25.8888 5.204H25.5588C25.5228 5.204 25.4908 5.194 25.4628 5.174C25.4388 5.154 25.4208 5.118 25.4088 5.066C25.3408 4.754 25.2128 4.54 25.0248 4.424C24.8408 4.308 24.6088 4.25 24.3288 4.25C24.0088 4.25 23.7548 4.342 23.5668 4.526C23.3788 4.706 23.2768 4.996 23.2608 5.396C23.2488 5.724 23.2488 6.06 23.2608 6.404C23.2768 6.804 23.3788 7.096 23.5668 7.28C23.7548 7.46 24.0088 7.55 24.3288 7.55C24.6088 7.55 24.8408 7.492 25.0248 7.376C25.2128 7.26 25.3408 7.046 25.4088 6.734C25.4208 6.682 25.4388 6.646 25.4628 6.626C25.4908 6.606 25.5228 6.596 25.5588 6.596H25.8888C25.9248 6.596 25.9548 6.608 25.9788 6.632C26.0068 6.656 26.0188 6.686 26.0148 6.722C26.0068 6.89 25.9668 7.054 25.8948 7.214C25.8228 7.37 25.7168 7.512 25.5768 7.64C25.4408 7.768 25.2688 7.87 25.0608 7.946C24.8528 8.022 24.6108 8.06 24.3348 8.06ZM26.9569 8C26.9129 8 26.8789 7.988 26.8549 7.964C26.8309 7.936 26.8189 7.902 26.8189 7.862V3.944C26.8189 3.9 26.8309 3.866 26.8549 3.842C26.8789 3.814 26.9129 3.8 26.9569 3.8H29.4349C29.4789 3.8 29.5129 3.814 29.5369 3.842C29.5609 3.866 29.5729 3.9 29.5729 3.944V4.172C29.5729 4.216 29.5609 4.25 29.5369 4.274C29.5129 4.298 29.4789 4.31 29.4349 4.31H27.3949V5.624H29.3029C29.3469 5.624 29.3809 5.638 29.4049 5.666C29.4289 5.69 29.4409 5.724 29.4409 5.768V5.99C29.4409 6.03 29.4289 6.064 29.4049 6.092C29.3809 6.116 29.3469 6.128 29.3029 6.128H27.3949V7.49H29.4829C29.5269 7.49 29.5609 7.502 29.5849 7.526C29.6089 7.55 29.6209 7.584 29.6209 7.628V7.862C29.6209 7.902 29.6089 7.936 29.5849 7.964C29.5609 7.988 29.5269 8 29.4829 8H26.9569ZM30.5955 8C30.5515 8 30.5175 7.988 30.4935 7.964C30.4695 7.936 30.4575 7.902 30.4575 7.862V3.938C30.4575 3.898 30.4695 3.866 30.4935 3.842C30.5175 3.814 30.5515 3.8 30.5955 3.8H30.9135C30.9535 3.8 30.9855 3.814 31.0095 3.842C31.0335 3.866 31.0455 3.898 31.0455 3.938V7.478H33.0435C33.0875 7.478 33.1215 7.492 33.1455 7.52C33.1695 7.544 33.1815 7.578 33.1815 7.622V7.862C33.1815 7.902 33.1695 7.936 33.1455 7.964C33.1215 7.988 33.0875 8 33.0435 8H30.5955Z" fill="white"/>
<defs>
<clipPath id="clip0_52_139">
<rect width="8" height="8" fill="white" transform="translate(5 2)"/>
</clipPath>
</defs>
</svg>
