<svg width="36" height="12" viewBox="0 0 36 12" fill="none" xmlns="http://www.w3.org/2000/svg">
<rect width="36" height="12" rx="6" fill="#5C5543"/>
<g clip-path="url(#clip0_32_153)">
<path d="M12.616 2.54533C12.5807 2.54 12.54 2.581 12.508 2.67767C12.4557 2.83433 12.1503 3.74533 10.6733 4.11967C10.872 4.29033 10.9987 4.53367 10.9987 4.806C10.9987 5.32167 10.5507 5.73933 9.99866 5.73933C9.447 5.73933 8.99966 5.32133 8.99933 4.806C8.99933 4.605 9.06866 4.42 9.18433 4.26733C8.13933 4.16 7.68766 3.22633 7.68766 3.22633L7.65566 4.614C7.64733 4.802 7.65266 4.98433 7.56566 5.15933C7.56018 5.15128 7.55463 5.14328 7.549 5.13533C7.42639 4.96473 7.27211 4.82239 7.10403 4.72481C6.93595 4.62723 6.76096 4.57841 6.59933 4.584C6.47202 4.5884 6.35666 4.62643 6.26166 4.69533C6.09229 4.81789 5.99815 5.03055 5.99996 5.28653C6.00178 5.54252 6.09939 5.82086 6.27133 6.06033C6.41373 6.25853 6.5983 6.41781 6.79655 6.51359C6.99481 6.60938 7.19573 6.63634 7.36833 6.59033C8.36733 7.33033 10.1957 7.973 11.4453 7.21867L10.7703 6.67567C10.4157 6.79067 9.90233 6.789 9.30466 6.57733C10.2713 6.77133 10.7947 6.55967 11.0827 6.33667C11.0067 6.238 10.846 6.16133 10.846 6.16133C10.846 6.16133 11.0337 6.197 11.156 6.32667C11.205 6.37833 11.222 6.45567 11.2287 6.54433C11.413 6.64367 11.623 6.763 11.8537 6.89833C12.5403 6.21167 12.938 4.92067 12.6937 2.69267C12.682 2.603 12.6513 2.551 12.616 2.54533ZM8.285 4.36533C8.63533 4.365 8.91933 4.63033 8.91933 4.95767C8.91933 5.28433 8.635 5.54967 8.285 5.54933C7.935 5.54933 7.65166 5.28433 7.65166 4.95767C7.65166 4.63067 7.935 4.36533 8.285 4.365V4.36533ZM10.2103 4.526C10.1523 4.52596 10.0949 4.53734 10.0413 4.55949C9.98768 4.58165 9.93897 4.61415 9.89793 4.65513C9.85688 4.69611 9.82431 4.74477 9.80208 4.79834C9.77984 4.85191 9.76837 4.90933 9.76833 4.96733C9.76828 5.02534 9.77967 5.08278 9.80182 5.13638C9.82398 5.18998 9.85647 5.23869 9.89745 5.27974C9.93844 5.32078 9.9871 5.35335 10.0407 5.37559C10.0942 5.39782 10.1517 5.40929 10.2097 5.40933C10.3268 5.40942 10.4392 5.36298 10.5221 5.28021C10.605 5.19744 10.6516 5.08514 10.6517 4.968C10.6518 4.85086 10.6053 4.73849 10.5225 4.6556C10.4398 4.57271 10.3275 4.52609 10.2103 4.526ZM6.563 4.739C6.56322 4.739 6.56344 4.739 6.56366 4.739C6.566 4.73898 6.56833 4.73898 6.57066 4.739C6.61295 4.73896 6.65482 4.74711 6.69389 4.763C6.73296 4.77889 6.76845 4.80219 6.79833 4.83158C6.82822 4.86097 6.8519 4.89586 6.86803 4.93425C6.88416 4.97265 6.89242 5.0138 6.89233 5.05534C6.89233 5.09682 6.88401 5.13789 6.86784 5.17621C6.85167 5.21453 6.82797 5.24934 6.79809 5.27866C6.76822 5.30798 6.73276 5.33122 6.69373 5.34707C6.65471 5.36291 6.61289 5.37104 6.57066 5.371C6.48555 5.37083 6.40399 5.33749 6.34388 5.27831C6.28376 5.21913 6.24999 5.13894 6.25 5.05534C6.2497 4.97279 6.28234 4.89341 6.34091 4.83422C6.39948 4.77502 6.47932 4.74072 6.56333 4.73867L6.563 4.739ZM8.416 4.78C8.37923 4.78044 8.3429 4.78812 8.3091 4.80259C8.27529 4.81707 8.24467 4.83806 8.21898 4.86437C8.19329 4.89068 8.17303 4.92179 8.15937 4.95593C8.1457 4.99007 8.13889 5.02656 8.13933 5.06333C8.13977 5.1001 8.14744 5.13643 8.16192 5.17023C8.17639 5.20404 8.19739 5.23466 8.2237 5.26035C8.25001 5.28604 8.28112 5.3063 8.31526 5.31996C8.3494 5.33363 8.38589 5.34044 8.42266 5.34C8.49692 5.33912 8.56779 5.30877 8.61968 5.25563C8.67156 5.2025 8.70021 5.13093 8.69933 5.05667C8.69844 4.98241 8.6681 4.91154 8.61496 4.85965C8.56183 4.80777 8.49026 4.77912 8.416 4.78ZM11.1693 6.43467C11.155 6.45233 11.135 6.46767 11.1173 6.48367L11.1873 6.522C11.1817 6.48867 11.1763 6.452 11.1693 6.43467ZM10.986 6.468L10.7417 6.58834L10.7617 6.605L10.8277 6.65733L11.4923 7.19267L11.4973 7.19667C11.7117 7.36805 11.9286 7.53618 12.148 7.701C12.1455 7.71496 12.1446 7.72917 12.1453 7.74333L12.232 7.73L12.2663 7.78067L13.0387 8.27133C12.9987 8.408 13.017 8.589 13.1077 8.757C13.371 9.24533 14 9.455 14 9.455C13.743 8.799 13.9303 8.26534 13.4233 8.07733C13.3427 8.04733 13.2723 8.04633 13.2137 8.06633L12.5313 7.43467L12.4733 7.41734L12.465 7.33C12.4512 7.33548 12.4378 7.34206 12.425 7.34967C12.323 7.263 12.196 7.17067 12.0617 7.078C11.607 6.79967 11.3093 6.64467 10.9857 6.468H10.986Z" fill="white"/>
</g>
<path d="M17.046 8.06C16.694 8.06 16.394 7.994 16.146 7.862C15.902 7.73 15.714 7.544 15.582 7.304C15.454 7.064 15.382 6.782 15.366 6.458C15.362 6.282 15.36 6.096 15.36 5.9C15.36 5.7 15.362 5.51 15.366 5.33C15.382 5.006 15.454 4.726 15.582 4.49C15.714 4.254 15.904 4.07 16.152 3.938C16.4 3.806 16.698 3.74 17.046 3.74C17.33 3.74 17.576 3.78 17.784 3.86C17.992 3.94 18.162 4.042 18.294 4.166C18.43 4.286 18.53 4.412 18.594 4.544C18.662 4.676 18.698 4.792 18.702 4.892C18.706 4.928 18.696 4.958 18.672 4.982C18.648 5.002 18.616 5.012 18.576 5.012H18.222C18.182 5.012 18.152 5.004 18.132 4.988C18.116 4.972 18.1 4.944 18.084 4.904C18.048 4.8 17.988 4.698 17.904 4.598C17.824 4.498 17.714 4.416 17.574 4.352C17.438 4.284 17.262 4.25 17.046 4.25C16.73 4.25 16.474 4.336 16.278 4.508C16.086 4.68 15.982 4.964 15.966 5.36C15.954 5.716 15.954 6.072 15.966 6.428C15.982 6.828 16.088 7.116 16.284 7.292C16.48 7.464 16.736 7.55 17.052 7.55C17.264 7.55 17.452 7.512 17.616 7.436C17.784 7.356 17.916 7.234 18.012 7.07C18.108 6.906 18.156 6.698 18.156 6.446V6.194H17.256C17.216 6.194 17.182 6.182 17.154 6.158C17.13 6.13 17.118 6.094 17.118 6.05V5.858C17.118 5.814 17.13 5.78 17.154 5.756C17.182 5.728 17.216 5.714 17.256 5.714H18.612C18.656 5.714 18.69 5.728 18.714 5.756C18.738 5.78 18.75 5.814 18.75 5.858V6.434C18.75 6.762 18.682 7.048 18.546 7.292C18.414 7.536 18.22 7.726 17.964 7.862C17.708 7.994 17.402 8.06 17.046 8.06ZM19.744 8C19.7 8 19.666 7.988 19.642 7.964C19.618 7.936 19.606 7.902 19.606 7.862V3.938C19.606 3.898 19.618 3.866 19.642 3.842C19.666 3.814 19.7 3.8 19.744 3.8H20.062C20.102 3.8 20.134 3.814 20.158 3.842C20.186 3.866 20.2 3.898 20.2 3.938V7.862C20.2 7.902 20.186 7.936 20.158 7.964C20.134 7.988 20.102 8 20.062 8H19.744ZM21.3846 8C21.3446 8 21.3106 7.988 21.2826 7.964C21.2586 7.936 21.2466 7.902 21.2466 7.862V3.944C21.2466 3.9 21.2586 3.866 21.2826 3.842C21.3106 3.814 21.3446 3.8 21.3846 3.8H21.6846C21.7326 3.8 21.7686 3.812 21.7926 3.836C21.8166 3.86 21.8306 3.88 21.8346 3.896L23.1066 6.32L24.3846 3.896C24.3926 3.88 24.4066 3.86 24.4266 3.836C24.4506 3.812 24.4866 3.8 24.5346 3.8H24.8286C24.8726 3.8 24.9066 3.814 24.9306 3.842C24.9586 3.866 24.9726 3.9 24.9726 3.944V7.862C24.9726 7.902 24.9586 7.936 24.9306 7.964C24.9066 7.988 24.8726 8 24.8286 8H24.5346C24.4946 8 24.4606 7.988 24.4326 7.964C24.4086 7.936 24.3966 7.902 24.3966 7.862V4.91L23.3946 6.866C23.3786 6.906 23.3546 6.938 23.3226 6.962C23.2906 6.982 23.2506 6.992 23.2026 6.992H23.0166C22.9646 6.992 22.9226 6.982 22.8906 6.962C22.8626 6.938 22.8386 6.906 22.8186 6.866L21.8166 4.91V7.862C21.8166 7.902 21.8026 7.936 21.7746 7.964C21.7506 7.988 21.7186 8 21.6786 8H21.3846ZM26.1483 8C26.1043 8 26.0703 7.988 26.0463 7.964C26.0223 7.936 26.0103 7.902 26.0103 7.862V3.944C26.0103 3.9 26.0223 3.866 26.0463 3.842C26.0703 3.814 26.1043 3.8 26.1483 3.8H27.6723C27.9683 3.8 28.2243 3.848 28.4403 3.944C28.6603 4.04 28.8303 4.184 28.9503 4.376C29.0703 4.564 29.1303 4.8 29.1303 5.084C29.1303 5.368 29.0703 5.604 28.9503 5.792C28.8303 5.98 28.6603 6.122 28.4403 6.218C28.2243 6.314 27.9683 6.362 27.6723 6.362H26.6103V7.862C26.6103 7.902 26.5963 7.936 26.5683 7.964C26.5443 7.988 26.5103 8 26.4663 8H26.1483ZM26.6043 5.858H27.6423C27.9383 5.858 28.1603 5.792 28.3083 5.66C28.4563 5.528 28.5303 5.336 28.5303 5.084C28.5303 4.836 28.4583 4.644 28.3143 4.508C28.1703 4.372 27.9463 4.304 27.6423 4.304H26.6043V5.858Z" fill="white"/>
<defs>
<clipPath id="clip0_32_153">
<rect width="8" height="8" fill="white" transform="translate(6 2)"/>
</clipPath>
</defs>
</svg>
