<svg width="31" height="12" viewBox="0 0 31 12" fill="none" xmlns="http://www.w3.org/2000/svg">
<rect width="31" height="12" rx="6" fill="#F05032"/>
<g clip-path="url(#clip0_16_547)">
<path d="M13.8487 5.64317L10.3557 2.15051C10.1543 1.94951 9.82833 1.94951 9.62633 2.15051L8.90267 2.87551L9.82267 3.79551C10.0377 3.72384 10.2823 3.77217 10.4523 3.94251C10.6243 4.11417 10.6717 4.36184 10.5983 4.57584L11.4843 5.46251C11.6993 5.38817 11.9467 5.43651 12.1177 5.60751C12.358 5.84751 12.358 6.23551 12.1177 6.47551C11.878 6.71517 11.4907 6.71517 11.251 6.47551C11.0713 6.29517 11.0263 6.02984 11.1163 5.81017L10.2867 4.98484V7.15984C10.3453 7.18851 10.4007 7.22751 10.4493 7.27584C10.687 7.51617 10.687 7.90351 10.4493 8.14251C10.2097 8.38284 9.81967 8.38284 9.57967 8.14251C9.34 7.90284 9.34 7.51617 9.57967 7.27651C9.64033 7.21651 9.70867 7.17117 9.78133 7.14117V4.94484C9.709 4.91451 9.64 4.87084 9.58133 4.81117C9.39967 4.62951 9.356 4.36384 9.44933 4.14151L8.54533 3.23317L6.15 5.62684C5.95 5.82851 5.95 6.15484 6.15 6.35651L9.64333 9.84884C9.84467 10.0502 10.1707 10.0502 10.372 9.84884L13.8487 6.37217C14.0503 6.17117 14.0503 5.84484 13.8487 5.64317Z" fill="black"/>
</g>
<path d="M17.046 8.06C16.694 8.06 16.394 7.994 16.146 7.862C15.902 7.73 15.714 7.544 15.582 7.304C15.454 7.064 15.382 6.782 15.366 6.458C15.362 6.282 15.36 6.096 15.36 5.9C15.36 5.7 15.362 5.51 15.366 5.33C15.382 5.006 15.454 4.726 15.582 4.49C15.714 4.254 15.904 4.07 16.152 3.938C16.4 3.806 16.698 3.74 17.046 3.74C17.33 3.74 17.576 3.78 17.784 3.86C17.992 3.94 18.162 4.042 18.294 4.166C18.43 4.286 18.53 4.412 18.594 4.544C18.662 4.676 18.698 4.792 18.702 4.892C18.706 4.928 18.696 4.958 18.672 4.982C18.648 5.002 18.616 5.012 18.576 5.012H18.222C18.182 5.012 18.152 5.004 18.132 4.988C18.116 4.972 18.1 4.944 18.084 4.904C18.048 4.8 17.988 4.698 17.904 4.598C17.824 4.498 17.714 4.416 17.574 4.352C17.438 4.284 17.262 4.25 17.046 4.25C16.73 4.25 16.474 4.336 16.278 4.508C16.086 4.68 15.982 4.964 15.966 5.36C15.954 5.716 15.954 6.072 15.966 6.428C15.982 6.828 16.088 7.116 16.284 7.292C16.48 7.464 16.736 7.55 17.052 7.55C17.264 7.55 17.452 7.512 17.616 7.436C17.784 7.356 17.916 7.234 18.012 7.07C18.108 6.906 18.156 6.698 18.156 6.446V6.194H17.256C17.216 6.194 17.182 6.182 17.154 6.158C17.13 6.13 17.118 6.094 17.118 6.05V5.858C17.118 5.814 17.13 5.78 17.154 5.756C17.182 5.728 17.216 5.714 17.256 5.714H18.612C18.656 5.714 18.69 5.728 18.714 5.756C18.738 5.78 18.75 5.814 18.75 5.858V6.434C18.75 6.762 18.682 7.048 18.546 7.292C18.414 7.536 18.22 7.726 17.964 7.862C17.708 7.994 17.402 8.06 17.046 8.06ZM19.744 8C19.7 8 19.666 7.988 19.642 7.964C19.618 7.936 19.606 7.902 19.606 7.862V3.938C19.606 3.898 19.618 3.866 19.642 3.842C19.666 3.814 19.7 3.8 19.744 3.8H20.062C20.102 3.8 20.134 3.814 20.158 3.842C20.186 3.866 20.2 3.898 20.2 3.938V7.862C20.2 7.902 20.186 7.936 20.158 7.964C20.134 7.988 20.102 8 20.062 8H19.744ZM22.3026 8C22.2626 8 22.2286 7.988 22.2006 7.964C22.1766 7.936 22.1646 7.902 22.1646 7.862V4.334H21.0126C20.9726 4.334 20.9386 4.322 20.9106 4.298C20.8866 4.27 20.8746 4.236 20.8746 4.196V3.944C20.8746 3.9 20.8866 3.866 20.9106 3.842C20.9386 3.814 20.9726 3.8 21.0126 3.8H23.9046C23.9486 3.8 23.9826 3.814 24.0066 3.842C24.0346 3.866 24.0486 3.9 24.0486 3.944V4.196C24.0486 4.236 24.0346 4.27 24.0066 4.298C23.9826 4.322 23.9486 4.334 23.9046 4.334H22.7586V7.862C22.7586 7.902 22.7446 7.936 22.7166 7.964C22.6926 7.988 22.6586 8 22.6146 8H22.3026Z" fill="black"/>
<defs>
<clipPath id="clip0_16_547">
<rect width="8" height="8" fill="white" transform="translate(6 2)"/>
</clipPath>
</defs>
</svg>
