<svg width="42" height="12" viewBox="0 0 42 12" fill="none" xmlns="http://www.w3.org/2000/svg">
<rect width="42" height="12" rx="6" fill="#181717"/>
<g clip-path="url(#clip0_16_869)">
<path d="M10 2.099C7.79 2.099 6 3.89 6 6.099C6 7.86667 7.146 9.36566 8.735 9.894C8.935 9.93166 9.00833 9.808 9.00833 9.70166C9.00833 9.60666 9.005 9.355 9.00333 9.02167C7.89067 9.263 7.656 8.485 7.656 8.485C7.474 8.02333 7.211 7.9 7.211 7.9C6.84867 7.652 7.239 7.657 7.239 7.657C7.64067 7.685 7.85167 8.069 7.85167 8.069C8.20833 8.68067 8.788 8.504 9.01667 8.40167C9.05267 8.143 9.15567 7.96667 9.27 7.86667C8.38167 7.76666 7.448 7.42267 7.448 5.89C7.448 5.45333 7.603 5.09667 7.85967 4.81667C7.81467 4.71567 7.67967 4.309 7.89467 3.758C7.89467 3.758 8.22967 3.65067 8.99467 4.168C9.31467 4.079 9.65467 4.035 9.99467 4.033C10.3347 4.035 10.6747 4.079 10.9947 4.168C11.7547 3.65067 12.0897 3.758 12.0897 3.758C12.3047 4.309 12.1697 4.71567 12.1297 4.81667C12.3847 5.09667 12.5397 5.45333 12.5397 5.89C12.5397 7.42667 11.6047 7.765 10.7147 7.86333C10.8547 7.98333 10.9847 8.22866 10.9847 8.60333C10.9847 9.13866 10.9797 9.56867 10.9797 9.69867C10.9797 9.80367 11.0497 9.92867 11.2547 9.88867C12.855 9.364 14 7.864 14 6.099C14 3.89 12.209 2.099 10 2.099Z" fill="white"/>
</g>
<path d="M17.046 8.06C16.694 8.06 16.394 7.994 16.146 7.862C15.902 7.73 15.714 7.544 15.582 7.304C15.454 7.064 15.382 6.782 15.366 6.458C15.362 6.282 15.36 6.096 15.36 5.9C15.36 5.7 15.362 5.51 15.366 5.33C15.382 5.006 15.454 4.726 15.582 4.49C15.714 4.254 15.904 4.07 16.152 3.938C16.4 3.806 16.698 3.74 17.046 3.74C17.33 3.74 17.576 3.78 17.784 3.86C17.992 3.94 18.162 4.042 18.294 4.166C18.43 4.286 18.53 4.412 18.594 4.544C18.662 4.676 18.698 4.792 18.702 4.892C18.706 4.928 18.696 4.958 18.672 4.982C18.648 5.002 18.616 5.012 18.576 5.012H18.222C18.182 5.012 18.152 5.004 18.132 4.988C18.116 4.972 18.1 4.944 18.084 4.904C18.048 4.8 17.988 4.698 17.904 4.598C17.824 4.498 17.714 4.416 17.574 4.352C17.438 4.284 17.262 4.25 17.046 4.25C16.73 4.25 16.474 4.336 16.278 4.508C16.086 4.68 15.982 4.964 15.966 5.36C15.954 5.716 15.954 6.072 15.966 6.428C15.982 6.828 16.088 7.116 16.284 7.292C16.48 7.464 16.736 7.55 17.052 7.55C17.264 7.55 17.452 7.512 17.616 7.436C17.784 7.356 17.916 7.234 18.012 7.07C18.108 6.906 18.156 6.698 18.156 6.446V6.194H17.256C17.216 6.194 17.182 6.182 17.154 6.158C17.13 6.13 17.118 6.094 17.118 6.05V5.858C17.118 5.814 17.13 5.78 17.154 5.756C17.182 5.728 17.216 5.714 17.256 5.714H18.612C18.656 5.714 18.69 5.728 18.714 5.756C18.738 5.78 18.75 5.814 18.75 5.858V6.434C18.75 6.762 18.682 7.048 18.546 7.292C18.414 7.536 18.22 7.726 17.964 7.862C17.708 7.994 17.402 8.06 17.046 8.06ZM19.744 8C19.7 8 19.666 7.988 19.642 7.964C19.618 7.936 19.606 7.902 19.606 7.862V3.938C19.606 3.898 19.618 3.866 19.642 3.842C19.666 3.814 19.7 3.8 19.744 3.8H20.062C20.102 3.8 20.134 3.814 20.158 3.842C20.186 3.866 20.2 3.898 20.2 3.938V7.862C20.2 7.902 20.186 7.936 20.158 7.964C20.134 7.988 20.102 8 20.062 8H19.744ZM22.3026 8C22.2626 8 22.2286 7.988 22.2006 7.964C22.1766 7.936 22.1646 7.902 22.1646 7.862V4.334H21.0126C20.9726 4.334 20.9386 4.322 20.9106 4.298C20.8866 4.27 20.8746 4.236 20.8746 4.196V3.944C20.8746 3.9 20.8866 3.866 20.9106 3.842C20.9386 3.814 20.9726 3.8 21.0126 3.8H23.9046C23.9486 3.8 23.9826 3.814 24.0066 3.842C24.0346 3.866 24.0486 3.9 24.0486 3.944V4.196C24.0486 4.236 24.0346 4.27 24.0066 4.298C23.9826 4.322 23.9486 4.334 23.9046 4.334H22.7586V7.862C22.7586 7.902 22.7446 7.936 22.7166 7.964C22.6926 7.988 22.6586 8 22.6146 8H22.3026ZM24.8592 8C24.8152 8 24.7812 7.988 24.7572 7.964C24.7332 7.936 24.7212 7.902 24.7212 7.862V3.944C24.7212 3.9 24.7332 3.866 24.7572 3.842C24.7812 3.814 24.8152 3.8 24.8592 3.8H25.1652C25.2092 3.8 25.2432 3.814 25.2672 3.842C25.2952 3.866 25.3092 3.9 25.3092 3.944V5.6H27.3732V3.944C27.3732 3.9 27.3852 3.866 27.4092 3.842C27.4372 3.814 27.4712 3.8 27.5112 3.8H27.8172C27.8612 3.8 27.8952 3.814 27.9192 3.842C27.9472 3.866 27.9612 3.9 27.9612 3.944V7.862C27.9612 7.902 27.9472 7.936 27.9192 7.964C27.8952 7.988 27.8612 8 27.8172 8H27.5112C27.4712 8 27.4372 7.988 27.4092 7.964C27.3852 7.936 27.3732 7.902 27.3732 7.862V6.14H25.3092V7.862C25.3092 7.902 25.2952 7.936 25.2672 7.964C25.2432 7.988 25.2092 8 25.1652 8H24.8592ZM30.5826 8.06C30.2466 8.06 29.9566 8 29.7126 7.88C29.4726 7.76 29.2866 7.578 29.1546 7.334C29.0266 7.086 28.9626 6.768 28.9626 6.38V3.944C28.9626 3.9 28.9746 3.866 28.9986 3.842C29.0226 3.814 29.0566 3.8 29.1006 3.8H29.4066C29.4506 3.8 29.4846 3.814 29.5086 3.842C29.5366 3.866 29.5506 3.9 29.5506 3.944V6.392C29.5506 6.784 29.6426 7.074 29.8266 7.262C30.0106 7.45 30.2626 7.544 30.5826 7.544C30.8986 7.544 31.1486 7.45 31.3326 7.262C31.5206 7.074 31.6146 6.784 31.6146 6.392V3.944C31.6146 3.9 31.6266 3.866 31.6506 3.842C31.6786 3.814 31.7126 3.8 31.7526 3.8H32.0646C32.1046 3.8 32.1366 3.814 32.1606 3.842C32.1886 3.866 32.2026 3.9 32.2026 3.944V6.38C32.2026 6.768 32.1366 7.086 32.0046 7.334C31.8766 7.578 31.6926 7.76 31.4526 7.88C31.2126 8 30.9226 8.06 30.5826 8.06ZM33.3436 8C33.2996 8 33.2656 7.988 33.2416 7.964C33.2176 7.936 33.2056 7.902 33.2056 7.862V3.944C33.2056 3.9 33.2176 3.866 33.2416 3.842C33.2656 3.814 33.2996 3.8 33.3436 3.8H34.9876C35.2876 3.8 35.5316 3.85 35.7196 3.95C35.9116 4.046 36.0516 4.178 36.1396 4.346C36.2316 4.514 36.2776 4.702 36.2776 4.91C36.2776 5.074 36.2496 5.216 36.1936 5.336C36.1416 5.452 36.0756 5.548 35.9956 5.624C35.9156 5.696 35.8376 5.752 35.7616 5.792C35.9176 5.868 36.0556 5.992 36.1756 6.164C36.2996 6.336 36.3616 6.544 36.3616 6.788C36.3616 7.008 36.3116 7.21 36.2116 7.394C36.1116 7.578 35.9616 7.726 35.7616 7.838C35.5656 7.946 35.3216 8 35.0296 8H33.3436ZM33.7936 7.514H34.9516C35.2116 7.514 35.4116 7.444 35.5516 7.304C35.6916 7.164 35.7616 6.992 35.7616 6.788C35.7616 6.576 35.6916 6.402 35.5516 6.266C35.4116 6.126 35.2116 6.056 34.9516 6.056H33.7936V7.514ZM33.7936 5.576H34.8976C35.1536 5.576 35.3476 5.518 35.4796 5.402C35.6116 5.282 35.6776 5.12 35.6776 4.916C35.6776 4.712 35.6116 4.556 35.4796 4.448C35.3476 4.34 35.1536 4.286 34.8976 4.286H33.7936V5.576Z" fill="white"/>
<defs>
<clipPath id="clip0_16_869">
<rect width="8" height="8" fill="white" transform="translate(6 2)"/>
</clipPath>
</defs>
</svg>
