<svg width="12" height="12" viewBox="0 0 12 12" fill="none" xmlns="http://www.w3.org/2000/svg">
<rect width="12" height="12" rx="6" fill="#222831"/>
<path d="M6 2C3.79 2 2 3.791 2 6C2 7.76767 3.146 9.26667 4.735 9.795C4.935 9.83267 5.00833 9.709 5.00833 9.60267C5.00833 9.50767 5.005 9.256 5.00333 8.92267C3.89067 9.164 3.656 8.386 3.656 8.386C3.474 7.92433 3.211 7.801 3.211 7.801C2.84867 7.553 3.239 7.558 3.239 7.558C3.64067 7.586 3.85167 7.97 3.85167 7.97C4.20833 8.58167 4.788 8.405 5.01667 8.30267C5.05267 8.044 5.15567 7.86767 5.27 7.76767C4.38167 7.66767 3.448 7.32367 3.448 5.791C3.448 5.35433 3.603 4.99767 3.85967 4.71767C3.81467 4.61667 3.67967 4.21 3.89467 3.659C3.89467 3.659 4.22967 3.55167 4.99467 4.069C5.31467 3.98 5.65467 3.936 5.99467 3.934C6.33467 3.936 6.67467 3.98 6.99467 4.069C7.75467 3.55167 8.08967 3.659 8.08967 3.659C8.30467 4.21 8.16967 4.61667 8.12967 4.71767C8.38467 4.99767 8.53967 5.35433 8.53967 5.791C8.53967 7.32767 7.60467 7.666 6.71467 7.76433C6.85467 7.88433 6.98467 8.12967 6.98467 8.50433C6.98467 9.03967 6.97967 9.46967 6.97967 9.59967C6.97967 9.70467 7.04967 9.82967 7.25467 9.78967C8.855 9.265 10 7.765 10 6C10 3.791 8.209 2 6 2Z" fill="#00ADB5"/>
</svg>
