<svg width="39" height="12" viewBox="0 0 39 12" fill="none" xmlns="http://www.w3.org/2000/svg">
<rect width="39" height="12" rx="6" fill="#EA4335"/>
<g clip-path="url(#clip0_32_144)">
<path d="M14 3.819V8.45533C14 8.75667 13.756 9.00067 13.4547 9.00067H12.1817V5.91L10 7.54667L7.81833 5.91V9.001H6.54533C6.47369 9.001 6.40275 8.98688 6.33657 8.95946C6.27038 8.93203 6.21025 8.89183 6.15961 8.84116C6.10896 8.79048 6.0688 8.73033 6.04142 8.66413C6.01403 8.59792 5.99996 8.52698 6 8.45533V3.819C6 3.14467 6.76967 2.75967 7.309 3.16433L7.81833 3.54667L10 5.18267L12.1817 3.546L12.691 3.16433C13.23 2.76 14 3.14467 14 3.819Z" fill="black"/>
</g>
<path d="M17.046 8.06C16.694 8.06 16.394 7.994 16.146 7.862C15.902 7.73 15.714 7.544 15.582 7.304C15.454 7.064 15.382 6.782 15.366 6.458C15.362 6.282 15.36 6.096 15.36 5.9C15.36 5.7 15.362 5.51 15.366 5.33C15.382 5.006 15.454 4.726 15.582 4.49C15.714 4.254 15.904 4.07 16.152 3.938C16.4 3.806 16.698 3.74 17.046 3.74C17.33 3.74 17.576 3.78 17.784 3.86C17.992 3.94 18.162 4.042 18.294 4.166C18.43 4.286 18.53 4.412 18.594 4.544C18.662 4.676 18.698 4.792 18.702 4.892C18.706 4.928 18.696 4.958 18.672 4.982C18.648 5.002 18.616 5.012 18.576 5.012H18.222C18.182 5.012 18.152 5.004 18.132 4.988C18.116 4.972 18.1 4.944 18.084 4.904C18.048 4.8 17.988 4.698 17.904 4.598C17.824 4.498 17.714 4.416 17.574 4.352C17.438 4.284 17.262 4.25 17.046 4.25C16.73 4.25 16.474 4.336 16.278 4.508C16.086 4.68 15.982 4.964 15.966 5.36C15.954 5.716 15.954 6.072 15.966 6.428C15.982 6.828 16.088 7.116 16.284 7.292C16.48 7.464 16.736 7.55 17.052 7.55C17.264 7.55 17.452 7.512 17.616 7.436C17.784 7.356 17.916 7.234 18.012 7.07C18.108 6.906 18.156 6.698 18.156 6.446V6.194H17.256C17.216 6.194 17.182 6.182 17.154 6.158C17.13 6.13 17.118 6.094 17.118 6.05V5.858C17.118 5.814 17.13 5.78 17.154 5.756C17.182 5.728 17.216 5.714 17.256 5.714H18.612C18.656 5.714 18.69 5.728 18.714 5.756C18.738 5.78 18.75 5.814 18.75 5.858V6.434C18.75 6.762 18.682 7.048 18.546 7.292C18.414 7.536 18.22 7.726 17.964 7.862C17.708 7.994 17.402 8.06 17.046 8.06ZM19.744 8C19.704 8 19.67 7.988 19.642 7.964C19.618 7.936 19.606 7.902 19.606 7.862V3.944C19.606 3.9 19.618 3.866 19.642 3.842C19.67 3.814 19.704 3.8 19.744 3.8H20.044C20.092 3.8 20.128 3.812 20.152 3.836C20.176 3.86 20.19 3.88 20.194 3.896L21.466 6.32L22.744 3.896C22.752 3.88 22.766 3.86 22.786 3.836C22.81 3.812 22.846 3.8 22.894 3.8H23.188C23.232 3.8 23.266 3.814 23.29 3.842C23.318 3.866 23.332 3.9 23.332 3.944V7.862C23.332 7.902 23.318 7.936 23.29 7.964C23.266 7.988 23.232 8 23.188 8H22.894C22.854 8 22.82 7.988 22.792 7.964C22.768 7.936 22.756 7.902 22.756 7.862V4.91L21.754 6.866C21.738 6.906 21.714 6.938 21.682 6.962C21.65 6.982 21.61 6.992 21.562 6.992H21.376C21.324 6.992 21.282 6.982 21.25 6.962C21.222 6.938 21.198 6.906 21.178 6.866L20.176 4.91V7.862C20.176 7.902 20.162 7.936 20.134 7.964C20.11 7.988 20.078 8 20.038 8H19.744ZM24.0877 8C24.0557 8 24.0277 7.988 24.0037 7.964C23.9797 7.94 23.9677 7.912 23.9677 7.88C23.9677 7.86 23.9697 7.838 23.9737 7.814L25.4617 3.932C25.4777 3.892 25.4997 3.86 25.5277 3.836C25.5557 3.812 25.5977 3.8 25.6537 3.8H26.0617C26.1137 3.8 26.1537 3.812 26.1817 3.836C26.2137 3.86 26.2377 3.892 26.2537 3.932L27.7357 7.814C27.7437 7.838 27.7477 7.86 27.7477 7.88C27.7477 7.912 27.7357 7.94 27.7117 7.964C27.6877 7.988 27.6597 8 27.6277 8H27.3217C27.2737 8 27.2377 7.988 27.2137 7.964C27.1937 7.94 27.1797 7.918 27.1717 7.898L26.8417 7.046H24.8737L24.5437 7.898C24.5397 7.918 24.5257 7.94 24.5017 7.964C24.4777 7.988 24.4417 8 24.3937 8H24.0877ZM25.0477 6.53H26.6677L25.8577 4.4L25.0477 6.53ZM28.5272 8C28.4832 8 28.4492 7.988 28.4252 7.964C28.4012 7.936 28.3892 7.902 28.3892 7.862V3.938C28.3892 3.898 28.4012 3.866 28.4252 3.842C28.4492 3.814 28.4832 3.8 28.5272 3.8H28.8452C28.8852 3.8 28.9172 3.814 28.9412 3.842C28.9692 3.866 28.9832 3.898 28.9832 3.938V7.862C28.9832 7.902 28.9692 7.936 28.9412 7.964C28.9172 7.988 28.8852 8 28.8452 8H28.5272ZM30.1678 8C30.1238 8 30.0898 7.988 30.0658 7.964C30.0418 7.936 30.0298 7.902 30.0298 7.862V3.938C30.0298 3.898 30.0418 3.866 30.0658 3.842C30.0898 3.814 30.1238 3.8 30.1678 3.8H30.4858C30.5258 3.8 30.5578 3.814 30.5818 3.842C30.6058 3.866 30.6178 3.898 30.6178 3.938V7.478H32.6158C32.6598 7.478 32.6938 7.492 32.7178 7.52C32.7418 7.544 32.7538 7.578 32.7538 7.622V7.862C32.7538 7.902 32.7418 7.936 32.7178 7.964C32.6938 7.988 32.6598 8 32.6158 8H30.1678Z" fill="black"/>
<defs>
<clipPath id="clip0_32_144">
<rect width="8" height="8" fill="white" transform="translate(6 2)"/>
</clipPath>
</defs>
</svg>
