<svg width="12" height="12" viewBox="0 0 12 12" fill="none" xmlns="http://www.w3.org/2000/svg">
<rect width="12" height="12" rx="6" fill="#222831"/>
<path d="M10 3.81984V8.45618C10 8.75751 9.756 9.00151 9.45467 9.00151H8.18167V5.91084L6 7.54751L3.81833 5.91084V9.00184H2.54533C2.47369 9.00184 2.40275 8.98773 2.33657 8.9603C2.27038 8.93287 2.21025 8.89268 2.15961 8.842C2.10896 8.79133 2.0688 8.73117 2.04142 8.66497C2.01403 8.59877 1.99996 8.52782 2 8.45618V3.81984C2 3.14551 2.76967 2.76051 3.309 3.16518L3.81833 3.54751L6 5.18351L8.18167 3.54684L8.691 3.16518C9.23 2.76084 10 3.14551 10 3.81984Z" fill="#00ADB5"/>
</svg>
