<svg width="48" height="12" viewBox="0 0 48 12" fill="none" xmlns="http://www.w3.org/2000/svg">
<rect width="48" height="12" rx="6" fill="#0A66C2"/>
<g clip-path="url(#clip0_32_145)">
<path d="M12.8157 8.81733H11.631V6.961C11.631 6.51833 11.622 5.94867 11.0137 5.94867C10.396 5.94867 10.3017 6.43033 10.3017 6.92833V8.81733H9.117V5H10.255V5.52033H10.2703C10.4293 5.22033 10.816 4.90367 11.3937 4.90367C12.594 4.90367 12.816 5.69367 12.816 6.722L12.8157 8.81733ZM7.779 4.47767C7.39767 4.47767 7.09133 4.169 7.09133 3.78933C7.09133 3.41 7.398 3.10167 7.779 3.10167C8.159 3.10167 8.467 3.41 8.467 3.78933C8.467 4.169 8.15867 4.47767 7.779 4.47767ZM8.373 8.81733H7.185V5H8.373V8.81733ZM13.4083 2H6.59033C6.264 2 6 2.258 6 2.57633V9.42367C6 9.74233 6.264 10 6.59033 10H13.4073C13.7333 10 14 9.74233 14 9.42367V2.57633C14 2.258 13.7333 2 13.4073 2H13.4083Z" fill="white"/>
</g>
<path d="M15.66 8C15.616 8 15.582 7.988 15.558 7.964C15.534 7.936 15.522 7.902 15.522 7.862V3.938C15.522 3.898 15.534 3.866 15.558 3.842C15.582 3.814 15.616 3.8 15.66 3.8H15.978C16.018 3.8 16.05 3.814 16.074 3.842C16.098 3.866 16.11 3.898 16.11 3.938V7.478H18.108C18.152 7.478 18.186 7.492 18.21 7.52C18.234 7.544 18.246 7.578 18.246 7.622V7.862C18.246 7.902 18.234 7.936 18.21 7.964C18.186 7.988 18.152 8 18.108 8H15.66ZM19.0409 8C18.9969 8 18.9629 7.988 18.9389 7.964C18.9149 7.936 18.9029 7.902 18.9029 7.862V3.938C18.9029 3.898 18.9149 3.866 18.9389 3.842C18.9629 3.814 18.9969 3.8 19.0409 3.8H19.3589C19.3989 3.8 19.4309 3.814 19.4549 3.842C19.4829 3.866 19.4969 3.898 19.4969 3.938V7.862C19.4969 7.902 19.4829 7.936 19.4549 7.964C19.4309 7.988 19.3989 8 19.3589 8H19.0409ZM20.6815 8C20.6375 8 20.6035 7.988 20.5795 7.964C20.5555 7.936 20.5435 7.902 20.5435 7.862V3.944C20.5435 3.9 20.5555 3.866 20.5795 3.842C20.6035 3.814 20.6375 3.8 20.6815 3.8H20.9575C21.0055 3.8 21.0415 3.812 21.0655 3.836C21.0895 3.856 21.1035 3.872 21.1075 3.884L23.0995 6.944V3.944C23.0995 3.9 23.1115 3.866 23.1355 3.842C23.1595 3.814 23.1935 3.8 23.2375 3.8H23.5255C23.5695 3.8 23.6035 3.814 23.6275 3.842C23.6555 3.866 23.6695 3.9 23.6695 3.944V7.856C23.6695 7.896 23.6555 7.93 23.6275 7.958C23.6035 7.986 23.5715 8 23.5315 8H23.2435C23.1995 8 23.1655 7.988 23.1415 7.964C23.1215 7.94 23.1075 7.924 23.0995 7.916L21.1135 4.886V7.862C21.1135 7.902 21.0995 7.936 21.0715 7.964C21.0475 7.988 21.0135 8 20.9695 8H20.6815ZM24.8475 8C24.8035 8 24.7695 7.988 24.7455 7.964C24.7215 7.936 24.7095 7.902 24.7095 7.862V3.944C24.7095 3.9 24.7215 3.866 24.7455 3.842C24.7695 3.814 24.8035 3.8 24.8475 3.8H25.1475C25.1915 3.8 25.2255 3.814 25.2495 3.842C25.2775 3.866 25.2915 3.9 25.2915 3.944V5.432L26.8935 3.896C26.9095 3.88 26.9355 3.86 26.9715 3.836C27.0115 3.812 27.0635 3.8 27.1275 3.8H27.4515C27.4835 3.8 27.5115 3.812 27.5355 3.836C27.5595 3.86 27.5715 3.888 27.5715 3.92C27.5715 3.952 27.5635 3.978 27.5475 3.998L25.6935 5.81L27.6675 7.796C27.6875 7.82 27.6975 7.848 27.6975 7.88C27.6975 7.912 27.6855 7.94 27.6615 7.964C27.6375 7.988 27.6095 8 27.5775 8H27.2415C27.1735 8 27.1215 7.988 27.0855 7.964C27.0495 7.936 27.0235 7.916 27.0075 7.904L25.2915 6.212V7.862C25.2915 7.902 25.2775 7.936 25.2495 7.964C25.2255 7.988 25.1915 8 25.1475 8H24.8475ZM28.451 8C28.407 8 28.373 7.988 28.349 7.964C28.325 7.936 28.313 7.902 28.313 7.862V3.944C28.313 3.9 28.325 3.866 28.349 3.842C28.373 3.814 28.407 3.8 28.451 3.8H30.929C30.973 3.8 31.007 3.814 31.031 3.842C31.055 3.866 31.067 3.9 31.067 3.944V4.172C31.067 4.216 31.055 4.25 31.031 4.274C31.007 4.298 30.973 4.31 30.929 4.31H28.889V5.624H30.797C30.841 5.624 30.875 5.638 30.899 5.666C30.923 5.69 30.935 5.724 30.935 5.768V5.99C30.935 6.03 30.923 6.064 30.899 6.092C30.875 6.116 30.841 6.128 30.797 6.128H28.889V7.49H30.977C31.021 7.49 31.055 7.502 31.079 7.526C31.103 7.55 31.115 7.584 31.115 7.628V7.862C31.115 7.902 31.103 7.936 31.079 7.964C31.055 7.988 31.021 8 30.977 8H28.451ZM32.0897 8C32.0457 8 32.0117 7.988 31.9877 7.964C31.9637 7.936 31.9517 7.902 31.9517 7.862V3.944C31.9517 3.9 31.9637 3.866 31.9877 3.842C32.0117 3.814 32.0457 3.8 32.0897 3.8H33.4517C33.8637 3.8 34.1957 3.862 34.4477 3.986C34.6997 4.11 34.8837 4.294 34.9997 4.538C35.1157 4.778 35.1757 5.074 35.1797 5.426C35.1837 5.606 35.1857 5.764 35.1857 5.9C35.1857 6.036 35.1837 6.192 35.1797 6.368C35.1717 6.736 35.1097 7.042 34.9937 7.286C34.8817 7.526 34.7017 7.706 34.4537 7.826C34.2097 7.942 33.8857 8 33.4817 8H32.0897ZM32.5397 7.49H33.4517C33.7277 7.49 33.9477 7.452 34.1117 7.376C34.2757 7.3 34.3937 7.178 34.4657 7.01C34.5417 6.842 34.5817 6.62 34.5857 6.344C34.5937 6.224 34.5977 6.12 34.5977 6.032C34.5977 5.94 34.5977 5.85 34.5977 5.762C34.5977 5.67 34.5937 5.566 34.5857 5.45C34.5777 5.062 34.4857 4.776 34.3097 4.592C34.1337 4.404 33.8377 4.31 33.4217 4.31H32.5397V7.49ZM36.2264 8C36.1824 8 36.1484 7.988 36.1244 7.964C36.1004 7.936 36.0884 7.902 36.0884 7.862V3.938C36.0884 3.898 36.1004 3.866 36.1244 3.842C36.1484 3.814 36.1824 3.8 36.2264 3.8H36.5444C36.5844 3.8 36.6164 3.814 36.6404 3.842C36.6684 3.866 36.6824 3.898 36.6824 3.938V7.862C36.6824 7.902 36.6684 7.936 36.6404 7.964C36.6164 7.988 36.5844 8 36.5444 8H36.2264ZM37.867 8C37.823 8 37.789 7.988 37.765 7.964C37.741 7.936 37.729 7.902 37.729 7.862V3.944C37.729 3.9 37.741 3.866 37.765 3.842C37.789 3.814 37.823 3.8 37.867 3.8H38.143C38.191 3.8 38.227 3.812 38.251 3.836C38.275 3.856 38.289 3.872 38.293 3.884L40.285 6.944V3.944C40.285 3.9 40.297 3.866 40.321 3.842C40.345 3.814 40.379 3.8 40.423 3.8H40.711C40.755 3.8 40.789 3.814 40.813 3.842C40.841 3.866 40.855 3.9 40.855 3.944V7.856C40.855 7.896 40.841 7.93 40.813 7.958C40.789 7.986 40.757 8 40.717 8H40.429C40.385 8 40.351 7.988 40.327 7.964C40.307 7.94 40.293 7.924 40.285 7.916L38.299 4.886V7.862C38.299 7.902 38.285 7.936 38.257 7.964C38.233 7.988 38.199 8 38.155 8H37.867Z" fill="white"/>
<defs>
<clipPath id="clip0_32_145">
<rect width="8" height="8" fill="white" transform="translate(6 2)"/>
</clipPath>
</defs>
</svg>
