<svg width="12" height="12" viewBox="0 0 12 12" fill="none" xmlns="http://www.w3.org/2000/svg">
<rect width="12" height="12" rx="6" fill="#222831"/>
<path d="M8.67367 8.81733H7.51369V6.961C7.51369 6.51833 7.50487 5.94867 6.90921 5.94867C6.30442 5.94867 6.21205 6.43033 6.21205 6.92833V8.81733H5.05206V5H6.16635V5.52033H6.18137C6.33706 5.22033 6.71567 4.90367 7.2813 4.90367C8.45662 4.90367 8.674 5.69367 8.674 6.722L8.67367 8.81733ZM3.74194 4.47767C3.36855 4.47767 3.0686 4.169 3.0686 3.78933C3.0686 3.41 3.36887 3.10167 3.74194 3.10167C4.11402 3.10167 4.4156 3.41 4.4156 3.78933C4.4156 4.169 4.11369 4.47767 3.74194 4.47767ZM4.32356 8.81733H3.16031V5H4.32356V8.81733ZM9.25399 2H2.57803C2.2585 2 2 2.258 2 2.57633V9.42367C2 9.74233 2.2585 10 2.57803 10H9.25301C9.57222 10 9.83333 9.74233 9.83333 9.42367V2.57633C9.83333 2.258 9.5732 2 9.25399 2Z" fill="#00ADB5"/>
</svg>
