<svg width="35" height="12" viewBox="0 0 35 12" fill="none" xmlns="http://www.w3.org/2000/svg">
<rect width="34" height="12" rx="6" fill="#CB3837"/>
<g clip-path="url(#clip0_16_549)">
<path d="M6.58767 2C6.262 2 6 2.262 6 2.58767V9.41233C6 9.738 6.262 10 6.58767 10H13.4123C13.738 10 14 9.738 14 9.41233V2.58767C14 2.262 13.738 2 13.4123 2H6.58767ZM7.71 3.77433L12.3223 3.78067L12.3193 8.39267H11.1647L11.168 4.932H10.016L10.0133 8.39H7.70433L7.71 3.77433Z" fill="white"/>
</g>
<path d="M15.66 8C15.616 8 15.582 7.988 15.558 7.964C15.534 7.936 15.522 7.902 15.522 7.862V3.944C15.522 3.9 15.534 3.866 15.558 3.842C15.582 3.814 15.616 3.8 15.66 3.8H15.936C15.984 3.8 16.02 3.812 16.044 3.836C16.068 3.856 16.082 3.872 16.086 3.884L18.078 6.944V3.944C18.078 3.9 18.09 3.866 18.114 3.842C18.138 3.814 18.172 3.8 18.216 3.8H18.504C18.548 3.8 18.582 3.814 18.606 3.842C18.634 3.866 18.648 3.9 18.648 3.944V7.856C18.648 7.896 18.634 7.93 18.606 7.958C18.582 7.986 18.55 8 18.51 8H18.222C18.178 8 18.144 7.988 18.12 7.964C18.1 7.94 18.086 7.924 18.078 7.916L16.092 4.886V7.862C16.092 7.902 16.078 7.936 16.05 7.964C16.026 7.988 15.992 8 15.948 8H15.66ZM19.826 8C19.782 8 19.748 7.988 19.724 7.964C19.7 7.936 19.688 7.902 19.688 7.862V3.944C19.688 3.9 19.7 3.866 19.724 3.842C19.748 3.814 19.782 3.8 19.826 3.8H21.35C21.646 3.8 21.902 3.848 22.118 3.944C22.338 4.04 22.508 4.184 22.628 4.376C22.748 4.564 22.808 4.8 22.808 5.084C22.808 5.368 22.748 5.604 22.628 5.792C22.508 5.98 22.338 6.122 22.118 6.218C21.902 6.314 21.646 6.362 21.35 6.362H20.288V7.862C20.288 7.902 20.274 7.936 20.246 7.964C20.222 7.988 20.188 8 20.144 8H19.826ZM20.282 5.858H21.32C21.616 5.858 21.838 5.792 21.986 5.66C22.134 5.528 22.208 5.336 22.208 5.084C22.208 4.836 22.136 4.644 21.992 4.508C21.848 4.372 21.624 4.304 21.32 4.304H20.282V5.858ZM23.6756 8C23.6356 8 23.6016 7.988 23.5736 7.964C23.5496 7.936 23.5376 7.902 23.5376 7.862V3.944C23.5376 3.9 23.5496 3.866 23.5736 3.842C23.6016 3.814 23.6356 3.8 23.6756 3.8H23.9756C24.0236 3.8 24.0596 3.812 24.0836 3.836C24.1076 3.86 24.1216 3.88 24.1256 3.896L25.3976 6.32L26.6756 3.896C26.6836 3.88 26.6976 3.86 26.7176 3.836C26.7416 3.812 26.7776 3.8 26.8256 3.8H27.1196C27.1636 3.8 27.1976 3.814 27.2216 3.842C27.2496 3.866 27.2636 3.9 27.2636 3.944V7.862C27.2636 7.902 27.2496 7.936 27.2216 7.964C27.1976 7.988 27.1636 8 27.1196 8H26.8256C26.7856 8 26.7516 7.988 26.7236 7.964C26.6996 7.936 26.6876 7.902 26.6876 7.862V4.91L25.6856 6.866C25.6696 6.906 25.6456 6.938 25.6136 6.962C25.5816 6.982 25.5416 6.992 25.4936 6.992H25.3076C25.2556 6.992 25.2136 6.982 25.1816 6.962C25.1536 6.938 25.1296 6.906 25.1096 6.866L24.1076 4.91V7.862C24.1076 7.902 24.0936 7.936 24.0656 7.964C24.0416 7.988 24.0096 8 23.9696 8H23.6756Z" fill="white"/>
<defs>
<clipPath id="clip0_16_549">
<rect width="8" height="8" fill="white" transform="translate(6 2)"/>
</clipPath>
</defs>
</svg>
