<svg width="47" height="12" viewBox="0 0 47 12" fill="none" xmlns="http://www.w3.org/2000/svg">
<rect width="47" height="12" rx="6" fill="#0078D4"/>
<g clip-path="url(#clip0_32_188)">
<path d="M7.62667 6.01333C7.62667 6.11333 7.61444 6.21 7.59 6.30333C7.56778 6.39444 7.53111 6.47667 7.48 6.55C7.43111 6.62333 7.36667 6.68111 7.28667 6.72333C7.20444 6.76778 7.10778 6.79 6.99667 6.79C6.88556 6.79 6.79111 6.76778 6.71333 6.72333C6.63556 6.67667 6.57222 6.61556 6.52333 6.54C6.47444 6.46667 6.43778 6.38333 6.41333 6.29C6.39111 6.19667 6.38 6.10111 6.38 6.00333C6.38 5.90556 6.39111 5.80889 6.41333 5.71333C6.43556 5.61778 6.47333 5.53333 6.52667 5.46C6.57556 5.38444 6.64111 5.32444 6.72333 5.28C6.80333 5.23556 6.9 5.21333 7.01333 5.21333C7.12667 5.21333 7.22222 5.23556 7.3 5.28C7.37778 5.32667 7.44111 5.38778 7.49 5.46333C7.53889 5.53889 7.57333 5.62444 7.59333 5.72C7.61556 5.81556 7.62667 5.91333 7.62667 6.01333ZM13 6V9.12667C13 9.22889 12.9633 9.31778 12.89 9.39333C12.8167 9.46444 12.7278 9.5 12.6233 9.5H7.37667C7.27444 9.5 7.18556 9.46333 7.11 9.39C7.03889 9.31667 7.00333 9.22778 7.00333 9.12333V8H5.33333C5.24222 8 5.16444 7.96667 5.1 7.9C5.03333 7.83556 5 7.75778 5 7.66667V4.33333C5 4.24222 5.03333 4.16444 5.1 4.1C5.16222 4.03333 5.24 4 5.33333 4H7.5V2.85C7.5 2.75222 7.53333 2.66889 7.6 2.6C7.66667 2.53333 7.75 2.5 7.85 2.5H12.15C12.2478 2.5 12.3311 2.53333 12.4 2.6C12.4667 2.66667 12.5 2.75 12.5 2.85V5.61667L12.9133 5.85667H12.9167C12.9389 5.87222 12.9589 5.89222 12.9767 5.91667C12.9922 5.94333 13 5.97111 13 6ZM11 3.25V4.25H12V3.25H11ZM11 4.75V5.75H12V4.75H11ZM11 6.25V6.86L12.0167 6.25H11ZM9.25 3.25V4.25H10.5V3.25H9.25ZM9.25 4.75V5.75H10.5V4.75H9.25ZM9.25 6.25V6.92667L10.0533 7.42667L10.5 7.16V6.25H9.25ZM8 3.25V4H8.66667L8.71 4.00333L8.75 4.01667V3.25H8ZM6.99333 7.32667C7.19333 7.32667 7.37111 7.29333 7.52667 7.22667C7.68222 7.15556 7.81444 7.06 7.92333 6.94C8.03 6.81778 8.11111 6.67556 8.16667 6.51333C8.22222 6.34889 8.25 6.17 8.25 5.97667C8.25 5.79222 8.22222 5.62 8.16667 5.46C8.11333 5.30222 8.03444 5.16444 7.93 5.04667C7.82556 4.92889 7.69778 4.83667 7.54667 4.77C7.39556 4.70333 7.22333 4.67 7.03 4.67C6.82556 4.67 6.64333 4.70333 6.48333 4.77C6.32556 4.83667 6.19222 4.93111 6.08333 5.05333C5.97222 5.17333 5.88889 5.31778 5.83333 5.48667C5.77778 5.65111 5.75 5.83222 5.75 6.03C5.75 6.21889 5.77889 6.39222 5.83667 6.55C5.89444 6.71 5.97667 6.84667 6.08333 6.96C6.19 7.07556 6.32 7.16556 6.47333 7.23C6.62667 7.29667 6.8 7.33 6.99333 7.33V7.32667ZM7.5 9H11.63L9 7.36V7.66667C9 7.75778 8.96667 7.83556 8.9 7.9C8.83556 7.96667 8.75778 8 8.66667 8H7.5V9ZM12.5 8.95667V6.54333L10.5333 7.72333L12.5 8.95667Z" fill="black"/>
</g>
<path d="M16.028 8.06C15.688 8.06 15.396 8.002 15.152 7.886C14.908 7.766 14.72 7.584 14.588 7.34C14.456 7.092 14.382 6.782 14.366 6.41C14.362 6.234 14.36 6.066 14.36 5.906C14.36 5.742 14.362 5.572 14.366 5.396C14.382 5.028 14.458 4.722 14.594 4.478C14.734 4.23 14.926 4.046 15.17 3.926C15.418 3.802 15.704 3.74 16.028 3.74C16.356 3.74 16.642 3.802 16.886 3.926C17.134 4.046 17.328 4.23 17.468 4.478C17.608 4.722 17.684 5.028 17.696 5.396C17.704 5.572 17.708 5.742 17.708 5.906C17.708 6.066 17.704 6.234 17.696 6.41C17.684 6.782 17.61 7.092 17.474 7.34C17.342 7.584 17.154 7.766 16.91 7.886C16.666 8.002 16.372 8.06 16.028 8.06ZM16.028 7.55C16.336 7.55 16.586 7.458 16.778 7.274C16.974 7.09 17.08 6.792 17.096 6.38C17.104 6.2 17.108 6.04 17.108 5.9C17.108 5.756 17.104 5.596 17.096 5.42C17.088 5.144 17.036 4.92 16.94 4.748C16.848 4.576 16.724 4.45 16.568 4.37C16.412 4.29 16.232 4.25 16.028 4.25C15.832 4.25 15.656 4.29 15.5 4.37C15.344 4.45 15.218 4.576 15.122 4.748C15.03 4.92 14.978 5.144 14.966 5.42C14.962 5.596 14.96 5.756 14.96 5.9C14.96 6.04 14.962 6.2 14.966 6.38C14.982 6.792 15.088 7.09 15.284 7.274C15.48 7.458 15.728 7.55 16.028 7.55ZM20.1665 8.06C19.8305 8.06 19.5405 8 19.2965 7.88C19.0565 7.76 18.8705 7.578 18.7385 7.334C18.6105 7.086 18.5465 6.768 18.5465 6.38V3.944C18.5465 3.9 18.5585 3.866 18.5825 3.842C18.6065 3.814 18.6405 3.8 18.6845 3.8H18.9905C19.0345 3.8 19.0685 3.814 19.0925 3.842C19.1205 3.866 19.1345 3.9 19.1345 3.944V6.392C19.1345 6.784 19.2265 7.074 19.4105 7.262C19.5945 7.45 19.8465 7.544 20.1665 7.544C20.4825 7.544 20.7325 7.45 20.9165 7.262C21.1045 7.074 21.1985 6.784 21.1985 6.392V3.944C21.1985 3.9 21.2105 3.866 21.2345 3.842C21.2625 3.814 21.2965 3.8 21.3365 3.8H21.6485C21.6885 3.8 21.7205 3.814 21.7445 3.842C21.7725 3.866 21.7865 3.9 21.7865 3.944V6.38C21.7865 6.768 21.7205 7.086 21.5885 7.334C21.4605 7.578 21.2765 7.76 21.0365 7.88C20.7965 8 20.5065 8.06 20.1665 8.06ZM23.8456 8C23.8056 8 23.7716 7.988 23.7436 7.964C23.7196 7.936 23.7076 7.902 23.7076 7.862V4.334H22.5556C22.5156 4.334 22.4816 4.322 22.4536 4.298C22.4296 4.27 22.4176 4.236 22.4176 4.196V3.944C22.4176 3.9 22.4296 3.866 22.4536 3.842C22.4816 3.814 22.5156 3.8 22.5556 3.8H25.4476C25.4916 3.8 25.5256 3.814 25.5496 3.842C25.5776 3.866 25.5916 3.9 25.5916 3.944V4.196C25.5916 4.236 25.5776 4.27 25.5496 4.298C25.5256 4.322 25.4916 4.334 25.4476 4.334H24.3016V7.862C24.3016 7.902 24.2876 7.936 24.2596 7.964C24.2356 7.988 24.2016 8 24.1576 8H23.8456ZM26.4022 8C26.3582 8 26.3242 7.988 26.3002 7.964C26.2762 7.936 26.2642 7.902 26.2642 7.862V3.938C26.2642 3.898 26.2762 3.866 26.3002 3.842C26.3242 3.814 26.3582 3.8 26.4022 3.8H26.7202C26.7602 3.8 26.7922 3.814 26.8162 3.842C26.8402 3.866 26.8522 3.898 26.8522 3.938V7.478H28.8502C28.8942 7.478 28.9282 7.492 28.9522 7.52C28.9762 7.544 28.9882 7.578 28.9882 7.622V7.862C28.9882 7.902 28.9762 7.936 28.9522 7.964C28.9282 7.988 28.8942 8 28.8502 8H26.4022ZM31.0925 8.06C30.7525 8.06 30.4605 8.002 30.2165 7.886C29.9725 7.766 29.7845 7.584 29.6525 7.34C29.5205 7.092 29.4465 6.782 29.4305 6.41C29.4265 6.234 29.4245 6.066 29.4245 5.906C29.4245 5.742 29.4265 5.572 29.4305 5.396C29.4465 5.028 29.5225 4.722 29.6585 4.478C29.7985 4.23 29.9905 4.046 30.2345 3.926C30.4825 3.802 30.7685 3.74 31.0925 3.74C31.4205 3.74 31.7065 3.802 31.9505 3.926C32.1985 4.046 32.3925 4.23 32.5325 4.478C32.6725 4.722 32.7485 5.028 32.7605 5.396C32.7685 5.572 32.7725 5.742 32.7725 5.906C32.7725 6.066 32.7685 6.234 32.7605 6.41C32.7485 6.782 32.6745 7.092 32.5385 7.34C32.4065 7.584 32.2185 7.766 31.9745 7.886C31.7305 8.002 31.4365 8.06 31.0925 8.06ZM31.0925 7.55C31.4005 7.55 31.6505 7.458 31.8425 7.274C32.0385 7.09 32.1445 6.792 32.1605 6.38C32.1685 6.2 32.1725 6.04 32.1725 5.9C32.1725 5.756 32.1685 5.596 32.1605 5.42C32.1525 5.144 32.1005 4.92 32.0045 4.748C31.9125 4.576 31.7885 4.45 31.6325 4.37C31.4765 4.29 31.2965 4.25 31.0925 4.25C30.8965 4.25 30.7205 4.29 30.5645 4.37C30.4085 4.45 30.2825 4.576 30.1865 4.748C30.0945 4.92 30.0425 5.144 30.0305 5.42C30.0265 5.596 30.0245 5.756 30.0245 5.9C30.0245 6.04 30.0265 6.2 30.0305 6.38C30.0465 6.792 30.1525 7.09 30.3485 7.274C30.5445 7.458 30.7925 7.55 31.0925 7.55ZM35.153 8.06C34.813 8.06 34.521 8.002 34.277 7.886C34.033 7.766 33.845 7.584 33.713 7.34C33.581 7.092 33.507 6.782 33.491 6.41C33.487 6.234 33.485 6.066 33.485 5.906C33.485 5.742 33.487 5.572 33.491 5.396C33.507 5.028 33.583 4.722 33.719 4.478C33.859 4.23 34.051 4.046 34.295 3.926C34.543 3.802 34.829 3.74 35.153 3.74C35.481 3.74 35.767 3.802 36.011 3.926C36.259 4.046 36.453 4.23 36.593 4.478C36.733 4.722 36.809 5.028 36.821 5.396C36.829 5.572 36.833 5.742 36.833 5.906C36.833 6.066 36.829 6.234 36.821 6.41C36.809 6.782 36.735 7.092 36.599 7.34C36.467 7.584 36.279 7.766 36.035 7.886C35.791 8.002 35.497 8.06 35.153 8.06ZM35.153 7.55C35.461 7.55 35.711 7.458 35.903 7.274C36.099 7.09 36.205 6.792 36.221 6.38C36.229 6.2 36.233 6.04 36.233 5.9C36.233 5.756 36.229 5.596 36.221 5.42C36.213 5.144 36.161 4.92 36.065 4.748C35.973 4.576 35.849 4.45 35.693 4.37C35.537 4.29 35.357 4.25 35.153 4.25C34.957 4.25 34.781 4.29 34.625 4.37C34.469 4.45 34.343 4.576 34.247 4.748C34.155 4.92 34.103 5.144 34.091 5.42C34.087 5.596 34.085 5.756 34.085 5.9C34.085 6.04 34.087 6.2 34.091 6.38C34.107 6.792 34.213 7.09 34.409 7.274C34.605 7.458 34.853 7.55 35.153 7.55ZM37.8455 8C37.8015 8 37.7675 7.988 37.7435 7.964C37.7195 7.936 37.7075 7.902 37.7075 7.862V3.944C37.7075 3.9 37.7195 3.866 37.7435 3.842C37.7675 3.814 37.8015 3.8 37.8455 3.8H38.1455C38.1895 3.8 38.2235 3.814 38.2475 3.842C38.2755 3.866 38.2895 3.9 38.2895 3.944V5.432L39.8915 3.896C39.9075 3.88 39.9335 3.86 39.9695 3.836C40.0095 3.812 40.0615 3.8 40.1255 3.8H40.4495C40.4815 3.8 40.5095 3.812 40.5335 3.836C40.5575 3.86 40.5695 3.888 40.5695 3.92C40.5695 3.952 40.5615 3.978 40.5455 3.998L38.6915 5.81L40.6655 7.796C40.6855 7.82 40.6955 7.848 40.6955 7.88C40.6955 7.912 40.6835 7.94 40.6595 7.964C40.6355 7.988 40.6075 8 40.5755 8H40.2395C40.1715 8 40.1195 7.988 40.0835 7.964C40.0475 7.936 40.0215 7.916 40.0055 7.904L38.2895 6.212V7.862C38.2895 7.902 38.2755 7.936 38.2475 7.964C38.2235 7.988 38.1895 8 38.1455 8H37.8455Z" fill="black"/>
<defs>
<clipPath id="clip0_32_188">
<rect width="8" height="8" fill="white" transform="translate(5 2)"/>
</clipPath>
</defs>
</svg>
