<svg width="12" height="12" viewBox="0 0 12 12" fill="none" xmlns="http://www.w3.org/2000/svg">
<rect width="12" height="12" rx="6" fill="#222831"/>
<path d="M4.57078 5.51333C4.57078 5.61333 4.55882 5.71 4.53489 5.80333C4.51314 5.89444 4.47726 5.97667 4.42723 6.05C4.37939 6.12333 4.31631 6.18111 4.23801 6.22333C4.15754 6.26778 4.06293 6.29 3.95418 6.29C3.84544 6.29 3.753 6.26778 3.67688 6.22333C3.60076 6.17667 3.53877 6.11556 3.49092 6.04C3.44307 5.96667 3.40719 5.88333 3.38326 5.79C3.36151 5.69667 3.35064 5.60111 3.35064 5.50333C3.35064 5.40556 3.36151 5.30889 3.38326 5.21333C3.40501 5.11778 3.44199 5.03333 3.49418 4.96C3.54203 4.88444 3.60619 4.82444 3.68667 4.78C3.76496 4.73556 3.85957 4.71333 3.9705 4.71333C4.08142 4.71333 4.17494 4.73556 4.25106 4.78C4.32719 4.82667 4.38917 4.88778 4.43702 4.96333C4.48487 5.03889 4.51858 5.12444 4.53816 5.22C4.55991 5.31556 4.57078 5.41333 4.57078 5.51333ZM9.82979 5.5V8.62667C9.82979 8.72889 9.7939 8.81778 9.72213 8.89333C9.65035 8.96444 9.56336 9 9.46114 9H4.3261C4.22605 9 4.13905 8.96333 4.06511 8.89C3.99551 8.81667 3.96071 8.72778 3.96071 8.62333V7.5H2.32624C2.23707 7.5 2.16095 7.46667 2.09787 7.4C2.03262 7.33556 2 7.25778 2 7.16667V3.83333C2 3.74222 2.03262 3.66444 2.09787 3.6C2.15877 3.53333 2.23489 3.5 2.32624 3.5H4.44681V2.35C4.44681 2.25222 4.47943 2.16889 4.54468 2.1C4.60993 2.03333 4.69149 2 4.78936 2H8.99787C9.09357 2 9.17513 2.03333 9.24255 2.1C9.3078 2.16667 9.34043 2.25 9.34043 2.35V5.11667L9.74496 5.35667H9.74823C9.76998 5.37222 9.78955 5.39222 9.80695 5.41667C9.82218 5.44333 9.82979 5.47111 9.82979 5.5ZM7.87234 2.75V3.75H8.85106V2.75H7.87234ZM7.87234 4.25V5.25H8.85106V4.25H7.87234ZM7.87234 5.75V6.36L8.86738 5.75H7.87234ZM6.15957 2.75V3.75H7.38298V2.75H6.15957ZM6.15957 4.25V5.25H7.38298V4.25H6.15957ZM6.15957 5.75V6.42667L6.94582 6.92667L7.38298 6.66V5.75H6.15957ZM4.93617 2.75V3.5H5.58865L5.63106 3.50333L5.67021 3.51667V2.75H4.93617ZM3.95092 6.82667C4.14667 6.82667 4.32066 6.79333 4.47291 6.72667C4.62515 6.65556 4.75456 6.56 4.86113 6.44C4.96553 6.31778 5.04492 6.17556 5.09929 6.01333C5.15366 5.84889 5.18085 5.67 5.18085 5.47667C5.18085 5.29222 5.15366 5.12 5.09929 4.96C5.04709 4.80222 4.96988 4.66444 4.86766 4.54667C4.76544 4.42889 4.64038 4.33667 4.49248 4.27C4.34459 4.20333 4.17603 4.17 3.98681 4.17C3.78671 4.17 3.60837 4.20333 3.45177 4.27C3.29735 4.33667 3.16686 4.43111 3.06028 4.55333C2.95154 4.67333 2.86998 4.81778 2.8156 4.98667C2.76123 5.15111 2.73404 5.33222 2.73404 5.53C2.73404 5.71889 2.76232 5.89222 2.81887 6.05C2.87541 6.21 2.95589 6.34667 3.06028 6.46C3.16468 6.57556 3.29191 6.66556 3.44199 6.73C3.59206 6.79667 3.7617 6.83 3.95092 6.83V6.82667ZM4.44681 8.5H8.48894L5.91489 6.86V7.16667C5.91489 7.25778 5.88227 7.33556 5.81702 7.4C5.75395 7.46667 5.67783 7.5 5.58865 7.5H4.44681V8.5ZM9.34043 8.45667V6.04333L7.4156 7.22333L9.34043 8.45667Z" fill="#00ADB5"/>
</svg>
