<svg width="48" height="48" viewBox="0 0 48 48" fill="none" xmlns="http://www.w3.org/2000/svg">
<rect width="48" height="48" rx="24" fill="#5F259F"/>
<path d="M19.5167 22.9917C20.7167 25.35 22.65 27.2833 25.0083 28.4833L26.8417 26.65C27.075 26.4167 27.4 26.35 27.6917 26.4417C28.625 26.75 29.625 26.9167 30.6667 26.9167C30.8877 26.9167 31.0996 27.0045 31.2559 27.1607C31.4122 27.317 31.5 27.529 31.5 27.75V30.6667C31.5 30.8877 31.4122 31.0996 31.2559 31.2559C31.0996 31.4122 30.8877 31.5 30.6667 31.5C26.9094 31.5 23.3061 30.0074 20.6493 27.3507C17.9926 24.6939 16.5 21.0906 16.5 17.3333C16.5 17.1123 16.5878 16.9004 16.7441 16.7441C16.9004 16.5878 17.1123 16.5 17.3333 16.5H20.25C20.471 16.5 20.683 16.5878 20.8393 16.7441C20.9955 16.9004 21.0833 17.1123 21.0833 17.3333C21.0833 18.375 21.25 19.375 21.5583 20.3083C21.65 20.6 21.5833 20.925 21.35 21.1583L19.5167 22.9917Z" fill="white"/>
</svg>
