<svg width="60" height="12" viewBox="0 0 60 12" fill="none" xmlns="http://www.w3.org/2000/svg">
<rect width="60" height="12" rx="6" fill="#B7472A"/>
<g clip-path="url(#clip0_16_808)">
<path d="M10.5 2.5C10.8229 2.5 11.1334 2.54167 11.4317 2.625C11.7299 2.70833 12.0086 2.82611 12.2677 2.97833C12.5268 3.13078 12.7623 3.31311 12.9743 3.52533C13.1868 3.73756 13.3691 3.97322 13.5213 4.23233C13.6738 4.49144 13.7917 4.77011 13.875 5.06833C13.9583 5.36656 14 5.67711 14 6C14 6.32289 13.9583 6.63344 13.875 6.93167C13.7917 7.22989 13.6739 7.50856 13.5217 7.76767C13.3692 8.02678 13.1869 8.26233 12.9747 8.47433C12.7624 8.68678 12.5268 8.86911 12.2677 9.02133C12.0086 9.17378 11.7299 9.29167 11.4317 9.375C11.1334 9.45833 10.8229 9.5 10.5 9.5C10.2133 9.5 9.93333 9.46611 9.66 9.39833C9.38667 9.33078 9.127 9.23256 8.881 9.10367C8.63478 8.97478 8.40556 8.81722 8.19333 8.631C7.98111 8.44478 7.793 8.23444 7.629 8H6.33233C6.241 8 6.16278 7.96744 6.09767 7.90233C6.03256 7.83722 6 7.75911 6 7.668V4.332C6 4.24089 6.03256 4.16278 6.09767 4.09767C6.16278 4.03256 6.24089 4 6.332 4H7.62867C7.79289 3.76556 7.98111 3.55522 8.19333 3.369C8.40556 3.183 8.63478 3.02544 8.881 2.89633C9.127 2.76744 9.38667 2.66922 9.66 2.60167C9.93333 2.53389 10.2133 2.5 10.5 2.5ZM10.75 3.01167V5.75H13.4883C13.4572 5.38556 13.3654 5.04378 13.213 4.72467C13.0606 4.40556 12.8626 4.12433 12.619 3.881C12.3757 3.63744 12.0938 3.43944 11.7733 3.287C11.4531 3.13478 11.112 3.043 10.75 3.01167ZM8.996 5.535C8.996 5.38389 8.97067 5.25433 8.92 5.14633C8.86911 5.03833 8.79944 4.95056 8.711 4.883C8.62233 4.81522 8.51811 4.76567 8.39833 4.73433C8.27856 4.70322 8.14833 4.68767 8.00767 4.68767H6.94933V7.30867H7.56267V6.39467H7.97667C8.10422 6.39467 8.22856 6.37578 8.34967 6.338C8.47078 6.30022 8.57944 6.24544 8.67567 6.17367C8.77211 6.10211 8.84967 6.013 8.90833 5.90633C8.96678 5.79967 8.996 5.67589 8.996 5.535ZM10.5 9C10.7604 9 11.0118 8.96811 11.254 8.90433C11.4962 8.84056 11.7247 8.74944 11.9393 8.631C12.1542 8.51233 12.3516 8.37033 12.5313 8.205C12.7109 8.03967 12.8684 7.85478 13.004 7.65033C13.1396 7.44589 13.2489 7.22522 13.332 6.98833C13.4153 6.75122 13.4674 6.50378 13.4883 6.246H10.254V3.01167C9.86844 3.04278 9.50511 3.14367 9.164 3.31433C8.82289 3.485 8.52344 3.71356 8.26567 4H9.668C9.75911 4 9.83722 4.03256 9.90233 4.09767C9.96744 4.16278 10 4.24089 10 4.332V7.668C10 7.75911 9.96744 7.83722 9.90233 7.90233C9.83722 7.96744 9.75911 8 9.668 8H8.26567C8.40878 8.15889 8.56567 8.30011 8.73633 8.42367C8.907 8.54744 9.08733 8.65233 9.27733 8.73833C9.46733 8.82433 9.66522 8.88944 9.871 8.93367C10.077 8.97789 10.2867 9 10.5 9ZM7.93733 5.19933C8.06511 5.19933 8.16678 5.22467 8.24233 5.27533C8.31789 5.32622 8.35567 5.41933 8.35567 5.55467C8.35567 5.61467 8.34189 5.66356 8.31433 5.70133C8.287 5.73911 8.25256 5.76967 8.211 5.793C8.16922 5.81633 8.12233 5.83256 8.07033 5.84167C8.01833 5.85078 7.96889 5.85533 7.922 5.85533H7.56233V5.19933H7.93733Z" fill="white"/>
</g>
<path d="M15.66 8C15.616 8 15.582 7.988 15.558 7.964C15.534 7.936 15.522 7.902 15.522 7.862V3.944C15.522 3.9 15.534 3.866 15.558 3.842C15.582 3.814 15.616 3.8 15.66 3.8H17.184C17.48 3.8 17.736 3.848 17.952 3.944C18.172 4.04 18.342 4.184 18.462 4.376C18.582 4.564 18.642 4.8 18.642 5.084C18.642 5.368 18.582 5.604 18.462 5.792C18.342 5.98 18.172 6.122 17.952 6.218C17.736 6.314 17.48 6.362 17.184 6.362H16.122V7.862C16.122 7.902 16.108 7.936 16.08 7.964C16.056 7.988 16.022 8 15.978 8H15.66ZM16.116 5.858H17.154C17.45 5.858 17.672 5.792 17.82 5.66C17.968 5.528 18.042 5.336 18.042 5.084C18.042 4.836 17.97 4.644 17.826 4.508C17.682 4.372 17.458 4.304 17.154 4.304H16.116V5.858ZM20.8776 8.06C20.5376 8.06 20.2456 8.002 20.0016 7.886C19.7576 7.766 19.5696 7.584 19.4376 7.34C19.3056 7.092 19.2316 6.782 19.2156 6.41C19.2116 6.234 19.2096 6.066 19.2096 5.906C19.2096 5.742 19.2116 5.572 19.2156 5.396C19.2316 5.028 19.3076 4.722 19.4436 4.478C19.5836 4.23 19.7756 4.046 20.0196 3.926C20.2676 3.802 20.5536 3.74 20.8776 3.74C21.2056 3.74 21.4916 3.802 21.7356 3.926C21.9836 4.046 22.1776 4.23 22.3176 4.478C22.4576 4.722 22.5336 5.028 22.5456 5.396C22.5536 5.572 22.5576 5.742 22.5576 5.906C22.5576 6.066 22.5536 6.234 22.5456 6.41C22.5336 6.782 22.4596 7.092 22.3236 7.34C22.1916 7.584 22.0036 7.766 21.7596 7.886C21.5156 8.002 21.2216 8.06 20.8776 8.06ZM20.8776 7.55C21.1856 7.55 21.4356 7.458 21.6276 7.274C21.8236 7.09 21.9296 6.792 21.9456 6.38C21.9536 6.2 21.9576 6.04 21.9576 5.9C21.9576 5.756 21.9536 5.596 21.9456 5.42C21.9376 5.144 21.8856 4.92 21.7896 4.748C21.6976 4.576 21.5736 4.45 21.4176 4.37C21.2616 4.29 21.0816 4.25 20.8776 4.25C20.6816 4.25 20.5056 4.29 20.3496 4.37C20.1936 4.45 20.0676 4.576 19.9716 4.748C19.8796 4.92 19.8276 5.144 19.8156 5.42C19.8116 5.596 19.8096 5.756 19.8096 5.9C19.8096 6.04 19.8116 6.2 19.8156 6.38C19.8316 6.792 19.9376 7.09 20.1336 7.274C20.3296 7.458 20.5776 7.55 20.8776 7.55ZM24.0874 8C24.0354 8 23.9934 7.986 23.9614 7.958C23.9334 7.93 23.9134 7.89 23.9014 7.838L23.1274 3.986C23.1234 3.97 23.1214 3.956 23.1214 3.944C23.1214 3.932 23.1214 3.924 23.1214 3.92C23.1214 3.888 23.1334 3.86 23.1574 3.836C23.1814 3.812 23.2094 3.8 23.2414 3.8H23.5534C23.6374 3.8 23.6854 3.834 23.6974 3.902L24.3094 6.998L24.9574 4.874C24.9694 4.838 24.9894 4.806 25.0174 4.778C25.0494 4.746 25.0934 4.73 25.1494 4.73H25.3714C25.4314 4.73 25.4754 4.746 25.5034 4.778C25.5314 4.806 25.5494 4.838 25.5574 4.874L26.2114 6.998L26.8174 3.902C26.8294 3.834 26.8794 3.8 26.9674 3.8H27.2794C27.3114 3.8 27.3394 3.812 27.3634 3.836C27.3874 3.86 27.3994 3.888 27.3994 3.92C27.3994 3.924 27.3974 3.932 27.3934 3.944C27.3934 3.956 27.3934 3.97 27.3934 3.986L26.6194 7.838C26.6074 7.89 26.5854 7.93 26.5534 7.958C26.5254 7.986 26.4854 8 26.4334 8H26.1994C26.1434 8 26.0994 7.986 26.0674 7.958C26.0354 7.93 26.0134 7.894 26.0014 7.85L25.2574 5.564L24.5194 7.85C24.5034 7.894 24.4794 7.93 24.4474 7.958C24.4194 7.986 24.3774 8 24.3214 8H24.0874ZM28.3221 8C28.2781 8 28.2441 7.988 28.2201 7.964C28.1961 7.936 28.1841 7.902 28.1841 7.862V3.944C28.1841 3.9 28.1961 3.866 28.2201 3.842C28.2441 3.814 28.2781 3.8 28.3221 3.8H30.8001C30.8441 3.8 30.8781 3.814 30.9021 3.842C30.9261 3.866 30.9381 3.9 30.9381 3.944V4.172C30.9381 4.216 30.9261 4.25 30.9021 4.274C30.8781 4.298 30.8441 4.31 30.8001 4.31H28.7601V5.624H30.6681C30.7121 5.624 30.7461 5.638 30.7701 5.666C30.7941 5.69 30.8061 5.724 30.8061 5.768V5.99C30.8061 6.03 30.7941 6.064 30.7701 6.092C30.7461 6.116 30.7121 6.128 30.6681 6.128H28.7601V7.49H30.8481C30.8921 7.49 30.9261 7.502 30.9501 7.526C30.9741 7.55 30.9861 7.584 30.9861 7.628V7.862C30.9861 7.902 30.9741 7.936 30.9501 7.964C30.9261 7.988 30.8921 8 30.8481 8H28.3221ZM31.9608 8C31.9168 8 31.8828 7.988 31.8588 7.964C31.8348 7.936 31.8228 7.902 31.8228 7.862V3.944C31.8228 3.9 31.8348 3.866 31.8588 3.842C31.8828 3.814 31.9168 3.8 31.9608 3.8H33.4248C33.8768 3.8 34.2348 3.906 34.4988 4.118C34.7628 4.33 34.8948 4.644 34.8948 5.06C34.8948 5.368 34.8168 5.62 34.6608 5.816C34.5088 6.008 34.3008 6.142 34.0368 6.218L34.9608 7.814C34.9728 7.838 34.9788 7.86 34.9788 7.88C34.9788 7.912 34.9648 7.94 34.9368 7.964C34.9128 7.988 34.8848 8 34.8528 8H34.5648C34.4968 8 34.4468 7.982 34.4148 7.946C34.3828 7.91 34.3548 7.874 34.3308 7.838L33.4608 6.314H32.4108V7.862C32.4108 7.902 32.3968 7.936 32.3688 7.964C32.3448 7.988 32.3108 8 32.2668 8H31.9608ZM32.4108 5.804H33.4008C33.7008 5.804 33.9248 5.742 34.0728 5.618C34.2208 5.49 34.2948 5.302 34.2948 5.054C34.2948 4.81 34.2208 4.624 34.0728 4.496C33.9288 4.368 33.7048 4.304 33.4008 4.304H32.4108V5.804ZM37.3631 8C37.3191 8 37.2851 7.988 37.2611 7.964C37.2371 7.936 37.2251 7.902 37.2251 7.862V3.944C37.2251 3.9 37.2371 3.866 37.2611 3.842C37.2851 3.814 37.3191 3.8 37.3631 3.8H38.8871C39.1831 3.8 39.4391 3.848 39.6551 3.944C39.8751 4.04 40.0451 4.184 40.1651 4.376C40.2851 4.564 40.3451 4.8 40.3451 5.084C40.3451 5.368 40.2851 5.604 40.1651 5.792C40.0451 5.98 39.8751 6.122 39.6551 6.218C39.4391 6.314 39.1831 6.362 38.8871 6.362H37.8251V7.862C37.8251 7.902 37.8111 7.936 37.7831 7.964C37.7591 7.988 37.7251 8 37.6811 8H37.3631ZM37.8191 5.858H38.8571C39.1531 5.858 39.3751 5.792 39.5231 5.66C39.6711 5.528 39.7451 5.336 39.7451 5.084C39.7451 4.836 39.6731 4.644 39.5291 4.508C39.3851 4.372 39.1611 4.304 38.8571 4.304H37.8191V5.858ZM42.5807 8.06C42.2407 8.06 41.9487 8.002 41.7047 7.886C41.4607 7.766 41.2727 7.584 41.1407 7.34C41.0087 7.092 40.9347 6.782 40.9187 6.41C40.9147 6.234 40.9127 6.066 40.9127 5.906C40.9127 5.742 40.9147 5.572 40.9187 5.396C40.9347 5.028 41.0107 4.722 41.1467 4.478C41.2867 4.23 41.4787 4.046 41.7227 3.926C41.9707 3.802 42.2567 3.74 42.5807 3.74C42.9087 3.74 43.1947 3.802 43.4387 3.926C43.6867 4.046 43.8807 4.23 44.0207 4.478C44.1607 4.722 44.2367 5.028 44.2487 5.396C44.2567 5.572 44.2607 5.742 44.2607 5.906C44.2607 6.066 44.2567 6.234 44.2487 6.41C44.2367 6.782 44.1627 7.092 44.0267 7.34C43.8947 7.584 43.7067 7.766 43.4627 7.886C43.2187 8.002 42.9247 8.06 42.5807 8.06ZM42.5807 7.55C42.8887 7.55 43.1387 7.458 43.3307 7.274C43.5267 7.09 43.6327 6.792 43.6487 6.38C43.6567 6.2 43.6607 6.04 43.6607 5.9C43.6607 5.756 43.6567 5.596 43.6487 5.42C43.6407 5.144 43.5887 4.92 43.4927 4.748C43.4007 4.576 43.2767 4.45 43.1207 4.37C42.9647 4.29 42.7847 4.25 42.5807 4.25C42.3847 4.25 42.2087 4.29 42.0527 4.37C41.8967 4.45 41.7707 4.576 41.6747 4.748C41.5827 4.92 41.5307 5.144 41.5187 5.42C41.5147 5.596 41.5127 5.756 41.5127 5.9C41.5127 6.04 41.5147 6.2 41.5187 6.38C41.5347 6.792 41.6407 7.09 41.8367 7.274C42.0327 7.458 42.2807 7.55 42.5807 7.55ZM45.2733 8C45.2293 8 45.1953 7.988 45.1713 7.964C45.1473 7.936 45.1353 7.902 45.1353 7.862V3.938C45.1353 3.898 45.1473 3.866 45.1713 3.842C45.1953 3.814 45.2293 3.8 45.2733 3.8H45.5913C45.6313 3.8 45.6633 3.814 45.6873 3.842C45.7153 3.866 45.7293 3.898 45.7293 3.938V7.862C45.7293 7.902 45.7153 7.936 45.6873 7.964C45.6633 7.988 45.6313 8 45.5913 8H45.2733ZM46.9139 8C46.8699 8 46.8359 7.988 46.8119 7.964C46.7879 7.936 46.7759 7.902 46.7759 7.862V3.944C46.7759 3.9 46.7879 3.866 46.8119 3.842C46.8359 3.814 46.8699 3.8 46.9139 3.8H47.1899C47.2379 3.8 47.2739 3.812 47.2979 3.836C47.3219 3.856 47.3359 3.872 47.3399 3.884L49.3319 6.944V3.944C49.3319 3.9 49.3439 3.866 49.3679 3.842C49.3919 3.814 49.4259 3.8 49.4699 3.8H49.7579C49.8019 3.8 49.8359 3.814 49.8599 3.842C49.8879 3.866 49.9019 3.9 49.9019 3.944V7.856C49.9019 7.896 49.8879 7.93 49.8599 7.958C49.8359 7.986 49.8039 8 49.7639 8H49.4759C49.4319 8 49.3979 7.988 49.3739 7.964C49.3539 7.94 49.3399 7.924 49.3319 7.916L47.3459 4.886V7.862C47.3459 7.902 47.3319 7.936 47.3039 7.964C47.2799 7.988 47.2459 8 47.2019 8H46.9139ZM51.9979 8C51.9579 8 51.9239 7.988 51.8959 7.964C51.8719 7.936 51.8599 7.902 51.8599 7.862V4.334H50.7079C50.6679 4.334 50.6339 4.322 50.6059 4.298C50.5819 4.27 50.5699 4.236 50.5699 4.196V3.944C50.5699 3.9 50.5819 3.866 50.6059 3.842C50.6339 3.814 50.6679 3.8 50.7079 3.8H53.5999C53.6439 3.8 53.6779 3.814 53.7019 3.842C53.7299 3.866 53.7439 3.9 53.7439 3.944V4.196C53.7439 4.236 53.7299 4.27 53.7019 4.298C53.6779 4.322 53.6439 4.334 53.5999 4.334H52.4539V7.862C52.4539 7.902 52.4399 7.936 52.4119 7.964C52.3879 7.988 52.3539 8 52.3099 8H51.9979Z" fill="white"/>
<defs>
<clipPath id="clip0_16_808">
<rect width="8" height="8" fill="white" transform="translate(6 2)"/>
</clipPath>
</defs>
</svg>
