<svg width="34" height="12" viewBox="0 0 34 12" fill="none" xmlns="http://www.w3.org/2000/svg">
<rect width="34" height="12" rx="6" fill="#FABD14"/>
<g clip-path="url(#clip0_32_171)">
<path d="M9.58936 2L8.39402 2.53467C8.39402 2.53467 10.436 3.44133 10.678 3.553C10.918 3.66467 11.2594 3.86867 10.8664 4.096C10.473 4.32333 10.0587 4.255 9.78002 4.126C9.50169 3.998 7.44269 3.04033 7.44269 3.04033L6.22202 3.59233C6.22202 3.59233 8.35536 4.57067 8.68869 4.73133C9.02302 4.892 10.273 5.326 11.5154 4.732C12.7577 4.13833 12.6024 3.873 12.6047 3.824C12.6067 3.77467 12.5927 3.513 12.394 3.335C12.1944 3.157 11.6014 2.87667 11.3517 2.75833C11.1017 2.63867 9.59002 2 9.59002 2H9.58936ZM6.13702 3.76633V8.17133L7.10502 8.63867V5.98433L7.63336 8.851L8.49336 9.26533L9.04669 6.88067V9.48933L10.0187 9.94933V5.54767L8.54302 4.876L8.07536 6.97467L7.60469 4.442L6.13702 3.76633ZM11.7237 4.80467L10.1824 5.57633L10.1864 10L13.863 8.25833L13.8547 7.054L11.7237 8.02733V4.80467Z" fill="black"/>
</g>
<path d="M17.106 8.06C16.77 8.06 16.48 8 16.236 7.88C15.996 7.76 15.81 7.578 15.678 7.334C15.55 7.086 15.486 6.768 15.486 6.38V3.944C15.486 3.9 15.498 3.866 15.522 3.842C15.546 3.814 15.58 3.8 15.624 3.8H15.93C15.974 3.8 16.008 3.814 16.032 3.842C16.06 3.866 16.074 3.9 16.074 3.944V6.392C16.074 6.784 16.166 7.074 16.35 7.262C16.534 7.45 16.786 7.544 17.106 7.544C17.422 7.544 17.672 7.45 17.856 7.262C18.044 7.074 18.138 6.784 18.138 6.392V3.944C18.138 3.9 18.15 3.866 18.174 3.842C18.202 3.814 18.236 3.8 18.276 3.8H18.588C18.628 3.8 18.66 3.814 18.684 3.842C18.712 3.866 18.726 3.9 18.726 3.944V6.38C18.726 6.768 18.66 7.086 18.528 7.334C18.4 7.578 18.216 7.76 17.976 7.88C17.736 8 17.446 8.06 17.106 8.06ZM19.867 8C19.827 8 19.793 7.988 19.765 7.964C19.741 7.936 19.729 7.902 19.729 7.862V3.944C19.729 3.9 19.741 3.866 19.765 3.842C19.793 3.814 19.827 3.8 19.867 3.8H20.167C20.215 3.8 20.251 3.812 20.275 3.836C20.299 3.86 20.313 3.88 20.317 3.896L21.589 6.32L22.867 3.896C22.875 3.88 22.889 3.86 22.909 3.836C22.933 3.812 22.969 3.8 23.017 3.8H23.311C23.355 3.8 23.389 3.814 23.413 3.842C23.441 3.866 23.455 3.9 23.455 3.944V7.862C23.455 7.902 23.441 7.936 23.413 7.964C23.389 7.988 23.355 8 23.311 8H23.017C22.977 8 22.943 7.988 22.915 7.964C22.891 7.936 22.879 7.902 22.879 7.862V4.91L21.877 6.866C21.861 6.906 21.837 6.938 21.805 6.962C21.773 6.982 21.733 6.992 21.685 6.992H21.499C21.447 6.992 21.405 6.982 21.373 6.962C21.345 6.938 21.321 6.906 21.301 6.866L20.299 4.91V7.862C20.299 7.902 20.285 7.936 20.257 7.964C20.233 7.988 20.201 8 20.161 8H19.867ZM24.6307 8C24.5867 8 24.5527 7.988 24.5287 7.964C24.5047 7.936 24.4927 7.902 24.4927 7.862V3.938C24.4927 3.898 24.5047 3.866 24.5287 3.842C24.5527 3.814 24.5867 3.8 24.6307 3.8H24.9487C24.9887 3.8 25.0207 3.814 25.0447 3.842C25.0687 3.866 25.0807 3.898 25.0807 3.938V7.478H27.0787C27.1227 7.478 27.1567 7.492 27.1807 7.52C27.2047 7.544 27.2167 7.578 27.2167 7.622V7.862C27.2167 7.902 27.2047 7.936 27.1807 7.964C27.1567 7.988 27.1227 8 27.0787 8H24.6307Z" fill="black"/>
<defs>
<clipPath id="clip0_32_171">
<rect width="8" height="8" fill="white" transform="translate(6 2)"/>
</clipPath>
</defs>
</svg>
