<svg width="38" height="12" viewBox="0 0 38 12" fill="none" xmlns="http://www.w3.org/2000/svg">
<rect width="38" height="12" rx="6" fill="#2B579A"/>
<g clip-path="url(#clip0_20_904)">
<path d="M13.668 2.5C13.7591 2.5 13.8372 2.53256 13.9023 2.59767C13.9674 2.66278 14 2.74089 14 2.832V9.168C14 9.25911 13.9674 9.33722 13.9023 9.40233C13.8372 9.46744 13.7591 9.5 13.668 9.5H8.332C8.24089 9.5 8.16278 9.46744 8.09767 9.40233C8.03256 9.33722 8 9.25911 8 9.168V8H6.332C6.24089 8 6.16278 7.96744 6.09767 7.90233C6.03256 7.83722 6 7.75911 6 7.668V4.332C6 4.24089 6.03256 4.16278 6.09767 4.09767C6.16278 4.03256 6.24089 4 6.332 4H8V2.832C8 2.74089 8.03256 2.66278 8.09767 2.59767C8.16278 2.53256 8.24089 2.5 8.332 2.5H13.668ZM8.01167 5.73433L8.49233 7.31267H9.039L9.56233 4.68733H9.012L8.69967 6.23833L8.258 4.73833H7.79333L7.32467 6.246L7.012 4.68767H6.43733L6.96067 7.31233H7.50767L8.01167 5.73433ZM13.5 9V8H8.5V9H13.5ZM13.5 7.5V6.25H10V7.5H13.5ZM13.5 5.75V4.5H10V5.75H13.5ZM13.5 4V3H8.5V4H13.5Z" fill="white"/>
</g>
<path d="M16.23 8C16.178 8 16.136 7.986 16.104 7.958C16.076 7.93 16.056 7.89 16.044 7.838L15.27 3.986C15.266 3.97 15.264 3.956 15.264 3.944C15.264 3.932 15.264 3.924 15.264 3.92C15.264 3.888 15.276 3.86 15.3 3.836C15.324 3.812 15.352 3.8 15.384 3.8H15.696C15.78 3.8 15.828 3.834 15.84 3.902L16.452 6.998L17.1 4.874C17.112 4.838 17.132 4.806 17.16 4.778C17.192 4.746 17.236 4.73 17.292 4.73H17.514C17.574 4.73 17.618 4.746 17.646 4.778C17.674 4.806 17.692 4.838 17.7 4.874L18.354 6.998L18.96 3.902C18.972 3.834 19.022 3.8 19.11 3.8H19.422C19.454 3.8 19.482 3.812 19.506 3.836C19.53 3.86 19.542 3.888 19.542 3.92C19.542 3.924 19.54 3.932 19.536 3.944C19.536 3.956 19.536 3.97 19.536 3.986L18.762 7.838C18.75 7.89 18.728 7.93 18.696 7.958C18.668 7.986 18.628 8 18.576 8H18.342C18.286 8 18.242 7.986 18.21 7.958C18.178 7.93 18.156 7.894 18.144 7.85L17.4 5.564L16.662 7.85C16.646 7.894 16.622 7.93 16.59 7.958C16.562 7.986 16.52 8 16.464 8H16.23ZM21.78 8.06C21.44 8.06 21.148 8.002 20.904 7.886C20.66 7.766 20.472 7.584 20.34 7.34C20.208 7.092 20.134 6.782 20.118 6.41C20.114 6.234 20.112 6.066 20.112 5.906C20.112 5.742 20.114 5.572 20.118 5.396C20.134 5.028 20.21 4.722 20.346 4.478C20.486 4.23 20.678 4.046 20.922 3.926C21.17 3.802 21.456 3.74 21.78 3.74C22.108 3.74 22.394 3.802 22.638 3.926C22.886 4.046 23.08 4.23 23.22 4.478C23.36 4.722 23.436 5.028 23.448 5.396C23.456 5.572 23.46 5.742 23.46 5.906C23.46 6.066 23.456 6.234 23.448 6.41C23.436 6.782 23.362 7.092 23.226 7.34C23.094 7.584 22.906 7.766 22.662 7.886C22.418 8.002 22.124 8.06 21.78 8.06ZM21.78 7.55C22.088 7.55 22.338 7.458 22.53 7.274C22.726 7.09 22.832 6.792 22.848 6.38C22.856 6.2 22.86 6.04 22.86 5.9C22.86 5.756 22.856 5.596 22.848 5.42C22.84 5.144 22.788 4.92 22.692 4.748C22.6 4.576 22.476 4.45 22.32 4.37C22.164 4.29 21.984 4.25 21.78 4.25C21.584 4.25 21.408 4.29 21.252 4.37C21.096 4.45 20.97 4.576 20.874 4.748C20.782 4.92 20.73 5.144 20.718 5.42C20.714 5.596 20.712 5.756 20.712 5.9C20.712 6.04 20.714 6.2 20.718 6.38C20.734 6.792 20.84 7.09 21.036 7.274C21.232 7.458 21.48 7.55 21.78 7.55ZM24.4725 8C24.4285 8 24.3945 7.988 24.3705 7.964C24.3465 7.936 24.3345 7.902 24.3345 7.862V3.944C24.3345 3.9 24.3465 3.866 24.3705 3.842C24.3945 3.814 24.4285 3.8 24.4725 3.8H25.9365C26.3885 3.8 26.7465 3.906 27.0105 4.118C27.2745 4.33 27.4065 4.644 27.4065 5.06C27.4065 5.368 27.3285 5.62 27.1725 5.816C27.0205 6.008 26.8125 6.142 26.5485 6.218L27.4725 7.814C27.4845 7.838 27.4905 7.86 27.4905 7.88C27.4905 7.912 27.4765 7.94 27.4485 7.964C27.4245 7.988 27.3965 8 27.3645 8H27.0765C27.0085 8 26.9585 7.982 26.9265 7.946C26.8945 7.91 26.8665 7.874 26.8425 7.838L25.9725 6.314H24.9225V7.862C24.9225 7.902 24.9085 7.936 24.8805 7.964C24.8565 7.988 24.8225 8 24.7785 8H24.4725ZM24.9225 5.804H25.9125C26.2125 5.804 26.4365 5.742 26.5845 5.618C26.7325 5.49 26.8065 5.302 26.8065 5.054C26.8065 4.81 26.7325 4.624 26.5845 4.496C26.4405 4.368 26.2165 4.304 25.9125 4.304H24.9225V5.804ZM28.4041 8C28.3601 8 28.3261 7.988 28.3021 7.964C28.2781 7.936 28.2661 7.902 28.2661 7.862V3.944C28.2661 3.9 28.2781 3.866 28.3021 3.842C28.3261 3.814 28.3601 3.8 28.4041 3.8H29.7661C30.1781 3.8 30.5101 3.862 30.7621 3.986C31.0141 4.11 31.1981 4.294 31.3141 4.538C31.4301 4.778 31.4901 5.074 31.4941 5.426C31.4981 5.606 31.5001 5.764 31.5001 5.9C31.5001 6.036 31.4981 6.192 31.4941 6.368C31.4861 6.736 31.4241 7.042 31.3081 7.286C31.1961 7.526 31.0161 7.706 30.7681 7.826C30.5241 7.942 30.2001 8 29.7961 8H28.4041ZM28.8541 7.49H29.7661C30.0421 7.49 30.2621 7.452 30.4261 7.376C30.5901 7.3 30.7081 7.178 30.7801 7.01C30.8561 6.842 30.8961 6.62 30.9001 6.344C30.9081 6.224 30.9121 6.12 30.9121 6.032C30.9121 5.94 30.9121 5.85 30.9121 5.762C30.9121 5.67 30.9081 5.566 30.9001 5.45C30.8921 5.062 30.8001 4.776 30.6241 4.592C30.4481 4.404 30.1521 4.31 29.7361 4.31H28.8541V7.49Z" fill="white"/>
<defs>
<clipPath id="clip0_20_904">
<rect width="8" height="8" fill="white" transform="translate(6 2)"/>
</clipPath>
</defs>
</svg>
