<svg width="42" height="12" viewBox="0 0 42 12" fill="none" xmlns="http://www.w3.org/2000/svg">
<rect width="42" height="12" rx="6" fill="#FB7A24"/>
<g clip-path="url(#clip0_32_148)">
<path d="M11.5974 5.97433C11.635 5.98867 11.6727 6.00067 11.7087 6.017C11.8587 6.08467 11.947 6.20133 11.958 6.365C11.9717 6.57633 11.9727 6.78867 11.9587 7C11.9424 7.244 11.717 7.43067 11.4644 7.42367C11.2194 7.41667 11.008 7.217 10.9987 6.97667C10.993 6.82967 10.9977 6.682 10.9967 6.53467C10.9964 6.455 10.9957 6.454 10.915 6.45367C10.4607 6.45333 10.0064 6.45633 9.55203 6.45267C9.25603 6.45033 9.07836 6.61333 9.0617 6.93933C9.05536 7.066 9.02836 7.18167 8.9427 7.27867C8.81036 7.429 8.64336 7.479 8.45203 7.434C8.26736 7.39033 8.16303 7.26 8.10703 7.08467C8.06803 6.96233 8.08836 6.839 8.11103 6.72C8.2247 6.121 8.56636 5.718 9.1527 5.535C9.2717 5.49767 9.39636 5.47967 9.52103 5.47967C9.83436 5.48 10.148 5.48 10.4614 5.47933C10.504 5.47933 10.547 5.47533 10.5897 5.47233C10.8237 5.45533 10.9784 5.302 10.9964 5.02167C10.9977 5.00033 10.9964 4.97867 10.9967 4.95733C11.0004 4.69467 11.1984 4.492 11.461 4.48233C11.7234 4.47267 11.9404 4.658 11.9587 4.92167C11.984 5.28267 11.8704 5.60367 11.6544 5.89067C11.6344 5.917 11.6064 5.93867 11.5974 5.97433ZM8.7497 5.47867C8.6637 5.476 8.55936 5.48467 8.4557 5.467C8.27703 5.437 8.1637 5.337 8.1157 5.16167C8.06336 4.97067 8.08336 4.796 8.2327 4.65333C8.3847 4.50867 8.5647 4.46667 8.7617 4.54833C8.93503 4.62033 9.04803 4.792 9.05836 4.97933C9.0667 5.12733 9.05936 5.276 9.0607 5.424C9.06103 5.46267 9.04636 5.47967 9.00703 5.479C8.92703 5.478 8.84736 5.47867 8.7497 5.47867ZM13.2274 2H6.7727C6.36736 2 6.0387 2.32867 6.0387 2.734V9.173C6.0387 9.62967 6.40903 10 6.8657 10H13.1347C13.5914 10 13.9617 9.62967 13.9617 9.173V2.734C13.9614 2.32867 13.6327 2 13.2274 2ZM12.7084 6.15767C12.8814 6.42567 12.9527 6.721 12.934 7.04333C12.898 7.672 12.463 8.20133 11.8507 8.34867C10.989 8.55633 10.3287 8.041 10.1064 7.41733C10.07 7.316 10.053 7.21 10.0317 7.089C10.009 7.227 9.99336 7.352 9.9437 7.467C9.71136 8.006 9.3157 8.33467 8.72203 8.4C8.0207 8.47733 7.3727 8.04433 7.17803 7.372C7.0947 7.08433 7.1197 6.78967 7.15536 6.497C7.18203 6.27933 7.26236 6.07433 7.36603 5.881C7.38503 5.84567 7.38503 5.81967 7.3627 5.786C7.1757 5.50433 7.10303 5.19367 7.12936 4.858C7.14336 4.67833 7.1867 4.50667 7.26836 4.346C7.5067 3.87533 8.03003 3.47567 8.73103 3.542C9.34736 3.60033 9.91836 4.132 10.0077 4.73C10.012 4.76 10.0207 4.78933 10.0304 4.83367C10.045 4.75333 10.0557 4.68733 10.0697 4.62167C10.1844 4.07833 10.7164 3.51 11.47 3.50267C12.234 3.49567 12.8 4.09467 12.9067 4.65133C12.9634 4.94733 12.9364 5.24333 12.8724 5.539C12.835 5.71133 12.769 5.875 12.6977 6.03633C12.678 6.08167 12.681 6.115 12.7084 6.15767Z" fill="black"/>
</g>
<path d="M15.27 8C15.238 8 15.208 7.988 15.18 7.964C15.156 7.94 15.144 7.912 15.144 7.88C15.144 7.864 15.146 7.85 15.15 7.838C15.158 7.822 15.164 7.81 15.168 7.802L16.542 5.864L15.234 3.998C15.222 3.974 15.216 3.948 15.216 3.92C15.216 3.888 15.228 3.86 15.252 3.836C15.276 3.812 15.304 3.8 15.336 3.8H15.696C15.736 3.8 15.768 3.81 15.792 3.83C15.816 3.846 15.838 3.87 15.858 3.902L16.914 5.402L17.964 3.902C17.98 3.87 18 3.846 18.024 3.83C18.052 3.81 18.084 3.8 18.12 3.8H18.462C18.494 3.8 18.522 3.812 18.546 3.836C18.57 3.86 18.582 3.888 18.582 3.92C18.582 3.948 18.574 3.974 18.558 3.998L17.268 5.87L18.636 7.802C18.644 7.81 18.65 7.822 18.654 7.838C18.658 7.85 18.66 7.864 18.66 7.88C18.66 7.912 18.648 7.94 18.624 7.964C18.6 7.988 18.57 8 18.534 8H18.168C18.132 8 18.1 7.99 18.072 7.97C18.048 7.95 18.026 7.928 18.006 7.904L16.89 6.344L15.78 7.904C15.76 7.928 15.738 7.95 15.714 7.97C15.69 7.99 15.658 8 15.618 8H15.27ZM19.0369 8C19.0049 8 18.9769 7.988 18.9529 7.964C18.9289 7.94 18.9169 7.912 18.9169 7.88C18.9169 7.86 18.9189 7.838 18.9229 7.814L20.4109 3.932C20.4269 3.892 20.4489 3.86 20.4769 3.836C20.5049 3.812 20.5469 3.8 20.6029 3.8H21.0109C21.0629 3.8 21.1029 3.812 21.1309 3.836C21.1629 3.86 21.1869 3.892 21.2029 3.932L22.6849 7.814C22.6929 7.838 22.6969 7.86 22.6969 7.88C22.6969 7.912 22.6849 7.94 22.6609 7.964C22.6369 7.988 22.6089 8 22.5769 8H22.2709C22.2229 8 22.1869 7.988 22.1629 7.964C22.1429 7.94 22.1289 7.918 22.1209 7.898L21.7909 7.046H19.8229L19.4929 7.898C19.4889 7.918 19.4749 7.94 19.4509 7.964C19.4269 7.988 19.3909 8 19.3429 8H19.0369ZM19.9969 6.53H21.6169L20.8069 4.4L19.9969 6.53ZM23.4764 8C23.4364 8 23.4024 7.988 23.3744 7.964C23.3504 7.936 23.3384 7.902 23.3384 7.862V3.944C23.3384 3.9 23.3504 3.866 23.3744 3.842C23.4024 3.814 23.4364 3.8 23.4764 3.8H23.7764C23.8244 3.8 23.8604 3.812 23.8844 3.836C23.9084 3.86 23.9224 3.88 23.9264 3.896L25.1984 6.32L26.4764 3.896C26.4844 3.88 26.4984 3.86 26.5184 3.836C26.5424 3.812 26.5784 3.8 26.6264 3.8H26.9204C26.9644 3.8 26.9984 3.814 27.0224 3.842C27.0504 3.866 27.0644 3.9 27.0644 3.944V7.862C27.0644 7.902 27.0504 7.936 27.0224 7.964C26.9984 7.988 26.9644 8 26.9204 8H26.6264C26.5864 8 26.5524 7.988 26.5244 7.964C26.5004 7.936 26.4884 7.902 26.4884 7.862V4.91L25.4864 6.866C25.4704 6.906 25.4464 6.938 25.4144 6.962C25.3824 6.982 25.3424 6.992 25.2944 6.992H25.1084C25.0564 6.992 25.0144 6.982 24.9824 6.962C24.9544 6.938 24.9304 6.906 24.9104 6.866L23.9084 4.91V7.862C23.9084 7.902 23.8944 7.936 23.8664 7.964C23.8424 7.988 23.8104 8 23.7704 8H23.4764ZM28.2401 8C28.1961 8 28.1621 7.988 28.1381 7.964C28.1141 7.936 28.1021 7.902 28.1021 7.862V3.944C28.1021 3.9 28.1141 3.866 28.1381 3.842C28.1621 3.814 28.1961 3.8 28.2401 3.8H29.7641C30.0601 3.8 30.3161 3.848 30.5321 3.944C30.7521 4.04 30.9221 4.184 31.0421 4.376C31.1621 4.564 31.2221 4.8 31.2221 5.084C31.2221 5.368 31.1621 5.604 31.0421 5.792C30.9221 5.98 30.7521 6.122 30.5321 6.218C30.3161 6.314 30.0601 6.362 29.7641 6.362H28.7021V7.862C28.7021 7.902 28.6881 7.936 28.6601 7.964C28.6361 7.988 28.6021 8 28.5581 8H28.2401ZM28.6961 5.858H29.7341C30.0301 5.858 30.2521 5.792 30.4001 5.66C30.5481 5.528 30.6221 5.336 30.6221 5.084C30.6221 4.836 30.5501 4.644 30.4061 4.508C30.2621 4.372 30.0381 4.304 29.7341 4.304H28.6961V5.858ZM32.0897 8C32.0457 8 32.0117 7.988 31.9877 7.964C31.9637 7.936 31.9517 7.902 31.9517 7.862V3.944C31.9517 3.9 31.9637 3.866 31.9877 3.842C32.0117 3.814 32.0457 3.8 32.0897 3.8H33.6137C33.9097 3.8 34.1657 3.848 34.3817 3.944C34.6017 4.04 34.7717 4.184 34.8917 4.376C35.0117 4.564 35.0717 4.8 35.0717 5.084C35.0717 5.368 35.0117 5.604 34.8917 5.792C34.7717 5.98 34.6017 6.122 34.3817 6.218C34.1657 6.314 33.9097 6.362 33.6137 6.362H32.5517V7.862C32.5517 7.902 32.5377 7.936 32.5097 7.964C32.4857 7.988 32.4517 8 32.4077 8H32.0897ZM32.5457 5.858H33.5837C33.8797 5.858 34.1017 5.792 34.2497 5.66C34.3977 5.528 34.4717 5.336 34.4717 5.084C34.4717 4.836 34.3997 4.644 34.2557 4.508C34.1117 4.372 33.8877 4.304 33.5837 4.304H32.5457V5.858Z" fill="black"/>
<defs>
<clipPath id="clip0_32_148">
<rect width="8" height="8" fill="white" transform="translate(6 2)"/>
</clipPath>
</defs>
</svg>
