<svg width="40" height="12" viewBox="0 0 40 12" fill="none" xmlns="http://www.w3.org/2000/svg">
<rect width="40" height="12" rx="6" fill="#5F259F"/>
<g clip-path="url(#clip0_55_143)">
<path d="M8.78601 8.72067C8.39068 8.364 8.27534 7.61533 8.44001 7.07267C8.72534 7.41467 9.12101 7.52333 9.53068 7.58433C10.163 7.67867 10.784 7.64333 11.3713 7.35833C11.4387 7.32567 11.5007 7.282 11.574 7.23833C11.6293 7.396 11.6437 7.555 11.6243 7.71733C11.5777 8.11233 11.3783 8.41733 11.0617 8.64867C10.935 8.741 10.801 8.82367 10.67 8.911C10.2683 9.179 10.1597 9.49333 10.3107 9.95067L10.3253 10C10.1331 9.91752 9.96987 9.77966 9.85634 9.604C9.73824 9.42431 9.67521 9.21403 9.67501 8.999C9.67368 8.89233 9.67368 8.785 9.65901 8.67967C9.62368 8.42333 9.50168 8.30867 9.27201 8.302C9.03634 8.29533 8.84968 8.439 8.80034 8.66533C8.79634 8.683 8.79101 8.7 8.78534 8.72033H8.78601V8.72067ZM6.79901 7.239C6.79901 7.239 7.87901 6.714 8.96234 6.714L9.77934 4.19233C9.81001 4.07033 9.89934 3.98767 10 3.98767C10.1007 3.98767 10.19 4.07033 10.2207 4.19233L11.0373 6.714C12.3207 6.714 13.201 7.239 13.201 7.239L11.3627 2.24233C11.31 2.095 11.221 2 11.101 2H8.89901C8.77901 2 8.69401 2.095 8.63768 2.24233L6.79901 7.239Z" fill="black"/>
</g>
<path d="M15.24 8C15.208 8 15.18 7.988 15.156 7.964C15.132 7.94 15.12 7.912 15.12 7.88C15.12 7.86 15.122 7.838 15.126 7.814L16.614 3.932C16.63 3.892 16.652 3.86 16.68 3.836C16.708 3.812 16.75 3.8 16.806 3.8H17.214C17.266 3.8 17.306 3.812 17.334 3.836C17.366 3.86 17.39 3.892 17.406 3.932L18.888 7.814C18.896 7.838 18.9 7.86 18.9 7.88C18.9 7.912 18.888 7.94 18.864 7.964C18.84 7.988 18.812 8 18.78 8H18.474C18.426 8 18.39 7.988 18.366 7.964C18.346 7.94 18.332 7.918 18.324 7.898L17.994 7.046H16.026L15.696 7.898C15.692 7.918 15.678 7.94 15.654 7.964C15.63 7.988 15.594 8 15.546 8H15.24ZM16.2 6.53H17.82L17.01 4.4L16.2 6.53ZM20.8329 8.06C20.4849 8.06 20.1929 8.008 19.9569 7.904C19.7209 7.796 19.5389 7.658 19.4109 7.49C19.2869 7.318 19.2209 7.136 19.2129 6.944C19.2129 6.912 19.2249 6.884 19.2489 6.86C19.2769 6.832 19.3089 6.818 19.3449 6.818H19.6509C19.6989 6.818 19.7349 6.83 19.7589 6.854C19.7829 6.878 19.7989 6.906 19.8069 6.938C19.8269 7.034 19.8749 7.13 19.9509 7.226C20.0309 7.318 20.1409 7.396 20.2809 7.46C20.4249 7.52 20.6089 7.55 20.8329 7.55C21.1769 7.55 21.4289 7.49 21.5889 7.37C21.7529 7.246 21.8349 7.082 21.8349 6.878C21.8349 6.738 21.7909 6.626 21.7029 6.542C21.6189 6.454 21.4889 6.376 21.3129 6.308C21.1369 6.24 20.9089 6.166 20.6289 6.086C20.3369 6.002 20.0949 5.91 19.9029 5.81C19.7109 5.71 19.5669 5.586 19.4709 5.438C19.3789 5.29 19.3329 5.102 19.3329 4.874C19.3329 4.658 19.3909 4.466 19.5069 4.298C19.6229 4.126 19.7889 3.99 20.0049 3.89C20.2249 3.79 20.4909 3.74 20.8029 3.74C21.0509 3.74 21.2669 3.774 21.4509 3.842C21.6389 3.906 21.7949 3.994 21.9189 4.106C22.0429 4.214 22.1369 4.332 22.2009 4.46C22.2649 4.584 22.2989 4.706 22.3029 4.826C22.3029 4.854 22.2929 4.882 22.2729 4.91C22.2529 4.934 22.2209 4.946 22.1769 4.946H21.8589C21.8309 4.946 21.8009 4.938 21.7689 4.922C21.7409 4.906 21.7189 4.876 21.7029 4.832C21.6789 4.668 21.5869 4.53 21.4269 4.418C21.2669 4.306 21.0589 4.25 20.8029 4.25C20.5429 4.25 20.3309 4.3 20.1669 4.4C20.0069 4.5 19.9269 4.656 19.9269 4.868C19.9269 5.004 19.9649 5.118 20.0409 5.21C20.1169 5.298 20.2369 5.376 20.4009 5.444C20.5649 5.512 20.7789 5.584 21.0429 5.66C21.3629 5.748 21.6249 5.842 21.8289 5.942C22.0329 6.038 22.1829 6.16 22.2789 6.308C22.3789 6.452 22.4289 6.638 22.4289 6.866C22.4289 7.118 22.3629 7.334 22.2309 7.514C22.0989 7.69 21.9129 7.826 21.6729 7.922C21.4369 8.014 21.1569 8.06 20.8329 8.06ZM24.2245 8C24.1845 8 24.1505 7.988 24.1225 7.964C24.0985 7.936 24.0865 7.902 24.0865 7.862V4.334H22.9345C22.8945 4.334 22.8605 4.322 22.8325 4.298C22.8085 4.27 22.7965 4.236 22.7965 4.196V3.944C22.7965 3.9 22.8085 3.866 22.8325 3.842C22.8605 3.814 22.8945 3.8 22.9345 3.8H25.8265C25.8705 3.8 25.9045 3.814 25.9285 3.842C25.9565 3.866 25.9705 3.9 25.9705 3.944V4.196C25.9705 4.236 25.9565 4.27 25.9285 4.298C25.9045 4.322 25.8705 4.334 25.8265 4.334H24.6805V7.862C24.6805 7.902 24.6665 7.936 24.6385 7.964C24.6145 7.988 24.5805 8 24.5365 8H24.2245ZM26.7811 8C26.7371 8 26.7031 7.988 26.6791 7.964C26.6551 7.936 26.6431 7.902 26.6431 7.862V3.944C26.6431 3.9 26.6551 3.866 26.6791 3.842C26.7031 3.814 26.7371 3.8 26.7811 3.8H28.2451C28.6971 3.8 29.0551 3.906 29.3191 4.118C29.5831 4.33 29.7151 4.644 29.7151 5.06C29.7151 5.368 29.6371 5.62 29.4811 5.816C29.3291 6.008 29.1211 6.142 28.8571 6.218L29.7811 7.814C29.7931 7.838 29.7991 7.86 29.7991 7.88C29.7991 7.912 29.7851 7.94 29.7571 7.964C29.7331 7.988 29.7051 8 29.6731 8H29.3851C29.3171 8 29.2671 7.982 29.2351 7.946C29.2031 7.91 29.1751 7.874 29.1511 7.838L28.2811 6.314H27.2311V7.862C27.2311 7.902 27.2171 7.936 27.1891 7.964C27.1651 7.988 27.1311 8 27.0871 8H26.7811ZM27.2311 5.804H28.2211C28.5211 5.804 28.7451 5.742 28.8931 5.618C29.0411 5.49 29.1151 5.302 29.1151 5.054C29.1151 4.81 29.0411 4.624 28.8931 4.496C28.7491 4.368 28.5251 4.304 28.2211 4.304H27.2311V5.804ZM32.0749 8.06C31.7349 8.06 31.4429 8.002 31.1989 7.886C30.9549 7.766 30.7669 7.584 30.6349 7.34C30.5029 7.092 30.4289 6.782 30.4129 6.41C30.4089 6.234 30.4069 6.066 30.4069 5.906C30.4069 5.742 30.4089 5.572 30.4129 5.396C30.4289 5.028 30.5049 4.722 30.6409 4.478C30.7809 4.23 30.9729 4.046 31.2169 3.926C31.4649 3.802 31.7509 3.74 32.0749 3.74C32.4029 3.74 32.6889 3.802 32.9329 3.926C33.1809 4.046 33.3749 4.23 33.5149 4.478C33.6549 4.722 33.7309 5.028 33.7429 5.396C33.7509 5.572 33.7549 5.742 33.7549 5.906C33.7549 6.066 33.7509 6.234 33.7429 6.41C33.7309 6.782 33.6569 7.092 33.5209 7.34C33.3889 7.584 33.2009 7.766 32.9569 7.886C32.7129 8.002 32.4189 8.06 32.0749 8.06ZM32.0749 7.55C32.3829 7.55 32.6329 7.458 32.8249 7.274C33.0209 7.09 33.1269 6.792 33.1429 6.38C33.1509 6.2 33.1549 6.04 33.1549 5.9C33.1549 5.756 33.1509 5.596 33.1429 5.42C33.1349 5.144 33.0829 4.92 32.9869 4.748C32.8949 4.576 32.7709 4.45 32.6149 4.37C32.4589 4.29 32.2789 4.25 32.0749 4.25C31.8789 4.25 31.7029 4.29 31.5469 4.37C31.3909 4.45 31.2649 4.576 31.1689 4.748C31.0769 4.92 31.0249 5.144 31.0129 5.42C31.0089 5.596 31.0069 5.756 31.0069 5.9C31.0069 6.04 31.0089 6.2 31.0129 6.38C31.0289 6.792 31.1349 7.09 31.3309 7.274C31.5269 7.458 31.7749 7.55 32.0749 7.55Z" fill="black"/>
<defs>
<clipPath id="clip0_55_143">
<rect width="8" height="8" fill="white" transform="translate(6 2)"/>
</clipPath>
</defs>
</svg>
