<svg width="33" height="12" viewBox="0 0 33 12" fill="none" xmlns="http://www.w3.org/2000/svg">
<rect width="33" height="12" rx="6" fill="#1572B6"/>
<g clip-path="url(#clip0_16_551)">
<path d="M6.5 2H13.5L12.8633 9.18767L9.99233 10L7.13733 9.18733L6.5 2ZM12.1967 3.471L7.80333 3.47L7.87433 4.344L11.2493 4.34467L11.1643 5.25H8.951L9.031 6.10767H11.0917L10.9697 7.282L9.99967 7.55L9.01433 7.28L8.95167 6.57667H8.08167L8.17833 7.86167L10 8.42933L11.791 7.91933L12.1967 3.471Z" fill="white"/>
</g>
<path d="M17.034 8.06C16.666 8.06 16.36 7.992 16.116 7.856C15.876 7.72 15.694 7.53 15.57 7.286C15.446 7.042 15.378 6.758 15.366 6.434C15.362 6.27 15.36 6.094 15.36 5.906C15.36 5.718 15.362 5.538 15.366 5.366C15.378 5.042 15.446 4.758 15.57 4.514C15.694 4.27 15.876 4.08 16.116 3.944C16.36 3.808 16.666 3.74 17.034 3.74C17.31 3.74 17.552 3.778 17.76 3.854C17.968 3.93 18.14 4.032 18.276 4.16C18.416 4.288 18.522 4.432 18.594 4.592C18.666 4.748 18.706 4.91 18.714 5.078C18.718 5.114 18.706 5.144 18.678 5.168C18.654 5.192 18.624 5.204 18.588 5.204H18.258C18.222 5.204 18.19 5.194 18.162 5.174C18.138 5.154 18.12 5.118 18.108 5.066C18.04 4.754 17.912 4.54 17.724 4.424C17.54 4.308 17.308 4.25 17.028 4.25C16.708 4.25 16.454 4.342 16.266 4.526C16.078 4.706 15.976 4.996 15.96 5.396C15.948 5.724 15.948 6.06 15.96 6.404C15.976 6.804 16.078 7.096 16.266 7.28C16.454 7.46 16.708 7.55 17.028 7.55C17.308 7.55 17.54 7.492 17.724 7.376C17.912 7.26 18.04 7.046 18.108 6.734C18.12 6.682 18.138 6.646 18.162 6.626C18.19 6.606 18.222 6.596 18.258 6.596H18.588C18.624 6.596 18.654 6.608 18.678 6.632C18.706 6.656 18.718 6.686 18.714 6.722C18.706 6.89 18.666 7.054 18.594 7.214C18.522 7.37 18.416 7.512 18.276 7.64C18.14 7.768 17.968 7.87 17.76 7.946C17.552 8.022 17.31 8.06 17.034 8.06ZM20.8681 8.06C20.5201 8.06 20.2281 8.008 19.9921 7.904C19.7561 7.796 19.5741 7.658 19.4461 7.49C19.3221 7.318 19.2561 7.136 19.2481 6.944C19.2481 6.912 19.2601 6.884 19.2841 6.86C19.3121 6.832 19.3441 6.818 19.3801 6.818H19.6861C19.7341 6.818 19.7701 6.83 19.7941 6.854C19.8181 6.878 19.8341 6.906 19.8421 6.938C19.8621 7.034 19.9101 7.13 19.9861 7.226C20.0661 7.318 20.1761 7.396 20.3161 7.46C20.4601 7.52 20.6441 7.55 20.8681 7.55C21.2121 7.55 21.4641 7.49 21.6241 7.37C21.7881 7.246 21.8701 7.082 21.8701 6.878C21.8701 6.738 21.8261 6.626 21.7381 6.542C21.6541 6.454 21.5241 6.376 21.3481 6.308C21.1721 6.24 20.9441 6.166 20.6641 6.086C20.3721 6.002 20.1301 5.91 19.9381 5.81C19.7461 5.71 19.6021 5.586 19.5061 5.438C19.4141 5.29 19.3681 5.102 19.3681 4.874C19.3681 4.658 19.4261 4.466 19.5421 4.298C19.6581 4.126 19.8241 3.99 20.0401 3.89C20.2601 3.79 20.5261 3.74 20.8381 3.74C21.0861 3.74 21.3021 3.774 21.4861 3.842C21.6741 3.906 21.8301 3.994 21.9541 4.106C22.0781 4.214 22.1721 4.332 22.2361 4.46C22.3001 4.584 22.3341 4.706 22.3381 4.826C22.3381 4.854 22.3281 4.882 22.3081 4.91C22.2881 4.934 22.2561 4.946 22.2121 4.946H21.8941C21.8661 4.946 21.8361 4.938 21.8041 4.922C21.7761 4.906 21.7541 4.876 21.7381 4.832C21.7141 4.668 21.6221 4.53 21.4621 4.418C21.3021 4.306 21.0941 4.25 20.8381 4.25C20.5781 4.25 20.3661 4.3 20.2021 4.4C20.0421 4.5 19.9621 4.656 19.9621 4.868C19.9621 5.004 20.0001 5.118 20.0761 5.21C20.1521 5.298 20.2721 5.376 20.4361 5.444C20.6001 5.512 20.8141 5.584 21.0781 5.66C21.3981 5.748 21.6601 5.842 21.8641 5.942C22.0681 6.038 22.2181 6.16 22.3141 6.308C22.4141 6.452 22.4641 6.638 22.4641 6.866C22.4641 7.118 22.3981 7.334 22.2661 7.514C22.1341 7.69 21.9481 7.826 21.7081 7.922C21.4721 8.014 21.1921 8.06 20.8681 8.06ZM24.6005 8.06C24.2525 8.06 23.9605 8.008 23.7245 7.904C23.4885 7.796 23.3065 7.658 23.1785 7.49C23.0545 7.318 22.9885 7.136 22.9805 6.944C22.9805 6.912 22.9925 6.884 23.0165 6.86C23.0445 6.832 23.0765 6.818 23.1125 6.818H23.4185C23.4665 6.818 23.5025 6.83 23.5265 6.854C23.5505 6.878 23.5665 6.906 23.5745 6.938C23.5945 7.034 23.6425 7.13 23.7185 7.226C23.7985 7.318 23.9085 7.396 24.0485 7.46C24.1925 7.52 24.3765 7.55 24.6005 7.55C24.9445 7.55 25.1965 7.49 25.3565 7.37C25.5205 7.246 25.6025 7.082 25.6025 6.878C25.6025 6.738 25.5585 6.626 25.4705 6.542C25.3865 6.454 25.2565 6.376 25.0805 6.308C24.9045 6.24 24.6765 6.166 24.3965 6.086C24.1045 6.002 23.8625 5.91 23.6705 5.81C23.4785 5.71 23.3345 5.586 23.2385 5.438C23.1465 5.29 23.1005 5.102 23.1005 4.874C23.1005 4.658 23.1585 4.466 23.2745 4.298C23.3905 4.126 23.5565 3.99 23.7725 3.89C23.9925 3.79 24.2585 3.74 24.5705 3.74C24.8185 3.74 25.0345 3.774 25.2185 3.842C25.4065 3.906 25.5625 3.994 25.6865 4.106C25.8105 4.214 25.9045 4.332 25.9685 4.46C26.0325 4.584 26.0665 4.706 26.0705 4.826C26.0705 4.854 26.0605 4.882 26.0405 4.91C26.0205 4.934 25.9885 4.946 25.9445 4.946H25.6265C25.5985 4.946 25.5685 4.938 25.5365 4.922C25.5085 4.906 25.4865 4.876 25.4705 4.832C25.4465 4.668 25.3545 4.53 25.1945 4.418C25.0345 4.306 24.8265 4.25 24.5705 4.25C24.3105 4.25 24.0985 4.3 23.9345 4.4C23.7745 4.5 23.6945 4.656 23.6945 4.868C23.6945 5.004 23.7325 5.118 23.8085 5.21C23.8845 5.298 24.0045 5.376 24.1685 5.444C24.3325 5.512 24.5465 5.584 24.8105 5.66C25.1305 5.748 25.3925 5.842 25.5965 5.942C25.8005 6.038 25.9505 6.16 26.0465 6.308C26.1465 6.452 26.1965 6.638 26.1965 6.866C26.1965 7.118 26.1305 7.334 25.9985 7.514C25.8665 7.69 25.6805 7.826 25.4405 7.922C25.2045 8.014 24.9245 8.06 24.6005 8.06Z" fill="white"/>
<defs>
<clipPath id="clip0_16_551">
<rect width="8" height="8" fill="white" transform="translate(6 2)"/>
</clipPath>
</defs>
</svg>
