<svg width="45" height="12" viewBox="0 0 45 12" fill="none" xmlns="http://www.w3.org/2000/svg">
<rect width="45" height="12" rx="6" fill="#00ADD8"/>
<g clip-path="url(#clip0_32_133)">
<path d="M6.60368 5.41034C6.58801 5.41034 6.58435 5.40267 6.59201 5.39067L6.67401 5.28567C6.68168 5.274 6.70101 5.26634 6.71668 5.26634H8.10735C8.12268 5.26634 8.12668 5.278 8.11901 5.28967L8.05268 5.39067C8.04501 5.40267 8.02535 5.414 8.01368 5.414L6.60368 5.41034ZM6.01568 5.76867C6.00001 5.76867 5.99601 5.761 6.00401 5.74934L6.08568 5.644C6.09335 5.63234 6.11301 5.62467 6.12868 5.62467H7.90468C7.92035 5.62467 7.92801 5.63634 7.92401 5.648L7.89301 5.74134C7.88901 5.757 7.87368 5.76467 7.85801 5.76467L6.01568 5.76867ZM6.95835 6.127C6.94268 6.127 6.93868 6.11534 6.94668 6.10367L7.00101 6.00634C7.00868 5.99467 7.02435 5.983 7.04001 5.983H7.81901C7.83468 5.983 7.84235 5.99467 7.84235 6.01034L7.83468 6.10367C7.83468 6.11934 7.81901 6.131 7.80735 6.131L6.95835 6.127ZM11.0013 5.34034C10.756 5.40267 10.5883 5.44934 10.347 5.51167C10.2883 5.527 10.2847 5.531 10.2337 5.47267C10.1757 5.40634 10.1327 5.36367 10.051 5.32467C9.80535 5.204 9.56768 5.239 9.34601 5.383C9.08101 5.55434 8.94468 5.80767 8.94868 6.123C8.95235 6.43467 9.16668 6.69167 9.47435 6.73467C9.73935 6.76967 9.96101 6.67634 10.1367 6.478C10.1717 6.43467 10.2027 6.388 10.2417 6.33334H9.49001C9.40835 6.33334 9.38868 6.28267 9.41601 6.21667C9.46668 6.096 9.56001 5.89334 9.61468 5.792C9.62303 5.77323 9.6367 5.75732 9.654 5.74624C9.6713 5.73516 9.69147 5.7294 9.71201 5.72967H11.1297C11.122 5.835 11.122 5.94 11.1063 6.04534C11.066 6.32264 10.9561 6.58524 10.787 6.80867C10.5067 7.17867 10.1403 7.40867 9.67701 7.47067C9.29535 7.52134 8.94068 7.44734 8.62935 7.214C8.34101 6.99567 8.17735 6.70734 8.13468 6.349C8.08401 5.92434 8.20868 5.54267 8.46568 5.20767C8.74235 4.84567 9.10835 4.61567 9.55635 4.53434C9.92235 4.46767 10.273 4.511 10.5883 4.72467C10.795 4.86134 10.9427 5.048 11.0403 5.274C11.0637 5.309 11.048 5.32867 11.0013 5.34067M12.2907 7.49434C11.936 7.48634 11.6127 7.385 11.34 7.15134C11.1132 6.96016 10.9637 6.69299 10.9193 6.39967C10.8493 5.95967 10.97 5.57 11.235 5.22334C11.5193 4.84934 11.862 4.65467 12.3257 4.57334C12.723 4.50334 13.097 4.54167 13.4357 4.77167C13.7433 4.98167 13.9343 5.26634 13.985 5.64C14.051 6.166 13.8993 6.59434 13.537 6.96067C13.28 7.22167 12.9643 7.385 12.602 7.459C12.497 7.479 12.392 7.48234 12.2907 7.49434ZM13.2173 5.921C13.2137 5.87 13.2137 5.831 13.206 5.792C13.136 5.40634 12.7813 5.18867 12.4113 5.274C12.049 5.35567 11.8153 5.58567 11.7297 5.95167C11.6597 6.25567 11.8077 6.56334 12.088 6.68834C12.3023 6.78167 12.5163 6.76967 12.723 6.665C13.0307 6.505 13.198 6.25567 13.2177 5.92067L13.2173 5.921Z" fill="black"/>
</g>
<path d="M17.046 8.06C16.694 8.06 16.394 7.994 16.146 7.862C15.902 7.73 15.714 7.544 15.582 7.304C15.454 7.064 15.382 6.782 15.366 6.458C15.362 6.282 15.36 6.096 15.36 5.9C15.36 5.7 15.362 5.51 15.366 5.33C15.382 5.006 15.454 4.726 15.582 4.49C15.714 4.254 15.904 4.07 16.152 3.938C16.4 3.806 16.698 3.74 17.046 3.74C17.33 3.74 17.576 3.78 17.784 3.86C17.992 3.94 18.162 4.042 18.294 4.166C18.43 4.286 18.53 4.412 18.594 4.544C18.662 4.676 18.698 4.792 18.702 4.892C18.706 4.928 18.696 4.958 18.672 4.982C18.648 5.002 18.616 5.012 18.576 5.012H18.222C18.182 5.012 18.152 5.004 18.132 4.988C18.116 4.972 18.1 4.944 18.084 4.904C18.048 4.8 17.988 4.698 17.904 4.598C17.824 4.498 17.714 4.416 17.574 4.352C17.438 4.284 17.262 4.25 17.046 4.25C16.73 4.25 16.474 4.336 16.278 4.508C16.086 4.68 15.982 4.964 15.966 5.36C15.954 5.716 15.954 6.072 15.966 6.428C15.982 6.828 16.088 7.116 16.284 7.292C16.48 7.464 16.736 7.55 17.052 7.55C17.264 7.55 17.452 7.512 17.616 7.436C17.784 7.356 17.916 7.234 18.012 7.07C18.108 6.906 18.156 6.698 18.156 6.446V6.194H17.256C17.216 6.194 17.182 6.182 17.154 6.158C17.13 6.13 17.118 6.094 17.118 6.05V5.858C17.118 5.814 17.13 5.78 17.154 5.756C17.182 5.728 17.216 5.714 17.256 5.714H18.612C18.656 5.714 18.69 5.728 18.714 5.756C18.738 5.78 18.75 5.814 18.75 5.858V6.434C18.75 6.762 18.682 7.048 18.546 7.292C18.414 7.536 18.22 7.726 17.964 7.862C17.708 7.994 17.402 8.06 17.046 8.06ZM21.112 8.06C20.772 8.06 20.48 8.002 20.236 7.886C19.992 7.766 19.804 7.584 19.672 7.34C19.54 7.092 19.466 6.782 19.45 6.41C19.446 6.234 19.444 6.066 19.444 5.906C19.444 5.742 19.446 5.572 19.45 5.396C19.466 5.028 19.542 4.722 19.678 4.478C19.818 4.23 20.01 4.046 20.254 3.926C20.502 3.802 20.788 3.74 21.112 3.74C21.44 3.74 21.726 3.802 21.97 3.926C22.218 4.046 22.412 4.23 22.552 4.478C22.692 4.722 22.768 5.028 22.78 5.396C22.788 5.572 22.792 5.742 22.792 5.906C22.792 6.066 22.788 6.234 22.78 6.41C22.768 6.782 22.694 7.092 22.558 7.34C22.426 7.584 22.238 7.766 21.994 7.886C21.75 8.002 21.456 8.06 21.112 8.06ZM21.112 7.55C21.42 7.55 21.67 7.458 21.862 7.274C22.058 7.09 22.164 6.792 22.18 6.38C22.188 6.2 22.192 6.04 22.192 5.9C22.192 5.756 22.188 5.596 22.18 5.42C22.172 5.144 22.12 4.92 22.024 4.748C21.932 4.576 21.808 4.45 21.652 4.37C21.496 4.29 21.316 4.25 21.112 4.25C20.916 4.25 20.74 4.29 20.584 4.37C20.428 4.45 20.302 4.576 20.206 4.748C20.114 4.92 20.062 5.144 20.05 5.42C20.046 5.596 20.044 5.756 20.044 5.9C20.044 6.04 20.046 6.2 20.05 6.38C20.066 6.792 20.172 7.09 20.368 7.274C20.564 7.458 20.812 7.55 21.112 7.55ZM23.8045 8C23.7605 8 23.7265 7.988 23.7025 7.964C23.6785 7.936 23.6665 7.902 23.6665 7.862V3.938C23.6665 3.898 23.6785 3.866 23.7025 3.842C23.7265 3.814 23.7605 3.8 23.8045 3.8H24.1225C24.1625 3.8 24.1945 3.814 24.2185 3.842C24.2425 3.866 24.2545 3.898 24.2545 3.938V7.478H26.2525C26.2965 7.478 26.3305 7.492 26.3545 7.52C26.3785 7.544 26.3905 7.578 26.3905 7.622V7.862C26.3905 7.902 26.3785 7.936 26.3545 7.964C26.3305 7.988 26.2965 8 26.2525 8H23.8045ZM26.7654 8C26.7334 8 26.7054 7.988 26.6814 7.964C26.6574 7.94 26.6454 7.912 26.6454 7.88C26.6454 7.86 26.6474 7.838 26.6514 7.814L28.1394 3.932C28.1554 3.892 28.1774 3.86 28.2054 3.836C28.2334 3.812 28.2754 3.8 28.3314 3.8H28.7394C28.7914 3.8 28.8314 3.812 28.8594 3.836C28.8914 3.86 28.9154 3.892 28.9314 3.932L30.4134 7.814C30.4214 7.838 30.4254 7.86 30.4254 7.88C30.4254 7.912 30.4134 7.94 30.3894 7.964C30.3654 7.988 30.3374 8 30.3054 8H29.9994C29.9514 8 29.9154 7.988 29.8914 7.964C29.8714 7.94 29.8574 7.918 29.8494 7.898L29.5194 7.046H27.5514L27.2214 7.898C27.2174 7.918 27.2034 7.94 27.1794 7.964C27.1554 7.988 27.1194 8 27.0714 8H26.7654ZM27.7254 6.53H29.3454L28.5354 4.4L27.7254 6.53ZM31.2049 8C31.1609 8 31.1269 7.988 31.1029 7.964C31.0789 7.936 31.0669 7.902 31.0669 7.862V3.944C31.0669 3.9 31.0789 3.866 31.1029 3.842C31.1269 3.814 31.1609 3.8 31.2049 3.8H31.4809C31.5289 3.8 31.5649 3.812 31.5889 3.836C31.6129 3.856 31.6269 3.872 31.6309 3.884L33.6229 6.944V3.944C33.6229 3.9 33.6349 3.866 33.6589 3.842C33.6829 3.814 33.7169 3.8 33.7609 3.8H34.0489C34.0929 3.8 34.1269 3.814 34.1509 3.842C34.1789 3.866 34.1929 3.9 34.1929 3.944V7.856C34.1929 7.896 34.1789 7.93 34.1509 7.958C34.1269 7.986 34.0949 8 34.0549 8H33.7669C33.7229 8 33.6889 7.988 33.6649 7.964C33.6449 7.94 33.6309 7.924 33.6229 7.916L31.6369 4.886V7.862C31.6369 7.902 31.6229 7.936 31.5949 7.964C31.5709 7.988 31.5369 8 31.4929 8H31.2049ZM36.7569 8.06C36.4049 8.06 36.1049 7.994 35.8569 7.862C35.6129 7.73 35.4249 7.544 35.2929 7.304C35.1649 7.064 35.0929 6.782 35.0769 6.458C35.0729 6.282 35.0709 6.096 35.0709 5.9C35.0709 5.7 35.0729 5.51 35.0769 5.33C35.0929 5.006 35.1649 4.726 35.2929 4.49C35.4249 4.254 35.6149 4.07 35.8629 3.938C36.1109 3.806 36.4089 3.74 36.7569 3.74C37.0409 3.74 37.2869 3.78 37.4949 3.86C37.7029 3.94 37.8729 4.042 38.0049 4.166C38.1409 4.286 38.2409 4.412 38.3049 4.544C38.3729 4.676 38.4089 4.792 38.4129 4.892C38.4169 4.928 38.4069 4.958 38.3829 4.982C38.3589 5.002 38.3269 5.012 38.2869 5.012H37.9329C37.8929 5.012 37.8629 5.004 37.8429 4.988C37.8269 4.972 37.8109 4.944 37.7949 4.904C37.7589 4.8 37.6989 4.698 37.6149 4.598C37.5349 4.498 37.4249 4.416 37.2849 4.352C37.1489 4.284 36.9729 4.25 36.7569 4.25C36.4409 4.25 36.1849 4.336 35.9889 4.508C35.7969 4.68 35.6929 4.964 35.6769 5.36C35.6649 5.716 35.6649 6.072 35.6769 6.428C35.6929 6.828 35.7989 7.116 35.9949 7.292C36.1909 7.464 36.4469 7.55 36.7629 7.55C36.9749 7.55 37.1629 7.512 37.3269 7.436C37.4949 7.356 37.6269 7.234 37.7229 7.07C37.8189 6.906 37.8669 6.698 37.8669 6.446V6.194H36.9669C36.9269 6.194 36.8929 6.182 36.8649 6.158C36.8409 6.13 36.8289 6.094 36.8289 6.05V5.858C36.8289 5.814 36.8409 5.78 36.8649 5.756C36.8929 5.728 36.9269 5.714 36.9669 5.714H38.3229C38.3669 5.714 38.4009 5.728 38.4249 5.756C38.4489 5.78 38.4609 5.814 38.4609 5.858V6.434C38.4609 6.762 38.3929 7.048 38.2569 7.292C38.1249 7.536 37.9309 7.726 37.6749 7.862C37.4189 7.994 37.1129 8.06 36.7569 8.06Z" fill="black"/>
<defs>
<clipPath id="clip0_32_133">
<rect width="8" height="8" fill="white" transform="translate(6 2)"/>
</clipPath>
</defs>
</svg>
