<svg width="37" height="12" viewBox="0 0 37 12" fill="none" xmlns="http://www.w3.org/2000/svg">
<rect width="37" height="12" rx="6" fill="#E34F26"/>
<g clip-path="url(#clip0_16_555)">
<path d="M6.5 2H13.5L12.8633 9.18767L9.99233 10L7.13767 9.18733L6.5 2ZM8.84367 5.25L8.76633 4.344L12.1193 4.345L12.196 3.471L7.804 3.47L8.03667 6.14H11.0787L10.97 7.282L10 7.55L9.015 7.28L8.95233 6.57667H8.08267L8.19267 7.967L10 8.45033L11.793 7.96933L12.041 5.25033H8.84367V5.25Z" fill="black"/>
</g>
<path d="M15.66 8C15.616 8 15.582 7.988 15.558 7.964C15.534 7.936 15.522 7.902 15.522 7.862V3.944C15.522 3.9 15.534 3.866 15.558 3.842C15.582 3.814 15.616 3.8 15.66 3.8H15.966C16.01 3.8 16.044 3.814 16.068 3.842C16.096 3.866 16.11 3.9 16.11 3.944V5.6H18.174V3.944C18.174 3.9 18.186 3.866 18.21 3.842C18.238 3.814 18.272 3.8 18.312 3.8H18.618C18.662 3.8 18.696 3.814 18.72 3.842C18.748 3.866 18.762 3.9 18.762 3.944V7.862C18.762 7.902 18.748 7.936 18.72 7.964C18.696 7.988 18.662 8 18.618 8H18.312C18.272 8 18.238 7.988 18.21 7.964C18.186 7.936 18.174 7.902 18.174 7.862V6.14H16.11V7.862C16.11 7.902 16.096 7.936 16.068 7.964C16.044 7.988 16.01 8 15.966 8H15.66ZM20.8553 8C20.8153 8 20.7813 7.988 20.7533 7.964C20.7293 7.936 20.7173 7.902 20.7173 7.862V4.334H19.5653C19.5253 4.334 19.4913 4.322 19.4633 4.298C19.4393 4.27 19.4273 4.236 19.4273 4.196V3.944C19.4273 3.9 19.4393 3.866 19.4633 3.842C19.4913 3.814 19.5253 3.8 19.5653 3.8H22.4573C22.5013 3.8 22.5353 3.814 22.5593 3.842C22.5873 3.866 22.6013 3.9 22.6013 3.944V4.196C22.6013 4.236 22.5873 4.27 22.5593 4.298C22.5353 4.322 22.5013 4.334 22.4573 4.334H21.3113V7.862C21.3113 7.902 21.2973 7.936 21.2693 7.964C21.2453 7.988 21.2113 8 21.1673 8H20.8553ZM23.412 8C23.372 8 23.338 7.988 23.31 7.964C23.286 7.936 23.274 7.902 23.274 7.862V3.944C23.274 3.9 23.286 3.866 23.31 3.842C23.338 3.814 23.372 3.8 23.412 3.8H23.712C23.76 3.8 23.796 3.812 23.82 3.836C23.844 3.86 23.858 3.88 23.862 3.896L25.134 6.32L26.412 3.896C26.42 3.88 26.434 3.86 26.454 3.836C26.478 3.812 26.514 3.8 26.562 3.8H26.856C26.9 3.8 26.934 3.814 26.958 3.842C26.986 3.866 27 3.9 27 3.944V7.862C27 7.902 26.986 7.936 26.958 7.964C26.934 7.988 26.9 8 26.856 8H26.562C26.522 8 26.488 7.988 26.46 7.964C26.436 7.936 26.424 7.902 26.424 7.862V4.91L25.422 6.866C25.406 6.906 25.382 6.938 25.35 6.962C25.318 6.982 25.278 6.992 25.23 6.992H25.044C24.992 6.992 24.95 6.982 24.918 6.962C24.89 6.938 24.866 6.906 24.846 6.866L23.844 4.91V7.862C23.844 7.902 23.83 7.936 23.802 7.964C23.778 7.988 23.746 8 23.706 8H23.412ZM28.1756 8C28.1316 8 28.0976 7.988 28.0736 7.964C28.0496 7.936 28.0376 7.902 28.0376 7.862V3.938C28.0376 3.898 28.0496 3.866 28.0736 3.842C28.0976 3.814 28.1316 3.8 28.1756 3.8H28.4936C28.5336 3.8 28.5656 3.814 28.5896 3.842C28.6136 3.866 28.6256 3.898 28.6256 3.938V7.478H30.6236C30.6676 7.478 30.7016 7.492 30.7256 7.52C30.7496 7.544 30.7616 7.578 30.7616 7.622V7.862C30.7616 7.902 30.7496 7.936 30.7256 7.964C30.7016 7.988 30.6676 8 30.6236 8H28.1756Z" fill="black"/>
<defs>
<clipPath id="clip0_16_555">
<rect width="8" height="8" fill="white" transform="translate(6 2)"/>
</clipPath>
</defs>
</svg>
