<svg width="37" height="12" viewBox="0 0 37 12" fill="none" xmlns="http://www.w3.org/2000/svg">
<rect width="37" height="12" rx="6" fill="#3A75B0"/>
<path d="M16.77 8.06C16.566 8.06 16.372 8.036 16.188 7.988C16.008 7.936 15.846 7.858 15.702 7.754C15.562 7.646 15.45 7.512 15.366 7.352C15.282 7.192 15.236 7.004 15.228 6.788C15.228 6.752 15.24 6.722 15.264 6.698C15.288 6.67 15.32 6.656 15.36 6.656H15.684C15.728 6.656 15.762 6.67 15.786 6.698C15.814 6.722 15.832 6.754 15.84 6.794C15.856 6.974 15.908 7.12 15.996 7.232C16.084 7.34 16.196 7.42 16.332 7.472C16.468 7.524 16.618 7.55 16.782 7.55C17.086 7.55 17.318 7.45 17.478 7.25C17.638 7.05 17.718 6.784 17.718 6.452V4.322H15.588C15.548 4.322 15.514 4.31 15.486 4.286C15.462 4.258 15.45 4.224 15.45 4.184V3.938C15.45 3.898 15.462 3.866 15.486 3.842C15.514 3.814 15.548 3.8 15.588 3.8H18.174C18.218 3.8 18.252 3.814 18.276 3.842C18.304 3.866 18.318 3.9 18.318 3.944V6.464C18.318 6.788 18.256 7.07 18.132 7.31C18.008 7.55 17.832 7.736 17.604 7.868C17.376 7.996 17.098 8.06 16.77 8.06ZM18.9666 8C18.9346 8 18.9066 7.988 18.8826 7.964C18.8586 7.94 18.8466 7.912 18.8466 7.88C18.8466 7.86 18.8486 7.838 18.8526 7.814L20.3406 3.932C20.3566 3.892 20.3786 3.86 20.4066 3.836C20.4346 3.812 20.4766 3.8 20.5326 3.8H20.9406C20.9926 3.8 21.0326 3.812 21.0606 3.836C21.0926 3.86 21.1166 3.892 21.1326 3.932L22.6146 7.814C22.6226 7.838 22.6266 7.86 22.6266 7.88C22.6266 7.912 22.6146 7.94 22.5906 7.964C22.5666 7.988 22.5386 8 22.5066 8H22.2006C22.1526 8 22.1166 7.988 22.0926 7.964C22.0726 7.94 22.0586 7.918 22.0506 7.898L21.7206 7.046H19.7526L19.4226 7.898C19.4186 7.918 19.4046 7.94 19.3806 7.964C19.3566 7.988 19.3206 8 19.2726 8H18.9666ZM19.9266 6.53H21.5466L20.7366 4.4L19.9266 6.53ZM24.2231 8C24.1631 8 24.1151 7.986 24.0791 7.958C24.0471 7.93 24.0211 7.892 24.0011 7.844L22.6631 3.986C22.6551 3.962 22.6511 3.94 22.6511 3.92C22.6511 3.888 22.6631 3.86 22.6871 3.836C22.7111 3.812 22.7391 3.8 22.7711 3.8H23.0831C23.1311 3.8 23.1671 3.814 23.1911 3.842C23.2191 3.866 23.2351 3.888 23.2391 3.908L24.4151 7.31L25.5911 3.908C25.5991 3.888 25.6151 3.866 25.6391 3.842C25.6631 3.814 25.6991 3.8 25.7471 3.8H26.0591C26.0911 3.8 26.1191 3.812 26.1431 3.836C26.1711 3.86 26.1851 3.888 26.1851 3.92C26.1851 3.94 26.1811 3.962 26.1731 3.986L24.8291 7.844C24.8131 7.892 24.7871 7.93 24.7511 7.958C24.7191 7.986 24.6731 8 24.6131 8H24.2231ZM26.3259 8C26.2939 8 26.2659 7.988 26.2419 7.964C26.2179 7.94 26.2059 7.912 26.2059 7.88C26.2059 7.86 26.2079 7.838 26.2119 7.814L27.6999 3.932C27.7159 3.892 27.7379 3.86 27.7659 3.836C27.7939 3.812 27.8359 3.8 27.8919 3.8H28.2999C28.3519 3.8 28.3919 3.812 28.4199 3.836C28.4519 3.86 28.4759 3.892 28.4919 3.932L29.9739 7.814C29.9819 7.838 29.9859 7.86 29.9859 7.88C29.9859 7.912 29.9739 7.94 29.9499 7.964C29.9259 7.988 29.8979 8 29.8659 8H29.5599C29.5119 8 29.4759 7.988 29.4519 7.964C29.4319 7.94 29.4179 7.918 29.4099 7.898L29.0799 7.046H27.1119L26.7819 7.898C26.7779 7.918 26.7639 7.94 26.7399 7.964C26.7159 7.988 26.6799 8 26.6319 8H26.3259ZM27.2859 6.53H28.9059L28.0959 4.4L27.2859 6.53Z" fill="white"/>
<g clip-path="url(#clip0_34_196)">
<path d="M8.90548 8.185C8.90548 8.185 8.59798 8.372 9.11923 8.4255C9.74673 8.5055 10.081 8.49225 10.7755 8.35875C10.9151 8.44423 11.0627 8.51582 11.2162 8.5725C9.65373 9.2405 7.67648 8.5325 8.90548 8.185ZM8.70548 7.31675C8.70548 7.31675 8.37148 7.5705 8.89248 7.62425C9.57373 7.691 10.108 7.70425 11.03 7.5175C11.1196 7.60844 11.2294 7.67703 11.3505 7.71775C9.46698 8.27875 7.35648 7.771 8.70548 7.31675ZM12.3922 8.83925C12.3922 8.83925 12.6192 9.02625 12.1385 9.17325C11.2435 9.44075 8.38498 9.52075 7.58348 9.17325C7.30298 9.05325 7.83723 8.8795 8.00848 8.85275C8.18223 8.81275 8.27598 8.81275 8.27598 8.81275C7.96848 8.599 6.23223 9.2535 7.39448 9.44025C10.587 9.96125 13.2185 9.21325 12.3902 8.83925H12.3922ZM9.04998 6.40825C9.04998 6.40825 7.59398 6.75575 8.52898 6.87575C8.92973 6.92925 9.71773 6.91575 10.4525 6.8625C11.0535 6.809 11.655 6.7025 11.655 6.7025C11.655 6.7025 11.4412 6.796 11.2942 6.8895C9.81173 7.277 6.96623 7.10325 7.78123 6.7025C8.47573 6.3685 9.05023 6.40875 9.05023 6.40875L9.04998 6.40825ZM11.655 7.86425C13.151 7.08925 12.4565 6.34175 11.9755 6.435C11.8555 6.46175 11.8017 6.4885 11.8017 6.4885C11.8017 6.4885 11.8417 6.4085 11.9352 6.38175C12.8837 6.04775 13.6317 7.3835 11.6277 7.90425C11.6277 7.90425 11.641 7.891 11.6545 7.86425H11.655ZM9.19748 9.97475C10.64 10.0682 12.8442 9.92125 12.8975 9.23975C12.8975 9.23975 12.7907 9.50725 11.7087 9.70725C10.4797 9.93425 8.95698 9.90725 8.06198 9.76075C8.06198 9.76075 8.24898 9.921 9.19748 9.97475Z" fill="white"/>
<path d="M10.749 2.00025C10.749 2.00025 11.5772 2.84175 9.96097 4.11075C8.66522 5.13925 9.66722 5.727 9.96097 6.395C9.19947 5.71375 8.65197 5.1125 9.02597 4.55175C9.57347 3.72325 11.083 3.325 10.749 2.00025ZM10.324 5.834C10.7115 6.27475 10.2172 6.6755 10.2172 6.6755C10.2172 6.6755 11.2057 6.168 10.7515 5.54C10.3375 4.939 10.0165 4.645 11.7532 3.64325C11.7532 3.64325 9.01497 4.3245 10.324 5.834Z" fill="white"/>
</g>
<defs>
<clipPath id="clip0_34_196">
<rect width="8" height="8" fill="white" transform="translate(6 2)"/>
</clipPath>
</defs>
</svg>
