<svg width="57" height="12" viewBox="0 0 57 12" fill="none" xmlns="http://www.w3.org/2000/svg">
<rect width="57" height="12" rx="6" fill="#F7DF1E"/>
<g clip-path="url(#clip0_16_546)">
<path d="M6 2H14V10H6V2ZM13.3447 8.092C13.2863 7.727 13.0487 7.42033 12.3437 7.13433C12.0983 7.01933 11.8257 6.93933 11.7447 6.75433C11.7143 6.64433 11.7097 6.58433 11.7293 6.51933C11.7793 6.304 12.0343 6.23933 12.2343 6.29933C12.3643 6.33933 12.4843 6.43933 12.5597 6.59933C12.9043 6.374 12.9043 6.374 13.1447 6.22433C13.0547 6.08433 13.01 6.024 12.9493 5.96433C12.7393 5.72933 12.4597 5.60933 12.0047 5.61967L11.7697 5.64933C11.5443 5.70433 11.3297 5.82433 11.1997 5.98433C10.8197 6.41467 10.9293 7.16467 11.3893 7.47467C11.8443 7.81467 12.5097 7.88933 12.5947 8.20967C12.6747 8.59967 12.3047 8.72467 11.9393 8.67967C11.669 8.61967 11.5193 8.48433 11.3543 8.23433L10.7443 8.58467C10.8143 8.74467 10.8943 8.81433 11.0143 8.95433C11.5943 9.53967 13.0443 9.50967 13.3047 8.61967C13.3143 8.58967 13.3847 8.38467 13.3293 8.06967L13.3447 8.092ZM10.3503 5.677H9.601C9.601 6.323 9.598 6.965 9.598 7.612C9.598 8.02267 9.619 8.39967 9.552 8.51567C9.442 8.74533 9.15867 8.716 9.03 8.67567C8.898 8.61033 8.831 8.52033 8.75333 8.39067C8.73233 8.35567 8.71667 8.32533 8.711 8.32533L8.10267 8.70033C8.20433 8.91033 8.35267 9.091 8.544 9.206C8.829 9.376 9.212 9.431 9.613 9.341C9.874 9.26567 10.099 9.11067 10.2167 8.87067C10.3867 8.56067 10.3507 8.18067 10.349 7.75533C10.353 7.07067 10.349 6.38567 10.349 5.69567L10.3503 5.677Z" fill="black"/>
</g>
<path d="M16.77 8.06C16.566 8.06 16.372 8.036 16.188 7.988C16.008 7.936 15.846 7.858 15.702 7.754C15.562 7.646 15.45 7.512 15.366 7.352C15.282 7.192 15.236 7.004 15.228 6.788C15.228 6.752 15.24 6.722 15.264 6.698C15.288 6.67 15.32 6.656 15.36 6.656H15.684C15.728 6.656 15.762 6.67 15.786 6.698C15.814 6.722 15.832 6.754 15.84 6.794C15.856 6.974 15.908 7.12 15.996 7.232C16.084 7.34 16.196 7.42 16.332 7.472C16.468 7.524 16.618 7.55 16.782 7.55C17.086 7.55 17.318 7.45 17.478 7.25C17.638 7.05 17.718 6.784 17.718 6.452V4.322H15.588C15.548 4.322 15.514 4.31 15.486 4.286C15.462 4.258 15.45 4.224 15.45 4.184V3.938C15.45 3.898 15.462 3.866 15.486 3.842C15.514 3.814 15.548 3.8 15.588 3.8H18.174C18.218 3.8 18.252 3.814 18.276 3.842C18.304 3.866 18.318 3.9 18.318 3.944V6.464C18.318 6.788 18.256 7.07 18.132 7.31C18.008 7.55 17.832 7.736 17.604 7.868C17.376 7.996 17.098 8.06 16.77 8.06ZM18.9666 8C18.9346 8 18.9066 7.988 18.8826 7.964C18.8586 7.94 18.8466 7.912 18.8466 7.88C18.8466 7.86 18.8486 7.838 18.8526 7.814L20.3406 3.932C20.3566 3.892 20.3786 3.86 20.4066 3.836C20.4346 3.812 20.4766 3.8 20.5326 3.8H20.9406C20.9926 3.8 21.0326 3.812 21.0606 3.836C21.0926 3.86 21.1166 3.892 21.1326 3.932L22.6146 7.814C22.6226 7.838 22.6266 7.86 22.6266 7.88C22.6266 7.912 22.6146 7.94 22.5906 7.964C22.5666 7.988 22.5386 8 22.5066 8H22.2006C22.1526 8 22.1166 7.988 22.0926 7.964C22.0726 7.94 22.0586 7.918 22.0506 7.898L21.7206 7.046H19.7526L19.4226 7.898C19.4186 7.918 19.4046 7.94 19.3806 7.964C19.3566 7.988 19.3206 8 19.2726 8H18.9666ZM19.9266 6.53H21.5466L20.7366 4.4L19.9266 6.53ZM24.2231 8C24.1631 8 24.1151 7.986 24.0791 7.958C24.0471 7.93 24.0211 7.892 24.0011 7.844L22.6631 3.986C22.6551 3.962 22.6511 3.94 22.6511 3.92C22.6511 3.888 22.6631 3.86 22.6871 3.836C22.7111 3.812 22.7391 3.8 22.7711 3.8H23.0831C23.1311 3.8 23.1671 3.814 23.1911 3.842C23.2191 3.866 23.2351 3.888 23.2391 3.908L24.4151 7.31L25.5911 3.908C25.5991 3.888 25.6151 3.866 25.6391 3.842C25.6631 3.814 25.6991 3.8 25.7471 3.8H26.0591C26.0911 3.8 26.1191 3.812 26.1431 3.836C26.1711 3.86 26.1851 3.888 26.1851 3.92C26.1851 3.94 26.1811 3.962 26.1731 3.986L24.8291 7.844C24.8131 7.892 24.7871 7.93 24.7511 7.958C24.7191 7.986 24.6731 8 24.6131 8H24.2231ZM26.3259 8C26.2939 8 26.2659 7.988 26.2419 7.964C26.2179 7.94 26.2059 7.912 26.2059 7.88C26.2059 7.86 26.2079 7.838 26.2119 7.814L27.6999 3.932C27.7159 3.892 27.7379 3.86 27.7659 3.836C27.7939 3.812 27.8359 3.8 27.8919 3.8H28.2999C28.3519 3.8 28.3919 3.812 28.4199 3.836C28.4519 3.86 28.4759 3.892 28.4919 3.932L29.9739 7.814C29.9819 7.838 29.9859 7.86 29.9859 7.88C29.9859 7.912 29.9739 7.94 29.9499 7.964C29.9259 7.988 29.8979 8 29.8659 8H29.5599C29.5119 8 29.4759 7.988 29.4519 7.964C29.4319 7.94 29.4179 7.918 29.4099 7.898L29.0799 7.046H27.1119L26.7819 7.898C26.7779 7.918 26.7639 7.94 26.7399 7.964C26.7159 7.988 26.6799 8 26.6319 8H26.3259ZM27.2859 6.53H28.9059L28.0959 4.4L27.2859 6.53ZM31.9189 8.06C31.5709 8.06 31.2789 8.008 31.0429 7.904C30.8069 7.796 30.6249 7.658 30.4969 7.49C30.3729 7.318 30.3069 7.136 30.2989 6.944C30.2989 6.912 30.3109 6.884 30.3349 6.86C30.3629 6.832 30.3949 6.818 30.4309 6.818H30.7369C30.7849 6.818 30.8209 6.83 30.8449 6.854C30.8689 6.878 30.8849 6.906 30.8929 6.938C30.9129 7.034 30.9609 7.13 31.0369 7.226C31.1169 7.318 31.2269 7.396 31.3669 7.46C31.5109 7.52 31.6949 7.55 31.9189 7.55C32.2629 7.55 32.5149 7.49 32.6749 7.37C32.8389 7.246 32.9209 7.082 32.9209 6.878C32.9209 6.738 32.8769 6.626 32.7889 6.542C32.7049 6.454 32.5749 6.376 32.3989 6.308C32.2229 6.24 31.9949 6.166 31.7149 6.086C31.4229 6.002 31.1809 5.91 30.9889 5.81C30.7969 5.71 30.6529 5.586 30.5569 5.438C30.4649 5.29 30.4189 5.102 30.4189 4.874C30.4189 4.658 30.4769 4.466 30.5929 4.298C30.7089 4.126 30.8749 3.99 31.0909 3.89C31.3109 3.79 31.5769 3.74 31.8889 3.74C32.1369 3.74 32.3529 3.774 32.5369 3.842C32.7249 3.906 32.8809 3.994 33.0049 4.106C33.1289 4.214 33.2229 4.332 33.2869 4.46C33.3509 4.584 33.3849 4.706 33.3889 4.826C33.3889 4.854 33.3789 4.882 33.3589 4.91C33.3389 4.934 33.3069 4.946 33.2629 4.946H32.9449C32.9169 4.946 32.8869 4.938 32.8549 4.922C32.8269 4.906 32.8049 4.876 32.7889 4.832C32.7649 4.668 32.6729 4.53 32.5129 4.418C32.3529 4.306 32.1449 4.25 31.8889 4.25C31.6289 4.25 31.4169 4.3 31.2529 4.4C31.0929 4.5 31.0129 4.656 31.0129 4.868C31.0129 5.004 31.0509 5.118 31.1269 5.21C31.2029 5.298 31.3229 5.376 31.4869 5.444C31.6509 5.512 31.8649 5.584 32.1289 5.66C32.4489 5.748 32.7109 5.842 32.9149 5.942C33.1189 6.038 33.2689 6.16 33.3649 6.308C33.4649 6.452 33.5149 6.638 33.5149 6.866C33.5149 7.118 33.4489 7.334 33.3169 7.514C33.1849 7.69 32.9989 7.826 32.7589 7.922C32.5229 8.014 32.2429 8.06 31.9189 8.06ZM35.8133 8.06C35.4453 8.06 35.1393 7.992 34.8953 7.856C34.6553 7.72 34.4733 7.53 34.3493 7.286C34.2253 7.042 34.1573 6.758 34.1453 6.434C34.1413 6.27 34.1393 6.094 34.1393 5.906C34.1393 5.718 34.1413 5.538 34.1453 5.366C34.1573 5.042 34.2253 4.758 34.3493 4.514C34.4733 4.27 34.6553 4.08 34.8953 3.944C35.1393 3.808 35.4453 3.74 35.8133 3.74C36.0893 3.74 36.3313 3.778 36.5393 3.854C36.7473 3.93 36.9193 4.032 37.0553 4.16C37.1953 4.288 37.3013 4.432 37.3733 4.592C37.4453 4.748 37.4853 4.91 37.4933 5.078C37.4973 5.114 37.4853 5.144 37.4573 5.168C37.4333 5.192 37.4033 5.204 37.3673 5.204H37.0373C37.0013 5.204 36.9693 5.194 36.9413 5.174C36.9173 5.154 36.8993 5.118 36.8873 5.066C36.8193 4.754 36.6913 4.54 36.5033 4.424C36.3193 4.308 36.0873 4.25 35.8073 4.25C35.4873 4.25 35.2333 4.342 35.0453 4.526C34.8573 4.706 34.7553 4.996 34.7393 5.396C34.7273 5.724 34.7273 6.06 34.7393 6.404C34.7553 6.804 34.8573 7.096 35.0453 7.28C35.2333 7.46 35.4873 7.55 35.8073 7.55C36.0873 7.55 36.3193 7.492 36.5033 7.376C36.6913 7.26 36.8193 7.046 36.8873 6.734C36.8993 6.682 36.9173 6.646 36.9413 6.626C36.9693 6.606 37.0013 6.596 37.0373 6.596H37.3673C37.4033 6.596 37.4333 6.608 37.4573 6.632C37.4853 6.656 37.4973 6.686 37.4933 6.722C37.4853 6.89 37.4453 7.054 37.3733 7.214C37.3013 7.37 37.1953 7.512 37.0553 7.64C36.9193 7.768 36.7473 7.87 36.5393 7.946C36.3313 8.022 36.0893 8.06 35.8133 8.06ZM38.4354 8C38.3914 8 38.3574 7.988 38.3334 7.964C38.3094 7.936 38.2974 7.902 38.2974 7.862V3.944C38.2974 3.9 38.3094 3.866 38.3334 3.842C38.3574 3.814 38.3914 3.8 38.4354 3.8H39.8994C40.3514 3.8 40.7094 3.906 40.9734 4.118C41.2374 4.33 41.3694 4.644 41.3694 5.06C41.3694 5.368 41.2914 5.62 41.1354 5.816C40.9834 6.008 40.7754 6.142 40.5114 6.218L41.4354 7.814C41.4474 7.838 41.4534 7.86 41.4534 7.88C41.4534 7.912 41.4394 7.94 41.4114 7.964C41.3874 7.988 41.3594 8 41.3274 8H41.0394C40.9714 8 40.9214 7.982 40.8894 7.946C40.8574 7.91 40.8294 7.874 40.8054 7.838L39.9354 6.314H38.8854V7.862C38.8854 7.902 38.8714 7.936 38.8434 7.964C38.8194 7.988 38.7854 8 38.7414 8H38.4354ZM38.8854 5.804H39.8754C40.1754 5.804 40.3994 5.742 40.5474 5.618C40.6954 5.49 40.7694 5.302 40.7694 5.054C40.7694 4.81 40.6954 4.624 40.5474 4.496C40.4034 4.368 40.1794 4.304 39.8754 4.304H38.8854V5.804ZM42.367 8C42.323 8 42.289 7.988 42.265 7.964C42.241 7.936 42.229 7.902 42.229 7.862V3.938C42.229 3.898 42.241 3.866 42.265 3.842C42.289 3.814 42.323 3.8 42.367 3.8H42.685C42.725 3.8 42.757 3.814 42.781 3.842C42.809 3.866 42.823 3.898 42.823 3.938V7.862C42.823 7.902 42.809 7.936 42.781 7.964C42.757 7.988 42.725 8 42.685 8H42.367ZM44.0077 8C43.9637 8 43.9297 7.988 43.9057 7.964C43.8817 7.936 43.8697 7.902 43.8697 7.862V3.944C43.8697 3.9 43.8817 3.866 43.9057 3.842C43.9297 3.814 43.9637 3.8 44.0077 3.8H45.5317C45.8277 3.8 46.0837 3.848 46.2997 3.944C46.5197 4.04 46.6897 4.184 46.8097 4.376C46.9297 4.564 46.9897 4.8 46.9897 5.084C46.9897 5.368 46.9297 5.604 46.8097 5.792C46.6897 5.98 46.5197 6.122 46.2997 6.218C46.0837 6.314 45.8277 6.362 45.5317 6.362H44.4697V7.862C44.4697 7.902 44.4557 7.936 44.4277 7.964C44.4037 7.988 44.3697 8 44.3257 8H44.0077ZM44.4637 5.858H45.5017C45.7977 5.858 46.0197 5.792 46.1677 5.66C46.3157 5.528 46.3897 5.336 46.3897 5.084C46.3897 4.836 46.3177 4.644 46.1737 4.508C46.0297 4.372 45.8057 4.304 45.5017 4.304H44.4637V5.858ZM48.7753 8C48.7353 8 48.7013 7.988 48.6733 7.964C48.6493 7.936 48.6373 7.902 48.6373 7.862V4.334H47.4853C47.4453 4.334 47.4113 4.322 47.3833 4.298C47.3593 4.27 47.3473 4.236 47.3473 4.196V3.944C47.3473 3.9 47.3593 3.866 47.3833 3.842C47.4113 3.814 47.4453 3.8 47.4853 3.8H50.3773C50.4213 3.8 50.4553 3.814 50.4793 3.842C50.5073 3.866 50.5213 3.9 50.5213 3.944V4.196C50.5213 4.236 50.5073 4.27 50.4793 4.298C50.4553 4.322 50.4213 4.334 50.3773 4.334H49.2313V7.862C49.2313 7.902 49.2173 7.936 49.1893 7.964C49.1653 7.988 49.1313 8 49.0873 8H48.7753Z" fill="black"/>
<defs>
<clipPath id="clip0_16_546">
<rect width="8" height="8" fill="white" transform="translate(6 2)"/>
</clipPath>
</defs>
</svg>
