<svg width="50" height="12" viewBox="0 0 50 12" fill="none" xmlns="http://www.w3.org/2000/svg">
<rect width="50" height="12" rx="6" fill="black"/>
<path d="M17.028 8.06C16.688 8.06 16.396 8.002 16.152 7.886C15.908 7.766 15.72 7.584 15.588 7.34C15.456 7.092 15.382 6.782 15.366 6.41C15.362 6.234 15.36 6.066 15.36 5.906C15.36 5.742 15.362 5.572 15.366 5.396C15.382 5.028 15.458 4.722 15.594 4.478C15.734 4.23 15.926 4.046 16.17 3.926C16.418 3.802 16.704 3.74 17.028 3.74C17.356 3.74 17.642 3.802 17.886 3.926C18.134 4.046 18.328 4.23 18.468 4.478C18.608 4.722 18.684 5.028 18.696 5.396C18.704 5.572 18.708 5.742 18.708 5.906C18.708 6.066 18.704 6.234 18.696 6.41C18.684 6.782 18.61 7.092 18.474 7.34C18.342 7.584 18.154 7.766 17.91 7.886C17.666 8.002 17.372 8.06 17.028 8.06ZM17.028 7.55C17.336 7.55 17.586 7.458 17.778 7.274C17.974 7.09 18.08 6.792 18.096 6.38C18.104 6.2 18.108 6.04 18.108 5.9C18.108 5.756 18.104 5.596 18.096 5.42C18.088 5.144 18.036 4.92 17.94 4.748C17.848 4.576 17.724 4.45 17.568 4.37C17.412 4.29 17.232 4.25 17.028 4.25C16.832 4.25 16.656 4.29 16.5 4.37C16.344 4.45 16.218 4.576 16.122 4.748C16.03 4.92 15.978 5.144 15.966 5.42C15.962 5.596 15.96 5.756 15.96 5.9C15.96 6.04 15.962 6.2 15.966 6.38C15.982 6.792 16.088 7.09 16.284 7.274C16.48 7.458 16.728 7.55 17.028 7.55ZM19.7205 8C19.6765 8 19.6425 7.988 19.6185 7.964C19.5945 7.936 19.5825 7.902 19.5825 7.862V3.944C19.5825 3.9 19.5945 3.866 19.6185 3.842C19.6425 3.814 19.6765 3.8 19.7205 3.8H21.2445C21.5405 3.8 21.7965 3.848 22.0125 3.944C22.2325 4.04 22.4025 4.184 22.5225 4.376C22.6425 4.564 22.7025 4.8 22.7025 5.084C22.7025 5.368 22.6425 5.604 22.5225 5.792C22.4025 5.98 22.2325 6.122 22.0125 6.218C21.7965 6.314 21.5405 6.362 21.2445 6.362H20.1825V7.862C20.1825 7.902 20.1685 7.936 20.1405 7.964C20.1165 7.988 20.0825 8 20.0385 8H19.7205ZM20.1765 5.858H21.2145C21.5105 5.858 21.7325 5.792 21.8805 5.66C22.0285 5.528 22.1025 5.336 22.1025 5.084C22.1025 4.836 22.0305 4.644 21.8865 4.508C21.7425 4.372 21.5185 4.304 21.2145 4.304H20.1765V5.858ZM23.5702 8C23.5262 8 23.4922 7.988 23.4682 7.964C23.4442 7.936 23.4322 7.902 23.4322 7.862V3.944C23.4322 3.9 23.4442 3.866 23.4682 3.842C23.4922 3.814 23.5262 3.8 23.5702 3.8H26.0482C26.0922 3.8 26.1262 3.814 26.1502 3.842C26.1742 3.866 26.1862 3.9 26.1862 3.944V4.172C26.1862 4.216 26.1742 4.25 26.1502 4.274C26.1262 4.298 26.0922 4.31 26.0482 4.31H24.0082V5.624H25.9162C25.9602 5.624 25.9942 5.638 26.0182 5.666C26.0422 5.69 26.0542 5.724 26.0542 5.768V5.99C26.0542 6.03 26.0422 6.064 26.0182 6.092C25.9942 6.116 25.9602 6.128 25.9162 6.128H24.0082V7.49H26.0962C26.1402 7.49 26.1742 7.502 26.1982 7.526C26.2222 7.55 26.2342 7.584 26.2342 7.628V7.862C26.2342 7.902 26.2222 7.936 26.1982 7.964C26.1742 7.988 26.1402 8 26.0962 8H23.5702ZM27.2088 8C27.1648 8 27.1308 7.988 27.1068 7.964C27.0828 7.936 27.0708 7.902 27.0708 7.862V3.944C27.0708 3.9 27.0828 3.866 27.1068 3.842C27.1308 3.814 27.1648 3.8 27.2088 3.8H27.4848C27.5328 3.8 27.5688 3.812 27.5928 3.836C27.6168 3.856 27.6308 3.872 27.6348 3.884L29.6268 6.944V3.944C29.6268 3.9 29.6388 3.866 29.6628 3.842C29.6868 3.814 29.7208 3.8 29.7648 3.8H30.0528C30.0968 3.8 30.1308 3.814 30.1548 3.842C30.1828 3.866 30.1968 3.9 30.1968 3.944V7.856C30.1968 7.896 30.1828 7.93 30.1548 7.958C30.1308 7.986 30.0988 8 30.0588 8H29.7708C29.7268 8 29.6928 7.988 29.6688 7.964C29.6488 7.94 29.6348 7.924 29.6268 7.916L27.6408 4.886V7.862C27.6408 7.902 27.6268 7.936 27.5988 7.964C27.5748 7.988 27.5408 8 27.4968 8H27.2088ZM33.9555 8.06C33.7515 8.06 33.5575 8.036 33.3735 7.988C33.1935 7.936 33.0315 7.858 32.8875 7.754C32.7475 7.646 32.6355 7.512 32.5515 7.352C32.4675 7.192 32.4215 7.004 32.4135 6.788C32.4135 6.752 32.4255 6.722 32.4495 6.698C32.4735 6.67 32.5055 6.656 32.5455 6.656H32.8695C32.9135 6.656 32.9475 6.67 32.9715 6.698C32.9995 6.722 33.0175 6.754 33.0255 6.794C33.0415 6.974 33.0935 7.12 33.1815 7.232C33.2695 7.34 33.3815 7.42 33.5175 7.472C33.6535 7.524 33.8035 7.55 33.9675 7.55C34.2715 7.55 34.5035 7.45 34.6635 7.25C34.8235 7.05 34.9035 6.784 34.9035 6.452V4.322H32.7735C32.7335 4.322 32.6995 4.31 32.6715 4.286C32.6475 4.258 32.6355 4.224 32.6355 4.184V3.938C32.6355 3.898 32.6475 3.866 32.6715 3.842C32.6995 3.814 32.7335 3.8 32.7735 3.8H35.3595C35.4035 3.8 35.4375 3.814 35.4615 3.842C35.4895 3.866 35.5035 3.9 35.5035 3.944V6.464C35.5035 6.788 35.4415 7.07 35.3175 7.31C35.1935 7.55 35.0175 7.736 34.7895 7.868C34.5615 7.996 34.2835 8.06 33.9555 8.06ZM36.6483 8C36.6043 8 36.5703 7.988 36.5463 7.964C36.5223 7.936 36.5103 7.902 36.5103 7.862V3.944C36.5103 3.9 36.5223 3.866 36.5463 3.842C36.5703 3.814 36.6043 3.8 36.6483 3.8H38.0103C38.4223 3.8 38.7543 3.862 39.0063 3.986C39.2583 4.11 39.4423 4.294 39.5583 4.538C39.6743 4.778 39.7343 5.074 39.7383 5.426C39.7423 5.606 39.7443 5.764 39.7443 5.9C39.7443 6.036 39.7423 6.192 39.7383 6.368C39.7303 6.736 39.6683 7.042 39.5523 7.286C39.4403 7.526 39.2603 7.706 39.0123 7.826C38.7683 7.942 38.4443 8 38.0403 8H36.6483ZM37.0983 7.49H38.0103C38.2863 7.49 38.5063 7.452 38.6703 7.376C38.8343 7.3 38.9523 7.178 39.0243 7.01C39.1003 6.842 39.1403 6.62 39.1443 6.344C39.1523 6.224 39.1563 6.12 39.1563 6.032C39.1563 5.94 39.1563 5.85 39.1563 5.762C39.1563 5.67 39.1523 5.566 39.1443 5.45C39.1363 5.062 39.0443 4.776 38.8683 4.592C38.6923 4.404 38.3963 4.31 37.9803 4.31H37.0983V7.49ZM40.785 8C40.741 8 40.707 7.988 40.683 7.964C40.659 7.936 40.647 7.902 40.647 7.862V3.944C40.647 3.9 40.659 3.866 40.683 3.842C40.707 3.814 40.741 3.8 40.785 3.8H41.085C41.129 3.8 41.163 3.814 41.187 3.842C41.215 3.866 41.229 3.9 41.229 3.944V5.432L42.831 3.896C42.847 3.88 42.873 3.86 42.909 3.836C42.949 3.812 43.001 3.8 43.065 3.8H43.389C43.421 3.8 43.449 3.812 43.473 3.836C43.497 3.86 43.509 3.888 43.509 3.92C43.509 3.952 43.501 3.978 43.485 3.998L41.631 5.81L43.605 7.796C43.625 7.82 43.635 7.848 43.635 7.88C43.635 7.912 43.623 7.94 43.599 7.964C43.575 7.988 43.547 8 43.515 8H43.179C43.111 8 43.059 7.988 43.023 7.964C42.987 7.936 42.961 7.916 42.945 7.904L41.229 6.212V7.862C41.229 7.902 41.215 7.936 41.187 7.964C41.163 7.988 41.129 8 41.085 8H40.785Z" fill="white"/>
<g clip-path="url(#clip0_34_211)">
<path d="M9.97169 2L9.90003 2.07167C9.17169 2.8 8.49003 4.13 8.01536 5.49433C7.66069 5.83567 6.80436 6.431 6.77836 6.678C6.74736 6.968 7.36036 7.54833 7.29503 7.75633C7.22903 7.96467 6.86036 8.22567 6.95703 8.40267C6.99036 8.46533 7.23136 8.40633 7.38269 8.239C7.36177 8.47625 7.35988 8.71479 7.37703 8.95233C7.40236 9.25433 7.46703 9.50833 7.59136 9.69633C7.71536 9.884 7.91003 10 8.14703 10C8.27936 10 8.38936 9.962 8.48836 9.912C8.58769 9.86233 8.67869 9.802 8.79169 9.74533C9.01836 9.632 9.33636 9.52333 9.96836 9.544C10.6027 9.56467 10.9257 9.674 11.1547 9.77867C11.3837 9.88333 11.538 10 11.7964 10C12.052 10 12.2614 9.888 12.3987 9.7C12.536 9.51233 12.609 9.25667 12.6387 8.95333C12.6587 8.74567 12.657 8.51333 12.6387 8.26467C12.79 8.41467 13.011 8.466 13.043 8.406C13.1397 8.22933 12.771 7.968 12.7054 7.76033C12.6394 7.55233 13.2527 6.97167 13.2217 6.68167C13.195 6.43233 12.3194 5.82567 11.9724 5.48633C11.476 4.12467 10.7694 2.798 10.0434 2.07167L9.97169 2ZM10.03 4.01267C10.29 4.01328 10.5391 4.11679 10.7229 4.30056C10.9067 4.48433 11.0103 4.7334 11.011 4.99333C11.0104 5.25332 10.9069 5.50248 10.723 5.68632C10.5392 5.87016 10.29 5.97372 10.03 5.97433C9.7701 5.97363 9.52102 5.87004 9.33725 5.68621C9.15348 5.50238 9.04998 5.25326 9.04936 4.99333C9.05006 4.73346 9.15361 4.48443 9.33737 4.30067C9.52113 4.11692 9.77015 4.01337 10.03 4.01267ZM8.89503 4.661C8.86304 4.76888 8.84676 4.88081 8.84669 4.99333C8.84669 5.64367 9.38003 6.17667 10.03 6.17667C10.68 6.17667 11.2134 5.644 11.2134 4.99333C11.2134 4.88367 11.198 4.77733 11.1694 4.67633C11.2807 4.708 11.3827 4.74567 11.4744 4.78833C11.7479 5.41872 11.9753 6.06809 12.155 6.73133C12.381 7.57967 12.4917 8.37133 12.437 8.93367C12.4097 9.215 12.3404 9.437 12.235 9.58033C12.13 9.724 11.9974 9.79733 11.7967 9.79733C11.599 9.79733 11.486 9.70733 11.239 9.594C10.992 9.48133 10.6307 9.36267 9.97503 9.34133C9.31703 9.32 8.95069 9.439 8.70136 9.56433C8.57636 9.627 8.48169 9.68867 8.39769 9.731C8.31369 9.77333 8.24236 9.79767 8.14703 9.79767C7.97036 9.79767 7.85503 9.728 7.76036 9.58433C7.66536 9.441 7.60236 9.21733 7.57869 8.935C7.53169 8.37067 7.63736 7.57867 7.85303 6.73033C8.02219 6.07338 8.23762 5.42922 8.49769 4.80267C8.61369 4.747 8.74736 4.69933 8.89503 4.661ZM7.76769 6.115C7.78287 6.11378 7.79804 6.11739 7.81103 6.12533C7.75569 6.312 7.70336 6.49733 7.65669 6.68033C7.58498 6.96177 7.52415 7.24587 7.47436 7.532C7.45459 7.48745 7.43233 7.44405 7.40769 7.402C7.21436 7.06467 7.10303 6.85467 7.02103 6.70867C7.12603 6.62867 7.58069 6.12367 7.76769 6.115ZM12.2324 6.11833C12.4197 6.12733 12.8744 6.63267 12.979 6.71267C12.897 6.85867 12.7857 7.06867 12.5924 7.406C12.5729 7.43961 12.5548 7.47397 12.538 7.509C12.4865 7.22998 12.424 6.95309 12.3507 6.679C12.301 6.49433 12.2475 6.31073 12.19 6.12833C12.2028 6.12072 12.2176 6.11722 12.2324 6.11833Z" fill="white"/>
</g>
<defs>
<clipPath id="clip0_34_211">
<rect width="8" height="8" fill="white" transform="translate(6 2)"/>
</clipPath>
</defs>
</svg>
