<svg width="45" height="12" viewBox="0 0 45 12" fill="none" xmlns="http://www.w3.org/2000/svg">
<rect width="45" height="12" rx="6" fill="#3776AB"/>
<g clip-path="url(#clip0_32_143)">
<path d="M10.75 2.06L11.05 2.12667L11.2933 2.21333L11.49 2.31333L11.64 2.42L11.7533 2.53333L11.8366 2.64667L11.89 2.75667L11.9233 2.85667L11.9366 2.94333L11.9433 3.01L11.94 3.05333V4.83333L11.9233 5.04333L11.88 5.22667L11.81 5.38L11.7233 5.50667L11.6233 5.61L11.5133 5.69333L11.3966 5.75667L11.28 5.80333L11.17 5.83667L11.07 5.86L10.9833 5.87333L10.9133 5.88H8.92331L8.69331 5.89667L8.49665 5.94333L8.32998 6.01667L8.19331 6.10667L8.08331 6.21333L7.99331 6.33L7.92665 6.45L7.87665 6.57333L7.84331 6.69L7.81998 6.79667L7.80665 6.88667L7.79998 6.95667V7.97667H7.05665L6.98665 7.96667L6.89331 7.94333L6.78665 7.90333L6.66998 7.84333L6.54998 7.75667L6.42998 7.63667L6.31331 7.48333L6.20665 7.28667L6.11331 7.04333L6.04331 6.75L5.99665 6.4L5.97998 5.99L5.99998 5.58333L6.05331 5.23667L6.13331 4.94667L6.23998 4.71L6.35998 4.52L6.49331 4.37333L6.63331 4.26333L6.77331 4.18333L6.90665 4.13L7.02665 4.09667L7.13331 4.08L7.21331 4.07667H7.26665L7.28665 4.08H10.0066V3.80333H8.05998L8.05665 2.88667L8.04998 2.76333L8.06665 2.65L8.10331 2.54667L8.15998 2.45333L8.24331 2.36667L8.34665 2.29L8.47331 2.22333L8.61998 2.16333L8.78998 2.11333L8.98331 2.07333L9.19665 2.04L9.43331 2.02L9.68998 2.00667L9.96998 2L10.3933 2.01667L10.75 2.06ZM8.64998 2.72L8.57331 2.83L8.54665 2.96667L8.57331 3.10333L8.64998 3.21667L8.75998 3.29L8.89665 3.32L9.03331 3.29L9.14331 3.21667L9.21998 3.10333L9.24665 2.96667L9.21998 2.83L9.14331 2.72L9.03331 2.64667L8.89665 2.61667L8.75998 2.64667L8.64998 2.72ZM13.0133 4.03667L13.1066 4.05667L13.2133 4.09667L13.33 4.15667L13.45 4.24667L13.57 4.36333L13.6866 4.52L13.7933 4.71667L13.8866 4.96L13.9566 5.25333L14.0033 5.6L14.02 6.01L14 6.42L13.9466 6.76667L13.8666 7.05333L13.76 7.29L13.64 7.48L13.5066 7.63L13.3666 7.74L13.2266 7.82L13.0933 7.87333L12.9733 7.90333L12.8666 7.92L12.7866 7.92667L12.7333 7.92333H9.99331V8.19667H11.94L11.9433 9.11667L11.95 9.23667L11.9333 9.35L11.8966 9.45333L11.84 9.55L11.7566 9.63333L11.6533 9.71333L11.5266 9.78L11.38 9.83667L11.21 9.88667L11.0166 9.93L10.8033 9.96L10.5666 9.98333L10.31 9.99667L10.03 10L9.60665 9.98667L9.24998 9.94L8.94998 9.87333L8.70665 9.79L8.50998 9.69L8.35998 9.58L8.24665 9.46667L8.16331 9.35333L8.10998 9.24333L8.07665 9.14333L8.06331 9.06L8.05665 8.99333L8.05998 8.95V7.17L8.07665 6.95667L8.11998 6.77667L8.18998 6.62333L8.27665 6.49667L8.37665 6.39L8.48665 6.31L8.60331 6.24333L8.71998 6.19667L8.82998 6.16333L8.92998 6.14333L9.01665 6.13L9.08665 6.12333L9.12998 6.12H11.0766L11.3066 6.10333L11.5033 6.05667L11.67 5.98667L11.8066 5.89333L11.9166 5.78667L12.0066 5.67L12.0733 5.55L12.1233 5.43L12.1566 5.31333L12.18 5.20667L12.1933 5.11333L12.2 5.04333V4.02333H12.8966L12.9433 4.02667L13.0133 4.03667ZM10.8566 8.78667L10.78 8.89667L10.7533 9.03333L10.78 9.17L10.8566 9.28L10.9666 9.35667L11.1033 9.38333L11.24 9.35667L11.35 9.28L11.4266 9.17L11.4533 9.03333L11.4266 8.89667L11.35 8.78667L11.24 8.71L11.1033 8.68333L10.9666 8.71L10.8566 8.78667Z" fill="white"/>
</g>
<path d="M15.66 8C15.616 8 15.582 7.988 15.558 7.964C15.534 7.936 15.522 7.902 15.522 7.862V3.944C15.522 3.9 15.534 3.866 15.558 3.842C15.582 3.814 15.616 3.8 15.66 3.8H17.184C17.48 3.8 17.736 3.848 17.952 3.944C18.172 4.04 18.342 4.184 18.462 4.376C18.582 4.564 18.642 4.8 18.642 5.084C18.642 5.368 18.582 5.604 18.462 5.792C18.342 5.98 18.172 6.122 17.952 6.218C17.736 6.314 17.48 6.362 17.184 6.362H16.122V7.862C16.122 7.902 16.108 7.936 16.08 7.964C16.056 7.988 16.022 8 15.978 8H15.66ZM16.116 5.858H17.154C17.45 5.858 17.672 5.792 17.82 5.66C17.968 5.528 18.042 5.336 18.042 5.084C18.042 4.836 17.97 4.644 17.826 4.508C17.682 4.372 17.458 4.304 17.154 4.304H16.116V5.858ZM20.5203 8C20.4803 8 20.4463 7.988 20.4183 7.964C20.3943 7.936 20.3823 7.902 20.3823 7.862V6.446L18.9363 3.998C18.9323 3.986 18.9283 3.974 18.9243 3.962C18.9203 3.95 18.9183 3.936 18.9183 3.92C18.9183 3.888 18.9303 3.86 18.9543 3.836C18.9783 3.812 19.0063 3.8 19.0383 3.8H19.3503C19.3863 3.8 19.4183 3.81 19.4463 3.83C19.4743 3.846 19.4943 3.87 19.5063 3.902L20.6763 5.846L21.8463 3.902C21.8663 3.87 21.8883 3.846 21.9123 3.83C21.9403 3.81 21.9723 3.8 22.0083 3.8H22.3143C22.3503 3.8 22.3803 3.812 22.4043 3.836C22.4283 3.86 22.4403 3.888 22.4403 3.92C22.4403 3.936 22.4383 3.95 22.4343 3.962C22.4303 3.974 22.4243 3.986 22.4163 3.998L20.9763 6.446V7.862C20.9763 7.902 20.9623 7.936 20.9343 7.964C20.9103 7.988 20.8763 8 20.8323 8H20.5203ZM24.201 8C24.161 8 24.127 7.988 24.099 7.964C24.075 7.936 24.063 7.902 24.063 7.862V4.334H22.911C22.871 4.334 22.837 4.322 22.809 4.298C22.785 4.27 22.773 4.236 22.773 4.196V3.944C22.773 3.9 22.785 3.866 22.809 3.842C22.837 3.814 22.871 3.8 22.911 3.8H25.803C25.847 3.8 25.881 3.814 25.905 3.842C25.933 3.866 25.947 3.9 25.947 3.944V4.196C25.947 4.236 25.933 4.27 25.905 4.298C25.881 4.322 25.847 4.334 25.803 4.334H24.657V7.862C24.657 7.902 24.643 7.936 24.615 7.964C24.591 7.988 24.557 8 24.513 8H24.201ZM26.7577 8C26.7137 8 26.6797 7.988 26.6557 7.964C26.6317 7.936 26.6197 7.902 26.6197 7.862V3.944C26.6197 3.9 26.6317 3.866 26.6557 3.842C26.6797 3.814 26.7137 3.8 26.7577 3.8H27.0637C27.1077 3.8 27.1417 3.814 27.1657 3.842C27.1937 3.866 27.2077 3.9 27.2077 3.944V5.6H29.2717V3.944C29.2717 3.9 29.2837 3.866 29.3077 3.842C29.3357 3.814 29.3697 3.8 29.4097 3.8H29.7157C29.7597 3.8 29.7937 3.814 29.8177 3.842C29.8457 3.866 29.8597 3.9 29.8597 3.944V7.862C29.8597 7.902 29.8457 7.936 29.8177 7.964C29.7937 7.988 29.7597 8 29.7157 8H29.4097C29.3697 8 29.3357 7.988 29.3077 7.964C29.2837 7.936 29.2717 7.902 29.2717 7.862V6.14H27.2077V7.862C27.2077 7.902 27.1937 7.936 27.1657 7.964C27.1417 7.988 27.1077 8 27.0637 8H26.7577ZM32.403 8.06C32.063 8.06 31.771 8.002 31.527 7.886C31.283 7.766 31.095 7.584 30.963 7.34C30.831 7.092 30.757 6.782 30.741 6.41C30.737 6.234 30.735 6.066 30.735 5.906C30.735 5.742 30.737 5.572 30.741 5.396C30.757 5.028 30.833 4.722 30.969 4.478C31.109 4.23 31.301 4.046 31.545 3.926C31.793 3.802 32.079 3.74 32.403 3.74C32.731 3.74 33.017 3.802 33.261 3.926C33.509 4.046 33.703 4.23 33.843 4.478C33.983 4.722 34.059 5.028 34.071 5.396C34.079 5.572 34.083 5.742 34.083 5.906C34.083 6.066 34.079 6.234 34.071 6.41C34.059 6.782 33.985 7.092 33.849 7.34C33.717 7.584 33.529 7.766 33.285 7.886C33.041 8.002 32.747 8.06 32.403 8.06ZM32.403 7.55C32.711 7.55 32.961 7.458 33.153 7.274C33.349 7.09 33.455 6.792 33.471 6.38C33.479 6.2 33.483 6.04 33.483 5.9C33.483 5.756 33.479 5.596 33.471 5.42C33.463 5.144 33.411 4.92 33.315 4.748C33.223 4.576 33.099 4.45 32.943 4.37C32.787 4.29 32.607 4.25 32.403 4.25C32.207 4.25 32.031 4.29 31.875 4.37C31.719 4.45 31.593 4.576 31.497 4.748C31.405 4.92 31.353 5.144 31.341 5.42C31.337 5.596 31.335 5.756 31.335 5.9C31.335 6.04 31.337 6.2 31.341 6.38C31.357 6.792 31.463 7.09 31.659 7.274C31.855 7.458 32.103 7.55 32.403 7.55ZM35.0955 8C35.0515 8 35.0175 7.988 34.9935 7.964C34.9695 7.936 34.9575 7.902 34.9575 7.862V3.944C34.9575 3.9 34.9695 3.866 34.9935 3.842C35.0175 3.814 35.0515 3.8 35.0955 3.8H35.3715C35.4195 3.8 35.4555 3.812 35.4795 3.836C35.5035 3.856 35.5175 3.872 35.5215 3.884L37.5135 6.944V3.944C37.5135 3.9 37.5255 3.866 37.5495 3.842C37.5735 3.814 37.6075 3.8 37.6515 3.8H37.9395C37.9835 3.8 38.0175 3.814 38.0415 3.842C38.0695 3.866 38.0835 3.9 38.0835 3.944V7.856C38.0835 7.896 38.0695 7.93 38.0415 7.958C38.0175 7.986 37.9855 8 37.9455 8H37.6575C37.6135 8 37.5795 7.988 37.5555 7.964C37.5355 7.94 37.5215 7.924 37.5135 7.916L35.5275 4.886V7.862C35.5275 7.902 35.5135 7.936 35.4855 7.964C35.4615 7.988 35.4275 8 35.3835 8H35.0955Z" fill="white"/>
<defs>
<clipPath id="clip0_32_143">
<rect width="8" height="8" fill="white" transform="translate(6 2)"/>
</clipPath>
</defs>
</svg>
