<svg width="37" height="12" viewBox="0 0 37 12" fill="none" xmlns="http://www.w3.org/2000/svg">
<rect width="37" height="12" rx="6" fill="black"/>
<g clip-path="url(#clip0_32_141)">
<path d="M13.9449 5.9011L13.6091 5.69323C13.6063 5.66058 13.6032 5.62795 13.5997 5.59537L13.8882 5.3264C13.9024 5.31289 13.913 5.296 13.9189 5.2773C13.9249 5.25859 13.926 5.23869 13.9221 5.21945C13.9183 5.20021 13.9096 5.18225 13.897 5.16726C13.8843 5.15227 13.8681 5.14074 13.8497 5.13373L13.4809 4.99573C13.4718 4.96383 13.4621 4.93209 13.4519 4.90053L13.682 4.58097C13.6935 4.565 13.7008 4.54635 13.7031 4.52678C13.7054 4.50721 13.7026 4.48739 13.6951 4.46919C13.6875 4.45099 13.6755 4.43503 13.66 4.42282C13.6445 4.41061 13.6262 4.40256 13.6068 4.39943L13.218 4.3363C13.2028 4.30692 13.1872 4.27778 13.1711 4.2489L13.3344 3.8902C13.3427 3.87231 13.3461 3.85261 13.3445 3.83299C13.3429 3.81336 13.3363 3.79448 13.3253 3.77817C13.3143 3.76182 13.2994 3.74853 13.2818 3.73955C13.2643 3.73057 13.2448 3.7262 13.2251 3.72683L12.8303 3.7407C12.81 3.71505 12.7892 3.68984 12.7678 3.6651L12.8586 3.28077C12.8631 3.2616 12.8626 3.24161 12.8572 3.22268C12.8518 3.20375 12.8417 3.18651 12.8278 3.17259C12.8138 3.15866 12.7966 3.14852 12.7777 3.14312C12.7588 3.13771 12.7388 3.13722 12.7196 3.1417L12.3352 3.2325C12.3101 3.21142 12.2848 3.19061 12.2593 3.17007L12.2731 2.77523C12.274 2.75548 12.2699 2.73582 12.261 2.71815C12.2521 2.70049 12.2387 2.68543 12.2223 2.67443C12.2059 2.66342 12.1869 2.65686 12.1672 2.65536C12.1474 2.65387 12.1277 2.6575 12.1098 2.6659L11.7511 2.82957C11.722 2.8137 11.693 2.79783 11.6637 2.78267L11.6002 2.39357C11.5969 2.37421 11.5888 2.35601 11.5765 2.34066C11.5643 2.32532 11.5484 2.31333 11.5302 2.30581C11.5121 2.2983 11.4923 2.2955 11.4728 2.29769C11.4533 2.29988 11.4347 2.30698 11.4187 2.31833L11.0988 2.5485C11.0672 2.53839 11.0355 2.52883 11.0036 2.51983L10.8656 2.15097C10.8586 2.13263 10.8471 2.11637 10.8321 2.1037C10.8171 2.09104 10.7991 2.08238 10.7799 2.07854C10.7606 2.07469 10.7407 2.07579 10.722 2.08173C10.7033 2.08767 10.6864 2.09826 10.6729 2.1125L10.4039 2.40137C10.3714 2.39769 10.3387 2.39454 10.3061 2.3919L10.0982 2.0561C10.0879 2.03935 10.0734 2.02552 10.0562 2.01594C10.039 2.00635 10.0197 2.00131 9.99999 2.00131C9.98031 2.00131 9.96096 2.00635 9.94377 2.01594C9.92658 2.02552 9.91213 2.03935 9.90179 2.0561L9.69393 2.39187C9.66127 2.39467 9.62865 2.39783 9.59606 2.40133L9.32676 2.11247C9.31334 2.09805 9.29646 2.08731 9.27772 2.08126C9.25898 2.07521 9.239 2.07406 9.21969 2.07792C9.20038 2.08177 9.18237 2.09051 9.16739 2.10329C9.15241 2.11607 9.14095 2.13247 9.13409 2.15093L8.99606 2.51977C8.96399 2.5289 8.93263 2.53867 8.90089 2.54843L8.58133 2.31833C8.56531 2.30698 8.54667 2.29988 8.52715 2.29769C8.50764 2.29551 8.48789 2.2983 8.46976 2.30582C8.45162 2.31334 8.43568 2.32534 8.42344 2.34069C8.4112 2.35604 8.40305 2.37424 8.39976 2.3936L8.33633 2.78267C8.30695 2.79784 8.27781 2.81347 8.24893 2.82957L7.89019 2.6659C7.87227 2.6577 7.85255 2.65423 7.83291 2.65581C7.81327 2.65739 7.79436 2.66398 7.77798 2.67494C7.76161 2.6859 7.74831 2.70087 7.73936 2.71843C7.73041 2.73599 7.72611 2.75554 7.72686 2.77523L7.74073 3.17007C7.71503 3.19041 7.68972 3.21122 7.66479 3.2325L7.28043 3.14167C7.26126 3.13719 7.24127 3.13767 7.22234 3.14307C7.20341 3.14847 7.18617 3.15861 7.17225 3.17253C7.15834 3.18645 7.1482 3.20368 7.1428 3.22261C7.1374 3.24154 7.13691 3.26153 7.14139 3.2807L7.23183 3.66507C7.21089 3.69007 7.18999 3.71537 7.16973 3.74067L6.77489 3.72683C6.7552 3.72608 6.73565 3.73039 6.71809 3.73933C6.70053 3.74828 6.68556 3.76158 6.6746 3.77796C6.66364 3.79433 6.65705 3.81324 6.65547 3.83288C6.65389 3.85253 6.65736 3.87225 6.66556 3.89017L6.82923 4.24887C6.81312 4.27774 6.79749 4.30688 6.78233 4.33627L6.39359 4.3994C6.37424 4.40269 6.35604 4.41084 6.3407 4.42308C6.32535 4.43532 6.31336 4.45125 6.30584 4.46938C6.29832 4.48752 6.29552 4.50726 6.29771 4.52677C6.29989 4.54628 6.30699 4.56491 6.31833 4.58093L6.54846 4.9005C6.53844 4.93211 6.52877 4.96384 6.51946 4.99567L6.15063 5.13367C6.13229 5.14067 6.11603 5.1522 6.10336 5.16719C6.09069 5.18218 6.08202 5.20014 6.07818 5.21939C6.07433 5.23863 6.07543 5.25854 6.08137 5.27725C6.0873 5.29596 6.09789 5.31286 6.11213 5.32637L6.40066 5.59537C6.397 5.62793 6.39385 5.66054 6.39123 5.6932L6.05546 5.90107C6.03855 5.91128 6.02457 5.92569 6.01487 5.94289C6.00516 5.96009 6.00006 5.97951 6.00006 5.99927C6.00006 6.01902 6.00516 6.03844 6.01487 6.05564C6.02457 6.07284 6.03855 6.08725 6.05546 6.09747L6.39123 6.30533C6.39389 6.33807 6.39729 6.3708 6.40066 6.4032L6.11213 6.6725C6.09771 6.68592 6.08697 6.7028 6.08093 6.72155C6.07488 6.74029 6.07373 6.76027 6.07759 6.77958C6.08145 6.79889 6.09019 6.8169 6.10297 6.83188C6.11576 6.84686 6.13216 6.85832 6.15063 6.86517L6.51946 7.0032C6.52856 7.03527 6.53836 7.067 6.54846 7.09837L6.31833 7.41793C6.30668 7.4339 6.29934 7.45259 6.29702 7.47222C6.29469 7.49184 6.29746 7.51174 6.30506 7.52998C6.31266 7.54822 6.32482 7.5642 6.34039 7.57638C6.35595 7.58856 6.37439 7.59652 6.39393 7.5995L6.78266 7.6626C6.79786 7.69193 6.81339 7.72097 6.82959 7.75L6.66593 8.10873C6.65773 8.12665 6.65425 8.14637 6.65584 8.16601C6.65742 8.18566 6.664 8.20457 6.67496 8.22094C6.68593 8.23732 6.7009 8.25061 6.71846 8.25956C6.73601 8.26851 6.75557 8.27282 6.77526 8.27207L7.16973 8.25823C7.19033 8.28387 7.21089 8.30917 7.23216 8.33413L7.14173 8.71883C7.13722 8.73799 7.13769 8.75798 7.14308 8.77691C7.14848 8.79583 7.15862 8.81306 7.17256 8.82696C7.18649 8.84086 7.20375 8.85097 7.22268 8.85632C7.24162 8.86167 7.26161 8.86209 7.28076 8.85753L7.66509 8.7671C7.69009 8.78837 7.71543 8.80893 7.74106 8.8292L7.72723 9.22403C7.72635 9.24376 7.73057 9.26338 7.73949 9.281C7.74842 9.29861 7.76173 9.31363 7.77816 9.32459C7.79458 9.33555 7.81356 9.34209 7.83325 9.34356C7.85294 9.34504 7.87268 9.34142 7.89056 9.33303L8.24926 9.1697C8.27826 9.1859 8.30729 9.2014 8.33666 9.2166L8.40009 9.60533C8.40334 9.62472 8.41145 9.64296 8.42368 9.65835C8.4359 9.67375 8.45183 9.68578 8.46997 9.69334C8.48812 9.70089 8.50788 9.70372 8.52742 9.70155C8.54695 9.69938 8.56562 9.69229 8.58166 9.68093L8.90123 9.4508C8.93279 9.46097 8.96452 9.47064 8.99639 9.4798L9.13439 9.84867C9.14117 9.8672 9.15259 9.88368 9.16758 9.89652C9.18256 9.90937 9.20059 9.91814 9.21994 9.92201C9.23929 9.92587 9.25931 9.92469 9.27808 9.91858C9.29684 9.91248 9.31372 9.90165 9.32709 9.88713L9.59639 9.5986C9.62879 9.6023 9.66153 9.60537 9.69426 9.6084L9.90213 9.94417C9.91252 9.96084 9.927 9.97459 9.94418 9.98412C9.96136 9.99365 9.98068 9.99865 10.0003 9.99865C10.02 9.99865 10.0393 9.99365 10.0565 9.98412C10.0737 9.97459 10.0881 9.96084 10.0985 9.94417L10.3064 9.6084C10.3391 9.60537 10.3719 9.6023 10.4043 9.5986L10.6732 9.88713C10.6867 9.90137 10.7036 9.91194 10.7223 9.91788C10.741 9.92381 10.7609 9.92491 10.7802 9.92107C10.7994 9.91723 10.8174 9.90857 10.8324 9.89591C10.8474 9.88325 10.8589 9.86699 10.8659 9.84867L11.0039 9.4798C11.0358 9.47069 11.0675 9.46102 11.0991 9.4508L11.4187 9.68093C11.4346 9.69258 11.4533 9.69992 11.4729 9.70224C11.4926 9.70457 11.5125 9.7018 11.5307 9.6942C11.549 9.6866 11.5649 9.67444 11.5771 9.65887C11.5893 9.64331 11.5972 9.62487 11.6002 9.60533L11.6637 9.2166C11.693 9.2014 11.722 9.18557 11.7511 9.1697L12.1098 9.33303C12.1277 9.34112 12.1474 9.34452 12.1669 9.34291C12.1865 9.3413 12.2054 9.33473 12.2217 9.32383C12.238 9.31293 12.2513 9.29805 12.2603 9.28059C12.2693 9.26313 12.2737 9.24367 12.2731 9.22403L12.2593 8.8292C12.2849 8.80905 12.3101 8.78835 12.3349 8.7671L12.7192 8.85753C12.7384 8.86199 12.7583 8.8615 12.7772 8.85612C12.7961 8.85073 12.8133 8.84063 12.8272 8.82676C12.8411 8.81289 12.8513 8.79571 12.8567 8.77683C12.8621 8.75796 12.8627 8.73801 12.8583 8.71887L12.7678 8.33413C12.7888 8.30917 12.8097 8.28387 12.8299 8.2582L13.2248 8.27203C13.2445 8.27297 13.2642 8.26879 13.2818 8.2599C13.2995 8.251 13.3146 8.23769 13.3256 8.22125C13.3366 8.20482 13.3431 8.18582 13.3446 8.1661C13.3461 8.14638 13.3425 8.1266 13.3341 8.1087L13.1708 7.75003C13.1866 7.72097 13.2025 7.69197 13.2177 7.6626L13.6064 7.5995C13.6257 7.59621 13.644 7.58806 13.6593 7.57582C13.6747 7.56358 13.6867 7.54764 13.6942 7.5295C13.7017 7.51137 13.7045 7.49162 13.7023 7.4721C13.7001 7.45259 13.693 7.43395 13.6817 7.41793L13.4515 7.09837L13.4805 7.0032L13.8494 6.8652C13.8679 6.85835 13.8843 6.84689 13.8971 6.8319C13.9098 6.81692 13.9186 6.79891 13.9224 6.77959C13.9263 6.76027 13.9251 6.74029 13.9191 6.72154C13.913 6.7028 13.9023 6.68591 13.8879 6.6725L13.5993 6.4032C13.6027 6.3708 13.6061 6.33807 13.6088 6.30533L13.9445 6.09747C13.9614 6.08725 13.9754 6.07284 13.9851 6.05564C13.9948 6.03844 13.9999 6.01902 13.9999 5.99927C13.9999 5.97951 13.9948 5.96009 13.9851 5.94289C13.9754 5.92569 13.9614 5.91128 13.9445 5.90107L13.9449 5.9011ZM11.6978 8.68613C11.6364 8.67264 11.5828 8.63539 11.5488 8.58252C11.5147 8.52965 11.503 8.46546 11.5162 8.40398C11.5293 8.34249 11.5663 8.28872 11.6189 8.25439C11.6716 8.22007 11.7357 8.20799 11.7973 8.2208C11.8283 8.22692 11.8577 8.23915 11.8839 8.25677C11.9102 8.27439 11.9326 8.29705 11.95 8.32343C11.9673 8.34981 11.9793 8.37939 11.9851 8.41043C11.9909 8.44147 11.9905 8.47336 11.9839 8.50424C11.9772 8.53512 11.9645 8.56437 11.9465 8.59029C11.9284 8.61621 11.9054 8.63827 11.8787 8.6552C11.8521 8.67213 11.8223 8.68359 11.7912 8.6889C11.76 8.69421 11.7282 8.69327 11.6974 8.68613H11.6978ZM11.5837 7.91473C11.5559 7.90874 11.5271 7.9083 11.4991 7.91344C11.4711 7.91858 11.4444 7.9292 11.4205 7.94468C11.3966 7.96016 11.376 7.98021 11.3599 8.00367C11.3438 8.02713 11.3324 8.05355 11.3265 8.0814L11.2074 8.63757C10.8396 8.80457 10.4313 8.8974 10.001 8.8974C9.57554 8.89801 9.15511 8.8054 8.76929 8.62607L8.65016 8.06993C8.64426 8.04209 8.63293 8.01569 8.6168 7.99225C8.60066 7.9688 8.58006 7.94878 8.55617 7.93332C8.53227 7.91786 8.50556 7.90728 8.47756 7.90218C8.44957 7.89708 8.42084 7.89756 8.39303 7.9036L7.90203 8.00887C7.81079 7.91492 7.72601 7.81491 7.64826 7.70953H10.0375C10.0645 7.70953 10.0827 7.70483 10.0827 7.6802V6.83487C10.0827 6.8102 10.0648 6.8055 10.0375 6.8055H9.33859V6.2696H10.0945C10.1633 6.2696 10.4633 6.28917 10.5592 6.67253C10.5892 6.7903 10.655 7.174 10.7002 7.29683C10.7451 7.4345 10.928 7.70953 11.1231 7.70953H12.3136C12.3281 7.70933 12.3425 7.70787 12.3568 7.70517C12.2742 7.81731 12.1838 7.92342 12.0862 8.0227L11.5837 7.91473ZM8.27896 8.67467C8.24819 8.6818 8.21632 8.68274 8.18518 8.67743C8.15405 8.67212 8.12428 8.66067 8.09762 8.64374C8.07096 8.62681 8.04793 8.60474 8.02988 8.57882C8.01184 8.55291 7.99913 8.52365 7.9925 8.49277C7.98587 8.4619 7.98545 8.43001 7.99127 8.39896C7.99709 8.36792 8.00903 8.33835 8.02639 8.31197C8.04376 8.28558 8.0662 8.26292 8.09241 8.2453C8.11862 8.22768 8.14808 8.21545 8.17906 8.20933C8.24032 8.19723 8.30389 8.20968 8.35605 8.24402C8.40821 8.27835 8.44479 8.33181 8.45789 8.39286C8.471 8.45392 8.45959 8.51768 8.42612 8.57039C8.39264 8.62311 8.33979 8.66056 8.27896 8.67467ZM7.37256 4.99907C7.38631 5.02776 7.39416 5.05892 7.39565 5.09071C7.39714 5.12249 7.39224 5.15425 7.38124 5.18411C7.37024 5.21397 7.35336 5.24132 7.3316 5.26453C7.30985 5.28775 7.28365 5.30637 7.25457 5.31928C7.22549 5.3322 7.19411 5.33915 7.1623 5.33972C7.13049 5.34029 7.09888 5.33448 7.06935 5.32262C7.03983 5.31076 7.01298 5.2931 6.9904 5.27068C6.96782 5.24826 6.94996 5.22154 6.93789 5.1921C6.91449 5.13483 6.91431 5.0707 6.9374 5.0133C6.96048 4.95591 7.00502 4.90976 7.06156 4.88466C7.11811 4.85955 7.18221 4.85746 7.24027 4.87882C7.29833 4.90019 7.34578 4.9433 7.37256 4.99907ZM7.09416 5.6595L7.60573 5.43203C7.63175 5.42048 7.65524 5.40391 7.67486 5.38327C7.69447 5.36263 7.70982 5.33833 7.72004 5.31175C7.73026 5.28517 7.73513 5.25684 7.73439 5.22838C7.73365 5.19991 7.72731 5.17188 7.71573 5.14587L7.61046 4.90763H8.02486V6.77513H7.18896C7.08588 6.41269 7.05381 6.03374 7.09449 5.65913L7.09416 5.6595ZM9.33893 5.47827V4.92787H10.3256C10.3766 4.92787 10.6854 4.98693 10.6854 5.21777C10.6854 5.40943 10.4485 5.47827 10.2538 5.47827H9.33893ZM12.9247 5.97367C12.9247 6.04657 12.9221 6.1191 12.9166 6.19067H12.6166C12.5866 6.19067 12.5745 6.2102 12.5745 6.2399V6.37757C12.5745 6.7019 12.3916 6.77243 12.2313 6.7903C12.0787 6.80753 11.9097 6.72653 11.8888 6.63307C11.7986 6.12687 11.6488 6.01853 11.4119 5.83193C11.7058 5.6453 12.0116 5.36993 12.0116 5.00143C12.0116 4.60357 11.7386 4.35283 11.5526 4.22967C11.2918 4.05757 11.0029 4.02317 10.925 4.02317H7.82273C8.25147 3.54376 8.82641 3.21921 9.45839 3.09987L9.82419 3.48353C9.84379 3.50415 9.86727 3.5207 9.89328 3.53222C9.91929 3.54374 9.94731 3.55001 9.97575 3.55067C10.0042 3.55133 10.0325 3.54637 10.059 3.53606C10.0855 3.52576 10.1097 3.51032 10.1303 3.49063L10.5393 3.0992C10.9563 3.17741 11.3513 3.34541 11.6969 3.59155C12.0425 3.83769 12.3305 4.15606 12.5407 4.5246L12.2606 5.15733C12.2374 5.20989 12.236 5.26949 12.2566 5.32312C12.2772 5.37674 12.3182 5.42002 12.3706 5.4435L12.9099 5.6831C12.9193 5.77893 12.9241 5.87543 12.9241 5.97367H12.9247ZM9.82453 2.7739C9.87013 2.7304 9.93114 2.7068 9.99414 2.70829C10.0253 2.70903 10.0561 2.7159 10.0846 2.72852C10.1132 2.74114 10.1389 2.75925 10.1605 2.78183C10.182 2.80441 10.1989 2.83101 10.2101 2.86011C10.2214 2.88921 10.2268 2.92025 10.2261 2.95144C10.2253 2.98264 10.2185 3.01338 10.2058 3.04192C10.1932 3.07046 10.1751 3.09623 10.1525 3.11777C10.1063 3.15766 10.0465 3.17826 9.98555 3.17531C9.92457 3.17235 9.86706 3.14606 9.82492 3.10189C9.78278 3.05771 9.75924 2.99902 9.75917 2.93797C9.75909 2.87692 9.7825 2.81818 9.82453 2.7739ZM12.6042 5.01057C12.6167 4.98203 12.6348 4.95626 12.6574 4.93473C12.68 4.9132 12.7066 4.89634 12.7357 4.88511C12.7647 4.87389 12.7958 4.86852 12.8269 4.86931C12.8581 4.8701 12.8888 4.87704 12.9173 4.88973C12.9604 4.90874 12.9969 4.94009 13.0221 4.97982C13.0473 5.01956 13.0602 5.06589 13.0591 5.11295C13.058 5.16001 13.043 5.20568 13.0159 5.24419C12.9888 5.2827 12.951 5.31232 12.907 5.32929C12.8631 5.34626 12.8152 5.34982 12.7693 5.33952C12.7233 5.32923 12.6815 5.30554 12.649 5.27145C12.6165 5.23736 12.5949 5.19441 12.5869 5.14803C12.5788 5.10165 12.5847 5.05393 12.6038 5.0109L12.6042 5.01057Z" fill="white"/>
</g>
<path d="M15.66 8C15.616 8 15.582 7.988 15.558 7.964C15.534 7.936 15.522 7.902 15.522 7.862V3.944C15.522 3.9 15.534 3.866 15.558 3.842C15.582 3.814 15.616 3.8 15.66 3.8H17.124C17.576 3.8 17.934 3.906 18.198 4.118C18.462 4.33 18.594 4.644 18.594 5.06C18.594 5.368 18.516 5.62 18.36 5.816C18.208 6.008 18 6.142 17.736 6.218L18.66 7.814C18.672 7.838 18.678 7.86 18.678 7.88C18.678 7.912 18.664 7.94 18.636 7.964C18.612 7.988 18.584 8 18.552 8H18.264C18.196 8 18.146 7.982 18.114 7.946C18.082 7.91 18.054 7.874 18.03 7.838L17.16 6.314H16.11V7.862C16.11 7.902 16.096 7.936 16.068 7.964C16.044 7.988 16.01 8 15.966 8H15.66ZM16.11 5.804H17.1C17.4 5.804 17.624 5.742 17.772 5.618C17.92 5.49 17.994 5.302 17.994 5.054C17.994 4.81 17.92 4.624 17.772 4.496C17.628 4.368 17.404 4.304 17.1 4.304H16.11V5.804ZM21.0376 8.06C20.7016 8.06 20.4116 8 20.1676 7.88C19.9276 7.76 19.7416 7.578 19.6096 7.334C19.4816 7.086 19.4176 6.768 19.4176 6.38V3.944C19.4176 3.9 19.4296 3.866 19.4536 3.842C19.4776 3.814 19.5116 3.8 19.5556 3.8H19.8616C19.9056 3.8 19.9396 3.814 19.9636 3.842C19.9916 3.866 20.0056 3.9 20.0056 3.944V6.392C20.0056 6.784 20.0976 7.074 20.2816 7.262C20.4656 7.45 20.7176 7.544 21.0376 7.544C21.3536 7.544 21.6036 7.45 21.7876 7.262C21.9756 7.074 22.0696 6.784 22.0696 6.392V3.944C22.0696 3.9 22.0816 3.866 22.1056 3.842C22.1336 3.814 22.1676 3.8 22.2076 3.8H22.5196C22.5596 3.8 22.5916 3.814 22.6156 3.842C22.6436 3.866 22.6576 3.9 22.6576 3.944V6.38C22.6576 6.768 22.5916 7.086 22.4596 7.334C22.3316 7.578 22.1476 7.76 21.9076 7.88C21.6676 8 21.3776 8.06 21.0376 8.06ZM25.0107 8.06C24.6627 8.06 24.3707 8.008 24.1347 7.904C23.8987 7.796 23.7167 7.658 23.5887 7.49C23.4647 7.318 23.3987 7.136 23.3907 6.944C23.3907 6.912 23.4027 6.884 23.4267 6.86C23.4547 6.832 23.4867 6.818 23.5227 6.818H23.8287C23.8767 6.818 23.9127 6.83 23.9367 6.854C23.9607 6.878 23.9767 6.906 23.9847 6.938C24.0047 7.034 24.0527 7.13 24.1287 7.226C24.2087 7.318 24.3187 7.396 24.4587 7.46C24.6027 7.52 24.7867 7.55 25.0107 7.55C25.3547 7.55 25.6067 7.49 25.7667 7.37C25.9307 7.246 26.0127 7.082 26.0127 6.878C26.0127 6.738 25.9687 6.626 25.8807 6.542C25.7967 6.454 25.6667 6.376 25.4907 6.308C25.3147 6.24 25.0867 6.166 24.8067 6.086C24.5147 6.002 24.2727 5.91 24.0807 5.81C23.8887 5.71 23.7447 5.586 23.6487 5.438C23.5567 5.29 23.5107 5.102 23.5107 4.874C23.5107 4.658 23.5687 4.466 23.6847 4.298C23.8007 4.126 23.9667 3.99 24.1827 3.89C24.4027 3.79 24.6687 3.74 24.9807 3.74C25.2287 3.74 25.4447 3.774 25.6287 3.842C25.8167 3.906 25.9727 3.994 26.0967 4.106C26.2207 4.214 26.3147 4.332 26.3787 4.46C26.4427 4.584 26.4767 4.706 26.4807 4.826C26.4807 4.854 26.4707 4.882 26.4507 4.91C26.4307 4.934 26.3987 4.946 26.3547 4.946H26.0367C26.0087 4.946 25.9787 4.938 25.9467 4.922C25.9187 4.906 25.8967 4.876 25.8807 4.832C25.8567 4.668 25.7647 4.53 25.6047 4.418C25.4447 4.306 25.2367 4.25 24.9807 4.25C24.7207 4.25 24.5087 4.3 24.3447 4.4C24.1847 4.5 24.1047 4.656 24.1047 4.868C24.1047 5.004 24.1427 5.118 24.2187 5.21C24.2947 5.298 24.4147 5.376 24.5787 5.444C24.7427 5.512 24.9567 5.584 25.2207 5.66C25.5407 5.748 25.8027 5.842 26.0067 5.942C26.2107 6.038 26.3607 6.16 26.4567 6.308C26.5567 6.452 26.6067 6.638 26.6067 6.866C26.6067 7.118 26.5407 7.334 26.4087 7.514C26.2767 7.69 26.0907 7.826 25.8507 7.922C25.6147 8.014 25.3347 8.06 25.0107 8.06ZM28.4022 8C28.3622 8 28.3282 7.988 28.3002 7.964C28.2762 7.936 28.2642 7.902 28.2642 7.862V4.334H27.1122C27.0722 4.334 27.0382 4.322 27.0102 4.298C26.9862 4.27 26.9742 4.236 26.9742 4.196V3.944C26.9742 3.9 26.9862 3.866 27.0102 3.842C27.0382 3.814 27.0722 3.8 27.1122 3.8H30.0042C30.0482 3.8 30.0822 3.814 30.1062 3.842C30.1342 3.866 30.1482 3.9 30.1482 3.944V4.196C30.1482 4.236 30.1342 4.27 30.1062 4.298C30.0822 4.322 30.0482 4.334 30.0042 4.334H28.8582V7.862C28.8582 7.902 28.8442 7.936 28.8162 7.964C28.7922 7.988 28.7582 8 28.7142 8H28.4022Z" fill="white"/>
<defs>
<clipPath id="clip0_32_141">
<rect width="8" height="8" fill="white" transform="translate(6 2)"/>
</clipPath>
</defs>
</svg>
