<svg width="33" height="12" viewBox="0 0 33 12" fill="none" xmlns="http://www.w3.org/2000/svg">
<rect width="33" height="12" rx="6" fill="#005FAD"/>
<g clip-path="url(#clip0_32_170)">
<path fill-rule="evenodd" clip-rule="evenodd" d="M13.4146 4.73496C13.431 4.59317 13.4421 4.41626 13.4979 4.29463C13.5398 4.42081 13.5539 4.58406 13.6403 4.67902C13.7522 4.65268 13.8764 4.65905 13.9915 4.68384C13.9226 4.77489 13.7723 4.83668 13.6826 4.89522C13.7905 4.98627 13.8432 5.09229 13.9024 5.21847C13.7457 5.21548 13.6026 5.07928 13.4816 5.00579C13.3775 5.12351 13.304 5.23798 13.1512 5.28026C13.2063 5.16253 13.3353 5.06107 13.3515 4.93879C13.2292 4.8932 13.0777 4.79571 12.9984 4.69684C13.1245 4.70439 13.2884 4.72052 13.4146 4.73528" fill="white"/>
<path fill-rule="evenodd" clip-rule="evenodd" d="M13.5447 5.63252C13.5567 5.52975 13.5647 5.40097 13.6051 5.31252C13.6356 5.40423 13.6458 5.5226 13.7085 5.59154C13.7891 5.57242 13.8802 5.57697 13.9634 5.59499C13.9133 5.66068 13.8047 5.70621 13.7397 5.74849C13.8184 5.81418 13.8568 5.89158 13.899 5.98328C13.7852 5.98107 13.6812 5.88182 13.5933 5.82914C13.5179 5.91434 13.4646 5.99759 13.3533 6.02816C13.3933 5.94296 13.4873 5.86881 13.4984 5.78036C13.4099 5.74732 13.3 5.67629 13.2421 5.60475C13.3332 5.61041 13.4529 5.62211 13.5439 5.63271" fill="white"/>
<path fill-rule="evenodd" clip-rule="evenodd" d="M13.1544 6.34146C13.1626 6.26992 13.1682 6.18146 13.1961 6.12032C13.2171 6.18367 13.2243 6.26536 13.2677 6.31284C13.3236 6.29964 13.386 6.30283 13.4439 6.31532C13.4092 6.36078 13.334 6.39206 13.2891 6.42133C13.3434 6.46692 13.3698 6.52019 13.3991 6.58328C13.3204 6.58192 13.2488 6.51369 13.1877 6.47662C13.1353 6.53561 13.0986 6.59304 13.0218 6.6145C13.0495 6.55558 13.1142 6.50458 13.122 6.44345C13.0608 6.42055 12.9847 6.3719 12.9451 6.32182C13.0082 6.32572 13.0908 6.33379 13.1538 6.3412" fill="white"/>
<path fill-rule="evenodd" clip-rule="evenodd" d="M7.32031 6.29593C7.25534 6.29593 6.52031 7.01138 6.44877 7.09593C6.38906 7.16227 6.35641 7.28455 6.25365 7.29821C6.14438 7.31291 6.11966 7.27044 6.06698 7.18829C6.01722 7.11024 5.95706 6.97171 6.04402 6.91512C6.12792 6.8612 7.16922 5.90699 7.20174 5.86797C7.2422 5.82692 7.19771 5.72488 7.1784 5.57073C7.15355 5.37301 7.14093 5.19154 7.15615 4.99577C7.1717 4.79479 7.21983 4.54699 7.27192 4.35187C7.30399 4.23284 7.28545 3.9974 7.45144 3.99024C7.48532 3.99824 7.74087 4.17496 7.67192 4.4078C7.57241 4.74146 7.4768 5.11675 7.50607 5.47447C7.51173 5.54341 7.5395 5.60325 7.58347 5.57138C8.05501 5.23447 8.79322 4.86894 8.98184 4.8039C9.0729 4.77489 9.16591 4.75226 9.26022 4.74042C9.32786 4.74842 9.37924 4.81197 9.43257 4.85684C9.69989 5.08579 9.18087 5.89749 9.13664 6.14465C9.1782 6.14465 9.22314 6.08169 9.30249 6.01001C9.38705 5.93327 9.51843 5.81229 9.61534 5.71863C9.76363 5.60741 9.89306 5.5053 10.081 5.48123C10.5331 5.42387 10.3978 6.0744 10.2957 6.30725C10.354 6.30725 10.4966 6.14335 10.6105 6.03538C10.6679 5.98094 10.7314 5.92351 10.7893 5.87018C10.8583 5.80683 10.8901 5.77392 10.9422 5.79928C10.977 5.8093 11.1282 5.90075 11.1366 6.04058C11.1437 6.15375 11.0973 6.26497 11.0745 6.37359C11.0556 6.46465 11.0603 6.76058 11.1831 6.76123C11.2316 6.72624 11.295 6.71122 11.3529 6.70159C11.4459 6.68585 11.4414 6.71603 11.5181 6.74465C11.6384 6.78933 11.5299 6.95993 11.4666 7.02302C11.3814 7.10758 11.2598 7.16351 11.1381 7.16156C11.0042 7.15928 10.8988 7.07701 10.8383 6.96123C10.8053 6.89769 10.7628 6.66335 10.7466 6.59375C10.7302 6.52546 10.7444 6.44351 10.6718 6.5131C10.4669 6.71018 10.2555 6.89359 10.0474 7.08806C9.81781 7.30205 9.59862 7.00806 9.64025 6.76806C9.68129 6.53327 9.88415 6.24644 9.92057 6.01359C9.82366 6.01359 9.66041 6.1827 9.59862 6.25229C9.49846 6.36546 9.38724 6.49099 9.27407 6.61001C9.16025 6.72969 9.06269 6.83961 8.94822 6.95863C8.86561 7.04449 8.77131 7.16676 8.63212 7.17457C8.56383 7.16377 8.45456 7.04969 8.4357 6.90465C8.42035 6.78367 8.45098 6.65034 8.49735 6.53912C8.63134 6.21717 8.99882 5.53749 9.08467 5.19928C8.90841 5.21626 8.16109 5.56156 7.66679 5.97327C7.5237 6.09099 7.65579 6.30693 7.71563 6.45066C7.7797 6.60416 7.96864 6.88188 8.02522 6.92936C8.17352 7.05229 8.05508 7.16091 7.90815 7.1531C7.84578 7.10894 7.77026 7.0614 7.71173 7.00286C7.64812 6.93938 7.59335 6.86692 7.54327 6.79278C7.44181 6.64253 7.3449 6.46888 7.31888 6.28676" fill="white"/>
<path fill-rule="evenodd" clip-rule="evenodd" d="M12.6342 4.36943C12.5921 4.21398 12.3974 4.45138 12.2999 4.57691C12.0299 4.92422 11.7841 5.63057 11.7444 5.76065C11.6234 6.16 11.5766 6.6517 11.8381 7.00292C11.9903 7.2078 12.2582 7.22341 12.521 7.14796C12.6563 7.109 12.7922 7.01203 12.8384 6.90601C12.8766 6.81821 12.8965 6.65431 12.7031 6.77918C12.6283 6.82757 12.4911 6.88065 12.2452 6.87674C12.1626 6.87538 12.0273 6.75707 11.9909 6.63479C11.9269 6.43577 11.9542 6.16975 11.9542 6.16975C12.0101 5.82634 12.1694 5.45431 12.3093 5.14211C12.3636 5.02179 12.5291 4.7213 12.5909 4.62569C12.5909 4.62569 12.6703 4.50081 12.6347 4.36813L12.6342 4.36943Z" fill="white"/>
</g>
<path d="M15.27 8C15.238 8 15.208 7.988 15.18 7.964C15.156 7.94 15.144 7.912 15.144 7.88C15.144 7.864 15.146 7.85 15.15 7.838C15.158 7.822 15.164 7.81 15.168 7.802L16.542 5.864L15.234 3.998C15.222 3.974 15.216 3.948 15.216 3.92C15.216 3.888 15.228 3.86 15.252 3.836C15.276 3.812 15.304 3.8 15.336 3.8H15.696C15.736 3.8 15.768 3.81 15.792 3.83C15.816 3.846 15.838 3.87 15.858 3.902L16.914 5.402L17.964 3.902C17.98 3.87 18 3.846 18.024 3.83C18.052 3.81 18.084 3.8 18.12 3.8H18.462C18.494 3.8 18.522 3.812 18.546 3.836C18.57 3.86 18.582 3.888 18.582 3.92C18.582 3.948 18.574 3.974 18.558 3.998L17.268 5.87L18.636 7.802C18.644 7.81 18.65 7.822 18.654 7.838C18.658 7.85 18.66 7.864 18.66 7.88C18.66 7.912 18.648 7.94 18.624 7.964C18.6 7.988 18.57 8 18.534 8H18.168C18.132 8 18.1 7.99 18.072 7.97C18.048 7.95 18.026 7.928 18.006 7.904L16.89 6.344L15.78 7.904C15.76 7.928 15.738 7.95 15.714 7.97C15.69 7.99 15.658 8 15.618 8H15.27ZM19.4569 8C19.4169 8 19.3829 7.988 19.3549 7.964C19.3309 7.936 19.3189 7.902 19.3189 7.862V3.944C19.3189 3.9 19.3309 3.866 19.3549 3.842C19.3829 3.814 19.4169 3.8 19.4569 3.8H19.7569C19.8049 3.8 19.8409 3.812 19.8649 3.836C19.8889 3.86 19.9029 3.88 19.9069 3.896L21.1789 6.32L22.4569 3.896C22.4649 3.88 22.4789 3.86 22.4989 3.836C22.5229 3.812 22.5589 3.8 22.6069 3.8H22.9009C22.9449 3.8 22.9789 3.814 23.0029 3.842C23.0309 3.866 23.0449 3.9 23.0449 3.944V7.862C23.0449 7.902 23.0309 7.936 23.0029 7.964C22.9789 7.988 22.9449 8 22.9009 8H22.6069C22.5669 8 22.5329 7.988 22.5049 7.964C22.4809 7.936 22.4689 7.902 22.4689 7.862V4.91L21.4669 6.866C21.4509 6.906 21.4269 6.938 21.3949 6.962C21.3629 6.982 21.3229 6.992 21.2749 6.992H21.0889C21.0369 6.992 20.9949 6.982 20.9629 6.962C20.9349 6.938 20.9109 6.906 20.8909 6.866L19.8889 4.91V7.862C19.8889 7.902 19.8749 7.936 19.8469 7.964C19.8229 7.988 19.7909 8 19.7509 8H19.4569ZM24.2205 8C24.1765 8 24.1425 7.988 24.1185 7.964C24.0945 7.936 24.0825 7.902 24.0825 7.862V3.938C24.0825 3.898 24.0945 3.866 24.1185 3.842C24.1425 3.814 24.1765 3.8 24.2205 3.8H24.5385C24.5785 3.8 24.6105 3.814 24.6345 3.842C24.6585 3.866 24.6705 3.898 24.6705 3.938V7.478H26.6685C26.7125 7.478 26.7465 7.492 26.7705 7.52C26.7945 7.544 26.8065 7.578 26.8065 7.622V7.862C26.8065 7.902 26.7945 7.936 26.7705 7.964C26.7465 7.988 26.7125 8 26.6685 8H24.2205Z" fill="white"/>
<defs>
<clipPath id="clip0_32_170">
<rect width="8" height="3.30406" fill="white" transform="translate(6 4)"/>
</clipPath>
</defs>
</svg>
