<svg width="49" height="12" viewBox="0 0 49 12" fill="none" xmlns="http://www.w3.org/2000/svg">
<rect width="49" height="12" rx="6" fill="#003545"/>
<path d="M15.66 8C15.62 8 15.586 7.988 15.558 7.964C15.534 7.936 15.522 7.902 15.522 7.862V3.944C15.522 3.9 15.534 3.866 15.558 3.842C15.586 3.814 15.62 3.8 15.66 3.8H15.96C16.008 3.8 16.044 3.812 16.068 3.836C16.092 3.86 16.106 3.88 16.11 3.896L17.382 6.32L18.66 3.896C18.668 3.88 18.682 3.86 18.702 3.836C18.726 3.812 18.762 3.8 18.81 3.8H19.104C19.148 3.8 19.182 3.814 19.206 3.842C19.234 3.866 19.248 3.9 19.248 3.944V7.862C19.248 7.902 19.234 7.936 19.206 7.964C19.182 7.988 19.148 8 19.104 8H18.81C18.77 8 18.736 7.988 18.708 7.964C18.684 7.936 18.672 7.902 18.672 7.862V4.91L17.67 6.866C17.654 6.906 17.63 6.938 17.598 6.962C17.566 6.982 17.526 6.992 17.478 6.992H17.292C17.24 6.992 17.198 6.982 17.166 6.962C17.138 6.938 17.114 6.906 17.094 6.866L16.092 4.91V7.862C16.092 7.902 16.078 7.936 16.05 7.964C16.026 7.988 15.994 8 15.954 8H15.66ZM20.0037 8C19.9717 8 19.9437 7.988 19.9197 7.964C19.8957 7.94 19.8837 7.912 19.8837 7.88C19.8837 7.86 19.8857 7.838 19.8897 7.814L21.3777 3.932C21.3937 3.892 21.4157 3.86 21.4437 3.836C21.4717 3.812 21.5137 3.8 21.5697 3.8H21.9777C22.0297 3.8 22.0697 3.812 22.0977 3.836C22.1297 3.86 22.1537 3.892 22.1697 3.932L23.6517 7.814C23.6597 7.838 23.6637 7.86 23.6637 7.88C23.6637 7.912 23.6517 7.94 23.6277 7.964C23.6037 7.988 23.5757 8 23.5437 8H23.2377C23.1897 8 23.1537 7.988 23.1297 7.964C23.1097 7.94 23.0957 7.918 23.0877 7.898L22.7577 7.046H20.7897L20.4597 7.898C20.4557 7.918 20.4417 7.94 20.4177 7.964C20.3937 7.988 20.3577 8 20.3097 8H20.0037ZM20.9637 6.53H22.5837L21.7737 4.4L20.9637 6.53ZM24.4432 8C24.3992 8 24.3652 7.988 24.3412 7.964C24.3172 7.936 24.3052 7.902 24.3052 7.862V3.944C24.3052 3.9 24.3172 3.866 24.3412 3.842C24.3652 3.814 24.3992 3.8 24.4432 3.8H25.9072C26.3592 3.8 26.7172 3.906 26.9812 4.118C27.2452 4.33 27.3772 4.644 27.3772 5.06C27.3772 5.368 27.2992 5.62 27.1432 5.816C26.9912 6.008 26.7832 6.142 26.5192 6.218L27.4432 7.814C27.4552 7.838 27.4612 7.86 27.4612 7.88C27.4612 7.912 27.4472 7.94 27.4192 7.964C27.3952 7.988 27.3672 8 27.3352 8H27.0472C26.9792 8 26.9292 7.982 26.8972 7.946C26.8652 7.91 26.8372 7.874 26.8132 7.838L25.9432 6.314H24.8932V7.862C24.8932 7.902 24.8792 7.936 24.8512 7.964C24.8272 7.988 24.7932 8 24.7492 8H24.4432ZM24.8932 5.804H25.8832C26.1832 5.804 26.4072 5.742 26.5552 5.618C26.7032 5.49 26.7772 5.302 26.7772 5.054C26.7772 4.81 26.7032 4.624 26.5552 4.496C26.4112 4.368 26.1872 4.304 25.8832 4.304H24.8932V5.804ZM28.3748 8C28.3308 8 28.2968 7.988 28.2728 7.964C28.2488 7.936 28.2368 7.902 28.2368 7.862V3.938C28.2368 3.898 28.2488 3.866 28.2728 3.842C28.2968 3.814 28.3308 3.8 28.3748 3.8H28.6928C28.7328 3.8 28.7648 3.814 28.7888 3.842C28.8168 3.866 28.8308 3.898 28.8308 3.938V7.862C28.8308 7.902 28.8168 7.936 28.7888 7.964C28.7648 7.988 28.7328 8 28.6928 8H28.3748ZM29.5955 8C29.5635 8 29.5355 7.988 29.5115 7.964C29.4875 7.94 29.4755 7.912 29.4755 7.88C29.4755 7.86 29.4775 7.838 29.4815 7.814L30.9695 3.932C30.9855 3.892 31.0075 3.86 31.0355 3.836C31.0635 3.812 31.1055 3.8 31.1615 3.8H31.5695C31.6215 3.8 31.6615 3.812 31.6895 3.836C31.7215 3.86 31.7455 3.892 31.7615 3.932L33.2435 7.814C33.2515 7.838 33.2555 7.86 33.2555 7.88C33.2555 7.912 33.2435 7.94 33.2195 7.964C33.1955 7.988 33.1675 8 33.1355 8H32.8295C32.7815 8 32.7455 7.988 32.7215 7.964C32.7015 7.94 32.6875 7.918 32.6795 7.898L32.3495 7.046H30.3815L30.0515 7.898C30.0475 7.918 30.0335 7.94 30.0095 7.964C29.9855 7.988 29.9495 8 29.9015 8H29.5955ZM30.5555 6.53H32.1755L31.3655 4.4L30.5555 6.53ZM35.3475 8C35.3035 8 35.2695 7.988 35.2455 7.964C35.2215 7.936 35.2095 7.902 35.2095 7.862V3.944C35.2095 3.9 35.2215 3.866 35.2455 3.842C35.2695 3.814 35.3035 3.8 35.3475 3.8H36.7095C37.1215 3.8 37.4535 3.862 37.7055 3.986C37.9575 4.11 38.1415 4.294 38.2575 4.538C38.3735 4.778 38.4335 5.074 38.4375 5.426C38.4415 5.606 38.4435 5.764 38.4435 5.9C38.4435 6.036 38.4415 6.192 38.4375 6.368C38.4295 6.736 38.3675 7.042 38.2515 7.286C38.1395 7.526 37.9595 7.706 37.7115 7.826C37.4675 7.942 37.1435 8 36.7395 8H35.3475ZM35.7975 7.49H36.7095C36.9855 7.49 37.2055 7.452 37.3695 7.376C37.5335 7.3 37.6515 7.178 37.7235 7.01C37.7995 6.842 37.8395 6.62 37.8435 6.344C37.8515 6.224 37.8555 6.12 37.8555 6.032C37.8555 5.94 37.8555 5.85 37.8555 5.762C37.8555 5.67 37.8515 5.566 37.8435 5.45C37.8355 5.062 37.7435 4.776 37.5675 4.592C37.3915 4.404 37.0955 4.31 36.6795 4.31H35.7975V7.49ZM39.4842 8C39.4402 8 39.4062 7.988 39.3822 7.964C39.3582 7.936 39.3462 7.902 39.3462 7.862V3.944C39.3462 3.9 39.3582 3.866 39.3822 3.842C39.4062 3.814 39.4402 3.8 39.4842 3.8H41.1282C41.4282 3.8 41.6722 3.85 41.8602 3.95C42.0522 4.046 42.1922 4.178 42.2802 4.346C42.3722 4.514 42.4182 4.702 42.4182 4.91C42.4182 5.074 42.3902 5.216 42.3342 5.336C42.2822 5.452 42.2162 5.548 42.1362 5.624C42.0562 5.696 41.9782 5.752 41.9022 5.792C42.0582 5.868 42.1962 5.992 42.3162 6.164C42.4402 6.336 42.5022 6.544 42.5022 6.788C42.5022 7.008 42.4522 7.21 42.3522 7.394C42.2522 7.578 42.1022 7.726 41.9022 7.838C41.7062 7.946 41.4622 8 41.1702 8H39.4842ZM39.9342 7.514H41.0922C41.3522 7.514 41.5522 7.444 41.6922 7.304C41.8322 7.164 41.9022 6.992 41.9022 6.788C41.9022 6.576 41.8322 6.402 41.6922 6.266C41.5522 6.126 41.3522 6.056 41.0922 6.056H39.9342V7.514ZM39.9342 5.576H41.0382C41.2942 5.576 41.4882 5.518 41.6202 5.402C41.7522 5.282 41.8182 5.12 41.8182 4.916C41.8182 4.712 41.7522 4.556 41.6202 4.448C41.4882 4.34 41.2942 4.286 41.0382 4.286H39.9342V5.576Z" fill="white"/>
<path d="M13.719 3.47067C13.4937 3.56534 13.4557 3.574 13.1613 3.59467C12.9447 3.60967 12.909 3.61367 12.7573 3.66434C12.5073 3.74634 12.2923 3.91434 12.084 4.19434C11.9853 4.327 11.6677 4.832 11.6677 4.857C11.6677 4.876 11.451 5.18967 11.3627 5.297C11.1713 5.53467 11.0027 5.65667 10.6493 5.827C10.3927 5.947 10.2413 6.00167 9.282 6.31934C8.92433 6.437 8.571 6.56534 8.493 6.60734C8.209 6.757 7.988 6.95267 7.75867 7.25334C7.42433 7.69334 7.43467 7.691 6.74467 7.569C6.66987 7.55993 6.59485 7.55293 6.51967 7.548C6.305 7.53134 6.17867 7.56267 6.07567 7.65934L6 7.731L6.059 7.76034C6.09033 7.777 6.17667 7.83834 6.246 7.893C6.31767 7.94967 6.39967 8.00867 6.42933 8.02334C6.45867 8.038 6.486 8.05267 6.49033 8.057C6.49433 8.06134 6.46067 8.11367 6.41433 8.17467C6.26933 8.36834 6.21667 8.465 6.223 8.524C6.22933 8.57867 6.23367 8.58067 6.36633 8.58067C6.53867 8.57867 6.64167 8.562 6.78667 8.51134C7.00333 8.43367 7.47267 8.198 7.71467 8.04467C7.97333 7.878 8.287 7.712 8.36667 7.69734C8.394 7.69067 8.48467 7.674 8.56467 7.65934C8.758 7.62367 9.05267 7.62767 9.427 7.676C9.463 7.68034 9.55133 7.691 9.627 7.69734C9.70267 7.70567 9.77033 7.71634 9.77833 7.72267C9.787 7.72667 9.93633 7.735 10.111 7.74134C10.4223 7.75 10.479 7.74367 10.5443 7.67834C10.5863 7.634 10.6727 7.468 10.7103 7.35C10.78 7.13567 10.8493 7.043 10.8323 7.186C10.7947 7.508 10.725 7.75 10.5947 7.98967C10.5083 8.156 10.3737 8.35367 10.2833 8.45467C10.176 8.57034 10.1783 8.57467 10.3127 8.55967C10.519 8.53867 10.803 8.42734 11.0113 8.28634C11.287 8.099 11.5603 7.72267 11.7413 7.27634C11.777 7.18634 11.8147 7.203 11.8023 7.304C11.798 7.33534 11.7897 7.409 11.7833 7.47L11.773 7.57934L11.8907 7.512C12.1683 7.352 12.362 7.09134 12.5997 6.55067C12.6753 6.378 12.892 5.57667 12.9573 5.22534C12.981 5.10797 13.0111 4.99201 13.0477 4.878C13.09 4.735 13.113 4.693 13.2077 4.592C13.2687 4.52867 13.416 4.407 13.5337 4.32267C13.7737 4.15434 13.8513 4.07267 13.9293 3.921C13.9987 3.782 14.024 3.54434 13.9733 3.46867C13.9293 3.40134 13.8787 3.40334 13.719 3.47067Z" fill="white"/>
</svg>
