<svg width="44" height="12" viewBox="0 0 44 12" fill="none" xmlns="http://www.w3.org/2000/svg">
<rect width="43" height="12" rx="6" fill="#4479A1"/>
<path d="M11.4683 3.83367C11.43 3.83367 11.404 3.83834 11.377 3.84467V3.849H11.3817C11.3997 3.88367 11.4303 3.909 11.453 3.94C11.471 3.97567 11.4863 4.01134 11.5043 4.04667L11.509 4.04167C11.5403 4.01967 11.5557 3.98434 11.5557 3.93067C11.5423 3.915 11.5403 3.89934 11.529 3.884C11.5157 3.86167 11.487 3.85067 11.469 3.833L11.4683 3.83367ZM7.92333 8.23167H7.61433C7.60564 7.7406 7.57562 7.25013 7.52433 6.76167H7.52167L7.05167 8.23167H6.81667L6.35 6.76167H6.34667C6.31016 7.2509 6.28849 7.74112 6.28167 8.23167H6C6.01833 7.57633 6.064 6.96167 6.13667 6.38833H6.52L6.965 7.743H6.96767L7.41667 6.38833H7.78167C7.86233 7.06 7.90967 7.675 7.92433 8.23167H7.92333ZM9.26233 6.87167C9.13633 7.55333 8.97033 8.04934 8.765 8.35834C8.60433 8.597 8.42833 8.716 8.23733 8.716C8.18633 8.716 8.124 8.70067 8.04867 8.67V8.50534C8.08533 8.511 8.12867 8.514 8.17733 8.514C8.26667 8.514 8.33833 8.489 8.393 8.44C8.45867 8.38 8.49133 8.31267 8.49133 8.23834C8.49133 8.18667 8.46567 8.08167 8.41467 7.92367L8.07667 6.87167H8.38L8.62233 7.65834C8.677 7.837 8.7 7.96167 8.69067 8.03267C8.824 7.678 8.91667 7.29033 8.969 6.87167H9.26233ZM13.3707 8.23167H12.494V6.38833H12.789V8.005H13.3707V8.23167ZM12.264 8.27667L11.9253 8.11C11.9553 8.08467 11.9843 8.05733 12.0103 8.02667C12.1547 7.858 12.2263 7.60734 12.2263 7.27567C12.2263 6.66567 11.987 6.36034 11.508 6.36034C11.2733 6.36034 11.09 6.43767 10.958 6.59267C10.8147 6.762 10.7427 7.01134 10.7427 7.341C10.7427 7.665 10.806 7.903 10.934 8.05434C11.0507 8.191 11.2263 8.25934 11.4617 8.25934C11.5497 8.25934 11.6303 8.24833 11.7033 8.22667L12.145 8.484L12.265 8.27667H12.264ZM11.1667 7.86267C11.0917 7.74267 11.0543 7.54934 11.0543 7.284C11.0543 6.81967 11.1957 6.58734 11.4777 6.58734C11.6253 6.58734 11.7343 6.643 11.8033 6.754C11.878 6.87467 11.9153 7.066 11.9153 7.32833C11.9153 7.79633 11.774 8.031 11.492 8.031C11.3437 8.031 11.2353 7.97534 11.166 7.86434L11.1667 7.86267ZM10.614 7.721C10.614 7.87767 10.5567 8.00634 10.442 8.10634C10.3273 8.20634 10.1743 8.25633 9.98067 8.25633C9.79967 8.25633 9.626 8.199 9.45633 8.08467L9.53533 7.926C9.68133 7.99933 9.813 8.03534 9.932 8.03534C10.0427 8.03534 10.1297 8.011 10.193 7.962C10.2247 7.93814 10.2502 7.90713 10.2676 7.8715C10.285 7.83587 10.2937 7.79664 10.293 7.757C10.293 7.647 10.2163 7.55367 10.077 7.47534C9.94767 7.40434 9.68933 7.25634 9.68933 7.25634C9.54867 7.154 9.47867 7.04434 9.47867 6.864C9.47867 6.714 9.531 6.594 9.63533 6.50234C9.74033 6.40967 9.87533 6.364 10.042 6.364C10.2127 6.364 10.3687 6.40933 10.5087 6.50067L10.4377 6.65933C10.3258 6.61019 10.2052 6.58412 10.083 6.58267C9.98867 6.58267 9.91567 6.60534 9.865 6.65134C9.83929 6.67263 9.81856 6.69931 9.80428 6.72949C9.79 6.75967 9.7825 6.79261 9.78233 6.826C9.78233 6.93533 9.86033 7.02934 10.0043 7.10933C10.1353 7.181 10.4 7.33267 10.4 7.33267C10.5443 7.43434 10.616 7.54267 10.616 7.722L10.614 7.721ZM13.7413 5.77034C13.563 5.76567 13.4247 5.78367 13.309 5.833C13.2757 5.84634 13.2223 5.84634 13.2177 5.88867C13.236 5.90634 13.2387 5.93534 13.2543 5.96C13.281 6.00467 13.327 6.06433 13.3697 6.09567C13.4163 6.13233 13.463 6.16767 13.512 6.199C13.5987 6.25234 13.697 6.284 13.782 6.33767C13.8303 6.369 13.8797 6.40867 13.9287 6.442C13.953 6.45867 13.9687 6.48867 14 6.49934V6.49267C13.9847 6.47267 13.98 6.44367 13.965 6.42133C13.9427 6.399 13.9203 6.379 13.8983 6.357C13.8329 6.27076 13.7548 6.1949 13.6667 6.132C13.5953 6.08334 13.4393 6.01534 13.41 5.93367L13.4057 5.929C13.4543 5.92467 13.5123 5.907 13.559 5.89367C13.6347 5.87367 13.704 5.878 13.7823 5.85834C13.8177 5.84934 13.8533 5.83834 13.889 5.827V5.807C13.849 5.767 13.819 5.71267 13.7777 5.67534C13.6623 5.57449 13.5393 5.48277 13.4097 5.401C13.3397 5.35634 13.251 5.32767 13.1773 5.28967C13.1507 5.27634 13.106 5.26967 13.0907 5.24734C13.0507 5.19867 13.0273 5.134 12.999 5.076C12.9335 4.94903 12.8727 4.81972 12.8167 4.68834C12.7767 4.601 12.7523 4.514 12.7033 4.434C12.4733 4.055 12.2243 3.82534 11.8413 3.60067C11.759 3.554 11.6603 3.534 11.556 3.50934C11.5003 3.50667 11.4447 3.50267 11.3893 3.50034C11.3527 3.48467 11.3173 3.44234 11.286 3.422C11.1593 3.342 10.8313 3.16867 10.738 3.398C10.678 3.54267 10.827 3.68534 10.8787 3.75867C10.917 3.80967 10.9653 3.868 10.992 3.92534C11.0077 3.964 11.012 4.00367 11.0277 4.044C11.063 4.142 11.0967 4.25134 11.1433 4.343C11.1677 4.38967 11.1943 4.43867 11.2257 4.48067C11.2437 4.505 11.2743 4.51634 11.2813 4.55634C11.25 4.60167 11.248 4.66767 11.23 4.723C11.15 4.97534 11.1813 5.28734 11.2947 5.473C11.3303 5.52834 11.4153 5.651 11.529 5.604C11.629 5.564 11.607 5.43734 11.6357 5.32567C11.6423 5.299 11.638 5.28134 11.6517 5.26334V5.26834C11.683 5.331 11.7143 5.39067 11.743 5.45334C11.8117 5.56267 11.9317 5.676 12.032 5.75167C12.0853 5.79167 12.1277 5.861 12.1943 5.88567V5.879H12.1893C12.175 5.85967 12.156 5.85034 12.138 5.83467C12.0957 5.79329 12.0567 5.74872 12.0213 5.70134C11.9274 5.57301 11.8441 5.43722 11.7723 5.29534C11.7357 5.22534 11.705 5.15 11.6757 5.081C11.6623 5.05434 11.6623 5.01434 11.64 5.001C11.6067 5.04967 11.5577 5.092 11.5333 5.152C11.491 5.248 11.4867 5.366 11.4707 5.48867C11.4617 5.491 11.466 5.48867 11.4617 5.49334C11.3903 5.476 11.366 5.402 11.3393 5.34C11.2727 5.18167 11.2617 4.92734 11.3193 4.745C11.335 4.69834 11.4017 4.551 11.375 4.50634C11.361 4.464 11.317 4.43967 11.2927 4.40534C11.2614 4.36065 11.2346 4.31297 11.2127 4.263C11.1593 4.13834 11.1327 4.00034 11.0747 3.87567C11.048 3.818 11.0013 3.75767 10.9633 3.70467C10.921 3.64467 10.8743 3.60234 10.8407 3.53134C10.8297 3.507 10.814 3.46667 10.8317 3.44C10.8363 3.422 10.8457 3.415 10.863 3.41C10.8923 3.386 10.9747 3.41734 11.0037 3.43067C11.086 3.464 11.1553 3.49534 11.2243 3.542C11.2557 3.564 11.2893 3.60634 11.3293 3.61734H11.376C11.4473 3.633 11.5277 3.622 11.5943 3.64167C11.7127 3.67967 11.8193 3.735 11.915 3.795C12.2098 3.98331 12.4495 4.24619 12.61 4.557C12.6367 4.60834 12.6483 4.65534 12.6727 4.70867C12.7193 4.81867 12.777 4.92967 12.8243 5.036C12.871 5.141 12.916 5.248 12.983 5.335C13.0163 5.38167 13.1503 5.406 13.2103 5.43034C13.2547 5.45034 13.3237 5.46867 13.3637 5.493C13.4403 5.53967 13.515 5.593 13.587 5.64434C13.6237 5.66967 13.7347 5.72534 13.7413 5.77034Z" fill="white"/>
<path d="M15.66 8C15.62 8 15.586 7.988 15.558 7.964C15.534 7.936 15.522 7.902 15.522 7.862V3.944C15.522 3.9 15.534 3.866 15.558 3.842C15.586 3.814 15.62 3.8 15.66 3.8H15.96C16.008 3.8 16.044 3.812 16.068 3.836C16.092 3.86 16.106 3.88 16.11 3.896L17.382 6.32L18.66 3.896C18.668 3.88 18.682 3.86 18.702 3.836C18.726 3.812 18.762 3.8 18.81 3.8H19.104C19.148 3.8 19.182 3.814 19.206 3.842C19.234 3.866 19.248 3.9 19.248 3.944V7.862C19.248 7.902 19.234 7.936 19.206 7.964C19.182 7.988 19.148 8 19.104 8H18.81C18.77 8 18.736 7.988 18.708 7.964C18.684 7.936 18.672 7.902 18.672 7.862V4.91L17.67 6.866C17.654 6.906 17.63 6.938 17.598 6.962C17.566 6.982 17.526 6.992 17.478 6.992H17.292C17.24 6.992 17.198 6.982 17.166 6.962C17.138 6.938 17.114 6.906 17.094 6.866L16.092 4.91V7.862C16.092 7.902 16.078 7.936 16.05 7.964C16.026 7.988 15.994 8 15.954 8H15.66ZM21.5457 8C21.5057 8 21.4717 7.988 21.4437 7.964C21.4197 7.936 21.4077 7.902 21.4077 7.862V6.446L19.9617 3.998C19.9577 3.986 19.9537 3.974 19.9497 3.962C19.9457 3.95 19.9437 3.936 19.9437 3.92C19.9437 3.888 19.9557 3.86 19.9797 3.836C20.0037 3.812 20.0317 3.8 20.0637 3.8H20.3757C20.4117 3.8 20.4437 3.81 20.4717 3.83C20.4997 3.846 20.5197 3.87 20.5317 3.902L21.7017 5.846L22.8717 3.902C22.8917 3.87 22.9137 3.846 22.9377 3.83C22.9657 3.81 22.9977 3.8 23.0337 3.8H23.3397C23.3757 3.8 23.4057 3.812 23.4297 3.836C23.4537 3.86 23.4657 3.888 23.4657 3.92C23.4657 3.936 23.4637 3.95 23.4597 3.962C23.4557 3.974 23.4497 3.986 23.4417 3.998L22.0017 6.446V7.862C22.0017 7.902 21.9877 7.936 21.9597 7.964C21.9357 7.988 21.9017 8 21.8577 8H21.5457ZM26.8154 8.06C26.4674 8.06 26.1754 8.008 25.9394 7.904C25.7034 7.796 25.5214 7.658 25.3934 7.49C25.2694 7.318 25.2034 7.136 25.1954 6.944C25.1954 6.912 25.2074 6.884 25.2314 6.86C25.2594 6.832 25.2914 6.818 25.3274 6.818H25.6334C25.6814 6.818 25.7174 6.83 25.7414 6.854C25.7654 6.878 25.7814 6.906 25.7894 6.938C25.8094 7.034 25.8574 7.13 25.9334 7.226C26.0134 7.318 26.1234 7.396 26.2634 7.46C26.4074 7.52 26.5914 7.55 26.8154 7.55C27.1594 7.55 27.4114 7.49 27.5714 7.37C27.7354 7.246 27.8174 7.082 27.8174 6.878C27.8174 6.738 27.7734 6.626 27.6854 6.542C27.6014 6.454 27.4714 6.376 27.2954 6.308C27.1194 6.24 26.8914 6.166 26.6114 6.086C26.3194 6.002 26.0774 5.91 25.8854 5.81C25.6934 5.71 25.5494 5.586 25.4534 5.438C25.3614 5.29 25.3154 5.102 25.3154 4.874C25.3154 4.658 25.3734 4.466 25.4894 4.298C25.6054 4.126 25.7714 3.99 25.9874 3.89C26.2074 3.79 26.4734 3.74 26.7854 3.74C27.0334 3.74 27.2494 3.774 27.4334 3.842C27.6214 3.906 27.7774 3.994 27.9014 4.106C28.0254 4.214 28.1194 4.332 28.1834 4.46C28.2474 4.584 28.2814 4.706 28.2854 4.826C28.2854 4.854 28.2754 4.882 28.2554 4.91C28.2354 4.934 28.2034 4.946 28.1594 4.946H27.8414C27.8134 4.946 27.7834 4.938 27.7514 4.922C27.7234 4.906 27.7014 4.876 27.6854 4.832C27.6614 4.668 27.5694 4.53 27.4094 4.418C27.2494 4.306 27.0414 4.25 26.7854 4.25C26.5254 4.25 26.3134 4.3 26.1494 4.4C25.9894 4.5 25.9094 4.656 25.9094 4.868C25.9094 5.004 25.9474 5.118 26.0234 5.21C26.0994 5.298 26.2194 5.376 26.3834 5.444C26.5474 5.512 26.7614 5.584 27.0254 5.66C27.3454 5.748 27.6074 5.842 27.8114 5.942C28.0154 6.038 28.1654 6.16 28.2614 6.308C28.3614 6.452 28.4114 6.638 28.4114 6.866C28.4114 7.118 28.3454 7.334 28.2134 7.514C28.0814 7.69 27.8954 7.826 27.6554 7.922C27.4194 8.014 27.1394 8.06 26.8154 8.06ZM31.9038 8.39C31.8518 8.39 31.8098 8.372 31.7778 8.336C31.7458 8.304 31.7198 8.276 31.6998 8.252L31.4538 7.916C31.2378 8.012 30.9878 8.06 30.7038 8.06C30.3598 8.06 30.0658 8.002 29.8218 7.886C29.5818 7.766 29.3938 7.584 29.2578 7.34C29.1258 7.092 29.0538 6.782 29.0418 6.41C29.0378 6.234 29.0358 6.066 29.0358 5.906C29.0358 5.742 29.0378 5.572 29.0418 5.396C29.0538 5.028 29.1298 4.722 29.2698 4.478C29.4098 4.23 29.6018 4.046 29.8458 3.926C30.0938 3.802 30.3798 3.74 30.7038 3.74C31.0318 3.74 31.3178 3.802 31.5618 3.926C31.8098 4.046 32.0038 4.23 32.1438 4.478C32.2838 4.722 32.3578 5.028 32.3658 5.396C32.3738 5.572 32.3778 5.742 32.3778 5.906C32.3778 6.066 32.3738 6.234 32.3658 6.41C32.3458 6.962 32.2018 7.372 31.9338 7.64L32.3298 8.204C32.3338 8.208 32.3378 8.214 32.3418 8.222C32.3458 8.234 32.3478 8.25 32.3478 8.27C32.3518 8.302 32.3418 8.33 32.3178 8.354C32.2938 8.378 32.2638 8.39 32.2278 8.39H31.9038ZM30.7038 7.55C31.0078 7.55 31.2578 7.458 31.4538 7.274C31.6498 7.09 31.7558 6.792 31.7718 6.38C31.7798 6.2 31.7838 6.04 31.7838 5.9C31.7838 5.756 31.7798 5.596 31.7718 5.42C31.7638 5.144 31.7118 4.92 31.6158 4.748C31.5238 4.576 31.3998 4.45 31.2438 4.37C31.0878 4.29 30.9078 4.25 30.7038 4.25C30.5078 4.25 30.3298 4.29 30.1698 4.37C30.0138 4.45 29.8898 4.576 29.7978 4.748C29.7058 4.92 29.6538 5.144 29.6418 5.42C29.6378 5.596 29.6358 5.756 29.6358 5.9C29.6358 6.04 29.6378 6.2 29.6418 6.38C29.6578 6.792 29.7638 7.09 29.9598 7.274C30.1558 7.458 30.4038 7.55 30.7038 7.55ZM33.3963 8C33.3523 8 33.3183 7.988 33.2943 7.964C33.2703 7.936 33.2583 7.902 33.2583 7.862V3.938C33.2583 3.898 33.2703 3.866 33.2943 3.842C33.3183 3.814 33.3523 3.8 33.3963 3.8H33.7143C33.7543 3.8 33.7863 3.814 33.8103 3.842C33.8343 3.866 33.8463 3.898 33.8463 3.938V7.478H35.8443C35.8883 7.478 35.9223 7.492 35.9463 7.52C35.9703 7.544 35.9823 7.578 35.9823 7.622V7.862C35.9823 7.902 35.9703 7.936 35.9463 7.964C35.9223 7.988 35.8883 8 35.8443 8H33.3963Z" fill="white"/>
</svg>
