<svg width="8" height="6" viewBox="0 0 8 6" fill="none" xmlns="http://www.w3.org/2000/svg">
<path d="M8 0.819004V5.45534C8 5.75667 7.756 6.00067 7.45467 6.00067H6.18167V2.91L4 4.54667L1.81833 2.91V6.001H0.545333C0.473691 6.001 0.402751 5.98689 0.336566 5.95946C0.270382 5.93204 0.21025 5.89184 0.159607 5.84116C0.108963 5.79049 0.0688014 5.73033 0.0414154 5.66413C0.0140295 5.59793 -4.36892e-05 5.52698 1.01884e-07 5.45534V0.819004C1.01884e-07 0.144671 0.769667 -0.240329 1.309 0.164338L1.81833 0.546671L4 2.18267L6.18167 0.546004L6.691 0.164338C7.23 -0.239996 8 0.144671 8 0.819004Z" fill="white"/>
</svg>
