<svg width="8" height="8" viewBox="0 0 8 8" fill="none" xmlns="http://www.w3.org/2000/svg">
<g clip-path="url(#clip0_10_431)">
<path d="M6.81567 6.81733H5.631V4.961C5.631 4.51833 5.622 3.94867 5.01367 3.94867C4.396 3.94867 4.30167 4.43033 4.30167 4.92833V6.81733H3.117V3H4.255V3.52033H4.27033C4.42933 3.22033 4.816 2.90367 5.39367 2.90367C6.594 2.90367 6.816 3.69367 6.816 4.722L6.81567 6.81733ZM1.779 2.47767C1.39767 2.47767 1.09133 2.169 1.09133 1.78933C1.09133 1.41 1.398 1.10167 1.779 1.10167C2.159 1.10167 2.467 1.41 2.467 1.78933C2.467 2.169 2.15867 2.47767 1.779 2.47767ZM2.373 6.81733H1.185V3H2.373V6.81733ZM7.40833 0H0.590333C0.264 0 0 0.258 0 0.576333V7.42367C0 7.74233 0.264 8 0.590333 8H7.40733C7.73333 8 8 7.74233 8 7.42367V0.576333C8 0.258 7.73333 0 7.40733 0H7.40833Z" fill="white"/>
</g>
<defs>
<clipPath id="clip0_10_431">
<rect width="8" height="8" fill="white"/>
</clipPath>
</defs>
</svg>
