<svg width="8" height="8" viewBox="0 0 8 8" fill="none" xmlns="http://www.w3.org/2000/svg">
<g clip-path="url(#clip0_29_241)">
<path d="M2.62667 4.01333C2.62667 4.11333 2.61444 4.21 2.59 4.30333C2.56778 4.39444 2.53111 4.47667 2.48 4.55C2.43111 4.62333 2.36667 4.68111 2.28667 4.72333C2.20444 4.76778 2.10778 4.79 1.99667 4.79C1.88556 4.79 1.79111 4.76778 1.71333 4.72333C1.63556 4.67667 1.57222 4.61556 1.52333 4.54C1.47444 4.46667 1.43778 4.38333 1.41333 4.29C1.39111 4.19667 1.38 4.10111 1.38 4.00333C1.38 3.90556 1.39111 3.80889 1.41333 3.71333C1.43556 3.61778 1.47333 3.53333 1.52667 3.46C1.57556 3.38444 1.64111 3.32444 1.72333 3.28C1.80333 3.23556 1.9 3.21333 2.01333 3.21333C2.12667 3.21333 2.22222 3.23556 2.3 3.28C2.37778 3.32667 2.44111 3.38778 2.49 3.46333C2.53889 3.53889 2.57333 3.62444 2.59333 3.72C2.61556 3.81556 2.62667 3.91333 2.62667 4.01333ZM8 4V7.12667C8 7.22889 7.96333 7.31778 7.89 7.39333C7.81667 7.46444 7.72778 7.5 7.62333 7.5H2.37667C2.27444 7.5 2.18556 7.46333 2.11 7.39C2.03889 7.31667 2.00333 7.22778 2.00333 7.12333V6H0.333333C0.242222 6 0.164444 5.96667 0.1 5.9C0.0333333 5.83556 0 5.75778 0 5.66667V2.33333C0 2.24222 0.0333333 2.16444 0.1 2.1C0.162222 2.03333 0.24 2 0.333333 2H2.5V0.85C2.5 0.752222 2.53333 0.668889 2.6 0.6C2.66667 0.533333 2.75 0.5 2.85 0.5H7.15C7.24778 0.5 7.33111 0.533333 7.4 0.6C7.46667 0.666667 7.5 0.75 7.5 0.85V3.61667L7.91333 3.85667H7.91667C7.93889 3.87222 7.95889 3.89222 7.97667 3.91667C7.99222 3.94333 8 3.97111 8 4ZM6 1.25V2.25H7V1.25H6ZM6 2.75V3.75H7V2.75H6ZM6 4.25V4.86L7.01667 4.25H6ZM4.25 1.25V2.25H5.5V1.25H4.25ZM4.25 2.75V3.75H5.5V2.75H4.25ZM4.25 4.25V4.92667L5.05333 5.42667L5.5 5.16V4.25H4.25ZM3 1.25V2H3.66667L3.71 2.00333L3.75 2.01667V1.25H3ZM1.99333 5.32667C2.19333 5.32667 2.37111 5.29333 2.52667 5.22667C2.68222 5.15556 2.81444 5.06 2.92333 4.94C3.03 4.81778 3.11111 4.67556 3.16667 4.51333C3.22222 4.34889 3.25 4.17 3.25 3.97667C3.25 3.79222 3.22222 3.62 3.16667 3.46C3.11333 3.30222 3.03444 3.16444 2.93 3.04667C2.82556 2.92889 2.69778 2.83667 2.54667 2.77C2.39556 2.70333 2.22333 2.67 2.03 2.67C1.82556 2.67 1.64333 2.70333 1.48333 2.77C1.32556 2.83667 1.19222 2.93111 1.08333 3.05333C0.972222 3.17333 0.888889 3.31778 0.833333 3.48667C0.777778 3.65111 0.75 3.83222 0.75 4.03C0.75 4.21889 0.778889 4.39222 0.836667 4.55C0.894444 4.71 0.976667 4.84667 1.08333 4.96C1.19 5.07556 1.32 5.16556 1.47333 5.23C1.62667 5.29667 1.8 5.33 1.99333 5.33V5.32667ZM2.5 7H6.63L4 5.36V5.66667C4 5.75778 3.96667 5.83556 3.9 5.9C3.83556 5.96667 3.75778 6 3.66667 6H2.5V7ZM7.5 6.95667V4.54333L5.53333 5.72333L7.5 6.95667Z" fill="white"/>
</g>
<defs>
<clipPath id="clip0_29_241">
<rect width="8" height="8" fill="white"/>
</clipPath>
</defs>
</svg>
